<svg width="512" height="512" viewBox="0 0 512 512" fill="none" xmlns="http://www.w3.org/2000/svg">
    <g clip-path="url(#clip0_6007_2793)">
        <path d="M255.997 511.998C397.381 511.998 511.996 397.383 511.996 255.999C511.996 114.615 397.381 0 255.997 0C114.613 0 -0.00195312 114.615 -0.00195312 255.999C-0.00195312 397.383 114.613 511.998 255.997 511.998Z" fill="#474F59"/>
        <path d="M255.997 386.478C328.059 386.478 386.476 328.061 386.476 255.999C386.476 183.937 328.059 125.52 255.997 125.52C183.936 125.52 125.518 183.937 125.518 255.999C125.518 328.061 183.936 386.478 255.997 386.478Z" fill="#92DEEB"/>
        <path d="M325.773 145.775C338.586 165.954 346.032 189.88 346.032 215.552C346.032 287.612 287.614 346.032 215.552 346.032C189.879 346.032 165.951 338.59 145.781 325.78C168.91 362.251 209.609 386.477 255.999 386.477C328.056 386.477 386.475 328.063 386.475 256.001C386.477 209.613 362.244 168.911 325.773 145.775Z" fill="#76D0DE"/>
        <path d="M308.015 324.225C308.014 322.255 307.315 320.449 306.153 319.041C307.314 320.449 308.012 322.254 308.012 324.222C308.012 328.711 304.369 332.361 299.87 332.361H273.692C282.665 327.886 291.061 322.423 298.723 316.079H234.185C229.686 316.079 226.039 319.726 226.039 324.225C226.039 328.711 229.686 332.364 234.185 332.364H299.873C304.368 332.364 308.015 328.714 308.015 324.225Z" fill="white"/>
        <path d="M250.966 283.509C246.454 283.509 242.814 287.159 242.814 291.658C242.814 296.15 246.454 299.797 250.966 299.797H256.833C261.319 299.797 264.975 303.444 264.975 307.936C264.975 312.432 261.322 316.078 256.833 316.078H293.644C289.152 316.078 285.505 312.431 285.505 307.936C285.505 303.444 289.152 299.797 293.644 299.797H315.155C319.486 294.684 323.436 289.25 326.951 283.509H250.966Z" fill="white"/>
        <path d="M324.772 250.957H213.518C209.019 250.957 205.379 254.597 205.379 259.099C205.379 263.585 209.019 267.238 213.518 267.238H251.032C255.487 267.274 259.096 270.9 259.096 275.374C259.096 279.876 255.453 283.51 250.967 283.51H324.774C320.285 283.51 316.635 279.88 316.635 275.374C316.635 270.9 320.247 267.274 324.709 267.238H324.774C329.263 267.238 332.916 263.588 332.916 259.099C332.915 254.593 329.265 250.957 324.772 250.957Z" fill="white"/>
        <path d="M361.488 191.846C361.462 191.888 361.436 191.93 361.411 191.973C361.436 191.93 361.462 191.888 361.488 191.846Z" fill="white"/>
        <path d="M360.603 193.805C360.563 193.94 360.53 194.078 360.497 194.216C360.53 194.078 360.562 193.94 360.603 193.805Z" fill="white"/>
        <path d="M361.148 192.447C361.108 192.525 361.072 192.604 361.034 192.683C361.071 192.603 361.108 192.524 361.148 192.447Z" fill="white"/>
        <path d="M360.303 195.322C360.277 195.585 360.262 195.852 360.262 196.123C360.262 195.853 360.277 195.586 360.303 195.322Z" fill="white"/>
        <path d="M360.849 193.102C360.806 193.21 360.768 193.32 360.729 193.43C360.767 193.32 360.806 193.21 360.849 193.102Z" fill="white"/>
        <path d="M360.418 194.547C360.385 194.714 360.363 194.884 360.34 195.054C360.363 194.884 360.385 194.714 360.418 194.547Z" fill="white"/>
        <path d="M338.438 171.702H308.943C304.451 171.702 300.797 175.339 300.797 179.838C300.797 184.327 304.447 187.98 308.943 187.98H318.01C322.499 187.98 326.146 191.623 326.146 196.122C326.146 200.617 322.5 204.257 318.011 204.258H288.971C284.469 204.258 280.842 207.901 280.842 212.4C280.842 216.896 284.469 220.542 288.971 220.542H345.899C345.962 218.877 346.031 217.226 346.031 215.551C346.032 200.163 343.333 185.407 338.438 171.702Z" fill="white"/>
        <path d="M381.598 220.544C380.023 214.953 378.08 209.518 375.806 204.259H375.741C378.014 209.521 379.979 214.952 381.541 220.544H381.598Z" fill="white"/>
        <path d="M367.314 188.062C367.344 188.058 367.373 188.052 367.403 188.048C363.882 182.289 359.924 176.827 355.581 171.702H355.523C359.872 176.817 363.8 182.298 367.314 188.062Z" fill="white"/>
        <path d="M168.729 337.338H178.503C182.985 337.338 186.649 333.688 186.649 329.199C186.649 324.703 182.986 321.047 178.503 321.047H175.606C171.107 321.047 167.464 317.413 167.464 312.914C167.464 308.444 171.073 304.807 175.541 304.771H200.582C205.084 304.771 208.738 301.128 208.738 296.632C208.735 292.13 205.085 288.49 200.582 288.49H129.602C134.24 306.588 142.669 323.166 153.983 337.338H154.069C151.116 333.638 148.328 329.793 145.781 325.78C152.969 330.352 160.663 334.223 168.729 337.338Z" fill="white"/>
        <path d="M137.278 201.815H215.9C220.406 201.815 224.046 198.168 224.046 193.673C224.046 189.177 220.403 185.534 215.9 185.534H190.911C186.419 185.534 182.772 181.891 182.772 177.392C182.772 172.893 186.422 169.256 190.911 169.256H257.729C262.235 169.256 265.871 165.599 265.871 161.117C265.871 156.615 262.231 152.971 257.729 152.971H175.945C159.425 165.824 146.079 182.562 137.278 201.815Z" fill="white"/>
        <path d="M269.189 351.899H344.443C337.771 358.059 330.464 363.516 322.619 368.194H322.631C330.477 363.524 337.791 358.056 344.462 351.899H269.189Z" fill="white"/>
        <path d="M177.261 241.955C181.757 241.955 185.407 238.308 185.407 233.806C185.407 229.314 181.757 225.67 177.261 225.67H129.074C127.81 230.98 126.869 236.415 126.276 241.955H177.261Z" fill="white"/>
        <path d="M324.429 324.224C324.429 328.436 327.625 331.907 331.743 332.324C327.625 331.907 324.429 328.433 324.429 324.224Z" fill="white"/>
        <path d="M327.39 317.936C327.792 317.604 328.227 317.31 328.689 317.059C328.227 317.309 327.792 317.604 327.39 317.936Z" fill="white"/>
        <path d="M324.794 321.801C324.952 321.291 325.159 320.802 325.41 320.34C325.16 320.801 324.953 321.29 324.794 321.801Z" fill="white"/>
        <path d="M329.401 316.716C329.889 316.51 330.401 316.35 330.932 316.241C330.401 316.349 329.889 316.509 329.401 316.716Z" fill="white"/>
        <path d="M253.589 193.672C253.589 189.176 249.955 185.53 245.443 185.53C240.954 185.53 237.304 189.177 237.304 193.672C237.304 198.168 240.957 201.814 245.443 201.814C249.955 201.815 253.589 198.168 253.589 193.672Z" fill="white"/>
        <path d="M269.189 351.899C264.697 351.899 261.043 355.549 261.043 360.045C261.043 364.541 264.693 368.194 269.189 368.194H322.619C330.464 363.517 337.771 358.06 344.443 351.899H269.189Z" fill="#E6E5E5"/>
        <path d="M355.522 171.702H338.438C343.333 185.407 346.032 200.163 346.032 215.552C346.032 217.227 345.963 218.878 345.9 220.543H381.542C379.98 214.951 378.014 209.52 375.742 204.258H368.402C366.442 204.258 364.639 203.561 363.231 202.401C361.421 200.909 360.262 198.651 360.262 196.122C360.262 195.851 360.277 195.585 360.303 195.321C360.312 195.231 360.329 195.143 360.341 195.053C360.363 194.883 360.386 194.712 360.419 194.546C360.441 194.434 360.471 194.325 360.497 194.215C360.53 194.077 360.563 193.939 360.603 193.804C360.641 193.677 360.685 193.553 360.729 193.429C360.768 193.319 360.806 193.209 360.849 193.101C360.906 192.959 360.969 192.819 361.034 192.681C361.071 192.602 361.108 192.523 361.148 192.445C361.23 192.284 361.318 192.126 361.41 191.971C361.436 191.929 361.461 191.886 361.487 191.844C362.746 189.831 364.866 188.413 367.331 188.088C367.325 188.079 367.319 188.07 367.313 188.06C363.8 182.298 359.872 176.817 355.522 171.702Z" fill="#E6E5E5"/>
        <path d="M145.782 325.78C148.329 329.793 151.117 333.638 154.07 337.338H168.73C160.663 334.223 152.969 330.352 145.782 325.78Z" fill="#E6E5E5"/>
        <path d="M299.869 332.36C304.368 332.36 308.011 328.71 308.011 324.221C308.011 322.253 307.313 320.448 306.152 319.04C304.658 317.229 302.398 316.075 299.869 316.075H298.726C298.725 316.076 298.723 316.077 298.722 316.078C291.06 322.422 282.664 327.884 273.691 332.36H299.869Z" fill="#E6E5E5"/>
        <path d="M368.246 291.658C368.243 287.162 364.596 283.509 360.104 283.509H326.95C323.435 289.25 319.485 294.684 315.154 299.797H360.104C364.596 299.797 368.246 296.15 368.246 291.658Z" fill="#E6E5E5"/>
        <path d="M330.932 316.241C330.401 316.35 329.888 316.51 329.401 316.716C329.157 316.819 328.919 316.934 328.688 317.059C328.226 317.31 327.791 317.604 327.389 317.936C326.585 318.6 325.91 319.416 325.41 320.34C325.16 320.802 324.952 321.291 324.794 321.801C324.557 322.567 324.429 323.381 324.429 324.225C324.429 328.434 327.625 331.907 331.743 332.325C332.017 332.353 332.296 332.367 332.578 332.367C337.067 332.367 340.714 328.717 340.714 324.225C340.714 319.723 337.067 316.076 332.578 316.076C332.014 316.075 331.464 316.132 330.932 316.241Z" fill="#E6E5E5"/>
        <path d="M449.645 446.752C462.504 446.752 472.929 436.327 472.929 423.468C472.929 410.609 462.504 400.184 449.645 400.184C436.786 400.184 426.361 410.609 426.361 423.468C426.361 436.327 436.786 446.752 449.645 446.752Z" fill="#ADECF7"/>
        <path d="M457.079 401.503C460.765 405.259 463.051 410.392 463.051 416.07C463.051 427.562 453.739 436.877 442.247 436.877C436.569 436.877 431.439 434.588 427.686 430.901C430.798 440.091 439.399 446.747 449.643 446.747C462.506 446.747 472.931 436.322 472.931 423.469C472.931 413.223 466.275 404.618 457.079 401.503Z" fill="#76D0DE"/>
        <path d="M171.997 94.8701C180.265 94.8701 186.967 88.1678 186.967 79.9001C186.967 71.6324 180.265 64.9301 171.997 64.9301C163.729 64.9301 157.027 71.6324 157.027 79.9001C157.027 88.1678 163.729 94.8701 171.997 94.8701Z" fill="white"/>
        <path d="M58.218 201.757C62.5689 201.757 66.096 198.23 66.096 193.879C66.096 189.528 62.5689 186.001 58.218 186.001C53.8671 186.001 50.34 189.528 50.34 193.879C50.34 198.23 53.8671 201.757 58.218 201.757Z" fill="white"/>
        <path d="M406.976 351.177C410.239 351.177 412.885 348.532 412.885 345.268C412.885 342.005 410.239 339.359 406.976 339.359C403.713 339.359 401.067 342.005 401.067 345.268C401.067 348.532 403.713 351.177 406.976 351.177Z" fill="white"/>
        <path d="M98.687 360.987C101.95 360.987 104.596 358.342 104.596 355.078C104.596 351.815 101.95 349.169 98.687 349.169C95.4236 349.169 92.778 351.815 92.778 355.078C92.778 358.342 95.4236 360.987 98.687 360.987Z" fill="white"/>
        <path d="M492.873 319.438C481.926 319.438 473.044 328.34 473.044 339.257C473.044 328.34 464.178 319.438 453.235 319.438C464.179 319.438 473.044 310.549 473.044 299.632C473.043 310.549 481.926 319.438 492.873 319.438Z" fill="white"/>
        <path d="M401.064 78.4141C390.19 78.4141 381.377 87.26 381.377 98.111C381.377 87.26 372.551 78.4141 361.68 78.4141C372.551 78.4141 381.377 69.5811 381.377 58.7271C381.377 69.5811 390.19 78.4141 401.064 78.4141Z" fill="white"/>
        <path d="M56.546 431.558C40.928 431.558 28.267 444.249 28.267 459.837C28.267 444.249 15.606 431.558 -0.00195312 431.558C15.606 431.558 28.267 418.854 28.267 403.279C28.27 418.859 40.932 431.558 56.546 431.558Z" fill="#CCCBCA"/>
        <path d="M117.195 291.618C112.64 291.618 108.93 295.321 108.93 299.873C108.93 295.321 105.234 291.618 100.679 291.618C105.234 291.618 108.93 287.908 108.93 283.357C108.934 287.909 112.644 291.618 117.195 291.618Z" fill="white"/>
        <path d="M52.694 64.9301C43.567 64.9301 36.175 72.3361 36.175 81.4431C36.175 72.3361 28.786 64.9301 19.662 64.9301C28.786 64.9301 36.175 57.5111 36.175 48.4141C36.175 57.5111 43.568 64.9301 52.694 64.9301Z" fill="#CCCBCA"/>
        <path d="M462.123 58.5321C457.776 58.5321 454.241 62.0631 454.241 66.4071C454.241 62.0671 450.72 58.5321 446.366 58.5321C450.716 58.5321 454.241 54.9981 454.241 50.6541C454.245 54.9941 457.776 58.5321 462.123 58.5321Z" fill="#CCCBCA"/>
        <path d="M257.098 124C241.131 124 228.137 136.992 228.137 152.964H242.069C242.069 144.69 248.804 137.932 257.099 137.932C265.358 137.932 272.103 144.688 272.103 152.964C272.103 158.765 268.829 163.967 263.581 166.529C255.281 170.587 250.131 178.797 250.131 187.992V193.212H264.063V187.992C264.063 184.188 266.247 180.742 269.687 179.052C279.794 174.173 286.038 164.181 286.038 152.963C286.039 136.992 273.054 124 257.098 124Z" fill="#474F59"/>
        <path d="M264.074 200.029H250.142V213.968H264.074V200.029Z" fill="#474F59"/>
        <path d="M170.288 177.821C161.384 181.991 157.516 192.618 161.668 201.529L169.43 197.904C167.272 193.268 169.287 187.759 173.91 185.619C178.536 183.466 184.042 185.473 186.195 190.102C187.705 193.322 187.25 197.086 184.969 199.848C181.393 204.279 180.658 210.252 183.049 215.331L184.398 218.265L192.17 214.63L190.821 211.747C189.828 209.602 190.143 207.126 191.627 205.273C195.989 199.923 196.885 192.734 193.969 186.47C189.806 177.56 179.192 173.708 170.288 177.821Z" fill="#474F59"/>
        <path d="M189.798 229.812L197.568 226.226L193.94 218.433L186.176 222.061L189.798 229.812Z" fill="#474F59"/>
        <path d="M343.879 177.821C334.986 173.699 324.346 177.555 320.212 186.464L327.976 190.092C330.137 185.464 335.653 183.449 340.29 185.612C344.87 187.75 346.869 193.269 344.747 197.892C343.219 201.156 340.052 203.207 336.437 203.26C330.782 203.327 325.772 206.603 323.348 211.741L322.014 214.624L329.807 218.259L331.141 215.325C332.132 213.226 334.244 211.859 336.599 211.792C343.498 211.725 349.601 207.752 352.512 201.524C356.661 192.611 352.814 181.997 343.879 177.821Z" fill="#474F59"/>
        <path d="M316.62 226.226L324.364 229.812L328.007 222.061L320.258 218.433L316.62 226.226Z" fill="#474F59"/>
        <path d="M84.4599 396.022C83.3788 396.646 82.5364 397.682 82.1885 398.982C81.8403 400.283 82.0516 401.601 82.6755 402.682L102.175 436.456C102.799 437.536 103.835 438.379 105.135 438.727C106.435 439.076 107.753 438.864 108.834 438.24L137.12 421.909C138.466 424.241 141.448 425.04 143.779 423.694C146.109 422.349 146.908 419.367 145.562 417.035L173.85 400.703C174.929 400.08 175.772 399.044 176.121 397.744C176.469 396.443 176.257 395.125 175.633 394.045L156.134 360.271C155.51 359.19 154.475 358.347 153.174 357.999C151.874 357.651 150.555 357.863 149.475 358.486L84.4602 396.023L84.4599 396.022Z" fill="#3F4A5A"/>
        <path d="M110.308 375.47L82.0225 391.801L106.397 434.019L134.683 417.688C137.015 416.342 139.996 417.141 141.342 419.472L116.967 377.255C115.622 374.924 112.639 374.125 110.308 375.47Z" fill="#EFEFEF"/>
        <path d="M118.751 370.594L147.038 354.263L171.412 396.481L143.125 412.812C140.793 414.159 139.995 417.14 141.341 419.471L116.967 377.253C115.621 374.923 116.421 371.94 118.751 370.594Z" fill="#EFEFEF"/>
        <path d="M110.308 375.469L134.683 417.687C137.014 416.341 139.995 417.141 141.341 419.472L116.967 377.254C115.622 374.924 112.639 374.124 110.308 375.469Z" fill="#E6E5E5"/>
        <path d="M115.405 394.049L95.5634 405.504L96.7109 407.492L116.552 396.036L115.405 394.049Z" fill="#CCCBCA"/>
        <path d="M117.701 398.025L97.8591 409.48L99.0064 411.467L118.848 400.012L117.701 398.025Z" fill="#CCCBCA"/>
        <path d="M119.993 401.996L100.152 413.452L101.299 415.438L121.14 403.983L119.993 401.996Z" fill="#CCCBCA"/>
        <path d="M122.289 405.973L102.448 417.428L103.594 419.414L123.436 407.958L122.289 405.973Z" fill="#CCCBCA"/>
        <path d="M124.582 409.944L104.741 421.4L105.887 423.386L125.729 411.93L124.582 409.944Z" fill="#CCCBCA"/>
        <path d="M126.875 413.916L107.034 425.371L108.18 427.358L128.022 415.902L126.875 413.916Z" fill="#CCCBCA"/>
        <path d="M145.253 360.923L125.412 372.378L126.559 374.365L146.4 362.91L145.253 360.923Z" fill="#CCCBCA"/>
        <path d="M147.546 364.895L127.705 376.35L128.852 378.337L148.693 366.881L147.546 364.895Z" fill="#CCCBCA"/>
        <path d="M149.841 368.87L130 380.325L131.147 382.312L150.988 370.857L149.841 368.87Z" fill="#CCCBCA"/>
        <path d="M152.135 372.843L132.294 384.298L133.441 386.285L153.282 374.83L152.135 372.843Z" fill="#CCCBCA"/>
        <path d="M154.431 376.819L134.59 388.274L135.737 390.261L155.578 378.806L154.431 376.819Z" fill="#CCCBCA"/>
        <path d="M156.724 380.79L136.883 392.246L138.03 394.232L157.871 382.777L156.724 380.79Z" fill="#CCCBCA"/>
        <path d="M159.019 384.767L139.178 396.222L140.325 398.208L160.166 386.752L159.019 384.767Z" fill="#CCCBCA"/>
        <path d="M161.312 388.738L141.471 400.193L142.618 402.18L162.459 390.724L161.312 388.738Z" fill="#CCCBCA"/>
        <path d="M163.605 392.71L143.764 404.165L144.911 406.151L164.752 394.696L163.605 392.71Z" fill="#CCCBCA"/>
        <path d="M108.523 382.129L88.6814 393.584L94.4165 403.518L114.258 392.062L108.523 382.129Z" fill="#F8C963"/>
        <path d="M119 370.451L142.084 410.434L142.924 407.301L146.058 408.139L122.973 368.157L119 370.451Z" fill="#F67656"/>
        <g clip-path="url(#clip1_6007_2793)">
            <path d="M181.885 261.22C181.222 264.056 180.864 267.009 180.864 270.042C180.864 291.549 198.301 308.983 219.804 308.983C241.31 308.983 258.745 291.551 258.745 270.042H206.564C197.191 270.042 188.598 266.735 181.885 261.22Z" fill="#E6E5E5"/>
            <path d="M335.613 261.22C336.264 264.056 336.622 267.009 336.622 270.042C336.622 291.549 319.194 308.983 297.684 308.983C276.173 308.983 258.744 291.549 258.744 270.042H310.922C320.288 270.042 328.888 266.735 335.613 261.22Z" fill="#E6E5E5"/>
            <path d="M310.929 270.04H206.565V320.957H310.929V270.04Z" fill="#E6E5E5"/>
            <path d="M212.817 320.952C201.492 332.534 194.504 348.371 194.504 365.847C194.504 401.328 223.264 430.087 258.744 430.087C294.225 430.087 322.984 401.328 322.984 365.847C322.984 348.371 315.998 332.534 304.677 320.952H212.817V320.952Z" fill="#3F4A5A"/>
            <path d="M258.744 430.087C280.498 430.087 298.132 412.453 298.132 390.699C298.132 368.945 280.498 351.311 258.744 351.311C236.99 351.311 219.356 368.945 219.356 390.699C219.356 412.453 236.99 430.087 258.744 430.087Z" fill="white"/>
            <path d="M258.744 371.446L241.145 353.847L258.744 320.958L276.342 353.847L258.744 371.446Z" fill="#FAD97F"/>
            <path d="M362.586 250.797H356.423V287.075H362.586V250.797Z" fill="#3F4A5A"/>
            <path d="M302.744 250.797H214.744V270.042L258.744 282.674L302.744 270.042V250.797Z" fill="#333C49"/>
            <path d="M258.744 243.455H148.745V250.797H258.744V243.455Z" fill="#3F4A5A"/>
            <path d="M368.743 243.455H258.744V250.797H368.743V243.455Z" fill="#262E37"/>
            <path d="M285.803 314.136H275.684C275.684 304.796 268.082 297.197 258.743 297.197C249.402 297.197 241.802 304.796 241.802 314.136H231.683C231.683 299.217 243.821 287.076 258.741 287.076C273.662 287.076 285.803 299.217 285.803 314.136Z" fill="#333C49"/>
            <path d="M214.744 364.952C239.045 364.952 258.744 345.253 258.744 320.953C258.744 296.652 239.045 276.953 214.744 276.953C190.444 276.953 170.744 296.652 170.744 320.953C170.744 345.253 190.444 364.952 214.744 364.952Z" fill="#333C49"/>
            <path d="M214.744 354.832C233.455 354.832 248.624 339.664 248.624 320.953C248.624 302.241 233.455 287.073 214.744 287.073C196.033 287.073 180.864 302.241 180.864 320.953C180.864 339.664 196.033 354.832 214.744 354.832Z" fill="white"/>
            <path d="M302.744 364.952C327.044 364.952 346.743 345.253 346.743 320.953C346.743 296.652 327.044 276.953 302.744 276.953C278.443 276.953 258.744 296.652 258.744 320.953C258.744 345.253 278.443 364.952 302.744 364.952Z" fill="#333C49"/>
            <path d="M302.744 354.831C321.454 354.831 336.622 339.663 336.622 320.952C336.622 302.242 321.454 287.074 302.744 287.074C284.033 287.074 268.865 302.242 268.865 320.952C268.865 339.663 284.033 354.831 302.744 354.831Z" fill="white"/>
            <path d="M236.757 320.952C236.757 333.11 226.901 342.966 214.742 342.966C202.616 342.966 192.757 333.11 192.757 320.952C192.757 308.824 202.615 298.967 214.742 298.967C226.901 298.967 236.757 308.824 236.757 320.952Z" fill="#FAD97F"/>
            <path d="M224.917 320.952C224.917 326.569 220.361 331.129 214.741 331.129C209.126 331.129 204.565 326.569 204.565 320.952C204.565 315.336 209.126 310.776 214.741 310.776C220.361 310.776 224.917 315.336 224.917 320.952Z" fill="#3F4A5A"/>
            <path d="M212.696 314.487C212.696 316.927 210.717 318.907 208.273 318.907C205.86 318.907 203.883 316.927 203.883 314.487C203.883 312.07 205.86 310.093 208.273 310.093C210.718 310.095 212.696 312.07 212.696 314.487Z" fill="white"/>
            <path d="M324.758 320.952C324.758 333.11 314.903 342.966 302.744 342.966C290.615 342.966 280.758 333.11 280.758 320.952C280.758 308.824 290.615 298.967 302.744 298.967C314.902 298.967 324.758 308.824 324.758 320.952Z" fill="#FAD97F"/>
            <path d="M312.92 320.952C312.92 326.569 308.366 331.129 302.744 331.129C297.127 331.129 292.567 326.569 292.567 320.952C292.567 315.336 297.127 310.776 302.744 310.776C308.366 310.776 312.92 315.336 312.92 320.952Z" fill="#3F4A5A"/>
            <path d="M300.701 314.487C300.701 316.927 298.72 318.907 296.28 318.907C293.863 318.907 291.885 316.927 291.885 314.487C291.885 312.07 293.862 310.093 296.28 310.093C298.718 310.095 300.701 312.07 300.701 314.487Z" fill="white"/>
            <path d="M351.981 417.198H165.493V423.639H351.981V417.198Z" fill="#FAD97F"/>
            <path d="M351.981 423.642H165.493V430.093H351.981V423.642Z" fill="#F8C963"/>
            <path d="M351.981 430.086H165.493V436.537H351.981V430.086Z" fill="#D7753E"/>
            <path d="M165.497 436.545L154.32 430.087V423.642L165.493 417.197L165.497 436.545Z" fill="#EFEFEF"/>
            <path d="M165.497 436.545L165.493 430.088L154.32 427.927V430.088L165.497 436.545Z" fill="#CCCBCA"/>
            <path d="M154.32 430.087L148.745 426.857L154.32 423.642V430.087Z" fill="#3F4A5A"/>
            <path d="M357.568 430.086H351.981V436.537H357.568V430.086Z" fill="#CCCBCA"/>
            <path d="M357.568 417.198H351.981V430.086H357.568V417.198Z" fill="#EFEFEF"/>
            <path d="M359.075 436.533H357.572V430.088L359.075 430.082C361.538 430.082 364.022 429.142 365.913 427.265C366.958 426.184 367.731 424.951 368.184 423.631C368.553 424.679 368.745 425.755 368.745 426.857C368.745 429.344 367.794 431.804 365.914 433.702C364.022 435.593 361.539 436.527 359.075 436.533Z" fill="#262E37"/>
            <path d="M359.074 430.082L357.571 430.088V417.186H359.074C361.538 417.186 364.022 418.137 365.913 420.022C366.957 421.069 367.717 422.31 368.184 423.631C367.733 424.951 366.959 426.184 365.913 427.265C364.022 429.142 361.539 430.082 359.074 430.082Z" fill="#3F4A5A"/>
            <path d="M281.301 432.584C281.301 434.762 279.516 436.544 277.337 436.544C275.16 436.544 273.378 434.762 273.378 432.584V417.194C273.378 415.017 275.16 413.231 277.337 413.231C279.516 413.231 281.301 415.016 281.301 417.194V432.584Z" fill="#3F4A5A"/>
            <path d="M289.216 432.584C289.216 434.762 287.436 436.544 285.257 436.544C283.079 436.544 281.301 434.762 281.301 432.584V417.194C281.301 415.017 283.079 413.231 285.257 413.231C287.436 413.231 289.216 415.016 289.216 417.194V432.584Z" fill="#3F4A5A"/>
            <path d="M297.139 432.584C297.139 434.762 295.359 436.544 293.18 436.544C291.002 436.544 289.216 434.762 289.216 432.584V417.194C289.216 415.017 291.001 413.231 293.18 413.231C295.359 413.231 297.139 415.016 297.139 417.194V432.584Z" fill="#3F4A5A"/>
            <path d="M228.272 432.584C228.272 434.762 226.486 436.544 224.308 436.544C222.13 436.544 220.349 434.762 220.349 432.584V417.194C220.349 415.017 222.13 413.231 224.308 413.231C226.486 413.231 228.272 415.016 228.272 417.194V432.584Z" fill="#3F4A5A"/>
            <path d="M236.189 432.584C236.189 434.762 234.409 436.544 232.229 436.544C230.052 436.544 228.272 434.762 228.272 432.584V417.194C228.272 415.017 230.052 413.231 232.229 413.231C234.409 413.231 236.189 415.016 236.189 417.194V432.584Z" fill="#3F4A5A"/>
            <path d="M244.109 432.584C244.109 434.762 242.326 436.544 240.15 436.544C237.972 436.544 236.187 434.762 236.187 432.584V417.194C236.187 415.017 237.97 413.231 240.15 413.231C242.326 413.231 244.109 415.016 244.109 417.194V432.584Z" fill="#3F4A5A"/>
        </g>
        <path d="M377.17 342.134L376.079 341.041C376.546 340.576 377.02 340.124 377.504 339.686L378.538 340.831C378.074 341.25 377.618 341.686 377.17 342.134Z" fill="#E6E5E5"/>
        <path d="M435.534 392.218L434.295 391.301C435.029 390.309 435.72 389.272 436.349 388.22L437.673 389.011C437.018 390.106 436.298 391.185 435.534 392.218ZM439.485 385.606L438.091 384.949C438.614 383.835 439.089 382.683 439.501 381.524L440.954 382.04C440.525 383.246 440.032 384.447 439.485 385.606ZM442.064 378.347L440.568 377.977C440.863 376.78 441.104 375.557 441.282 374.341L442.808 374.563C442.623 375.831 442.372 377.103 442.064 378.347ZM443.179 370.726L441.638 370.652C441.667 370.05 441.682 369.447 441.682 368.845C441.682 368.213 441.665 367.579 441.634 366.947L443.175 366.87C443.208 367.528 443.224 368.186 443.224 368.845C443.224 369.472 443.208 370.099 443.179 370.726ZM441.267 363.259C441.087 362.045 440.844 360.823 440.544 359.625L442.04 359.251C442.353 360.498 442.606 361.77 442.792 363.033L441.267 363.259ZM439.469 356.079C439.055 354.919 438.576 353.768 438.05 352.657L439.443 351.996C439.992 353.154 440.49 354.352 440.921 355.559L439.469 356.079ZM436.299 349.392C435.667 348.342 434.973 347.308 434.234 346.316L435.471 345.394C436.239 346.426 436.963 347.505 437.62 348.597L436.299 349.392ZM431.879 343.455C431.47 343.005 431.049 342.563 430.615 342.128C430.17 341.683 429.718 341.253 429.258 340.835L430.294 339.692C430.773 340.126 431.244 340.575 431.707 341.037C432.158 341.488 432.596 341.948 433.021 342.416L431.879 343.455ZM426.394 338.481C425.405 337.747 424.369 337.054 423.315 336.422L424.109 335.099C425.206 335.758 426.284 336.479 427.314 337.243L426.394 338.481ZM381.405 338.476L380.487 337.237C381.516 336.473 382.596 335.75 383.693 335.093L384.487 336.416C383.432 337.049 382.395 337.74 381.405 338.476ZM420.048 334.675C418.94 334.151 417.788 333.675 416.624 333.259L417.144 331.807C418.356 332.239 419.554 332.735 420.708 333.28L420.048 334.675ZM387.754 334.669L387.096 333.274C388.251 332.728 389.45 332.234 390.66 331.801L391.179 333.253C390.017 333.669 388.865 334.145 387.754 334.669ZM413.079 332.187C411.888 331.89 410.665 331.648 409.444 331.467L409.669 329.941C410.94 330.129 412.213 330.381 413.451 330.69L413.079 332.187ZM394.727 332.182L394.354 330.686C395.602 330.375 396.875 330.123 398.137 329.939L398.361 331.465C397.15 331.642 395.926 331.884 394.727 332.182ZM405.756 331.105C404.521 331.044 403.282 331.045 402.05 331.104L401.975 329.564C403.26 329.501 404.547 329.502 405.832 329.565L405.756 331.105Z" fill="#E6E5E5"/>
        <path d="M431.7 396.663L430.61 395.572C431.059 395.123 431.493 394.667 431.914 394.202L433.057 395.239C432.618 395.722 432.166 396.198 431.7 396.663Z" fill="#E6E5E5"/>
        <path d="M372.129 340.359L432.388 400.618L435.66 397.346L375.401 337.087L372.129 340.359Z" fill="#3F4A5A"/>
        <path d="M403.893 409.724C403.892 409.724 403.891 409.724 403.889 409.724C392.972 409.723 382.709 405.472 374.99 397.752C367.268 390.032 363.016 379.768 363.017 368.851C363.017 357.936 367.268 347.673 374.988 339.953L378.26 343.224C371.414 350.07 367.643 359.171 367.643 368.851C367.643 378.533 371.414 387.634 378.261 394.479C385.107 401.325 394.208 405.096 403.89 405.097C403.891 405.097 403.892 405.097 403.893 405.097C413.574 405.097 422.674 401.328 429.518 394.482L432.791 397.753C425.073 405.473 414.81 409.724 403.893 409.724Z" fill="#3F4A5A"/>
        <path d="M406.208 407.414H401.582V416.667H406.208V407.414Z" fill="#3F4A5A"/>
        <path d="M420.281 421.291H387.504V418.978C387.504 418.387 387.73 417.795 388.183 417.342C388.635 416.889 389.225 416.664 389.819 416.664H417.966C418.561 416.664 419.153 416.889 419.604 417.342C420.055 417.795 420.281 418.387 420.281 418.978V421.291V421.291Z" fill="#333C49"/>
        <path d="M433.97 425.919H373.815V423.606C373.815 423.014 374.042 422.423 374.495 421.97C374.947 421.517 375.538 421.292 376.13 421.292H431.658C432.248 421.292 432.842 421.517 433.294 421.97C433.744 422.423 433.97 423.014 433.97 423.606V425.919V425.919Z" fill="#3F4A5A"/>
        <path d="M433.969 368.852C433.969 385.461 420.507 398.925 403.89 398.925C387.278 398.925 373.817 385.461 373.817 368.852C373.817 352.236 387.279 338.777 403.89 338.777C420.506 338.777 433.969 352.237 433.969 368.852Z" fill="#84D7E8"/>
        <path d="M414.452 340.687C419.938 345.699 423.38 352.91 423.38 360.929C423.38 376.066 411.11 388.339 395.963 388.339C387.948 388.339 380.739 384.894 375.727 379.41C380.003 390.809 390.996 398.925 403.889 398.925C420.506 398.925 433.969 385.461 433.969 368.852C433.969 355.956 425.855 344.964 414.452 340.687Z" fill="#6BC7D9"/>
        <path d="M396.853 393.994C396.975 394.016 397.3 393.905 397.391 393.879C397.169 393.7 396.682 393.68 396.401 393.508C396.426 393.518 395.495 392.956 395.694 393.418C395.744 393.53 395.916 393.428 396 393.487C395.888 393.652 395.838 393.602 395.96 393.678C395.96 393.674 394.932 393.117 395.964 393.08C395.25 392.438 396.012 392.637 395.785 392.233C395.629 391.953 396.392 391.689 395.978 391.449C395.787 391.335 395.572 391.355 395.369 391.219C395.085 391.012 395.354 390.648 395.62 390.685C395.645 390.685 395.785 390.039 395.833 389.935C395.755 389.904 395.225 389.244 395.354 389.105C395.51 388.94 396.201 389.531 396.37 389.093C396.438 388.936 396.131 388.513 396.155 388.335C396.467 388.305 398.52 388.383 398.172 387.439C398.052 387.117 397.188 386.627 397.278 386.356C397.577 386.401 398.076 386.836 398.395 386.664C398.661 386.528 398.871 386.814 399.15 386.509C399.194 386.454 399.652 385.962 399.518 385.871C399.379 385.87 399.305 385.946 399.29 386.112C399.13 385.889 399.41 385.733 399.558 385.578C399.592 385.623 399.625 385.671 399.661 385.715C399.831 385.46 400.782 384.222 400.81 384.193C401.299 383.633 400.9 382.873 401.381 382.421C401.819 382.006 402.296 381.735 402.844 381.519C403.015 381.451 403.616 381.13 403.741 381.169C404.749 381.478 404.627 380.273 405.271 379.731C405.917 379.187 405.44 376.399 405.97 376.194C406.259 376.083 407.114 375.024 407.561 374.544C407.991 374.08 408.043 373.487 407.877 372.894C407.623 371.992 407.366 372.506 406.717 372.119C406.193 371.805 405.794 371.184 405.149 371.095C404.77 371.04 404.371 371.156 404.001 371.042C403.838 370.998 403.406 370.731 403.244 370.956C403.27 370.917 402.896 371.095 402.923 371.104C402.882 371.079 402.915 370.61 402.792 370.495C402.596 370.31 401.921 370.119 401.677 370.06C401.118 369.914 400.981 370.577 400.836 369.785C400.374 369.662 399.916 369.123 399.994 368.986C400.036 368.931 399.275 367.323 399.17 367.475C399.16 366.932 397.488 366.263 397.062 366.518C396.679 366.797 395.98 366.269 395.744 366.019C395.479 365.73 395.486 365.428 395.043 365.244C394.851 365.16 394.525 365.203 394.6 364.876C394.676 364.531 393.776 364.459 393.691 364.127C393.82 364.15 393.926 364.088 394.044 364.054C393.695 364.177 393.268 363.92 392.923 364.205C392.421 364.623 392.124 364.007 391.574 364.114C390.874 364.248 391.345 363.995 390.906 363.724C391.085 363.836 390.089 363.27 390.322 363.291C390.116 363.268 390.354 363.636 390.123 363.715C389.76 363.85 389.445 363.932 389.681 364.371C390.082 365.164 388.847 364.789 389.427 364.247C389.531 364.155 389.561 363.117 389.675 363.151C389.53 363.104 388.403 363.836 388.272 363.991C387.913 363.411 387.298 365.429 387.094 365.44C386.992 364.947 386.52 364.744 386.11 364.6C385.758 364.459 385.407 365.298 384.954 364.841C384.139 364.015 384.496 362.692 384.908 361.747C385.083 361.316 383.407 361.183 383.202 361.358C382.791 361.693 383.266 360.669 383.264 360.699C383.308 360.287 383.402 360.015 383.586 360.018C383.694 359.777 384.317 358.659 384.252 358.522C384.003 357.938 382.946 358.98 382.846 359.238C382.738 359.492 382.535 359.634 382.436 359.864C382.337 360.096 382.143 359.812 381.975 359.906C381.518 360.164 380.867 360.03 380.965 359.369C381.069 358.572 380.765 356.996 381.661 356.45C381.935 356.282 381.979 355.488 382.294 355.204C382.332 355.171 383.238 354.647 383.148 354.545C383.282 354.683 383.992 354.399 384.083 354.586C384.153 354.733 384.572 354.897 384.719 354.81C384.711 354.827 384.792 354.461 384.792 354.456C384.781 354.451 384.501 354.412 384.512 354.324C384.546 354.199 385.394 354.283 385.423 354.285C385.824 354.314 386.121 354.647 386.421 354.447C386.882 354.133 386.6 356.201 386.785 356.387C386.885 356.499 386.812 356.748 387.008 356.728C387.271 356.701 387.356 354.049 388.039 353.496C388.538 353.091 389.084 352.729 389.637 352.43C389.812 352.341 390.27 352.117 390.365 351.944C390.344 351.862 390.261 351.76 390.167 351.85C390.139 351.685 390.41 351.785 390.462 351.615C390.512 351.447 390.321 351.387 390.342 351.33C390.335 351.345 390.513 350.98 390.453 351.031C390.462 351.039 390.462 351.057 390.465 351.066C390.739 351.111 390.406 350.812 390.393 350.766C390.751 350.95 390.604 350.37 390.953 350.34C390.701 350.445 390.748 350.727 390.785 350.903C390.856 351.278 391.19 350.378 391.153 350.411C391.49 350.273 392.015 349.991 392.376 349.737C392.29 349.702 392.203 349.765 392.101 349.694C392.47 349.56 392.888 349.606 393.239 349.421C393.222 349.049 393.448 348.656 393.869 348.586C394.511 348.482 395.265 348.088 395.905 347.87C395.811 348.093 395.958 347.92 396.133 348.003C395.922 347.462 394.784 349.01 395.327 348.696C395.785 348.434 397.327 348.19 397.538 347.744C397.533 347.72 397.434 347.426 397.437 347.426C397.056 347.426 397.025 347.895 396.557 347.891C395.705 347.883 396.219 347.359 396.041 347.126C395.893 347.16 395.763 347.119 395.661 347.003C395.745 346.985 396.794 346.742 396.24 346.616C395.339 346.423 394.74 347.426 393.999 347.401C394.553 347.064 395.306 346.344 395.976 346.255C396.691 346.155 397.685 346.505 398.312 346.063C398.874 345.674 399.259 345.959 399.576 345.326C399.671 345.156 399.164 344.939 399.034 344.91C399.093 344.846 399.204 344.91 399.245 344.803C398.402 344.428 398.225 344.055 398.125 343.079C397.694 343.392 396.256 344.061 397.025 342.975C396.749 342.853 395.875 342.126 395.54 342.629C395.384 342.854 395.141 343.236 394.882 343.352C394.313 343.609 394.822 343.561 394.628 343.944C394.304 344.576 393.527 344.488 393.152 345.041C392.92 345.388 392.85 345.632 392.486 345.796C392.169 345.934 392.049 345.56 392.205 345.264C392.317 345.388 392.419 345.409 392.508 345.314C392.537 345.18 392.343 345.245 392.283 345.193C392.391 344.998 392.53 344.819 392.687 344.653C392.634 344.625 391.827 344.497 391.856 344.283C391.911 343.842 391.354 344.085 391.259 343.951C391.69 343.408 391.69 343.155 392.537 342.73C392.823 342.586 394.45 341.754 394.752 341.96C394.714 342.149 394.512 342.111 394.404 342.204C394.637 342.269 395.317 342.339 395.548 342.176C395.498 342.134 395.225 341.683 395.366 341.577C395.344 341.597 395.83 341.588 395.869 341.572C396.131 341.51 396.417 341.478 396.565 341.213C396.693 340.979 397.55 340.676 397.757 340.792C398.877 341.427 396.234 342.103 396.206 342.032C396.261 342.216 396.972 341.902 397.151 342.391C397.196 342.509 398.009 342.774 398.086 342.66C398.137 342.601 397.857 342.304 397.845 342.234C398.697 342.646 398.646 342.432 398.508 341.861C398.374 341.317 399.007 341.899 399.043 341.916C399.184 341.988 399.758 341.659 399.844 341.54C399.637 341.379 399.278 341.384 399.102 341.189C398.928 341.02 399.543 340.98 399.329 340.801C399.07 340.59 398.661 340.644 398.805 340.229C398.656 340.189 398.512 340.205 398.384 340.284C398.423 340.359 398.509 340.303 398.538 340.341C398.398 340.43 398.239 340.445 398.08 340.44C398.127 340.366 398.279 340.366 398.279 340.226C397.838 340.175 397.605 340.44 397.219 340.555C397.329 340.398 397.514 340.348 397.648 340.231C397.227 340.285 396.827 340.44 396.498 340.715C396.548 340.762 396.593 340.807 396.625 340.872C396.304 341.154 395.876 341.24 395.499 341.413C395.566 341.163 395.838 341.22 395.924 341.034C395.789 341.035 395.653 341.067 395.532 341.124C395.692 341.105 396.164 340.633 396.273 340.513C395.59 340.433 395.303 341.316 394.652 341.193C394.789 341.036 395.062 341.116 395.154 340.872C394.916 340.897 394.009 341.516 393.863 341.193C393.852 341.173 395.518 340.513 395.694 340.27C395.581 340.258 395.454 340.375 395.352 340.241C395.432 340.15 395.567 340.142 395.663 340.042C395.117 340.037 393.493 340.697 393.616 341.08C393.406 341.251 393.178 341.298 392.922 341.191C393.022 341.033 393.378 341.03 393.091 340.803C392.567 340.994 392.056 341.207 391.547 341.43C390.376 341.951 389.224 342.563 388.137 343.238C386.338 344.349 384.851 345.663 383.367 347.156C382.579 347.956 379.573 351.464 379.583 352.197C379.594 352.736 379.273 353.214 379.07 353.701C378.908 354.098 378.887 354.653 378.69 355.022C378.254 355.798 378.454 356.699 378.255 357.598C378.505 357.409 379.015 353.314 379.458 353.466C379.543 353.499 379.183 355.168 379.089 355.377C378.718 356.235 379.207 357.285 378.962 358.181C378.938 358.269 378.816 358.723 378.812 358.816C378.4 359.132 378.92 359.606 378.917 359.957C378.917 360.164 379.971 361.087 380.174 361.208C380.618 361.476 380.707 361.003 381.111 361.088C381.473 361.165 381.577 361.824 381.771 362.102C382.03 362.492 383.019 362.45 383.186 362.632C383.3 362.772 383.204 363.524 383.655 363.631C383.65 363.576 383.639 363.31 383.702 363.274C383.841 363.19 384.13 363.69 384.033 363.787C383.893 363.815 383.762 363.768 383.656 363.631C383.656 363.697 383.581 364.684 383.87 364.493C383.874 364.433 383.893 364.371 383.899 364.314C384.275 364.47 384.246 365.025 384.512 365.101C384.882 365.204 385.157 365.668 385.432 365.797C385.681 365.922 385.613 364.931 386.084 364.881C386.463 364.849 386.677 365.837 386.807 366.077C387.007 366.424 386.541 367.259 386.798 367.531C387.062 367.806 386.149 368.466 386.101 368.748C386.073 368.962 385.607 369.16 385.625 369.241C385.659 369.474 385.521 369.788 385.439 370.01C385.209 370.624 385.323 370.681 385.721 370.966C385.733 370.973 384.982 372.472 385.414 372.854C386.098 373.418 387.003 374.803 387.22 375.675C387.668 376.877 388.352 377.613 389.495 378.205C390.425 378.696 391.08 379.528 391.08 380.646C391.114 381.303 391.019 382.129 391.297 382.745C391.492 383.177 391.122 383.883 391.4 384.277C391.58 384.519 391.346 384.651 391.451 384.881C391.559 385.125 391.813 385.527 391.808 385.813C391.802 386.283 391.808 386.84 391.837 387.309C391.848 387.467 391.7 387.74 391.78 387.84C391.889 387.967 392.523 389.529 392.523 389.99C392.518 390.098 393.008 389.955 392.567 389.514C393.092 389.22 392.985 390.456 393.022 390.465C392.551 390.302 392.855 390.43 392.892 391.04C392.915 391.395 392.797 391.225 393.092 391.293C393.554 391.396 393.092 391.707 393.268 391.958C393.616 392.462 394.153 392.926 394.52 393.315C395.116 393.944 396.139 393.844 396.853 393.994C396.721 393.969 396.955 394.012 396.853 393.994ZM398.811 344.971C398.644 345.119 398.468 345.146 398.281 345.201C398.41 345 398.614 345.032 398.811 344.971ZM397.247 344.837C397.37 344.819 397.466 344.853 397.531 344.939C397.533 344.984 396.89 345.014 396.791 345.18C396.877 344.896 397.109 344.946 397.247 344.837C397.109 344.946 397.313 344.919 397.247 344.837ZM395.673 345.95C395.81 345.984 395.475 345.919 395.673 345.95C395.679 345.95 395.634 345.945 395.673 345.95ZM394.809 344.302C394.865 344.234 394.913 344.245 394.944 344.332C394.88 344.4 394.836 344.39 394.809 344.302C394.8 344.338 394.812 344.264 394.809 344.302ZM393.947 346.87C393.704 346.855 394.201 346.881 393.947 346.87C393.913 346.87 393.983 346.875 393.947 346.87ZM394.201 345.874C393.364 346.659 394.017 345.883 393.771 346.126C393.778 346.14 393.771 346.154 393.759 346.154C393.693 346.077 394.186 345.88 394.201 345.874C394.058 345.9 394.095 345.976 394.201 345.874ZM393.895 344.948C393.742 345.124 393.742 345.124 393.533 345.084C393.644 345.009 393.791 345.037 393.895 344.948ZM397.633 341.993C397.577 341.997 397.525 341.997 397.437 341.997C397.705 341.773 397.66 341.993 397.633 341.993C397.67 341.993 397.578 341.997 397.633 341.993ZM398.238 341.595C398.147 341.699 398.015 341.634 397.898 341.688C398.019 341.454 398.042 341.449 398.238 341.595ZM394.847 341.868C394.918 341.807 395.003 341.773 395.096 341.781C395.177 341.899 394.586 341.963 394.847 341.868C394.816 341.882 394.88 341.807 394.847 341.868ZM394.696 341.7C394.792 341.743 394.784 341.784 394.67 341.834C394.588 341.784 394.602 341.743 394.696 341.7C394.648 341.704 394.732 341.7 394.696 341.7ZM390.311 349.182C390.318 349.177 388.998 349.707 389.1 349.38C389.067 349.484 389.55 349.007 389.45 349.052C389.557 349.005 390.443 348.95 390.7 348.955C390.565 349.087 390.438 349.133 390.311 349.182C390.438 349.133 390.017 349.29 390.311 349.182ZM391.366 348.529C392.455 348.636 390.718 348.966 390.532 348.77C390.776 348.556 391.064 348.495 391.366 348.529C391.064 348.495 391.451 348.537 391.366 348.529ZM391.186 341.756C391.478 341.572 391.791 341.434 392.17 341.347C391.892 341.577 391.517 341.672 391.178 341.766L391.186 341.756ZM391.246 347.642C391.197 347.689 391.151 347.687 391.106 347.64C391.173 347.616 391.236 347.593 391.246 347.642C391.236 347.593 391.27 347.687 391.246 347.642ZM390.927 348.295C390.902 348.295 390.817 348.272 390.927 348.295C390.934 348.295 390.891 348.285 390.927 348.295ZM390.606 347.739C390.998 347.921 390.773 348.537 390.434 348.06C390.421 348.342 389.926 348.825 389.66 348.884C389.764 348.77 389.795 348.647 389.764 348.511C389.678 348.443 389.513 348.636 389.424 348.631C389.46 348.803 390.133 347.475 389.568 347.86C389.363 348.017 388.003 349.466 387.921 349.387C387.796 349.259 388.525 348.193 388.578 348.154C389.042 347.769 390.017 347.463 390.606 347.739ZM389.848 342.681C389.902 342.646 390.34 342.38 390.396 342.444C390.536 342.614 389.692 342.831 389.651 342.835C389.702 342.731 389.782 342.715 389.848 342.681C389.782 342.715 390.002 342.594 389.848 342.681ZM389.94 346.229C389.939 346.252 389.763 346.582 389.66 346.449C389.575 346.359 389.909 346.077 389.94 346.229C389.932 346.188 389.927 346.315 389.94 346.229ZM388.986 343.487C389.033 343.487 389.742 343.044 389.763 343.228C389.771 343.278 388.904 343.502 388.986 343.487ZM388.788 344.218C388.746 344.297 388.705 344.337 388.605 344.337C388.644 344.25 388.705 344.243 388.788 344.218ZM388.298 345.919C388.395 345.843 388.624 345.473 388.513 345.328C388.575 345.41 388.09 345.276 388.313 345.194C388.403 345.164 388.956 344.862 389.042 344.953C389.205 345.119 388.353 346.008 388.184 346.083C388.2 345.992 388.25 345.953 388.298 345.919C388.25 345.953 388.437 345.815 388.298 345.919ZM388.781 347.041C389.389 346.845 389.612 346.502 389.976 346.968C390.116 347.14 390.088 347.59 389.763 347.482C389.852 347.514 388.776 347.411 388.974 347.296C388.758 347.428 388.338 347.523 388.086 347.412C388.32 347.278 388.527 347.127 388.781 347.041C388.527 347.127 388.93 346.994 388.781 347.041ZM387.931 345.911C387.987 346.057 387.946 346.127 387.78 346.154C387.844 346.057 387.891 345.979 387.931 345.911ZM379.297 359.036C379.019 359.026 379.513 359.026 379.297 359.036C379.266 359.033 379.325 359.033 379.297 359.036ZM382.78 361.539C382.704 361.568 383 361.489 382.78 361.539C382.766 361.544 382.819 361.534 382.78 361.539ZM391.285 364.348C391.141 364.326 391.456 364.364 391.285 364.348C391.274 364.348 391.307 364.351 391.285 364.348ZM392.678 389.279C392.439 389.232 392.806 389.085 392.678 389.279C392.62 389.267 392.681 389.267 392.678 389.279ZM393.297 376.805C393.212 376.719 393.35 376.853 393.297 376.805C393.287 376.795 393.316 376.82 393.297 376.805ZM393.393 384.576C393.239 384.628 393.559 384.516 393.393 384.576C393.352 384.587 393.418 384.562 393.393 384.576ZM394.212 392.947C394.102 392.883 394.102 392.843 394.207 392.824C394.33 392.872 394.33 392.918 394.212 392.947C394.252 392.956 394.167 392.941 394.212 392.947ZM395.299 393.418C395.186 393.398 395.195 393.352 395.329 393.286C395.426 393.329 395.416 393.373 395.299 393.418C395.327 393.409 395.25 393.418 395.299 393.418ZM393.002 390.329C392.99 390.336 392.975 390.339 392.963 390.342C392.999 390.313 393.005 390.308 393.002 390.329ZM395.694 340.269C395.694 340.269 395.693 340.269 395.692 340.269C395.693 340.269 395.693 340.266 395.693 340.266L395.694 340.269ZM385.477 345.114C385.477 345.119 385.474 345.119 385.474 345.119L385.477 345.114ZM433.478 363.458L433.481 363.461C432.892 361.295 432.453 359.152 431.556 357.052C430.49 354.559 429.091 352.209 427.396 350.091C425.799 348.095 423.951 346.299 421.903 344.767C420.904 344.019 419.865 343.34 418.781 342.723C418.266 342.425 417.74 342.146 417.205 341.877C416.973 341.767 416.15 341.551 416.028 341.353C416.033 341.444 416.506 341.683 416.57 341.744C416.252 341.661 415.407 341.304 415.396 341.251C415.414 341.212 415.484 341.251 415.476 341.189C415.001 340.885 413.226 340.23 412.872 340.716C412.949 340.621 414.094 341.948 414.124 342.182C414.202 342.698 415.01 343.248 415.524 343.415C416.238 343.656 415.702 343.333 416.003 343.164C416.202 343.066 416.382 343.492 416.561 343.397C416.561 343.392 416.561 343.388 416.57 343.383C416.519 343.283 416.459 343.184 416.403 343.087C416.352 343.087 417.704 344.48 417.871 344.177C417.713 343.799 417.47 343.371 417.089 343.016C416.748 342.698 416.214 342.671 415.85 342.352C415.662 342.19 414.975 341.688 414.903 341.455C415.809 341.485 416.856 343.404 417.763 342.661C417.639 342.575 417.514 342.482 417.398 342.383C417.563 342.431 418.322 342.675 418.071 342.993C417.342 342.865 418.68 343.6 418.702 343.683C418.568 343.676 418.481 343.568 418.356 343.56C418.408 343.81 419.125 344.07 419.175 344.499C418.744 344.567 418.932 344.24 418.65 344.59C418.559 344.701 418.176 344.665 417.967 344.681C417.467 344.721 416.911 343.878 416.551 343.619C416.702 344.09 416.965 344.315 417.488 344.649C417.741 344.789 417.129 344.856 417.141 345.068C417.156 345.068 417.307 345.142 417.301 345.183C417.301 345.209 417.161 345.085 417.141 345.068C417.189 345.036 417.051 345.895 417.038 345.882C417.448 346.358 416.492 346.219 416.472 346.237C416.55 346.344 416.699 346.399 416.732 346.555C416.454 346.573 416.23 346.53 415.963 346.63C416.352 346.743 418.508 347.741 418.037 348.494C417.887 348.737 416.43 348.434 416.155 348.421C415.59 348.381 416.117 348.962 416.13 349.028C416.222 349.456 416.556 349.644 416.526 350.15C416.5 350.5 416.863 350.513 416.973 350.811C417.074 351.07 417.015 351.096 417.286 351.134C417.766 351.196 417.778 351.12 418.186 351.437C418.475 351.662 418.585 351.228 418.926 351.214C419.783 351.178 419.053 351.003 419.465 350.889C419.969 350.746 419.323 349.953 419.354 349.8C419.39 349.593 419.322 349.359 419.598 349.281C420.032 349.165 419.485 348.715 419.456 348.597C419.372 348.239 420.65 348.899 420.496 347.996C421.23 348.227 421.987 348.892 422.672 349.275C423.068 349.517 423.469 349.746 423.764 350.128C424.109 350.58 423.262 350.394 423.207 350.523C423.155 350.669 423.957 351.029 424.085 351.021C424.103 350.942 423.988 350.48 423.976 350.4C423.938 350.081 423.476 349.765 423.508 349.511C423.654 349.524 423.789 349.584 423.906 349.674C423.472 349.142 422.772 349.09 422.283 348.7C421.987 348.456 421.616 348.261 421.324 348.01C421.324 348.009 420.803 347.349 421.168 347.474C421.742 347.674 422.368 348.254 422.953 348.559C423.417 348.802 423.532 348.953 423.876 349.351C424.011 349.511 424.725 350.34 424.884 350.367C424.878 350.358 425.468 350.888 425.704 350.968C425.602 350.727 425.509 350.422 425.385 350.234C425.223 349.969 424.556 349.823 424.556 349.432C424.709 349.443 424.724 349.286 425.049 349.298C424.878 349.291 425.26 349.043 425.238 349.08C424.614 348.722 423.778 347.68 423.547 346.978C423.72 346.984 423.812 347.212 424.004 347.096C423.938 346.978 423.922 346.853 423.938 346.721C423.988 346.776 424.577 347.283 424.458 347.382C424.294 347.378 424.156 347.308 424.035 347.18C424.123 347.475 424.417 347.48 424.538 347.685C424.551 347.603 424.494 347.535 424.564 347.446C425.081 347.661 426.13 348.482 426.274 349.059C426.049 349.08 425.614 348.599 425.462 348.718C425.414 348.834 425.419 348.947 425.487 349.061C425.418 349.066 425.357 349.079 425.297 349.113C425.38 349.179 425.424 349.265 425.435 349.369C425.352 349.396 425.271 349.42 425.183 349.443C425.253 349.733 426.777 351.188 426.887 351.038C426.918 350.99 426.822 350.842 426.846 350.817C426.927 350.726 427.166 351.147 427.294 351.064C427.393 351.001 427.193 350.867 427.304 350.811C427.537 350.694 428.448 352.485 428.563 352.694C429.001 353.525 428.712 353.019 428.376 353.135C428.328 353.219 428.291 353.308 428.282 353.41C427.751 353.288 427.166 352.978 426.734 352.667C426.042 352.17 426.956 354.022 426.556 353.79C426.321 353.656 426.182 353.458 425.894 353.435C425.473 353.394 425.356 352.943 424.969 352.816C424.655 352.707 423.409 352.595 423.571 352.024C423.701 351.538 423.079 351.135 422.868 350.946C422.763 350.853 421.378 351.032 421.158 351.101C420.777 351.221 420.177 351.347 419.961 351.699C419.596 352.359 418.754 351.49 418.414 351.629C418.236 351.697 418.408 352.243 418.316 352.415C418.179 352.675 417.841 352.693 417.756 353C417.613 353.565 418.037 354.029 417.841 354.547C417.683 354.959 416.888 355.138 416.878 355.475C416.872 355.656 416.836 355.859 416.67 355.953C416.305 356.162 416.675 356.64 416.451 356.874C415.227 358.123 416.846 359.342 416.57 360.707C416.41 361.482 416.321 361.64 416.654 362.306C416.73 362.477 416.671 363.678 417.282 363.191C417.357 363.894 418.262 364.037 418.422 364.701C418.612 365.495 419.389 365.841 419.992 366.315C420.235 366.5 420.44 366.746 420.72 366.89C421.214 367.142 421.543 366.748 422.022 366.619C422.449 366.496 422.895 366.542 423.295 366.73C423.526 366.838 425.252 365.618 425.722 365.852C426.063 366.023 426.079 366.44 426.236 366.736C426.465 367.16 426.939 366.604 427.256 366.748C427.822 367.005 427.992 369.069 427.512 369.451C427.152 369.717 427.973 370.845 428.084 371.077C428.409 371.717 428.698 372.831 428.6 373.538C428.521 374.116 428.674 375.021 428.349 375.531C428.02 376.034 427.832 376.574 427.568 377.149C426.885 378.622 427.538 380.295 426.954 381.823C426.599 382.608 426.663 383.444 426.47 384.267C426.343 384.792 425.703 385.557 425.954 386.109C426.335 385.762 426.908 385.806 427.342 385.589C428.231 385.151 428.659 384.123 429.302 383.436C429.647 383.074 429.863 382.617 430.068 382.171C430.262 381.748 430.656 381.475 430.84 381.059C431.292 380.008 431.703 378.96 432.159 377.91C433.111 375.645 433.27 373.47 433.602 371.038C433.953 368.468 433.96 366.027 433.478 363.458ZM431.209 357.487C431.086 357.184 429.486 354.832 429.67 354.704C429.887 354.57 433.309 360.633 432.941 361.573C432.418 360.19 431.791 358.845 431.209 357.487C431.325 357.763 431.201 357.471 431.209 357.487ZM432.675 368.213C432.611 368.045 432.699 367.899 432.747 367.704C432.818 367.913 432.705 368.053 432.675 368.213ZM432.498 369.169C432.488 369.067 432.486 368.982 432.552 368.909C432.602 369.009 432.553 369.08 432.498 369.169ZM431.924 376.952C431.869 376.973 431.802 376.997 431.741 377.017C431.633 377.017 431.947 376.864 431.96 376.853C431.946 376.909 431.946 376.935 431.924 376.952C431.946 376.935 431.886 377.02 431.924 376.952ZM432.013 373.791C432.009 373.504 432.023 373.491 432.312 373.304C432.252 373.507 432.047 373.602 432.013 373.791ZM432.338 372.317C432.333 371.791 432.32 371.167 432.433 370.658C432.453 371.552 432.498 372.455 432.471 373.359C432.328 373.165 432.338 372.544 432.338 372.317C432.338 372.502 432.337 372.128 432.338 372.317ZM432.81 374.005C432.798 374.485 432.733 375.797 432.417 376.172C432.444 375.355 432.746 374.616 432.76 373.809C432.83 373.889 432.81 373.948 432.81 374.005C432.81 373.948 432.81 374.057 432.81 374.005ZM433.186 369.086C433.047 369.664 433.182 369.842 432.84 370.16C432.84 369.732 432.678 368.915 433.122 368.66C433.177 368.802 433.229 368.916 433.186 369.086C433.229 368.916 433.128 369.324 433.186 369.086ZM414.303 397.021C414.352 397.103 410.526 398.184 410.133 398.271C408.542 398.605 406.929 398.812 405.302 398.894C402.209 399.044 398.98 398.762 396.012 397.859C396.392 397.903 396.853 398.1 397.241 398.039C396.872 397.809 396.415 397.889 396.083 397.597C397.322 397.802 398.506 397.707 399.639 397.854C399.519 397.695 398.486 397.447 398.491 397.335C398.638 397.326 399.437 397.298 399.469 397.276C399.844 396.985 398.872 397.021 398.956 396.81C398.985 396.753 399.253 396.847 399.347 396.724C399.492 396.523 399.347 396.423 399.402 396.323C399.444 396.236 400.942 395.978 401.102 396.045C400.926 396.152 400.719 396.029 400.798 396.32C400.646 396.301 400.182 396.31 400.153 396.516C400.165 396.466 400.664 397.16 400.678 397.189C400.853 397.46 401.452 397.625 401.503 397.949C401.604 398.495 404.45 398.442 404.878 398.392C405.942 398.269 406.938 397.892 407.983 397.709C408.609 397.598 409.229 397.42 409.862 397.362C410.156 397.333 411.137 396.989 411.361 397.066C411.503 397.579 413.777 396.917 414.303 397.021C414.218 397.003 414.309 397.033 414.303 397.021ZM431.627 380.418C431.751 380.11 431.849 379.79 432 379.492C431.904 379.815 431.768 380.116 431.627 380.418ZM432.126 379.175C432.141 379.134 432.159 379.093 432.172 379.061C432.176 379.11 432.143 379.135 432.126 379.175ZM399.233 339.798C399.073 339.775 398.901 339.791 398.731 339.766C398.821 339.684 399.327 339.667 399.102 339.527C399.799 339.101 401.246 339.016 402.047 339.11C402.944 339.223 403.838 338.946 404.719 339.083C405.078 339.142 405.387 339.15 405.742 339.172C406.05 339.211 405.697 339.527 406.05 339.581C406.261 339.604 406.678 340.078 406.866 339.975C406.857 340.305 406.71 340.078 406.813 340.383C406.837 340.453 407.207 340.662 407.19 340.687C407.155 340.735 406.156 340.662 406.202 340.675C406.124 340.662 406.217 340.832 406.283 340.806C406.483 340.858 406.918 340.791 407.132 340.807C406.626 341.265 405.872 341.21 405.314 341.577C404.972 341.802 404.456 341.782 404.08 341.918C404.08 342.302 403.79 342.768 403.534 343.164C403.355 343.44 402.082 342.807 401.954 342.644C401.675 342.312 401.043 341.436 401.729 341.165C402.562 340.836 401.734 341.104 401.49 340.926C401.685 340.646 401.906 340.742 402.225 340.786C402.064 340.562 401.862 340.508 401.621 340.623C401.54 340.383 401.966 340.167 401.592 339.91C401.43 339.798 400.551 339.93 400.526 339.778C400.47 339.393 401.597 339.595 401.793 339.281C400.951 339.104 400.05 339.922 399.233 339.798C399.381 339.82 399.073 339.775 399.233 339.798ZM415.065 345.535C415.202 345.518 414.895 345.087 414.817 345C414.91 345.009 414.988 345.018 415.081 344.964C415.014 344.768 414.133 344.261 414.074 344.297C413.742 344.506 413.325 343.579 413.286 343.453C413.853 343.376 414.203 343.981 414.715 344.231C415.15 344.443 416.723 345.192 416.767 345.662C416.802 345.899 415.579 345.801 415.395 346.08C415.26 345.734 415.702 345.737 415.693 345.629C415.678 345.546 415.131 345.526 415.065 345.535C415.256 345.508 415.035 345.54 415.065 345.535ZM399.044 345.976C398.956 346.037 397.892 347.043 397.919 347.139C397.942 347.234 399.025 347.166 399.21 347.272C399.196 347.392 399.053 347.331 399.027 347.441C399.168 347.441 399.605 347.165 399.677 347.247C399.687 347.315 399.677 347.383 399.639 347.447C400.122 347.918 400.072 346.892 400.101 346.84C399.762 346.793 400.172 346.321 399.601 346.521C399.639 346.506 398.987 346.326 399.025 346.365C398.971 346.314 399.485 345.866 399.523 345.809C399.222 345.734 399.183 345.867 399.044 345.976C399.08 345.945 398.86 346.108 399.044 345.976ZM400.092 347.091C400.135 347.129 400.019 347.129 400.092 347.091C400.101 347.097 400.078 347.096 400.092 347.091ZM399.851 347.066C399.883 347.029 400.061 346.952 399.95 347.057C399.913 347.127 399.754 347.175 399.851 347.066C399.829 347.091 399.861 347.05 399.851 347.066ZM399.099 345.84L399.101 345.838C399.101 345.84 399.101 345.843 399.105 345.849C399.101 345.842 399.101 345.842 399.099 345.84ZM398.139 346.805C398.169 346.805 398.19 346.805 398.212 346.825C398.187 346.825 398.068 346.818 398.139 346.805C398.117 346.807 398.168 346.805 398.139 346.805ZM387.701 359.347C387.407 359.377 387.891 359.118 387.851 359.025C387.651 358.568 386.29 358.468 386.162 358.104C386.222 358.076 386.263 358.037 386.282 357.978C385.813 357.788 385.574 358.361 385.152 358.322C386.028 356.836 388.205 358.536 389.08 359.225C388.62 359.279 388.159 359.284 387.701 359.347C387.953 359.314 387.665 359.35 387.701 359.347ZM388.836 360.14C388.619 360.044 389.557 360.053 389.686 360.001C389.499 359.716 389.667 359.562 389.306 359.45C389.637 359.047 390.73 359.518 391.074 359.669C391.048 359.719 390.98 359.673 390.946 359.736C390.975 359.759 391.697 360.355 391.209 360.153C390.679 359.927 390.384 360.243 390.008 360.452C389.713 360.033 389.228 360.324 388.836 360.14C388.925 360.183 388.792 360.122 388.836 360.14ZM414.301 344.925C414.814 345.455 414.023 345.861 413.661 345.521C413.488 345.342 413.592 344.914 413.183 344.789C413.291 344.755 413.402 344.721 413.51 344.682C413.232 344.028 414.173 344.789 414.301 344.925C414.267 344.885 414.414 345.049 414.301 344.925ZM407.644 341.714C407.613 341.607 408.378 341.654 408.508 341.629C408.71 341.595 410.234 341.745 409.7 341.993C409.284 342.177 408.674 342.391 408.279 342.032C408.18 341.948 407.647 341.734 407.644 341.714C407.673 341.813 407.624 341.639 407.644 341.714ZM421.568 349.27C421.747 349.27 422.179 349.954 422.104 350.064C421.902 350.388 421.561 349.568 421.348 349.443C421.424 349.393 421.498 349.334 421.568 349.27ZM397.768 340.009C398.288 339.613 398.408 339.84 399.055 339.903C398.848 340.094 398.351 340.129 397.768 340.009C398.351 340.129 397.912 339.899 397.768 340.009ZM409.247 339.562C408.864 339.455 408.46 339.437 408.089 339.289C408.538 339.241 409.076 339.411 409.387 339.498C409.493 339.534 409.222 339.55 409.247 339.562C409.286 339.568 408.864 339.454 409.247 339.562ZM408.089 339.289C408.05 339.295 408.007 339.298 407.965 339.305C408.007 339.261 408.049 339.254 408.089 339.289C408.071 339.284 408.05 339.295 408.089 339.289ZM387.818 360.165C387.907 360.171 387.948 360.214 387.966 360.297C387.915 360.513 387.237 360.206 387.164 360.108C387.397 359.976 387.614 360.053 387.818 360.165ZM392.666 360.148C392.309 361.025 391.405 359.537 392.666 360.148C392.608 360.274 392.453 360.044 392.666 360.148ZM394.061 364.403C394.07 364.377 394.091 364.368 394.126 364.363C394.103 364.377 394.088 364.386 394.061 364.403ZM394.186 364.377C394.167 364.374 394.281 364.018 394.51 364.002C394.781 364.169 394.318 364.394 394.186 364.377C394.481 364.412 394.166 364.374 394.186 364.377ZM397.032 339.82C396.792 339.982 396.503 339.875 396.255 339.966C396.601 339.73 396.758 339.748 397.032 339.82C396.989 339.81 396.792 339.982 397.032 339.82ZM387.992 357.455C387.898 357.096 387.762 357.088 388.002 356.775C388.097 357.109 388.097 357.312 387.992 357.455C388.097 357.312 387.953 357.307 387.992 357.455ZM381.474 369.894C381.466 370.024 381.405 370.074 381.281 370.028C381.237 369.99 381.217 369.555 381.292 369.464C381.351 369.607 381.419 369.744 381.474 369.894C381.419 369.744 381.497 369.953 381.474 369.894ZM396.549 346.37C396.827 346.361 397.052 346.448 397.299 346.632C396.97 346.695 396.758 346.568 396.549 346.37ZM421.453 349.148L421.457 349.153C421.376 349.125 420.886 348.829 421.086 348.668C421.228 348.565 421.433 349.095 421.453 349.148ZM426.501 351.659C426.408 351.562 426.212 351.627 426.159 351.429C426.329 351.52 426.516 351.472 426.678 351.603C426.618 351.65 426.559 351.709 426.501 351.659C426.559 351.709 426.408 351.562 426.501 351.659ZM397.456 339.987C397.408 339.916 397.323 339.965 397.273 339.899C397.412 339.748 397.602 339.798 397.77 339.752C397.761 339.775 397.56 340.142 397.456 339.987C397.482 340.035 397.408 339.916 397.456 339.987ZM396.612 340.173C396.392 340.339 396.161 340.508 395.85 340.478C396.059 340.26 396.342 340.229 396.612 340.173ZM396.536 347.619C396.597 347.631 396.661 347.614 396.758 347.605C396.461 347.967 396.119 347.463 396.19 347.443C396.137 347.457 396.517 347.616 396.536 347.619C396.418 347.599 396.597 347.631 396.536 347.619ZM396.661 340.319C396.867 340.15 397.109 340.121 397.365 340.141C397.145 340.269 396.919 340.339 396.661 340.319ZM420.196 349.991C419.959 349.957 420.638 349.739 420.392 350.056C420.321 350.05 420.253 350.03 420.196 349.991C420.269 349.996 420.157 349.985 420.196 349.991ZM427.704 351.706C427.563 351.638 427.507 351.543 427.549 351.375C427.669 351.462 427.717 351.559 427.704 351.706ZM397.175 341.409C397.262 341.256 397.354 341.215 397.648 341.22C397.504 341.388 397.345 341.415 397.175 341.409ZM395.003 342.419C394.834 342.509 394.705 342.58 394.518 342.567C394.648 342.419 394.8 342.422 395.003 342.419ZM413.056 343.659C413.021 343.724 413.056 343.77 413.102 343.815C413.05 343.79 412.841 343.529 413 343.487C413.076 343.52 413.095 343.576 413.056 343.659C413.082 343.619 413.021 343.724 413.056 343.659ZM385.855 358.388C385.847 358.492 385.794 358.542 385.7 358.54C385.653 358.452 385.808 358.204 385.855 358.388C385.843 358.351 385.869 358.449 385.855 358.388ZM395.979 389.624C396.059 389.651 396.104 389.714 396.115 389.799C396.115 390.06 395.64 389.656 395.979 389.624C395.904 389.631 396.03 389.615 395.979 389.624ZM395.299 342.573C395.24 342.66 395.163 342.702 395.035 342.746C395.099 342.604 395.189 342.582 395.299 342.573ZM381.693 369.844C381.669 370.149 381.607 369.555 381.693 369.844C381.691 369.887 381.684 369.812 381.693 369.844ZM397.308 343.073C397.314 343.067 397.33 343.078 397.343 343.08C397.308 343.105 397.241 343.105 397.308 343.073ZM395.962 340.205C395.927 340.214 395.892 340.217 395.857 340.222C395.887 340.196 395.923 340.194 395.962 340.205ZM395.843 340.226C395.816 340.226 395.849 340.222 395.857 340.222C395.85 340.223 395.846 340.223 395.843 340.226ZM395.697 340.266L395.693 340.269C395.693 340.266 395.694 340.266 395.697 340.266ZM395.697 340.266C395.732 340.222 395.785 340.229 395.834 340.226C395.798 340.278 395.753 340.284 395.697 340.266ZM396.654 340.319H396.661C396.66 340.324 396.654 340.325 396.654 340.319ZM396.654 340.324C396.644 340.375 396.602 340.366 396.563 340.366C396.577 340.324 396.612 340.316 396.654 340.324ZM385.586 371.133C385.521 371.082 385.631 371.167 385.586 371.133C385.561 371.109 385.623 371.161 385.586 371.133ZM417.755 342.681C417.941 342.731 417.764 342.719 417.755 342.681C417.755 342.681 417.761 342.71 417.755 342.681ZM413.103 343.82C413.103 343.82 413.103 343.815 413.102 343.815C413.118 343.82 413.123 343.832 413.118 343.856C413.117 343.843 413.111 343.831 413.103 343.82C413.111 343.831 413.103 343.82 413.103 343.82ZM396.556 340.367C396.562 340.367 396.562 340.367 396.563 340.367C396.563 340.371 396.563 340.371 396.555 340.369C396.555 340.368 396.556 340.368 396.556 340.367ZM396.498 340.383C396.517 340.374 396.536 340.374 396.555 340.369C396.531 340.41 396.505 340.414 396.498 340.383C396.5 340.386 396.517 340.374 396.498 340.383ZM423.903 349.676V349.674L423.906 349.679L423.903 349.676ZM400.026 369.071C399.933 368.991 400.095 369.014 400.026 369.071C400.019 369.064 400.05 369.048 400.026 369.071ZM414.323 397.013C414.316 397.02 414.312 397.02 414.304 397.02C414.309 397.004 414.313 396.995 414.323 397.002C414.323 397.001 414.323 397.01 414.323 397.013ZM414.303 397.021C414.303 397.019 414.301 397.019 414.303 397.019V397.021ZM390.278 347.776C390.295 347.771 390.573 347.739 390.475 347.851C390.366 347.906 390.304 347.878 390.278 347.776C390.28 347.835 390.311 347.771 390.278 347.776ZM388.524 345.328C388.445 345.276 388.462 345.221 388.575 345.164C388.674 345.197 388.655 345.255 388.524 345.328C388.584 345.31 388.483 345.326 388.524 345.328Z" fill="white"/>
        <path d="M421.348 349.443C421.424 349.393 421.499 349.334 421.568 349.27C421.747 349.27 422.18 349.954 422.105 350.064C421.902 350.387 421.561 349.568 421.348 349.443ZM421.087 348.668C420.887 348.829 421.376 349.125 421.458 349.152L421.454 349.147C421.434 349.095 421.228 348.565 421.087 348.668ZM396.853 393.993C396.139 393.844 395.116 393.944 394.517 393.311C394.149 392.922 393.612 392.458 393.265 391.953C393.088 391.703 393.551 391.391 393.088 391.289C392.794 391.22 392.911 391.392 392.888 391.036C392.852 390.426 392.548 390.299 393.019 390.461C392.982 390.451 393.088 389.216 392.564 389.509C393.005 389.95 392.514 390.094 392.519 389.985C392.519 389.607 392.094 388.495 391.877 388.031C393.214 388.231 394.576 388.338 395.964 388.338C396.057 388.338 396.137 388.333 396.231 388.331C396.2 388.333 396.178 388.336 396.156 388.336C396.133 388.513 396.44 388.937 396.372 389.094C396.203 389.531 395.512 388.939 395.355 389.105C395.227 389.244 395.756 389.904 395.835 389.935C395.786 390.039 395.646 390.685 395.622 390.685C395.355 390.648 395.087 391.012 395.371 391.219C395.574 391.355 395.789 391.335 395.98 391.449C396.393 391.689 395.63 391.953 395.787 392.233C396.013 392.637 395.252 392.437 395.965 393.08C394.933 393.117 395.961 393.674 395.961 393.678C395.839 393.603 395.889 393.653 396.001 393.488C395.918 393.428 395.745 393.53 395.695 393.418C395.497 392.957 396.428 393.518 396.403 393.508C396.683 393.68 397.17 393.701 397.392 393.88C397.301 393.905 396.985 394.014 396.859 393.994C396.825 393.986 396.777 393.981 396.853 393.993ZM392.666 389.273C392.652 389.271 392.646 389.273 392.678 389.278C392.803 389.091 392.465 389.226 392.666 389.273ZM394.208 392.824C394.103 392.842 394.103 392.883 394.213 392.947C394.167 392.94 394.252 392.956 394.213 392.947C394.33 392.918 394.33 392.872 394.208 392.824ZM395.329 393.286C395.201 393.352 395.188 393.393 395.289 393.416C395.28 393.416 395.277 393.418 395.299 393.418C395.416 393.373 395.426 393.329 395.329 393.286ZM395.288 393.416C395.289 393.416 395.291 393.418 395.299 393.418C395.316 393.412 395.299 393.412 395.288 393.416ZM392.963 390.342C392.975 390.338 392.99 390.336 393.002 390.328C393.006 390.308 392.999 390.313 392.963 390.342ZM396.858 393.993C396.858 393.993 396.857 393.993 396.853 393.993C396.89 394.001 396.879 393.998 396.858 393.993ZM416.396 342.655C416.841 343.151 417.265 343.663 417.673 344.19C417.764 344.229 417.84 344.231 417.869 344.176C417.711 343.798 417.469 343.371 417.087 343.016C416.896 342.836 416.644 342.75 416.396 342.655ZM417.755 342.681C417.764 342.718 417.941 342.73 417.755 342.681V342.681ZM426.505 351.659H426.501C426.518 351.677 426.516 351.668 426.505 351.659ZM432.81 374.005C432.81 374.002 432.81 374 432.81 373.997C432.81 373.985 432.81 373.977 432.81 374.005ZM432.534 359.873C432.682 360.406 432.824 360.938 432.962 361.473C432.996 361.167 432.818 360.58 432.534 359.873ZM433.177 369.107C433.182 369.102 433.182 369.095 433.186 369.086C433.157 369.204 433.169 369.161 433.177 369.107ZM427.55 351.375C427.507 351.542 427.564 351.638 427.705 351.706C427.718 351.559 427.669 351.462 427.55 351.375ZM423.903 349.673V349.675L423.906 349.677L423.903 349.673ZM426.677 351.602C426.516 351.472 426.329 351.52 426.159 351.429C426.211 351.626 426.408 351.561 426.501 351.659C426.433 351.588 426.486 351.638 426.505 351.659C426.561 351.706 426.62 351.649 426.677 351.602ZM433.601 371.042C433.269 373.474 433.11 375.649 432.158 377.914C431.702 378.964 431.292 380.012 430.839 381.063C430.656 381.479 430.261 381.752 430.068 382.176C429.862 382.621 429.646 383.079 429.302 383.44C428.658 384.127 428.231 385.154 427.341 385.593C426.907 385.81 426.334 385.765 425.954 386.113C425.702 385.562 426.343 384.796 426.469 384.271C426.663 383.448 426.598 382.612 426.954 381.827C427.538 380.299 426.885 378.627 427.568 377.153C427.831 376.577 428.02 376.038 428.348 375.535C428.673 375.025 428.519 374.12 428.599 373.542C428.698 372.835 428.409 371.721 428.083 371.081C427.973 370.849 427.151 369.72 427.511 369.455C427.991 369.074 427.822 367.009 427.256 366.752C426.94 366.608 426.465 367.164 426.236 366.74C426.079 366.443 426.062 366.026 425.722 365.856C425.251 365.622 423.525 366.843 423.295 366.734C423.138 366.661 422.967 366.611 422.793 366.586C423.178 364.754 423.38 362.866 423.38 360.928C423.38 357.434 422.724 354.103 421.535 351.031C422.023 350.958 422.787 350.883 422.866 350.948C423.077 351.137 423.699 351.54 423.569 352.026C423.407 352.597 424.653 352.709 424.967 352.818C425.354 352.946 425.471 353.396 425.892 353.437C426.18 353.46 426.319 353.658 426.554 353.792C426.954 354.024 426.04 352.173 426.732 352.669C427.164 352.98 427.749 353.29 428.28 353.412C428.29 353.311 428.325 353.221 428.374 353.137C428.71 353.021 428.999 353.527 428.561 352.696C428.446 352.487 427.535 350.697 427.302 350.813C427.192 350.869 427.391 351.003 427.292 351.066C427.164 351.149 426.925 350.727 426.844 350.819C426.82 350.843 426.916 350.992 426.885 351.04C426.776 351.19 425.251 349.735 425.181 349.445C425.268 349.422 425.35 349.397 425.433 349.371C425.421 349.267 425.378 349.182 425.295 349.115C425.355 349.081 425.416 349.068 425.485 349.063C425.417 348.949 425.412 348.835 425.46 348.72C425.612 348.601 426.046 349.082 426.272 349.061C426.129 348.483 425.079 347.663 424.562 347.448C424.492 347.537 424.549 347.605 424.536 347.687C424.415 347.483 424.121 347.478 424.033 347.182C424.154 347.31 424.291 347.38 424.456 347.384C424.575 347.284 423.987 346.777 423.936 346.723C423.921 346.855 423.936 346.98 424.002 347.098C423.81 347.214 423.719 346.986 423.545 346.98C423.776 347.682 424.612 348.724 425.236 349.082C425.258 349.045 424.876 349.294 425.047 349.3C424.722 349.288 424.706 349.445 424.555 349.434C424.555 349.825 425.222 349.971 425.383 350.236C425.507 350.424 425.6 350.728 425.703 350.97C425.465 350.891 424.876 350.361 424.882 350.369C424.722 350.342 424.009 349.512 423.874 349.353C423.53 348.955 423.415 348.804 422.951 348.561C422.366 348.256 421.74 347.676 421.166 347.476C420.801 347.351 421.322 348.011 421.322 348.012C421.614 348.263 421.985 348.458 422.281 348.702C422.771 349.092 423.47 349.144 423.904 349.676C423.787 349.585 423.652 349.526 423.506 349.513C423.474 349.767 423.937 350.083 423.974 350.402C423.987 350.482 424.102 350.944 424.083 351.023C423.954 351.031 423.153 350.671 423.205 350.525C423.26 350.396 424.108 350.582 423.763 350.13C423.467 349.748 423.065 349.519 422.67 349.277C421.985 348.894 421.228 348.229 420.495 347.998C420.537 348.237 420.472 348.364 420.364 348.433C419.692 347.118 418.918 345.862 418.047 344.682C418.262 344.675 418.571 344.689 418.649 344.593C418.931 344.243 418.744 344.57 419.174 344.502C419.124 344.073 418.407 343.813 418.355 343.563C418.48 343.572 418.568 343.679 418.701 343.686C418.679 343.604 417.342 342.868 418.07 342.996C418.321 342.678 417.562 342.434 417.397 342.386C417.513 342.484 417.638 342.578 417.762 342.664C417.042 343.251 416.238 342.179 415.489 341.688C415.186 341.381 414.876 341.081 414.557 340.785C414.946 340.919 415.301 341.081 415.476 341.192C415.484 341.253 415.414 341.215 415.396 341.253C415.407 341.308 416.252 341.664 416.57 341.747C416.506 341.685 416.032 341.448 416.028 341.356C416.15 341.553 416.973 341.77 417.205 341.88C417.74 342.148 418.266 342.427 418.781 342.725C419.866 343.343 420.904 344.022 421.902 344.77C423.951 346.302 425.799 348.097 427.396 350.094C429.091 352.212 430.49 354.562 431.556 357.055C431.952 357.987 432.261 358.929 432.534 359.876C431.674 357.773 429.83 354.61 429.669 354.706C429.486 354.835 431.085 357.187 431.208 357.489C431.2 357.473 431.324 357.764 431.208 357.489C431.79 358.847 432.417 360.192 432.94 361.575C432.953 361.545 432.957 361.512 432.961 361.475C433.131 362.134 433.301 362.801 433.48 363.463L433.478 363.46C433.96 366.026 433.953 368.468 433.601 371.042ZM432.675 368.212C432.705 368.053 432.818 367.913 432.748 367.703C432.699 367.899 432.611 368.045 432.675 368.212ZM432.498 369.168C432.553 369.08 432.602 369.008 432.552 368.909C432.487 368.982 432.488 369.066 432.498 369.168ZM431.924 376.952C431.945 376.935 431.945 376.909 431.96 376.853C431.947 376.864 431.633 377.016 431.741 377.016C431.803 376.996 431.869 376.973 431.924 376.952C431.946 376.935 431.886 377.019 431.924 376.952ZM432.312 373.304C432.023 373.491 432.009 373.504 432.013 373.791C432.047 373.602 432.252 373.507 432.312 373.304ZM432.338 372.316C432.338 372.544 432.328 373.164 432.47 373.359C432.498 372.455 432.454 371.552 432.433 370.658C432.319 371.167 432.333 371.792 432.338 372.316C432.338 372.501 432.337 372.128 432.338 372.316ZM432.76 373.809C432.745 374.616 432.444 375.355 432.418 376.173C432.732 375.797 432.798 374.485 432.81 374.005C432.81 374.034 432.81 374.012 432.81 373.997C432.81 373.943 432.825 373.886 432.76 373.809ZM433.186 369.086C433.229 368.915 433.177 368.801 433.122 368.661C432.678 368.915 432.839 369.732 432.839 370.16C433.177 369.846 433.051 369.666 433.177 369.107C433.193 369.063 433.204 369.002 433.186 369.086ZM396.115 389.799C396.103 389.714 396.059 389.65 395.979 389.624C395.64 389.655 396.115 390.059 396.115 389.799ZM414.274 397.017C413.699 396.939 411.502 397.569 411.36 397.067C411.137 396.989 410.156 397.333 409.861 397.362C409.229 397.421 408.608 397.598 407.983 397.709C406.938 397.892 405.941 398.269 404.878 398.392C404.451 398.442 401.604 398.495 401.503 397.949C401.453 397.626 400.852 397.459 400.678 397.189C400.663 397.16 400.164 396.466 400.153 396.516C400.181 396.31 400.645 396.3 400.798 396.321C400.72 396.029 400.927 396.153 401.102 396.045C400.942 395.977 399.444 396.236 399.402 396.323C399.347 396.423 399.492 396.523 399.347 396.724C399.253 396.847 398.984 396.753 398.956 396.81C398.871 397.022 399.844 396.985 399.468 397.276C399.437 397.299 398.637 397.326 398.491 397.336C398.486 397.447 399.519 397.695 399.638 397.854C398.505 397.707 397.322 397.802 396.083 397.598C396.414 397.889 396.871 397.81 397.241 398.039C396.853 398.1 396.392 397.903 396.011 397.859C398.979 398.763 402.21 399.044 405.301 398.894C406.928 398.812 408.541 398.605 410.133 398.271C410.525 398.184 414.352 397.104 414.303 397.021C414.309 397.028 414.284 397.021 414.274 397.017ZM414.274 397.017C414.284 397.021 414.297 397.021 414.304 397.021C414.269 397.012 414.269 397.015 414.274 397.017ZM395.979 389.624C396.03 389.615 395.904 389.63 395.979 389.624V389.624ZM414.303 397.019C414.313 397.019 414.317 397.019 414.323 397.012C414.323 397.01 414.323 397 414.323 397C414.313 396.994 414.309 397.003 414.303 397.019ZM432.172 379.061C432.158 379.093 432.14 379.134 432.126 379.174C432.143 379.134 432.176 379.11 432.172 379.061ZM432.001 379.491C431.849 379.79 431.751 380.11 431.627 380.418C431.768 380.115 431.904 379.815 432.001 379.491Z" fill="#E6E5E5"/>
        <path d="M440.142 323.713C440.142 325.451 438.724 326.867 436.987 326.867C435.242 326.867 433.825 325.45 433.825 323.713C433.825 321.965 435.241 320.55 436.987 320.55C438.724 320.55 440.142 321.965 440.142 323.713Z" fill="#CCCBCA"/>
        <path d="M359.665 332.894C359.665 334.975 357.976 336.674 355.885 336.674C353.795 336.674 352.104 334.974 352.104 332.894C352.104 330.806 353.795 329.113 355.885 329.113C357.976 329.113 359.665 330.806 359.665 332.894Z" fill="#CCCBCA"/>
        <path d="M380.985 324.132C380.985 325.158 380.157 325.994 379.133 325.994C378.099 325.994 377.272 325.158 377.272 324.132C377.272 323.11 378.098 322.274 379.133 322.274C380.157 322.273 380.985 323.109 380.985 324.132Z" fill="#CCCBCA"/>
        <path d="M359.665 351.722C359.665 353.109 358.538 354.237 357.14 354.237C355.755 354.237 354.629 353.109 354.629 351.722C354.629 350.326 355.755 349.197 357.14 349.197C358.538 349.198 359.665 350.326 359.665 351.722Z" fill="#CCCBCA"/>
        <path d="M359.665 394.918C359.665 395.623 359.102 396.185 358.41 396.185C357.705 396.185 357.141 395.623 357.141 394.918C357.141 394.225 357.705 393.662 358.41 393.662C359.102 393.662 359.665 394.225 359.665 394.918Z" fill="#CCCBCA"/>
        <path d="M450.964 339.984C450.964 340.499 450.539 340.923 450.025 340.923C449.5 340.923 449.076 340.499 449.076 339.984C449.076 339.457 449.5 339.033 450.025 339.033C450.54 339.033 450.964 339.457 450.964 339.984Z" fill="#CCCBCA"/>
        <path d="M462.752 379.581C462.752 380.608 461.925 381.443 460.891 381.443C459.868 381.443 459.038 380.607 459.038 379.581C459.038 378.558 459.868 377.729 460.891 377.729C461.925 377.729 462.752 378.558 462.752 379.581Z" fill="#CCCBCA"/>
        <path d="M448.57 392.637C448.57 393.342 448.006 393.905 447.304 393.905C446.609 393.905 446.047 393.342 446.047 392.637C446.047 391.944 446.608 391.381 447.304 391.381C448.006 391.381 448.57 391.944 448.57 392.637Z" fill="#CCCBCA"/>
        <path d="M120.968 360.531C108.604 360.531 98.9186 336.23 98.9186 305.207C98.9186 274.184 108.604 249.882 120.968 249.882C133.332 249.882 143.018 274.184 143.018 305.207C143.018 336.23 133.332 360.531 120.968 360.531ZM120.968 252.388C110.373 252.388 101.423 276.576 101.423 305.207C101.423 333.838 110.374 358.025 120.968 358.025C131.563 358.025 140.514 333.838 140.514 305.207C140.514 276.576 131.563 252.388 120.968 252.388Z" fill="#3F4A5A"/>
        <path d="M154.206 338.948C142.37 338.948 125.821 333.473 109.936 324.302C97.3017 317.002 86.5025 308.234 79.5301 299.61C72.3002 290.67 70.0023 282.833 73.0611 277.544C75.3547 273.569 80.4268 271.466 87.7265 271.466C99.5588 271.466 116.104 276.941 131.987 286.112C144.626 293.41 155.43 302.178 162.404 310.802C169.635 319.743 171.932 327.579 168.874 332.869C166.581 336.845 161.507 338.948 154.206 338.948ZM87.7267 273.971C83.2958 273.971 77.5313 274.808 75.2291 278.796C72.7626 283.063 75.04 290.075 81.4768 298.035C88.2607 306.425 98.8136 314.985 111.189 322.132C126.708 331.093 142.79 336.442 154.206 336.442C158.637 336.442 164.404 335.605 166.706 331.616C169.173 327.348 166.896 320.337 160.458 312.377C153.671 303.986 143.115 295.428 130.734 288.281C115.217 279.32 99.1393 273.971 87.7267 273.971Z" fill="#3F4A5A"/>
        <path d="M87.7274 338.948C80.4274 338.948 75.3546 336.846 73.0598 332.868C70.0022 327.58 72.2995 319.743 79.5295 310.804C86.5025 302.18 97.301 293.411 109.936 286.113C125.82 276.942 142.369 271.467 154.206 271.467C161.507 271.467 166.58 273.569 168.875 277.546C171.933 282.835 169.635 290.671 162.405 299.611C155.43 308.235 144.628 317.003 131.988 324.303C116.105 333.473 99.559 338.948 87.7274 338.948ZM154.206 273.971C142.789 273.971 126.708 279.32 111.189 288.281C98.8145 295.429 88.2614 303.988 81.4775 312.378C75.04 320.338 72.7626 327.351 75.2291 331.615C77.532 335.606 83.2971 336.442 87.728 336.442C99.1391 336.442 115.217 331.093 130.735 322.132C143.116 314.985 153.672 306.427 160.459 298.035C166.896 290.076 169.174 283.063 166.707 278.798C164.405 274.808 158.637 273.971 154.206 273.971Z" fill="#3F4A5A"/>
        <path d="M122.133 289.838H119.795L119.118 293.23H122.827L122.133 289.838Z" fill="#333C49"/>
        <path d="M114.3 291.313L112.276 292.481L113.387 295.752L116.588 293.906L114.3 291.313Z" fill="#333C49"/>
        <path d="M108.246 296.515L107.08 298.527L109.684 300.813L111.522 297.618L108.246 296.515Z" fill="#333C49"/>
        <path d="M105.6 304.036V306.375L109 307.051V303.359L105.6 304.036Z" fill="#333C49"/>
        <path d="M107.08 311.874L108.246 313.896L111.522 312.787L109.684 309.592L107.08 311.874Z" fill="#333C49"/>
        <path d="M112.276 317.927L114.3 319.096L116.588 316.494L113.39 314.659L112.276 317.927Z" fill="#333C49"/>
        <path d="M119.804 320.573H122.133L122.827 317.18H119.118L119.804 320.573Z" fill="#333C49"/>
        <path d="M127.638 319.096L129.666 317.927L128.558 314.659L125.353 316.494L127.638 319.096Z" fill="#333C49"/>
        <path d="M133.691 313.896L134.866 311.874L132.254 309.592L130.423 312.787L133.691 313.896Z" fill="#333C49"/>
        <path d="M136.335 306.375V304.036L132.94 303.359V307.051L136.335 306.375Z" fill="#333C49"/>
        <path d="M134.866 298.527L133.691 296.515L130.423 297.618L132.254 300.813L134.866 298.527Z" fill="#333C49"/>
        <path d="M129.666 292.482L127.638 291.314L125.353 293.906L128.558 295.751L129.666 292.482Z" fill="#333C49"/>
        <path d="M120.967 293.098C114.286 293.098 108.849 298.513 108.849 305.208C108.849 311.899 114.285 317.313 120.967 317.313C127.665 317.313 133.093 311.899 133.093 305.208C133.093 298.513 127.665 293.098 120.967 293.098ZM120.967 309.167C118.778 309.167 117.003 307.392 117.003 305.208C117.003 303.02 118.778 301.246 120.967 301.246C123.166 301.246 124.929 303.02 124.929 305.208C124.929 307.392 123.166 309.167 120.967 309.167Z" fill="#3F4A5A"/>
        <path d="M120.968 299.25C117.676 299.25 115.031 301.917 115.031 305.207C115.031 308.493 117.675 311.15 120.968 311.15C124.243 311.15 126.914 308.493 126.914 305.207C126.914 301.918 124.243 299.25 120.968 299.25ZM120.968 308.865C118.956 308.865 117.314 307.22 117.314 305.207C117.314 303.185 118.956 301.545 120.968 301.545C122.999 301.545 124.635 303.186 124.635 305.207C124.635 307.22 122.999 308.865 120.968 308.865Z" fill="#F67656"/>
        <path d="M158.45 272.802C158.45 276.594 155.379 279.665 151.588 279.665C147.796 279.665 144.725 276.594 144.725 272.802C144.725 269.017 147.797 265.938 151.588 265.938C155.379 265.939 158.45 269.017 158.45 272.802Z" fill="#D7753E"/>
        <path d="M82.7269 292.043C82.7269 295.829 79.6551 298.907 75.863 298.907C72.0724 298.907 69 295.829 69 292.043C69 288.252 72.0724 285.18 75.863 285.18C79.6551 285.18 82.7269 288.252 82.7269 292.043Z" fill="#F67656"/>
        <path d="M132.89 356.371C136.68 356.371 139.753 353.298 139.753 349.508C139.753 345.717 136.68 342.645 132.89 342.645C129.1 342.645 126.027 345.717 126.027 349.508C126.027 353.298 129.1 356.371 132.89 356.371Z" fill="#D7753E"/>
        <path d="M422.932 309.243H421.089V310.038H422.932V309.243Z" fill="#34495E"/>
        <path d="M382.274 316.467L381.716 315.909L384.181 313.443L384.739 314.002L382.274 316.467ZM387.204 311.544L386.643 310.981L388.265 309.36L388.544 309.242H389.733V310.037H388.71L387.204 311.544ZM417.604 310.037H414.122V309.242H417.604V310.037ZM410.637 310.037H407.155V309.242H410.637V310.037ZM403.669 310.037H400.187V309.242H403.669V310.037ZM396.704 310.037H393.219V309.242H396.704V310.037Z" fill="#34495E"/>
        <path d="M378.51 320.238L377.948 319.68L379.252 318.375L379.813 318.934L378.51 320.238Z" fill="#34495E"/>
        <path d="M378.51 320.238L377.948 319.68L379.252 318.375L379.813 318.934L378.51 320.238Z" fill="#34495E"/>
        <path d="M382.274 316.468L381.716 315.91L384.182 313.444L384.739 314.003L382.274 316.468ZM387.204 311.544L386.643 310.98L388.149 309.474V308.451H388.941V309.641L388.826 309.917L387.204 311.544ZM388.942 304.97H388.15V301.48H388.942V304.97ZM388.942 297.997H388.15V294.516H388.942V297.997ZM388.942 291.034H388.15V287.548H388.942V291.034ZM388.942 284.062H388.15V280.58H388.942V284.062Z" fill="#34495E"/>
        <path d="M388.941 275.253H388.149V277.097H388.941V275.253Z" fill="#34495E"/>
        <path d="M412.618 320.692H378.23C377.821 320.692 377.492 320.363 377.492 319.956V285.566C377.492 285.157 377.822 284.828 378.23 284.828H412.618C413.027 284.828 413.356 285.157 413.356 285.566V319.956C413.357 320.364 413.027 320.692 412.618 320.692ZM378.965 319.221H411.879V286.306H378.965V319.221Z" fill="#34495E"/>
        <path d="M412.618 286.306H378.231C377.93 286.306 377.661 286.122 377.548 285.852C377.434 285.571 377.496 285.254 377.708 285.045L388.024 274.733C388.161 274.596 388.351 274.517 388.544 274.517H422.934C423.231 274.517 423.503 274.692 423.616 274.97C423.73 275.249 423.668 275.565 423.457 275.772L413.141 286.091C413.001 286.225 412.815 286.306 412.618 286.306ZM380.008 284.828H412.311L421.153 275.987H388.851L380.008 284.828Z" fill="#34495E"/>
        <path d="M412.618 320.692C412.522 320.692 412.428 320.675 412.336 320.64C412.061 320.524 411.879 320.253 411.879 319.955V285.565C411.879 285.369 411.959 285.186 412.095 285.044L422.411 274.732C422.622 274.519 422.939 274.452 423.215 274.567C423.491 274.682 423.673 274.953 423.673 275.253V309.64C423.673 309.836 423.593 310.022 423.457 310.164L413.141 320.475C412.998 320.623 412.811 320.692 412.618 320.692ZM413.357 285.873V318.175L422.195 309.333V277.03L413.357 285.873Z" fill="#34495E"/>
        <path d="M395.559 323.931C394.724 323.931 393.964 324.196 393.355 324.779L393.831 325.57C394.279 325.115 394.798 324.897 395.385 324.897C396.102 324.897 396.613 325.271 396.613 325.874V326.661C396.223 326.211 395.625 325.983 394.908 325.983C394.048 325.983 393.094 326.487 393.094 327.701C393.094 328.857 394.062 329.439 394.908 329.439C395.603 329.439 396.223 329.191 396.613 328.735V329.31H397.754V325.825C397.754 324.422 396.733 323.931 395.559 323.931ZM396.613 328.116C396.342 328.472 395.854 328.66 395.365 328.66C394.724 328.66 394.236 328.286 394.236 327.711C394.236 327.149 394.724 326.765 395.365 326.765C395.854 326.765 396.342 326.952 396.613 327.313V328.116Z" fill="#34495E"/>
        <path d="M371.568 300.944C370.916 300.944 370.309 301.234 369.885 301.799V299.073H368.745V306.318H369.885V305.605C370.289 306.121 370.896 306.448 371.568 306.448C372.915 306.448 373.905 305.428 373.905 303.692C373.906 301.996 372.925 300.944 371.568 300.944ZM371.242 305.438C370.699 305.438 370.146 305.135 369.885 304.748V302.656C370.146 302.269 370.699 301.955 371.242 301.955C372.145 301.955 372.722 302.684 372.722 303.693C372.722 304.71 372.145 305.438 371.242 305.438Z" fill="#34495E"/>
        <path d="M423.738 319.685C422.791 319.685 422.15 318.956 422.15 317.937C422.15 316.912 422.791 316.2 423.738 316.2C424.247 316.2 424.652 316.39 424.943 316.802L425.692 316.122C425.322 315.619 424.716 315.184 423.684 315.184C422.098 315.184 420.98 316.349 420.98 317.937C420.98 319.519 422.098 320.693 423.684 320.693C424.716 320.693 425.322 320.25 425.692 319.763L424.943 319.054C424.651 319.469 424.247 319.685 423.738 319.685Z" fill="#34495E"/>
        <path d="M399.774 248.738L399.028 247.992L391.074 255.941L391.82 256.687L399.774 248.738Z" fill="#34495E"/>
        <path d="M398.156 256.838C397.181 256.838 396.389 256.047 396.389 255.072C396.389 254.096 397.18 253.305 398.156 253.305C399.13 253.305 399.924 254.096 399.924 255.072C399.924 256.047 399.13 256.838 398.156 256.838ZM398.156 254.354C397.762 254.354 397.441 254.675 397.441 255.072C397.441 255.468 397.762 255.789 398.156 255.789C398.552 255.789 398.872 255.468 398.872 255.072C398.872 254.675 398.552 254.354 398.156 254.354Z" fill="#34495E"/>
        <path d="M392.69 251.376C391.715 251.376 390.921 250.58 390.921 249.604C390.921 248.628 391.715 247.837 392.69 247.837C393.666 247.837 394.46 248.628 394.46 249.604C394.46 250.579 393.666 251.376 392.69 251.376ZM392.69 248.892C392.297 248.892 391.975 249.213 391.975 249.604C391.975 250 392.297 250.321 392.69 250.321C393.086 250.321 393.405 250 393.405 249.604C393.405 249.213 393.086 248.892 392.69 248.892Z" fill="#34495E"/>
        <path d="M417.007 265.353H409.707V266.409H417.007V265.353Z" fill="#34495E"/>
        <path d="M413.882 262.233H412.831V269.537H413.882V262.233Z" fill="#34495E"/>
        <path d="M440.508 331.919H433.208V332.975H440.508V331.919Z" fill="#34495E"/>
        <path d="M440.508 328.909H433.208V329.965H440.508V328.909Z" fill="#34495E"/>
        <path d="M416.483 241.383L416.113 241.019C415.203 240.105 413.622 240.105 412.712 241.019L412.341 241.383L411.596 240.636L411.967 240.271C413.271 238.967 415.55 238.967 416.855 240.273L417.225 240.638L416.483 241.383Z" fill="#34495E"/>
        <path d="M419.297 242.768C418.374 242.768 417.502 242.41 416.849 241.758L416.482 241.383L417.225 240.638L417.595 241.013C418.503 241.917 420.087 241.917 420.995 241.013L421.365 240.638L422.113 241.381L421.742 241.756C421.09 242.41 420.222 242.768 419.297 242.768Z" fill="#34495E"/>
    </g>
    <defs>
        <clipPath id="clip0_6007_2793">
            <rect width="511.997" height="511.997" fill="white" transform="translate(-0.00195312)"/>
        </clipPath>
        <clipPath id="clip1_6007_2793">
            <rect width="220" height="220" fill="white" transform="translate(148.745 230)"/>
        </clipPath>
    </defs>
</svg>
