<?xml version="1.0" encoding="utf-8"?>
<!-- Generator: Adobe Illustrator 25.2.1, SVG Export Plug-In . SVG Version: 6.00 Build 0)  -->
<svg version="1.1" id="Layer_1" xmlns="http://www.w3.org/2000/svg" xmlns:xlink="http://www.w3.org/1999/xlink" x="0px" y="0px"
	 viewBox="0 0 152 152" style="enable-background:new 0 0 152 152;" xml:space="preserve">
<style type="text/css">
	.st0{fill:#B3E8F0;}
	.st1{fill:none;stroke:#F27A54;stroke-width:2;}
	.st2{fill:none;stroke:url(#SVGID_1_);stroke-width:2;}
	.st3{fill:#ADECF7;}
	.st4{fill:#353F49;}
	.st5{fill:#474F59;}
	.st6{fill:#FFFFFF;}
	.st7{fill:#F77B55;}
	.st8{fill:#CCCBCA;}
	.st9{fill:#D9D8D7;}
	.st10{fill:#F2F2F2;}
	.st11{fill:#76D0DE;}
</style>
<path class="st0" d="M151,76c0,41.4-33.6,75-75,75c-41.4,0-75-33.6-75-75C1,34.6,34.6,1,76,1C117.4,1,151,34.6,151,76z"/>
<path class="st1" d="M151,76c0,41.4-33.6,75-75,75c-41.4,0-75-33.6-75-75C1,34.6,34.6,1,76,1C117.4,1,151,34.6,151,76z"/>
<linearGradient id="SVGID_1_" gradientUnits="userSpaceOnUse" x1="76" y1="154" x2="76" y2="2" gradientTransform="matrix(1 0 0 -1 0 154)">
	<stop  offset="0" style="stop-color:#E5A84F"/>
	<stop  offset="1" style="stop-color:#FFFFFF;stop-opacity:0"/>
</linearGradient>
<path class="st2" d="M151,76c0,41.4-33.6,75-75,75c-41.4,0-75-33.6-75-75C1,34.6,34.6,1,76,1C117.4,1,151,34.6,151,76z"/>
<g>
	<path class="st3" d="M76,149c40.3,0,73-32.7,73-73c0-40.3-32.7-73-73-73C35.7,3,3,35.7,3,76C3,116.3,35.7,149,76,149z"/>
	<path class="st4" d="M132,52.9c-0.7-0.7-1.7-1.1-2.7-1.1H22.7c-1,0-1.9,0.4-2.7,1.1c-0.7,0.7-1.1,1.7-1.1,2.7v65.9h114.2V55.5
		C133.1,54.6,132.8,53.6,132,52.9z"/>
	<path class="st5" d="M77.6,54.7c0,0.9-0.7,1.6-1.6,1.6c-0.9,0-1.6-0.7-1.6-1.6c0-0.9,0.7-1.6,1.6-1.6
		C76.9,53.1,77.6,53.8,77.6,54.7z"/>
	<path class="st6" d="M76.7,54.7c0,0.4-0.3,0.7-0.7,0.7c-0.4,0-0.7-0.3-0.7-0.7c0-0.4,0.3-0.7,0.7-0.7C76.4,54,76.7,54.3,76.7,54.7z
		"/>
	<path class="st6" d="M127.2,57.6H24.8v63.9h102.4V57.6z"/>
	<path class="st7" d="M72.7,73.4H30.2v23.9h42.5V73.4z"/>
	<path class="st6" d="M47.8,81.1l7.3,4.2l-7.3,4.2V81.1z"/>
	<path class="st4" d="M96.6,73.4H79.1v9.8h17.5V73.4z"/>
	<path class="st8" d="M86.3,76.6l3,1.7l-3,1.7V76.6z"/>
	<path class="st4" d="M96.6,87.4H79.1v9.9h17.5V87.4z"/>
	<path class="st8" d="M86.3,90.6l3,1.7l-3,1.7V90.6z"/>
	<path class="st4" d="M96.6,101.5H79.1v9.8h17.5V101.5z"/>
	<path class="st8" d="M86.3,104.7l3,1.7l-3,1.7V104.7z"/>
	<path class="st9" d="M121.8,79.1h-21.6v1.2h21.6V79.1z"/>
	<path class="st9" d="M121.8,82h-21.6v1.2h21.6V82z"/>
	<path class="st9" d="M121.8,76.2h-21.6v1.2h21.6V76.2z"/>
	<path class="st9" d="M112.5,73.4h-12.3v1.2h12.3V73.4z"/>
	<path class="st9" d="M72.7,107.2h-33v1.2h33V107.2z"/>
	<path class="st9" d="M56.2,110.1H39.7v1.2h16.5V110.1z"/>
	<path class="st9" d="M72.7,104.3h-33v1.2h33V104.3z"/>
	<path class="st9" d="M49.1,101.5H30.2v1.2h18.8V101.5z"/>
	<path class="st9" d="M121.8,93.2h-21.6v1.2h21.6V93.2z"/>
	<path class="st9" d="M121.8,96h-21.6v1.2h21.6V96z"/>
	<path class="st9" d="M121.8,90.3h-21.6v1.2h21.6V90.3z"/>
	<path class="st9" d="M112.5,87.4h-12.3v1.2h12.3V87.4z"/>
	<path class="st9" d="M121.8,107.2h-21.6v1.2h21.6V107.2z"/>
	<path class="st9" d="M121.8,110.1h-21.6v1.2h21.6V110.1z"/>
	<path class="st9" d="M121.8,104.3h-21.6v1.2h21.6V104.3z"/>
	<path class="st9" d="M112.5,101.5h-12.3v1.2h12.3V101.5z"/>
	<path class="st7" d="M121.8,63.3H30.2v5h91.5V63.3z"/>
	<path class="st6" d="M76,65.1H31.7v1.2H76V65.1z"/>
	<path class="st8" d="M5.8,123.6c5.3,2.3,11.2,3.6,17.4,3.6h105.4c6.2,0,12.1-1.3,17.5-3.6H5.8z"/>
	<path class="st10" d="M146.2,121.5H5.8v2.2h140.3V121.5z"/>
	<path class="st8" d="M88.2,121.5H63.8v1.1h24.4V121.5z"/>
	<path class="st7" d="M28.6,7.6v25.6h30.7l6.6,6.6v-6.6h3.2V7.6H28.6z"/>
	<path class="st6" d="M61.4,19.5h-25v1.8h25V19.5z"/>
	<path class="st6" d="M61.4,23.6H48.9v1.7h12.5V23.6z"/>
	<path class="st6" d="M61.4,15.4h-25v1.7h25V15.4z"/>
	<path class="st6" d="M90.9,42.8l-8.3,2.8l2.8-8.3L90.9,42.8z"/>
	<path class="st5" d="M107.8,25.9l-5.6-5.6L85.3,37.2l5.6,5.6L107.8,25.9z"/>
	<path class="st4" d="M85.8,44.5l-3.3,1.1l1.1-3.3L85.8,44.5z"/>
	<path class="st6" d="M108.7,25l-5.6-5.6l-0.9,0.9l5.6,5.6L108.7,25z"/>
	<path class="st5" d="M108.7,25l-5.6-5.6c1.5-1.5,4-1.5,5.6,0C110.3,20.9,110.3,23.4,108.7,25z"/>
	<path class="st11" d="M15.9,68.9c7.1,0,12.9-5.8,12.9-12.9S23,43.2,15.9,43.2C8.8,43.2,3,48.9,3,56S8.8,68.9,15.9,68.9z"/>
	<path class="st6" d="M17,60.1h-2.4L14,48h3.8L17,60.1z"/>
	<path class="st6" d="M17,61.7h-2.4v2.4H17V61.7z"/>
</g>
</svg>
