<?xml version="1.0" encoding="utf-8"?>
<!-- Generator: Adobe Illustrator 25.0.1, SVG Export Plug-In . SVG Version: 6.00 Build 0)  -->
<svg version="1.1" id="Layer_1" xmlns="http://www.w3.org/2000/svg" xmlns:xlink="http://www.w3.org/1999/xlink" x="0px" y="0px"
	 viewBox="0 0 206 80" style="enable-background:new 0 0 206 80;" xml:space="preserve">
<style type="text/css">
	.st0{fill:#FFFFFF;stroke:#E5A84F;}
	.st1{fill:#D7753E;}
	.st2{fill:#FFDC54;}
	.st3{fill:#CBAA29;}
	.st4{fill:#5BBCBD;}
	.st5{fill:#368C8D;}
</style>
<path class="st0" d="M198,21.5H82.9C76.3,9,63.1,0.5,48,0.5S19.7,9,13.1,21.5H8c-4.1,0-7.5,3.4-7.5,7.5v23c0,4.1,3.4,7.5,7.5,7.5
	h5.7c6.8,11.9,19.6,20,34.3,20s27.6-8.1,34.3-20H198c4.1,0,7.5-3.4,7.5-7.5V29C205.5,24.9,202.1,21.5,198,21.5z"/>
<path class="st1" d="M108.9,48l-1.7-4.4h-5.7L99.8,48H98l5.6-14.3h1.6l5.6,14.3H108.9z M106.6,42l-1.6-4.3c0-0.1-0.1-0.3-0.2-0.6
	s-0.2-0.6-0.3-0.9c-0.1-0.3-0.1-0.5-0.2-0.7c-0.1,0.4-0.2,0.8-0.3,1.2c-0.1,0.4-0.2,0.7-0.3,0.9l-1.6,4.3L106.6,42L106.6,42z
	 M121.4,37.3V48H120l-0.3-1.4h-0.1c-0.3,0.6-0.8,1-1.4,1.2c-0.6,0.3-1.3,0.4-2,0.4c-1.3,0-2.3-0.3-2.9-0.9c-0.7-0.6-1-1.6-1-3v-7
	h1.8v6.9c0,1.7,0.8,2.6,2.4,2.6c1.2,0,2-0.3,2.5-1s0.7-1.6,0.7-2.9v-5.6H121.4z M128.6,48.2c-1.3,0-2.4-0.5-3.2-1.4
	c-0.8-0.9-1.2-2.3-1.2-4.2s0.4-3.2,1.2-4.2c0.8-0.9,1.9-1.4,3.2-1.4c0.8,0,1.5,0.2,2,0.5s1,0.7,1.3,1.1h0.1c0-0.2,0-0.4-0.1-0.8
	c0-0.3,0-0.6,0-0.8v-4.3h1.8V48h-1.4l-0.3-1.4h0c-0.3,0.5-0.7,0.8-1.3,1.2C130.2,48,129.5,48.2,128.6,48.2z M128.9,46.7
	c1.1,0,1.9-0.3,2.4-0.9c0.5-0.6,0.7-1.6,0.7-2.8v-0.3c0-1.3-0.2-2.4-0.7-3.1c-0.4-0.7-1.3-1.1-2.4-1.1c-0.9,0-1.7,0.4-2.1,1.1
	c-0.5,0.7-0.7,1.8-0.7,3c0,1.3,0.2,2.3,0.7,3C127.2,46.4,128,46.7,128.9,46.7z M138,33.3c0.3,0,0.5,0.1,0.7,0.3s0.3,0.5,0.3,0.8
	c0,0.4-0.1,0.7-0.3,0.8c-0.2,0.2-0.4,0.3-0.7,0.3s-0.5-0.1-0.7-0.3s-0.3-0.5-0.3-0.8c0-0.4,0.1-0.7,0.3-0.8
	C137.5,33.4,137.7,33.3,138,33.3z M138.9,37.3V48h-1.8V37.3H138.9z M145.9,46.8c0.3,0,0.5,0,0.8-0.1s0.5-0.1,0.7-0.2v1.3
	c-0.2,0.1-0.5,0.2-0.8,0.2c-0.3,0.1-0.7,0.1-1,0.1c-0.6,0-1.1-0.1-1.6-0.3s-0.8-0.5-1.1-1s-0.4-1.2-0.4-2v-6.2H141v-0.8l1.5-0.7
	l0.7-2.3h1v2.5h3.1v1.4h-3.1v6.2c0,0.7,0.2,1.1,0.5,1.5C145,46.6,145.4,46.8,145.9,46.8z M158.8,42.6c0,1.8-0.5,3.1-1.4,4.1
	s-2.1,1.5-3.6,1.5c-0.9,0-1.8-0.2-2.5-0.6c-0.7-0.4-1.3-1.1-1.7-1.9c-0.4-0.8-0.6-1.9-0.6-3c0-1.8,0.4-3.1,1.3-4.1
	c0.9-1,2.1-1.4,3.6-1.4c1,0,1.8,0.2,2.6,0.7c0.7,0.4,1.3,1.1,1.7,1.9C158.6,40.4,158.8,41.4,158.8,42.6z M150.7,42.6
	c0,1.3,0.2,2.3,0.7,3s1.3,1.1,2.4,1.1c1.1,0,1.9-0.4,2.4-1.1c0.5-0.7,0.8-1.8,0.8-3s-0.3-2.3-0.8-3s-1.3-1.1-2.4-1.1
	c-1.1,0-1.9,0.4-2.4,1.1C151,40.4,150.7,41.4,150.7,42.6z M166.6,37.1c0.2,0,0.4,0,0.6,0c0.2,0,0.4,0,0.6,0.1l-0.2,1.6
	c-0.2,0-0.4-0.1-0.6-0.1c-0.2,0-0.4,0-0.6,0c-0.5,0-1.1,0.2-1.5,0.5c-0.5,0.3-0.9,0.7-1.2,1.3c-0.3,0.5-0.4,1.2-0.4,1.9V48h-1.8
	V37.3h1.4l0.2,2h0.1c0.3-0.6,0.8-1.1,1.3-1.5C165.2,37.3,165.9,37.1,166.6,37.1z M168.2,37.3h1.9l2.3,6.1c0.2,0.5,0.4,1,0.5,1.5
	c0.2,0.5,0.3,0.9,0.4,1.4h0.1c0.1-0.3,0.2-0.8,0.4-1.3s0.4-1.1,0.5-1.6l2.2-6.1h1.9l-4.6,12.2c-0.4,1-0.9,1.8-1.5,2.4
	c-0.6,0.6-1.4,0.9-2.4,0.9c-0.3,0-0.6,0-0.8-0.1c-0.2,0-0.4-0.1-0.6-0.1v-1.4c0.1,0,0.3,0.1,0.5,0.1s0.4,0,0.7,0
	c0.6,0,1.1-0.2,1.5-0.5s0.7-0.8,0.9-1.4l0.6-1.4L168.2,37.3z"/>
<path class="st2" d="M34.7,32v11.4c-0.5-0.1-0.9-0.1-1.4-0.1c-5.1,0-9.3,4.3-9.3,9.7s4.2,9.7,9.3,9.7s9.3-4.3,9.3-9.7V24.3L34.7,32z
	"/>
<path class="st3" d="M42.6,24.3L34.7,32v6.5l7.9-1.7C42.6,36.8,42.6,24.3,42.6,24.3z"/>
<path class="st4" d="M62.9,22.7v14.9c-0.5-0.1-0.9-0.1-1.4-0.1c-5.1,0-9.3,4.3-9.3,9.7s4.2,9.7,9.3,9.7s9.3-4.3,9.3-9.7V24.3
	L62.9,22.7z"/>
<path class="st5" d="M70.8,30.9v-6.5l-7.9-1.6v9.8L70.8,30.9z"/>
<path class="st1" d="M37,23.2l30.2-6.9c1.9-0.4,3.6,1.1,3.6,3v5L34.7,32v-5.8C34.7,24.8,35.6,23.5,37,23.2z"/>
</svg>
