<svg width="54" height="53" viewBox="0 0 54 53" fill="none" xmlns="http://www.w3.org/2000/svg">
<rect width="54" height="53" rx="5" fill="#5BBCBD"/>
<path d="M32.1719 18.5078C32.1719 18.366 32.0559 18.25 31.9141 18.25H19.5391C19.3973 18.25 19.2813 18.366 19.2813 18.5078V20.0547C19.2813 20.1965 19.3973 20.3125 19.5391 20.3125H31.9141C32.0559 20.3125 32.1719 20.1965 32.1719 20.0547V18.5078ZM31.9141 22.8906H19.5391C19.3973 22.8906 19.2813 23.0066 19.2813 23.1484V24.6953C19.2813 24.8371 19.3973 24.9531 19.5391 24.9531H31.9141C32.0559 24.9531 32.1719 24.8371 32.1719 24.6953V23.1484C32.1719 23.0066 32.0559 22.8906 31.9141 22.8906ZM25.4688 27.5312H19.5391C19.3973 27.5312 19.2813 27.6473 19.2813 27.7891V29.3359C19.2813 29.4777 19.3973 29.5938 19.5391 29.5938H25.4688C25.6105 29.5938 25.7266 29.4777 25.7266 29.3359V27.7891C25.7266 27.6473 25.6105 27.5312 25.4688 27.5312ZM23.9219 37.457H16.7031V14.7695H34.75V25.8555C34.75 25.9973 34.866 26.1133 35.0078 26.1133H36.8125C36.9543 26.1133 37.0703 25.9973 37.0703 25.8555V13.4805C37.0703 12.9101 36.6095 12.4492 36.0391 12.4492H15.4141C14.8437 12.4492 14.3828 12.9101 14.3828 13.4805V38.7461C14.3828 39.3165 14.8437 39.7773 15.4141 39.7773H23.9219C24.0637 39.7773 24.1797 39.6613 24.1797 39.5195V37.7148C24.1797 37.573 24.0637 37.457 23.9219 37.457ZM35.4203 35.0594C36.3549 34.2118 36.9414 32.9872 36.9414 31.624C36.9414 29.062 34.8628 26.9834 32.3008 26.9834C29.7388 26.9834 27.6602 29.062 27.6602 31.624C27.6602 32.9872 28.2467 34.2118 29.1813 35.0594C27.3443 36.1067 26.0811 38.0468 25.9844 40.2833C25.9779 40.4283 26.0972 40.5508 26.2422 40.5508H27.7923C27.9276 40.5508 28.0404 40.4444 28.0501 40.3059C28.1758 38.0758 30.0353 36.2969 32.3008 36.2969C34.5663 36.2969 36.4258 38.0758 36.5515 40.3059C36.5579 40.4412 36.6707 40.5508 36.8093 40.5508H38.3594C38.5076 40.5508 38.6236 40.4283 38.6172 40.2833C38.5237 38.0436 37.2572 36.1067 35.4203 35.0594ZM32.3008 29.0459C33.7252 29.0459 34.8789 30.1996 34.8789 31.624C34.8789 33.0484 33.7252 34.2021 32.3008 34.2021C30.8764 34.2021 29.7227 33.0484 29.7227 31.624C29.7227 30.1996 30.8764 29.0459 32.3008 29.0459Z" fill="white"/>
</svg>
