<svg width="361" height="225" viewBox="0 0 361 225" fill="none" xmlns="http://www.w3.org/2000/svg">
    <path d="M53.0785 135.125L54.2442 137.257C54.4427 137.62 54.7411 137.918 55.1042 138.117L57.2356 139.282C58.736 140.103 58.736 142.258 57.2356 143.078L55.1042 144.244C54.7411 144.443 54.4427 144.741 54.2442 145.104L53.0785 147.236C52.2579 148.736 50.103 148.736 49.2824 147.236L48.1167 145.104C47.9182 144.741 47.6198 144.443 47.2567 144.244L45.1253 143.078C43.6249 142.258 43.6249 140.103 45.1253 139.282L47.2567 138.117C47.6198 137.918 47.9182 137.62 48.1167 137.257L49.2824 135.125C50.103 133.625 52.2579 133.625 53.0785 135.125Z" fill="#F9EF90"/>
    <path d="M95.0785 121.125L96.2442 123.257C96.4427 123.62 96.7411 123.918 97.1042 124.117L99.2356 125.282C100.736 126.103 100.736 128.258 99.2356 129.078L97.1042 130.244C96.7411 130.443 96.4427 130.741 96.2442 131.104L95.0785 133.236C94.2579 134.736 92.103 134.736 91.2824 133.236L90.1167 131.104C89.9182 130.741 89.6198 130.443 89.2567 130.244L87.1253 129.078C85.6249 128.258 85.6249 126.103 87.1253 125.282L89.2567 124.117C89.6198 123.918 89.9182 123.62 90.1167 123.257L91.2824 121.125C92.103 119.625 94.2579 119.625 95.0785 121.125Z" fill="#F9EF90"/>
    <path d="M114.283 101.985L113.302 105.333C113.135 105.903 113.135 106.509 113.302 107.08L114.283 110.428C114.974 112.785 112.785 114.974 110.428 114.283L107.08 113.302C106.509 113.135 105.903 113.135 105.333 113.302L101.985 114.283C99.6274 114.974 97.4389 112.785 98.1293 110.428L99.11 107.08C99.277 106.509 99.277 105.903 99.11 105.333L98.1293 101.985C97.4389 99.6274 99.6274 97.4389 101.985 98.1293L105.333 99.11C105.903 99.277 106.509 99.277 107.08 99.11L110.428 98.1293C112.785 97.4389 114.974 99.6274 114.283 101.985Z" fill="#F9EF90"/>
    <path d="M9.07848 159.125L10.2442 161.257C10.4427 161.62 10.7411 161.918 11.1042 162.117L13.2356 163.282C14.736 164.103 14.736 166.258 13.2356 167.078L11.1042 168.244C10.7411 168.443 10.4427 168.741 10.2442 169.104L9.07848 171.236C8.25789 172.736 6.10299 172.736 5.28241 171.236L4.11669 169.104C3.9182 168.741 3.61976 168.443 3.25672 168.244L1.12532 167.078C-0.375108 166.258 -0.375108 164.103 1.12532 163.282L3.25672 162.117C3.61976 161.918 3.9182 161.62 4.11669 161.257L5.28241 159.125C6.10299 157.625 8.25789 157.625 9.07848 159.125Z" fill="#F9EF90"/>
    <path d="M86.2831 150.985L85.3024 154.333C85.1354 154.903 85.1354 155.509 85.3024 156.08L86.2831 159.428C86.9736 161.785 84.785 163.974 82.4279 163.283L79.0796 162.302C78.5094 162.135 77.903 162.135 77.3329 162.302L73.9845 163.283C71.6274 163.974 69.4389 161.785 70.1293 159.428L71.11 156.08C71.277 155.509 71.277 154.903 71.11 154.333L70.1293 150.985C69.4389 148.627 71.6274 146.439 73.9845 147.129L77.3329 148.11C77.903 148.277 78.5094 148.277 79.0796 148.11L82.4279 147.129C84.785 146.439 86.9736 148.627 86.2831 150.985Z" fill="#F9EF90"/>
    <path d="M185.482 122.622L133.649 117.878L150.085 99.4457L163.86 93.3794L176.956 106.533L185.482 122.622Z" fill="#0093AE"/>
    <path d="M149.258 73.5646L132.958 117.485L163.158 92.6556L213.443 81.7168L261.832 56.1402L190.39 62.4423L149.258 73.5646Z" fill="#00C8DE"/>
    <path d="M262.377 55.1767L202.385 139.857C200.974 141.851 198.02 141.854 196.601 139.867L184.23 122.522L163.359 93.2522L262.377 55.1767Z" fill="#B3E8F0"/>
    <path d="M262.38 55.1763L149.683 74.0753L136.331 55.3515C134.615 52.9444 136.423 49.6169 139.377 49.7461L262.38 55.1763Z" fill="#B3E8F0"/>
    <g opacity="0.5">
        <path d="M361 109C361 183.006 252.006 225 178 225C103.994 225 44 165.006 44 91C44 16.9938 72.4938 12.5 146.5 12.5C220.506 12.5 361 34.9938 361 109Z" fill="#EEEEEE" fill-opacity="0.4"/>
        <path d="M361 109C361 183.006 252.006 225 178 225C103.994 225 44 165.006 44 91C44 16.9938 72.4938 12.5 146.5 12.5C220.506 12.5 361 34.9938 361 109Z" fill="url(#paint0_linear)"/>
    </g>
    <defs>
        <linearGradient id="paint0_linear" x1="178" y1="-43" x2="178" y2="225" gradientUnits="userSpaceOnUse">
            <stop stop-color="white" stop-opacity="0.37"/>
            <stop offset="1" stop-color="white" stop-opacity="0"/>
        </linearGradient>
    </defs>
</svg>
