<?xml version="1.0" encoding="utf-8"?>
<!-- Generator: Adobe Illustrator 25.2.1, SVG Export Plug-In . SVG Version: 6.00 Build 0)  -->
<svg version="1.1" id="Layer_1" xmlns="http://www.w3.org/2000/svg" xmlns:xlink="http://www.w3.org/1999/xlink" x="0px" y="0px"
	 viewBox="0 0 162 152" style="enable-background:new 0 0 162 152;" xml:space="preserve">
<style type="text/css">
	.st0{fill:#FFDC54;}
	.st1{fill:none;stroke:#F27A54;stroke-width:2;}
	.st2{fill:none;stroke:url(#SVGID_1_);stroke-width:2;}
	.st3{fill:#F2F2F2;}
	.st4{fill:#CCCBCA;}
	.st5{fill:#FFDB79;}
	.st6{fill:#FAB83E;}
	.st7{fill:#353F49;}
	.st8{fill:#232E38;}
	.st9{fill:#474F59;}
	.st10{fill:#D9D8D7;}
	.st11{fill:#656A73;}
</style>
<circle class="st0" cx="81" cy="76" r="75"/>
<circle class="st1" cx="81" cy="76" r="75"/>
<linearGradient id="SVGID_1_" gradientUnits="userSpaceOnUse" x1="81" y1="154" x2="81" y2="2" gradientTransform="matrix(1 0 0 -1 0 154)">
	<stop  offset="0" style="stop-color:#E5A84F"/>
	<stop  offset="1" style="stop-color:#FFFFFF;stop-opacity:0"/>
</linearGradient>
<circle class="st2" cx="81" cy="76" r="75"/>
<g>
	<path class="st3" d="M147.9,92.4l13.1-4l-13.1-4V92.4z"/>
	<path class="st4" d="M161,88.4l-13.1,4v-2.5L161,88.4z"/>
	<path class="st5" d="M147.9,84.4H14.1v8h133.7V84.4z"/>
	<path class="st6" d="M147.9,89.9H14.1v2.5h133.7V89.9z"/>
	<path class="st7" d="M155.9,90l5.1-1.6l-5.1-1.6V90z"/>
	<path class="st8" d="M155.9,90l5.1-1.6l-5.1,0.6V90z"/>
	<path class="st3" d="M14.1,84.4H9.5v8h4.6V84.4z"/>
	<path class="st4" d="M14.1,89.9H9.5v2.5h4.6V89.9z"/>
	<path class="st9" d="M5,92.4c-1,0-2-0.4-2.8-1.2C1.4,90.4,1,89.4,1,88.4c0-1,0.4-2,1.2-2.8C3,84.8,4,84.4,5,84.4h4.5v8H5z"/>
	<path class="st8" d="M2.2,85.6c0.5-0.4,1-0.8,1.6-0.9c-0.1,0.4-0.2,0.8-0.2,1.3c0,1,0.4,2,1.2,2.8c0.8,0.8,1.8,1.2,2.8,1.2h2v2.5H5
		c-1,0-2-0.4-2.8-1.2C1.4,90.4,1,89.4,1,88.4C1,87.4,1.4,86.4,2.2,85.6z"/>
	<path class="st3" d="M127.4,78c0,25.6-20.8,46.4-46.4,46.4c-25.6,0-46.4-20.8-46.4-46.4c0-25.6,20.8-46.4,46.4-46.4
		C106.6,31.6,127.4,52.4,127.4,78z"/>
	<path class="st10" d="M97.3,34.5c8.5,7.7,13.8,18.9,13.8,31.2c0,23.4-18.9,42.3-42.3,42.3c-12.4,0-23.5-5.3-31.2-13.8
		c6.6,17.6,23.6,30.1,43.4,30.1c25.6,0,46.4-20.8,46.4-46.4C127.4,58.1,114.9,41.1,97.3,34.5z"/>
	<path class="st11" d="M70.1,116.8c0.2,0,0.7-0.1,0.8-0.2c-0.3-0.3-1.1-0.3-1.5-0.6c0,0-1.4-0.9-1.1-0.1c0.1,0.2,0.3,0,0.5,0.1
		c-0.2,0.3-0.3,0.2-0.1,0.3c0,0-1.6-0.9,0-0.9c-1.1-1,0.1-0.7-0.3-1.3c-0.2-0.4,0.9-0.8,0.3-1.2c-0.3-0.2-0.6-0.1-0.9-0.4
		c-0.4-0.3,0-0.9,0.4-0.8c0,0,0.3-1,0.3-1.2c-0.1,0-0.9-1.1-0.7-1.3c0.2-0.2,1.3,0.7,1.6,0c0.1-0.2-0.4-0.9-0.3-1.2
		c0.5,0,3.7,0.1,3.1-1.4c-0.2-0.5-1.5-1.3-1.4-1.7c0.5,0.1,1.2,0.7,1.7,0.5c0.4-0.2,0.7,0.2,1.2-0.2c0.1-0.1,0.8-0.8,0.6-1
		c-0.2,0-0.3,0.1-0.4,0.4c-0.3-0.3,0.2-0.6,0.4-0.8c0.1,0.1,0.1,0.2,0.2,0.2c0.3-0.4,1.7-2.3,1.8-2.3c0.7-0.9,0.1-2,0.9-2.7
		c0.7-0.6,1.4-1.1,2.3-1.4c0.3-0.1,1.2-0.6,1.4-0.5c1.6,0.5,1.4-1.4,2.4-2.2c1-0.8,0.3-5.1,1.1-5.5c0.5-0.2,1.8-1.8,2.5-2.5
		c0.7-0.7,0.7-1.6,0.5-2.5c-0.4-1.4-0.8-0.6-1.8-1.2c-0.8-0.5-1.4-1.4-2.4-1.6c-0.6-0.1-1.2,0.1-1.8-0.1c-0.2-0.1-0.9-0.5-1.2-0.1
		c0-0.1-0.5,0.2-0.5,0.2c-0.1,0,0-0.8-0.2-0.9c-0.3-0.3-1.3-0.6-1.7-0.7c-0.9-0.2-1.1,0.8-1.3-0.4c-0.7-0.2-1.4-1-1.3-1.2
		c0.1-0.1-1.1-2.6-1.3-2.3c0-0.8-2.6-1.9-3.3-1.5c-0.6,0.4-1.7-0.4-2-0.8c-0.4-0.4-0.4-0.9-1.1-1.2c-0.3-0.1-0.8-0.1-0.7-0.6
		c0.1-0.5-1.3-0.6-1.4-1.2c0.2,0,0.4-0.1,0.6-0.1c-0.5,0.2-1.2-0.2-1.7,0.2c-0.8,0.6-1.2-0.3-2.1-0.1c-1.1,0.2-0.4-0.2-1-0.6
		c0.3,0.2-1.3-0.7-0.9-0.7c-0.3,0,0,0.5-0.3,0.7c-0.6,0.2-1,0.3-0.7,1c0.6,1.2-1.3,0.7-0.4-0.2c0.2-0.1,0.2-1.7,0.4-1.7
		c-0.2-0.1-2,1.1-2.2,1.3c-0.6-0.9-1.5,2.2-1.8,2.2c-0.2-0.8-0.9-1.1-1.5-1.3c-0.5-0.2-1.1,1.1-1.8,0.4c-1.3-1.3-0.7-3.3-0.1-4.8
		c0.3-0.7-2.3-0.9-2.6-0.6c-0.6,0.5,0.1-1.1,0.1-1c0.1-0.6,0.2-1.1,0.5-1c0.2-0.4,1.1-2.1,1-2.3c-0.4-0.9-2,0.7-2.2,1.1
		c-0.2,0.4-0.5,0.6-0.6,1c-0.2,0.4-0.4-0.1-0.7,0.1c-0.7,0.4-1.7,0.2-1.6-0.8c0.2-1.2-0.3-3.7,1.1-4.5c0.4-0.3,0.5-1.5,1-1.9
		c0.1,0,1.5-0.9,1.3-1c0.2,0.2,1.3-0.2,1.4,0.1c0.1,0.2,0.8,0.5,1,0.3c0,0,0.1-0.5,0.1-0.5c0,0-0.5-0.1-0.4-0.2
		c0.1-0.2,1.4-0.1,1.4-0.1c0.6,0,1.1,0.6,1.5,0.2c0.7-0.5,0.3,2.7,0.6,3c0.2,0.2,0,0.6,0.3,0.5c0.4,0,0.5-4.1,1.6-5
		c0.8-0.6,1.6-1.2,2.5-1.6c0.3-0.1,1-0.5,1.1-0.7c0-0.1-0.2-0.3-0.3-0.2c0-0.3,0.4-0.1,0.5-0.4c0.1-0.3-0.2-0.4-0.2-0.4
		c0,0,0.3-0.5,0.2-0.5c0,0,0,0,0,0.1c0.4,0.1-0.1-0.4-0.1-0.5c0.6,0.3,0.3-0.6,0.9-0.7c-0.4,0.2-0.3,0.6-0.3,0.9
		c0.1,0.6,0.6-0.8,0.6-0.8c0.5-0.2,1.3-0.7,1.9-1c-0.1-0.1-0.3,0-0.4-0.1c0.6-0.2,1.2-0.1,1.8-0.4c0-0.6,0.3-1.2,1-1.3
		c1-0.2,2.2-0.8,3.1-1.1c-0.2,0.3,0.1,0.1,0.3,0.2c-0.3-0.8-2.1,1.6-1.2,1.1c0.7-0.4,3.1-0.8,3.4-1.5c0,0-0.2-0.5-0.2-0.5
		c-0.6,0-0.6,0.7-1.4,0.7c-1.3,0-0.5-0.8-0.8-1.2c-0.2,0.1-0.4,0-0.6-0.2c0.1,0,1.8-0.4,0.9-0.6c-1.4-0.3-2.3,1.2-3.5,1.2
		c0.9-0.5,2-1.6,3-1.8c1.1-0.1,2.6,0.4,3.6-0.3c0.9-0.6,1.5-0.2,1.9-1.1c0.1-0.3-0.6-0.6-0.8-0.6c0.1-0.1,0.3,0,0.3-0.2
		c-1.3-0.6-1.6-1.2-1.7-2.7c-0.7,0.5-2.9,1.5-1.7-0.2c-0.4-0.2-1.8-1.3-2.3-0.5c-0.2,0.3-0.6,0.9-1,1.1c-0.9,0.4-0.1,0.3-0.4,0.9
		c-0.5,1-1.7,0.8-2.3,1.7c-0.4,0.5-0.5,0.9-1,1.2c-0.5,0.2-0.7-0.4-0.4-0.8c0.2,0.2,0.3,0.2,0.5,0.1c0-0.2-0.3-0.1-0.4-0.2
		c0.2-0.3,0.4-0.6,0.6-0.8c-0.1,0-1.3-0.2-1.3-0.6c0.1-0.7-0.8-0.3-0.9-0.5c0.7-0.8,0.7-1.2,2-1.9c0.4-0.2,2.9-1.5,3.4-1.2
		c-0.1,0.3-0.4,0.2-0.5,0.4c0.4,0.1,1.4,0.2,1.8,0c-0.1-0.1-0.5-0.8-0.3-0.9c0,0,0.7,0,0.8,0c0.4-0.1,0.8-0.1,1.1-0.6
		c0.2-0.4,1.5-0.8,1.8-0.7c1.7,1-2.3,2-2.4,1.9c0.1,0.3,1.2-0.2,1.5,0.6c0.1,0.2,1.3,0.6,1.4,0.4c0.1-0.1-0.4-0.5-0.4-0.7
		c1.3,0.6,1.2,0.3,1-0.6c-0.2-0.8,0.8,0.1,0.8,0.1c0.2,0.1,1.1-0.4,1.2-0.6c-0.3-0.3-0.9-0.2-1.1-0.5c-0.3-0.3,0.7-0.3,0.4-0.6
		c-0.4-0.3-1-0.2-0.8-0.9c-0.2-0.1-0.4,0-0.6,0.1c0.1,0.1,0.2,0,0.2,0.1c-0.2,0.1-0.5,0.2-0.7,0.1c0.1-0.1,0.3-0.1,0.3-0.3
		c-0.7-0.1-1,0.3-1.6,0.5c0.2-0.2,0.5-0.3,0.7-0.5c-0.6,0.1-1.3,0.3-1.8,0.7c0.1,0.1,0.1,0.1,0.2,0.2c-0.5,0.4-1.2,0.6-1.7,0.8
		c0.1-0.4,0.5-0.3,0.7-0.6c-0.2,0-0.4,0-0.6,0.1c0.3,0,1-0.8,1.1-0.9c-1.1-0.1-1.5,1.2-2.5,1.1c0.2-0.2,0.6-0.1,0.8-0.5
		c-0.4,0-1.8,1-2,0.5c0,0,2.6-1.1,2.8-1.4c-0.2,0-0.4,0.2-0.5,0c0.1-0.1,0.3-0.2,0.5-0.3c-0.8,0-3.3,1-3.2,1.6
		c-0.3,0.3-0.7,0.3-1.1,0.2c0.2-0.2,0.7-0.2,0.3-0.6c-0.8,0.3-1.6,0.6-2.4,1c-1.8,0.8-3.6,1.7-5.3,2.8c-2.8,1.7-5.1,3.7-7.4,6
		c-1.2,1.2-5.9,6.6-5.8,7.8c0,0.8-0.5,1.6-0.8,2.3c-0.2,0.6-0.3,1.5-0.6,2c-0.7,1.2-0.4,2.6-0.7,4c0.4-0.3,1.2-6.6,1.9-6.4
		c0.1,0-0.4,2.6-0.6,2.9c-0.6,1.3,0.2,2.9-0.2,4.3c0,0.1-0.2,0.8-0.2,1c-0.6,0.5,0.2,1.2,0.2,1.8c0,0.3,1.6,1.7,1.9,1.9
		c0.7,0.4,0.8-0.3,1.4-0.2c0.6,0.1,0.7,1.1,1,1.6c0.4,0.6,1.9,0.5,2.2,0.8c0.2,0.2,0,1.4,0.7,1.5c0-0.1,0-0.5,0.1-0.6
		c0.2-0.1,0.7,0.6,0.5,0.8c-0.2,0-0.4,0-0.6-0.2c0,0.1-0.1,1.6,0.3,1.3c0-0.1,0-0.2,0.1-0.3c0.6,0.2,0.5,1.1,0.9,1.2
		c0.6,0.2,1,0.9,1.4,1.1c0.4,0.2,0.3-1.3,1-1.4c0.6-0.1,0.9,1.5,1.1,1.8c0.3,0.5-0.4,1.8,0,2.2c0.4,0.4-1,1.4-1.1,1.9
		c0,0.3-0.8,0.6-0.7,0.8c0.1,0.4-0.1,0.8-0.3,1.2c-0.4,1-0.2,1,0.4,1.5c0,0-1.1,2.3-0.5,2.9c1.1,0.9,2.4,3,2.8,4.4
		c0.7,1.8,1.8,3,3.5,3.9c1.4,0.8,2.4,2,2.4,3.8c0.1,1-0.1,2.3,0.3,3.2c0.3,0.7-0.3,1.8,0.2,2.4c0.3,0.4-0.1,0.6,0.1,0.9
		c0.2,0.4,0.6,1,0.5,1.4c0,0.7,0,1.6,0.1,2.3c0,0.2-0.2,0.7-0.1,0.8c0.2,0.2,1.1,2.6,1.1,3.3c0,0.2,0.7-0.1,0.1-0.7
		c0.8-0.5,0.6,1.5,0.7,1.5c-0.7-0.3-0.3,0-0.2,0.9c0,0.5-0.1,0.3,0.3,0.4c0.7,0.2,0,0.6,0.3,1c0.5,0.8,1.4,1.5,1.9,2.1
		C67.5,116.7,69,116.5,70.1,116.8C70.3,116.8,69.9,116.7,70.1,116.8z M73.2,41.1c-0.2,0.2-0.5,0.3-0.8,0.4
		C72.5,41.2,72.9,41.2,73.2,41.1z M70.8,40.9c0.2,0,0.3,0,0.4,0.2c0,0.1-1,0.1-1.1,0.4C70.2,41,70.5,41.1,70.8,40.9
		C70.9,41.1,70.5,41.1,70.8,40.9z M68.3,42.7C68.5,42.7,68,42.6,68.3,42.7C68.3,42.7,68.3,42.7,68.3,42.7z M67,40.1
		c0.1-0.1,0.2-0.1,0.2,0C67.1,40.3,67,40.3,67,40.1C67,40.1,67,40.2,67,40.1z M65.7,44.1C65.3,44.1,66.1,44.1,65.7,44.1
		C65.6,44.1,65.7,44.1,65.7,44.1z M66.1,42.5c-1.3,1.2-0.3,0-0.7,0.4c0,0,0,0,0,0C65.3,42.9,66,42.6,66.1,42.5
		C65.9,42.7,65.8,42.6,66.1,42.5z M65.6,41.1c-0.2,0.3-0.2,0.3-0.6,0.2C65.2,41.2,65.4,41.3,65.6,41.1z M71.3,36.6
		c-0.1,0-0.2,0-0.3,0C71.5,36.2,71.4,36.6,71.3,36.6C71.3,36.6,71.4,36.6,71.3,36.6z M72.3,35.9c-0.1,0.2-0.3,0.1-0.5,0.1
		C71.9,35.7,72,35.7,72.3,35.9z M67,36.4c0.1-0.1,0.2-0.1,0.4-0.1C67.6,36.4,66.6,36.5,67,36.4C67.1,36.3,67,36.4,67,36.4z
		 M66.8,36.1c0.2,0.1,0.1,0.1-0.1,0.2C66.7,36.2,66.7,36.2,66.8,36.1C66.9,36.1,66.7,36.1,66.8,36.1z M60.1,47.6c0,0-2,0.8-1.9,0.3
		c0,0.2,0.7-0.6,0.5-0.5c0.2-0.1,1.5-0.2,1.9-0.2C60.4,47.5,60.3,47.6,60.1,47.6C59.6,47.8,60.3,47.6,60.1,47.6z M61.7,46.6
		c1.7,0.2-1,0.7-1.3,0.4C60.8,46.7,61.2,46.6,61.7,46.6C61.8,46.6,61.2,46.6,61.7,46.6z M61.4,36.2c0.4-0.3,0.9-0.5,1.5-0.6
		C62.5,35.9,61.9,36.1,61.4,36.2L61.4,36.2z M61.5,45.3c-0.1,0.1-0.2,0.1-0.2,0C61.4,45.2,61.5,45.2,61.5,45.3
		C61.5,45.3,61.5,45.2,61.5,45.3z M61,46.3C61,46.3,60.8,46.2,61,46.3C61,46.3,60.9,46.3,61,46.3z M60.5,45.4
		c0.6,0.3,0.3,1.2-0.3,0.5c0,0.4-0.8,1.2-1.2,1.3c0.1-0.2,0.2-0.4,0.2-0.6c-0.1-0.1-0.4,0.2-0.5,0.2c0.1,0.3,1.1-1.8,0.2-1.2
		c-0.3,0.2-2.4,2.5-2.5,2.4c-0.2-0.2,0.9-1.8,1-1.9C58.1,45.5,59.6,45,60.5,45.4z M59.3,37.6c0.1-0.1,0.8-0.5,0.8-0.4
		c0.2,0.3-1.1,0.6-1.2,0.6C59.1,37.7,59.2,37.7,59.3,37.6C59.6,37.5,59.2,37.7,59.3,37.6z M59.5,43.1c0,0-0.3,0.5-0.4,0.3
		C58.9,43.3,59.4,42.9,59.5,43.1C59.5,43.2,59.5,43,59.5,43.1z M58,38.9c0.1,0,1.2-0.7,1.2-0.4C59.2,38.5,57.9,38.9,58,38.9z
		 M57.7,40c-0.1,0.1-0.1,0.2-0.3,0.2C57.5,40,57.6,40,57.7,40z M56.9,42.6c0.2-0.1,0.5-0.7,0.3-0.9c0.1,0.1-0.7-0.1-0.3-0.2
		c0.1,0,1-0.5,1.1-0.4c0.2,0.3-1.1,1.6-1.3,1.7C56.8,42.7,56.9,42.7,56.9,42.6C57.2,42.4,56.9,42.7,56.9,42.6z M57.7,44.3
		c0.9-0.3,1.3-0.8,1.8-0.1c0.2,0.3,0.2,1-0.3,0.8c0.1,0-1.5-0.1-1.2-0.3c-0.3,0.2-1,0.4-1.4,0.2C57,44.7,57.3,44.5,57.7,44.3
		C57.9,44.3,57.3,44.5,57.7,44.3z M56.4,42.6c0.1,0.2,0,0.3-0.2,0.4C56.2,42.8,56.3,42.7,56.4,42.6z M43.1,62.8
		C42.6,62.8,43.4,62.8,43.1,62.8C43,62.8,43.1,62.8,43.1,62.8z M48.4,66.7C48.3,66.7,48.8,66.6,48.4,66.7
		C48.4,66.7,48.5,66.7,48.4,66.7z M61.6,71C61.3,71,61.8,71.1,61.6,71C61.5,71,61.6,71,61.6,71z M63.7,109.5
		C63.3,109.4,63.9,109.2,63.7,109.5C63.6,109.5,63.7,109.5,63.7,109.5z M64.7,90.3C64.5,90.1,64.7,90.3,64.7,90.3
		C64.6,90.2,64.7,90.3,64.7,90.3z M64.8,102.2C64.6,102.3,65.1,102.1,64.8,102.2C64.7,102.3,64.8,102.2,64.8,102.2z M66.1,115.2
		c-0.2-0.1-0.2-0.2,0-0.2C66.2,115,66.2,115.1,66.1,115.2C66,115.1,66.1,115.2,66.1,115.2z M67.7,115.9c-0.2,0-0.2-0.1,0.1-0.2
		C67.9,115.7,67.9,115.8,67.7,115.9C67.7,115.9,67.8,115.9,67.7,115.9z M64.2,111.1C64.2,111.1,64.2,111.1,64.2,111.1
		C64.2,111.1,64.2,111.1,64.2,111.1z M68.4,33.9C68.4,33.9,68.4,33.9,68.4,33.9C68.4,33.9,68.4,33.9,68.4,33.9L68.4,33.9z
		 M52.6,41.4C52.6,41.4,52.6,41.4,52.6,41.4L52.6,41.4z M126.6,69.7L126.6,69.7c-0.9-3.3-1.6-6.6-3-9.9c-1.6-3.8-3.8-7.5-6.4-10.7
		c-2.5-3.1-5.3-5.9-8.5-8.2c-1.5-1.2-3.1-2.2-4.8-3.2c-0.8-0.5-1.6-0.9-2.4-1.3c-0.4-0.2-1.6-0.5-1.8-0.8c0,0.1,0.7,0.5,0.8,0.6
		c-0.5-0.1-1.8-0.7-1.8-0.8c0-0.1,0.1,0,0.1-0.1c-0.7-0.5-3.5-1.5-4-0.7c0.1-0.2,1.9,1.9,1.9,2.3c0.1,0.8,1.4,1.6,2.2,1.9
		c1.1,0.4,0.3-0.1,0.7-0.4c0.3-0.2,0.6,0.5,0.9,0.4c0,0,0,0,0,0c-0.1-0.2-0.2-0.3-0.3-0.5c-0.1,0,2,2.2,2.3,1.7
		c-0.2-0.6-0.6-1.2-1.2-1.8c-0.5-0.5-1.3-0.5-1.9-1c-0.3-0.2-1.3-1-1.5-1.4c1.4,0,3,3,4.4,1.9c-0.2-0.1-0.4-0.3-0.6-0.4
		c0.3,0.1,1.4,0.5,1,0.9c-1.1-0.2,0.9,0.9,1,1.1c-0.2,0-0.3-0.2-0.5-0.2c0.1,0.4,1.2,0.8,1.3,1.4c-0.7,0.1-0.4-0.4-0.8,0.1
		c-0.1,0.2-0.7,0.1-1.1,0.1c-0.8,0.1-1.6-1.2-2.2-1.6c0.2,0.7,0.6,1.1,1.5,1.6c0.4,0.2-0.6,0.3-0.5,0.7c0,0,0.3,0.1,0.3,0.2
		c0,0-0.2-0.1-0.3-0.2c0.1-0.1-0.1,1.3-0.2,1.3c0.6,0.7-0.8,0.5-0.9,0.5c0.1,0.2,0.3,0.3,0.4,0.5c-0.4,0-0.8,0-1.2,0.1
		c0.6,0.2,3.9,1.7,3.2,2.9c-0.2,0.4-2.5-0.1-2.9-0.1c-0.9-0.1-0.1,0.8,0,0.9c0.1,0.7,0.7,1,0.6,1.7c0,0.5,0.5,0.6,0.7,1
		c0.2,0.4,0.1,0.4,0.5,0.5c0.7,0.1,0.8,0,1.4,0.5c0.5,0.3,0.6-0.3,1.1-0.3c1.3-0.1,0.2-0.3,0.8-0.5c0.8-0.2-0.2-1.4-0.2-1.7
		c0.1-0.3-0.1-0.7,0.4-0.8c0.7-0.2-0.2-0.9-0.2-1.1c-0.1-0.5,1.8,0.5,1.6-0.9c1.1,0.4,2.3,1.4,3.4,2c0.6,0.4,1.2,0.7,1.7,1.3
		c0.5,0.7-0.8,0.4-0.9,0.6c-0.1,0.2,1.2,0.8,1.4,0.8c0-0.1-0.2-0.8-0.2-1c-0.1-0.5-0.8-1-0.7-1.4c0.2,0,0.4,0.1,0.6,0.3
		c-0.7-0.8-1.7-0.9-2.5-1.5c-0.5-0.4-1-0.7-1.5-1.1c0,0-0.8-1-0.3-0.8c0.9,0.3,1.8,1.2,2.8,1.7c0.7,0.4,0.9,0.6,1.4,1.2
		c0.2,0.2,1.3,1.5,1.6,1.6c0,0,0.9,0.8,1.3,0.9c-0.2-0.4-0.3-0.8-0.5-1.1c-0.2-0.4-1.3-0.6-1.3-1.2c0.2,0,0.3-0.2,0.8-0.2
		c-0.3,0,0.3-0.4,0.3-0.3c-1-0.5-2.3-2.1-2.6-3.2c0.3,0,0.4,0.4,0.7,0.2c-0.1-0.2-0.1-0.4-0.1-0.6c0.1,0.1,1,0.9,0.8,1
		c-0.3,0-0.5-0.1-0.6-0.3c0.1,0.5,0.6,0.5,0.8,0.8c0-0.1-0.1-0.2,0-0.4c0.8,0.3,2.4,1.6,2.6,2.5c-0.3,0-1-0.7-1.2-0.5
		c-0.1,0.2-0.1,0.4,0,0.5c-0.1,0-0.2,0-0.3,0.1c0.1,0.1,0.2,0.2,0.2,0.4c-0.1,0-0.2,0.1-0.4,0.1c0.1,0.4,2.5,2.7,2.6,2.5
		c0-0.1-0.1-0.3-0.1-0.3c0.1-0.1,0.5,0.5,0.7,0.4c0.2-0.1-0.1-0.3,0-0.4c0.4-0.2,1.8,2.6,1.9,2.9c0.7,1.3,0.2,0.5-0.3,0.7
		c-0.1,0.1-0.1,0.3-0.1,0.4c-0.8-0.2-1.7-0.7-2.4-1.1c-1.1-0.8,0.3,2.1-0.3,1.7c-0.4-0.2-0.6-0.5-1-0.6c-0.6-0.1-0.8-0.8-1.4-1
		c-0.5-0.2-2.4-0.3-2.2-1.2c0.2-0.8-0.8-1.4-1.1-1.7c-0.2-0.1-2.3,0.1-2.6,0.2c-0.6,0.2-1.5,0.4-1.8,0.9c-0.6,1-1.9-0.3-2.4-0.1
		c-0.3,0.1,0,0.9-0.2,1.2c-0.2,0.4-0.7,0.4-0.9,0.9c-0.2,0.9,0.4,1.6,0.1,2.4c-0.2,0.6-1.5,0.9-1.5,1.4c0,0.3-0.1,0.6-0.3,0.7
		c-0.6,0.3,0,1.1-0.3,1.4c-1.9,1.9,0.6,3.8,0.2,5.9c-0.2,1.2-0.4,1.4,0.1,2.5c0.1,0.3,0,2.1,1,1.4c0.1,1.1,1.5,1.3,1.8,2.3
		c0.3,1.2,1.5,1.8,2.4,2.5c0.4,0.3,0.7,0.7,1.1,0.9c0.8,0.4,1.3-0.2,2-0.4c0.7-0.2,1.3-0.1,2,0.2c0.4,0.2,3-1.7,3.7-1.4
		c0.5,0.3,0.6,0.9,0.8,1.4c0.4,0.6,1.1-0.2,1.6,0c0.9,0.4,1.1,3.6,0.4,4.2c-0.6,0.4,0.7,2.2,0.9,2.5c0.5,1,0.9,2.7,0.8,3.8
		c-0.1,0.9,0.1,2.3-0.4,3.1c-0.5,0.8-0.8,1.6-1.2,2.5c-1,2.3,0,4.9-1,7.2c-0.5,1.2-0.4,2.5-0.7,3.8c-0.2,0.8-1.2,2-0.8,2.8
		c0.6-0.5,1.5-0.5,2.1-0.8c1.4-0.7,2-2.3,3-3.3c0.5-0.6,0.9-1.3,1.2-2c0.3-0.7,0.9-1.1,1.2-1.7c0.7-1.6,1.3-3.2,2-4.9
		c1.5-3.5,1.7-6.9,2.2-10.6C127.4,77.4,127.4,73.6,126.6,69.7z M123.1,60.4c-0.2-0.5-2.6-4.1-2.4-4.3c0.3-0.2,5.6,9.1,5,10.6
		C125,64.6,124,62.6,123.1,60.4C123.1,60.4,123.3,60.9,123.1,60.4z M125.4,77c-0.1-0.3,0-0.5,0.1-0.8
		C125.6,76.5,125.4,76.8,125.4,77z M125.1,78.5c0-0.2,0-0.3,0.1-0.4C125.3,78.2,125.2,78.3,125.1,78.5z M124.2,90.5
		c-0.1,0-0.2,0.1-0.3,0.1c-0.2,0,0.3-0.2,0.3-0.3C124.3,90.4,124.3,90.4,124.2,90.5C124.2,90.6,124.3,90.4,124.2,90.5z M124.4,85.6
		c0-0.4,0-0.5,0.5-0.7C124.7,85.2,124.4,85.3,124.4,85.6z M124.9,83.3c0-0.8,0-1.8,0.1-2.6c0,1.4,0.1,2.8,0.1,4.2
		C124.9,84.6,124.9,83.7,124.9,83.3C124.9,83,124.9,83.6,124.9,83.3z M125.6,85.9c0,0.7-0.1,2.8-0.6,3.3c0.1-1.3,0.5-2.4,0.5-3.6
		C125.6,85.8,125.6,85.8,125.6,85.9C125.6,86,125.6,85.8,125.6,85.9z M126.2,78.3c-0.2,0.9,0,1.2-0.5,1.7c0-0.7-0.2-1.9,0.4-2.3
		C126.2,77.9,126.2,78.1,126.2,78.3C126.1,78.7,126.2,78.1,126.2,78.3z M97.1,121.4c0.1,0.1-5.8,1.8-6.4,1.9c-2.4,0.5-4.9,0.8-7.4,1
		c-4.8,0.2-9.8-0.2-14.3-1.6c0.6,0.1,1.3,0.4,1.9,0.3c-0.6-0.4-1.3-0.2-1.8-0.7c1.9,0.3,3.7,0.2,5.5,0.4c-0.2-0.2-1.8-0.6-1.8-0.8
		c0.2,0,1.5-0.1,1.5-0.1c0.6-0.4-0.9-0.4-0.8-0.7c0-0.1,0.4,0.1,0.6-0.1c0.2-0.3,0-0.5,0.1-0.6c0.1-0.1,2.4-0.5,2.6-0.4
		c-0.3,0.2-0.6,0-0.5,0.4c-0.2,0-1,0-1,0.3c0-0.1,0.8,1,0.8,1.1c0.3,0.4,1.2,0.7,1.3,1.2c0.2,0.8,4.5,0.8,5.2,0.7
		c1.6-0.2,3.2-0.8,4.8-1.1c1-0.2,1.9-0.4,2.9-0.5c0.4,0,2-0.6,2.3-0.5C92.7,122.3,96.3,121.3,97.1,121.4
		C97.1,121.4,96.9,121.4,97.1,121.4z M123.8,95.8c0.2-0.5,0.3-1,0.6-1.4C124.2,94.9,124,95.4,123.8,95.8z M124.6,93.9
		c0-0.1,0-0.1,0.1-0.2C124.6,93.8,124.6,93.8,124.6,93.9z M73.8,33.2c-0.2,0-0.5,0-0.8-0.1c0.1-0.1,0.9-0.1,0.6-0.4
		c1.1-0.7,3.3-0.8,4.5-0.6c1.4,0.2,2.8-0.3,4.1,0c0.5,0.1,1,0.1,1.6,0.1c0.5,0.1-0.1,0.5,0.5,0.6c0.3,0,1,0.8,1.3,0.6
		c0,0.5-0.2,0.2-0.1,0.6c0,0.1,0.6,0.4,0.6,0.5c-0.1,0.1-1.6,0-1.5,0c-0.1,0,0,0.2,0.1,0.2c0.3,0.1,1,0,1.3,0
		c-0.8,0.7-1.9,0.6-2.8,1.2c-0.5,0.3-1.3,0.3-1.9,0.5c0,0.6-0.5,1.3-0.8,1.9c-0.3,0.4-2.2-0.6-2.4-0.8c-0.4-0.5-1.4-1.9-0.3-2.3
		c1.3-0.5,0-0.1-0.4-0.4c0.3-0.4,0.6-0.3,1.1-0.2c-0.3-0.3-0.6-0.4-0.9-0.3c-0.1-0.4,0.5-0.7,0-1.1c-0.3-0.2-1.6,0-1.6-0.2
		c-0.1-0.6,1.7-0.3,2-0.8C76.5,32.1,75.1,33.4,73.8,33.2C73.6,33.1,74,33.2,73.8,33.2z M98.2,42c0.2,0-0.3-0.7-0.4-0.8
		c0.1,0,0.3,0,0.4-0.1c-0.1-0.3-1.5-1.1-1.6-1c-0.5,0.3-1.2-1.1-1.2-1.3c0.9-0.1,1.4,0.8,2.2,1.2c0.7,0.3,3.1,1.5,3.2,2.2
		c0.1,0.4-1.8,0.2-2.1,0.6c-0.2-0.5,0.5-0.5,0.5-0.7C99.2,42,98.3,42,98.2,42C98.2,42,98.5,42,98.2,42z M73.5,42.7
		c-0.1,0.1-1.8,1.6-1.7,1.8c0,0.1,1.7,0,2,0.2c0,0.2-0.2,0.1-0.3,0.3c0.2,0,0.9-0.4,1-0.3c0,0.1,0,0.2-0.1,0.3
		c0.7,0.7,0.7-0.9,0.7-0.9c-0.5-0.1,0.1-0.8-0.8-0.5c0.1,0-1-0.3-0.9-0.2c-0.1-0.1,0.7-0.8,0.8-0.9C73.8,42.3,73.7,42.5,73.5,42.7
		C73.2,42.9,73.6,42.7,73.5,42.7z M75.1,44.4C75.2,44.5,75,44.5,75.1,44.4C75.1,44.4,75.1,44.4,75.1,44.4z M74.8,44.4
		c0-0.1,0.3-0.2,0.2,0C74.9,44.5,74.6,44.5,74.8,44.4C74.8,44.4,74.7,44.4,74.8,44.4z M73.6,42.5L73.6,42.5
		C73.6,42.5,73.6,42.5,73.6,42.5C73.6,42.5,73.6,42.5,73.6,42.5z M72.1,44c0.1,0,0.1,0,0.1,0C72.2,44,72,44,72.1,44
		C72.2,44,72.1,44,72.1,44z M56,63.3c-0.5,0.1,0.3-0.4,0.2-0.5c-0.3-0.7-2.4-0.9-2.6-1.4c0.1,0,0.1-0.1,0.2-0.2
		c-0.7-0.3-1.1,0.6-1.8,0.5c1.4-2.3,4.7,0.3,6.1,1.4C57.4,63.2,56.7,63.2,56,63.3C56,63.3,56.4,63.3,56,63.3z M57.8,64.5
		c-0.3-0.1,1.1-0.1,1.3-0.2c-0.3-0.4,0-0.7-0.6-0.9c0.5-0.6,2.2,0.1,2.7,0.3c0,0.1-0.1,0-0.2,0.1c0.1,0,1.2,1,0.4,0.6
		c-0.8-0.3-1.3,0.1-1.9,0.5C59.1,64.4,58.4,64.8,57.8,64.5C57.7,64.5,57.9,64.6,57.8,64.5z M97.1,41.1c0.8,0.8-0.4,1.4-1,0.9
		c-0.3-0.3-0.1-0.9-0.7-1.1c0.2-0.1,0.3-0.1,0.5-0.2C95.4,39.7,96.9,40.9,97.1,41.1C97.2,41.3,97,41,97.1,41.1z M86.8,36.1
		c0-0.2,1.1-0.1,1.3-0.1c0.3-0.1,2.7,0.2,1.8,0.6c-0.6,0.3-1.6,0.6-2.2,0.1C87.6,36.5,86.8,36.2,86.8,36.1
		C86.7,36,86.8,36.3,86.8,36.1z M108.3,47.8c0.3,0,0.9,1.1,0.8,1.2c-0.3,0.5-0.8-0.8-1.2-1C108,48,108.2,47.9,108.3,47.8z
		 M71.6,33.5c0.8-0.6,1-0.3,2-0.2C73.2,33.6,72.4,33.7,71.6,33.5C71.8,33.3,72.4,33.7,71.6,33.5z M89.3,32.8
		c-0.6-0.2-1.2-0.2-1.8-0.4c0.7-0.1,1.5,0.2,2,0.3C89.6,32.8,89.2,32.8,89.3,32.8C88.7,32.6,89.3,32.8,89.3,32.8z M87.5,32.4
		c-0.1,0-0.1,0-0.2,0C87.3,32.3,87.4,32.3,87.5,32.4C87.4,32.4,87.4,32.4,87.5,32.4z M56.2,64.6c0.1,0,0.2,0.1,0.2,0.2
		c-0.1,0.3-1.1-0.1-1.2-0.3C55.6,64.3,55.9,64.4,56.2,64.6z M63.7,64.6C63.1,65.9,61.7,63.6,63.7,64.6
		C63.6,64.8,63.4,64.4,63.7,64.6z M65.8,71.1C65.9,71.1,65.9,71.1,65.8,71.1C65.9,71.1,65.9,71.1,65.8,71.1z M66,71.1
		c0,0,0.1-0.6,0.5-0.6C66.9,70.8,66.2,71.1,66,71.1C66,71.1,66.5,71.1,66,71.1z M70.4,33.2c-0.4,0.2-0.8,0.1-1.2,0.2
		C69.8,33.1,70,33.1,70.4,33.2C70,33.5,70.4,33.2,70.4,33.2z M56.5,60.4c-0.1-0.6-0.4-0.6,0-1.1C56.6,59.9,56.6,60.2,56.5,60.4
		C56.4,60.2,56.6,60.2,56.5,60.4z M46.4,79.6c0,0.2-0.1,0.3-0.3,0.2c-0.1-0.1-0.1-0.7,0-0.9C46.2,79.2,46.3,79.4,46.4,79.6
		C46.5,79.7,46.3,79.4,46.4,79.6z M69.7,43.3c0.4,0,0.8,0.1,1.2,0.4C70.3,43.8,70,43.6,69.7,43.3z M108.1,47.6L108.1,47.6
		c-0.1,0-0.9-0.5-0.6-0.7C107.7,46.7,108.1,47.5,108.1,47.6z M115.9,51.5c-0.1-0.1-0.4,0-0.5-0.4c0.3,0.1,0.5,0.1,0.8,0.3
		C116.1,51.4,116,51.5,115.9,51.5C115.7,51.3,116,51.5,115.9,51.5z M71.1,33.5c-0.1-0.1-0.2,0-0.3-0.1c0.2-0.2,0.5-0.2,0.8-0.2
		C71.5,33.1,71.2,33.7,71.1,33.5C71,33.4,71.1,33.5,71.1,33.5z M69.8,33.8c-0.3,0.3-0.7,0.5-1.2,0.5C68.9,33.9,69.4,33.8,69.8,33.8z
		 M69.7,45.2c0.1,0,0.2,0,0.3,0c-0.5,0.6-1-0.2-0.9-0.3C69,45,69.6,45.2,69.7,45.2C69.7,45.3,69.5,45.2,69.7,45.2z M69.8,34
		c0.3-0.3,0.7-0.3,1.1-0.3C70.6,33.9,70.2,34,69.8,34z M106.1,48.9c-0.4-0.1,0.7-0.4,0.3,0.1C106.3,49,106.2,49,106.1,48.9
		C106.1,48.9,106.3,48.9,106.1,48.9z M117.7,51.5c-0.2-0.1-0.3-0.3-0.2-0.5C117.7,51.2,117.7,51.3,117.7,51.5z M70.6,35.7
		c0.1-0.2,0.3-0.3,0.7-0.3C71.1,35.6,70.9,35.7,70.6,35.7z M67.3,37.2c-0.3,0.1-0.5,0.3-0.7,0.2C66.7,37.2,67,37.2,67.3,37.2z
		 M95.1,39.1c-0.1,0.1,0,0.2,0.1,0.2c-0.1,0-0.4-0.4-0.1-0.5C95.2,38.9,95.2,39,95.1,39.1C95.1,39.2,95.2,39.1,95.1,39.1z
		 M53.2,61.8c0,0.2-0.1,0.2-0.2,0.2C52.9,61.9,53.1,61.6,53.2,61.8C53.2,61.9,53.2,61.8,53.2,61.8z M68.8,110c0.1,0,0.2,0.1,0.2,0.3
		C69,110.7,68.3,110.1,68.8,110C68.9,110,68.7,110,68.8,110z M67.7,37.5c-0.1,0.1-0.2,0.2-0.4,0.3C67.4,37.5,67.6,37.5,67.7,37.5z
		 M46.8,79.5C46.7,80,46.6,79.1,46.8,79.5C46.8,79.6,46.7,79.5,46.8,79.5z M70.8,38.2C70.9,38.2,70.9,38.2,70.8,38.2
		C70.8,38.3,70.7,38.3,70.8,38.2z M68.8,33.8c0,0-0.1,0-0.2,0C68.7,33.8,68.7,33.8,68.8,33.8z M68.6,33.8
		C68.5,33.8,68.6,33.8,68.6,33.8C68.6,33.8,68.6,33.8,68.6,33.8z M68.4,33.9L68.4,33.9C68.4,33.9,68.4,33.9,68.4,33.9z M68.4,33.9
		c0.1-0.1,0.1-0.1,0.2-0.1C68.5,33.9,68.4,33.9,68.4,33.9z M69.8,34L69.8,34C69.8,34,69.8,34,69.8,34z M69.8,34
		c0,0.1-0.1,0.1-0.1,0.1C69.7,34,69.8,34,69.8,34z M52.8,81.5C52.7,81.4,52.8,81.6,52.8,81.5C52.7,81.5,52.8,81.5,52.8,81.5z
		 M102.4,37.6C102.7,37.7,102.4,37.7,102.4,37.6C102.4,37.6,102.4,37.7,102.4,37.6z M95.2,39.4C95.2,39.4,95.2,39.4,95.2,39.4
		C95.2,39.4,95.2,39.4,95.2,39.4C95.2,39.4,95.2,39.4,95.2,39.4C95.2,39.4,95.2,39.4,95.2,39.4z M69.7,34C69.7,34,69.7,34,69.7,34
		C69.7,34.1,69.7,34.1,69.7,34C69.7,34.1,69.7,34.1,69.7,34z M69.6,34.1C69.6,34.1,69.7,34.1,69.6,34.1
		C69.6,34.1,69.6,34.1,69.6,34.1C69.6,34.1,69.6,34.1,69.6,34.1z M111.9,48.4L111.9,48.4L111.9,48.4L111.9,48.4z M75,78.3
		C74.9,78.2,75.1,78.2,75,78.3C75,78.3,75.1,78.3,75,78.3z M97.1,121.4C97.1,121.4,97.1,121.4,97.1,121.4
		C97.1,121.4,97.1,121.4,97.1,121.4C97.1,121.4,97.1,121.4,97.1,121.4z M97.1,121.4C97.1,121.4,97.1,121.4,97.1,121.4L97.1,121.4z
		 M60,45.5c0,0,0.5-0.1,0.3,0.1C60.1,45.7,60,45.6,60,45.5C60.1,45.5,60,45.6,60,45.5z M57.3,41.7c-0.1-0.1-0.1-0.2,0.1-0.3
		C57.5,41.5,57.5,41.6,57.3,41.7C57.2,41.7,57.4,41.7,57.3,41.7z"/>
	<path class="st9" d="M107.9,48c0.1-0.1,0.2-0.2,0.3-0.3c0.3,0,0.9,1.1,0.8,1.2C108.8,49.5,108.3,48.2,107.9,48z M107.5,46.9
		c-0.3,0.2,0.4,0.7,0.6,0.7l0,0C108.1,47.5,107.7,46.7,107.5,46.9z M70.1,116.8c-1.1-0.2-2.7-0.1-3.6-1c-0.6-0.6-1.4-1.3-1.9-2.1
		c-0.3-0.4,0.4-0.9-0.3-1c-0.5-0.1-0.3,0.2-0.3-0.4c-0.1-0.9-0.5-1.1,0.2-0.9c-0.1,0,0.1-1.9-0.7-1.5c0.7,0.7-0.1,0.9-0.1,0.7
		c0-0.6-0.7-2.3-1-3c2.1,0.3,4.2,0.5,6.3,0.5c0.1,0,0.3,0,0.4,0c0,0-0.1,0-0.1,0c0,0.3,0.4,0.9,0.3,1.2c-0.3,0.7-1.3-0.2-1.6,0
		c-0.2,0.2,0.6,1.2,0.7,1.3c-0.1,0.2-0.3,1.2-0.3,1.2c-0.4-0.1-0.8,0.5-0.4,0.8c0.3,0.2,0.6,0.2,0.9,0.4c0.6,0.4-0.5,0.8-0.3,1.2
		c0.3,0.6-0.8,0.3,0.3,1.3c-1.6,0.1,0,0.9,0,0.9c-0.2-0.1-0.1,0,0.1-0.3c-0.1-0.1-0.4,0.1-0.5-0.1c-0.3-0.7,1.1,0.2,1.1,0.1
		c0.4,0.3,1.2,0.3,1.5,0.6C70.8,116.6,70.3,116.8,70.1,116.8C70.1,116.8,70,116.7,70.1,116.8z M63.7,109.5
		C63.7,109.5,63.7,109.5,63.7,109.5C63.9,109.2,63.4,109.4,63.7,109.5z M66.1,115c-0.2,0-0.2,0.1,0,0.2c-0.1,0,0.1,0,0,0
		C66.2,115.1,66.2,115,66.1,115z M67.8,115.7c-0.2,0.1-0.2,0.2-0.1,0.2c0,0,0,0,0,0C67.9,115.8,67.9,115.7,67.8,115.7z M67.7,115.9
		C67.7,115.9,67.7,115.9,67.7,115.9C67.8,115.9,67.7,115.9,67.7,115.9z M64.1,111.1C64.2,111.1,64.2,111.1,64.1,111.1
		C64.2,111.1,64.2,111.1,64.1,111.1z M70.2,116.8C70.2,116.8,70.2,116.8,70.2,116.8C70.2,116.8,70.2,116.8,70.2,116.8z M100.3,37.6
		c0.7,0.8,1.3,1.6,2,2.4c0.1,0.1,0.3,0.1,0.3,0c-0.2-0.6-0.6-1.2-1.2-1.8C101.1,37.9,100.7,37.7,100.3,37.6z M102.4,37.6
		C102.4,37.7,102.7,37.7,102.4,37.6L102.4,37.6z M115.9,51.5L115.9,51.5C115.9,51.5,115.9,51.5,115.9,51.5z M125.6,85.9
		C125.6,85.9,125.6,85.9,125.6,85.9C125.6,85.9,125.6,85.9,125.6,85.9z M125.2,64.1c0.2,0.8,0.5,1.6,0.7,2.5
		C125.9,66.1,125.6,65.2,125.2,64.1z M126.2,78.4C126.2,78.4,126.2,78.4,126.2,78.4C126.1,78.5,126.2,78.5,126.2,78.4z M117.5,51
		c-0.1,0.3,0,0.4,0.2,0.5C117.7,51.3,117.7,51.2,117.5,51z M111.9,48.4L111.9,48.4L111.9,48.4L111.9,48.4z M116.1,51.4
		c-0.3-0.2-0.5-0.1-0.8-0.3c0.1,0.3,0.4,0.2,0.5,0.4c-0.1-0.1,0,0,0,0C116,51.5,116.1,51.5,116.1,51.4z M126.8,81.4
		c-0.5,3.7-0.8,7.1-2.2,10.6c-0.7,1.6-1.3,3.2-2,4.9c-0.3,0.6-0.9,1.1-1.2,1.7c-0.3,0.7-0.6,1.4-1.2,2c-1,1.1-1.7,2.6-3,3.3
		c-0.7,0.3-1.5,0.3-2.1,0.8c-0.4-0.8,0.6-2,0.8-2.8c0.3-1.3,0.2-2.6,0.7-3.8c0.9-2.4-0.1-4.9,1-7.2c0.4-0.9,0.7-1.7,1.2-2.5
		c0.5-0.8,0.3-2.2,0.4-3.1c0.2-1.1-0.3-2.8-0.8-3.8c-0.2-0.4-1.4-2.1-0.9-2.5c0.7-0.6,0.5-3.8-0.4-4.2c-0.5-0.2-1.2,0.6-1.6,0
		c-0.2-0.5-0.3-1.1-0.8-1.4c-0.7-0.4-3.4,1.5-3.7,1.4c-0.3-0.1-0.5-0.2-0.8-0.2c0.6-2.8,0.9-5.7,0.9-8.7c0-5.4-1-10.5-2.9-15.3
		c0.7-0.1,1.9-0.2,2.1-0.1c0.3,0.3,1.3,0.9,1.1,1.7c-0.2,0.9,1.7,1.1,2.2,1.2c0.6,0.2,0.8,0.9,1.4,1c0.4,0,0.7,0.3,1,0.6
		c0.6,0.4-0.8-2.5,0.3-1.7c0.7,0.5,1.6,1,2.4,1.1c0-0.2,0.1-0.3,0.1-0.4c0.5-0.2,1,0.6,0.3-0.7c-0.2-0.3-1.6-3.1-1.9-2.9
		c-0.2,0.1,0.1,0.3,0,0.4c-0.2,0.1-0.6-0.5-0.7-0.4c0,0,0.1,0.3,0.1,0.3c-0.2,0.2-2.5-2-2.6-2.5c0.1,0,0.3-0.1,0.4-0.1
		c0-0.2-0.1-0.3-0.2-0.4c0.1-0.1,0.2-0.1,0.3-0.1c-0.1-0.2-0.1-0.3,0-0.5c0.2-0.2,0.9,0.6,1.2,0.5c-0.2-0.9-1.8-2.2-2.6-2.5
		c-0.1,0.1,0,0.2,0,0.4c-0.2-0.3-0.6-0.3-0.8-0.8c0.2,0.2,0.4,0.3,0.6,0.3c0.2-0.2-0.7-0.9-0.8-1c0,0.2,0,0.4,0.1,0.6
		c-0.3,0.2-0.4-0.2-0.7-0.2c0.4,1.1,1.6,2.7,2.6,3.2c0-0.1-0.6,0.3-0.3,0.3c-0.5,0-0.5,0.2-0.8,0.2c0,0.6,1,0.8,1.3,1.2
		c0.2,0.3,0.3,0.8,0.5,1.1c-0.4-0.1-1.3-0.9-1.3-0.9c-0.2,0-1.3-1.3-1.6-1.6c-0.5-0.6-0.7-0.8-1.4-1.2c-0.9-0.5-1.9-1.4-2.8-1.7
		c-0.6-0.2,0.2,0.8,0.3,0.8c0.4,0.4,1,0.7,1.5,1.1c0.7,0.6,1.8,0.7,2.5,1.5c-0.2-0.1-0.4-0.2-0.6-0.3c-0.1,0.4,0.7,0.9,0.7,1.4
		c0,0.1,0.2,0.8,0.2,1c-0.2,0-1.4-0.5-1.4-0.8c0.1-0.2,1.4,0.1,0.9-0.6c-0.5-0.6-1.1-0.9-1.7-1.3c-1-0.6-2.2-1.6-3.4-2
		c0.1,0.4,0,0.6-0.2,0.7c-1-2-2.2-4-3.6-5.8c0.3,0,0.8,0,0.9-0.1c0.4-0.5,0.2,0,0.8-0.1c-0.1-0.7-1.2-1.1-1.3-1.4
		c0.2,0,0.3,0.2,0.5,0.2c0-0.1-2.1-1.3-1-1.1c0.4-0.5-0.8-0.9-1-0.9c0.2,0.2,0.4,0.3,0.6,0.4c-1.1,0.9-2.3-0.7-3.5-1.5
		c-0.5-0.5-0.9-0.9-1.4-1.4c0.6,0.2,1.2,0.4,1.4,0.6c0,0.1-0.1,0-0.1,0.1c0,0.1,1.3,0.6,1.8,0.8c-0.1-0.1-0.8-0.5-0.8-0.6
		c0.2,0.3,1.5,0.6,1.8,0.8c0.8,0.4,1.6,0.8,2.4,1.3c1.7,1,3.3,2,4.8,3.2c3.2,2.4,6,5.1,8.5,8.2c2.6,3.3,4.8,6.9,6.4,10.7
		c0.6,1.4,1.1,2.9,1.5,4.4c-1.3-3.2-4.2-8.1-4.4-8c-0.3,0.2,2.2,3.8,2.4,4.3c0,0,0.2,0.4,0,0c0.9,2.1,1.9,4.2,2.7,6.3
		c0,0,0-0.1,0-0.2c0.3,1,0.5,2,0.8,3.1l0,0C127.4,73.6,127.4,77.4,126.8,81.4z M125.4,77c0-0.3,0.2-0.5,0.1-0.8
		C125.4,76.5,125.3,76.7,125.4,77z M125.1,78.5c0.1-0.1,0.2-0.2,0.1-0.4C125.1,78.2,125.1,78.3,125.1,78.5z M124.2,90.5
		c0,0,0-0.1,0.1-0.1c0,0-0.5,0.3-0.3,0.3C124.1,90.5,124.1,90.5,124.2,90.5C124.2,90.6,124.3,90.4,124.2,90.5z M124.8,84.9
		c-0.4,0.3-0.5,0.3-0.5,0.7C124.4,85.3,124.7,85.2,124.8,84.9z M124.9,83.3c0,0.3,0,1.3,0.2,1.6c0-1.4,0-2.8-0.1-4.2
		C124.8,81.6,124.9,82.5,124.9,83.3C124.9,83,124.9,83.6,124.9,83.3z M125.5,85.6c0,1.3-0.5,2.4-0.5,3.6c0.5-0.6,0.6-2.6,0.6-3.3
		c0,0,0,0,0,0C125.6,85.8,125.6,85.7,125.5,85.6z M126.2,78.4c0.1-0.3,0-0.4-0.1-0.7c-0.7,0.4-0.4,1.7-0.4,2.3
		C126.2,79.5,126,79.2,126.2,78.4C126.2,78.3,126.2,78.2,126.2,78.4z M69,110.3c0-0.1-0.1-0.2-0.2-0.3C68.3,110.1,69,110.7,69,110.3
		z M97,121.4c-0.9-0.1-4.3,0.8-4.5,0.1c-0.3-0.1-1.9,0.4-2.3,0.5c-1,0.1-1.9,0.4-2.9,0.5c-1.6,0.3-3.2,0.9-4.8,1.1
		c-0.7,0.1-5,0.2-5.2-0.7c-0.1-0.5-1-0.7-1.3-1.2c0-0.1-0.8-1.1-0.8-1.1c0-0.3,0.8-0.3,1-0.3c-0.1-0.5,0.2-0.3,0.5-0.4
		c-0.2-0.1-2.6,0.3-2.6,0.4c-0.1,0.2,0.1,0.3-0.1,0.6c-0.1,0.2-0.6,0.1-0.6,0.1c-0.1,0.3,1.4,0.3,0.8,0.7c0,0-1.3,0.1-1.5,0.1
		c0,0.2,1.6,0.6,1.8,0.8c-1.7-0.2-3.6-0.1-5.5-0.4c0.5,0.5,1.2,0.3,1.8,0.7c-0.6,0.1-1.3-0.2-1.9-0.3c4.6,1.4,9.6,1.8,14.3,1.6
		c2.5-0.1,5-0.4,7.4-1C91.2,123.2,97.1,121.6,97,121.4C97.1,121.4,97,121.4,97,121.4z M97,121.4C97,121.4,97,121.4,97,121.4
		C97,121.4,97,121.4,97,121.4z M68.8,110C68.9,110,68.7,110,68.8,110L68.8,110z M97.1,121.4C97.1,121.4,97.1,121.4,97.1,121.4
		C97.1,121.4,97.1,121.4,97.1,121.4C97.1,121.4,97.1,121.4,97.1,121.4z M124.6,93.7c0,0.1,0,0.1-0.1,0.2
		C124.6,93.8,124.6,93.8,124.6,93.7z M124.4,94.4c-0.2,0.5-0.4,1-0.6,1.4C124,95.4,124.2,94.9,124.4,94.4z"/>
	<path class="st7" d="M118.8,31.6H43.2V51L81,58.4l37.8-7.4V31.6z"/>
	<path class="st9" d="M81,27.6H21.4v4H81V27.6z"/>
	<path class="st8" d="M140.6,27.6H81v4h59.6V27.6z"/>
	<path class="st7" d="M139,31.6h-1.5V51h1.5V31.6z"/>
	<path class="st7" d="M140.2,64.3L139,51h-1.5l-1.2,13.3L137,63l0.6,1.3l0.6-1.3l0.6,1.3l0.6-1.3L140.2,64.3z"/>
	<path class="st8" d="M140.2,51c0,1.1-0.9,2-2,2c-1.1,0-2-0.9-2-2c0-1.1,0.9-2,2-2C139.4,49.1,140.2,49.9,140.2,51z"/>
</g>
</svg>
