<?xml version="1.0" encoding="utf-8"?>
<!-- Generator: Adobe Illustrator 25.0.1, SVG Export Plug-In . SVG Version: 6.00 Build 0)  -->
<svg version="1.1" id="Layer_1" xmlns="http://www.w3.org/2000/svg" xmlns:xlink="http://www.w3.org/1999/xlink" x="0px" y="0px"
	 viewBox="0 0 206 80" style="enable-background:new 0 0 206 80;" xml:space="preserve">
<style type="text/css">
	.st0{fill:#FFFFFF;stroke:#FF84A7;}
	.st1{fill:#FF84A7;}
	.st2{fill:#FFFFFF;}
	.st3{fill:#B2B0BC;}
	.st4{fill:#5C586F;}
	.st5{fill:#938EA3;}
	.st6{fill:#5BBCBD;}
	.st7{fill:#0093AE;}
</style>
<path class="st0" d="M198,21.5H82.9C76.3,9,63.1,0.5,48,0.5S19.7,9,13.1,21.5H8c-4.1,0-7.5,3.4-7.5,7.5v23c0,4.1,3.4,7.5,7.5,7.5
	h5.7c6.8,11.9,19.6,20,34.3,20s27.6-8.1,34.3-20H198c4.1,0,7.5-3.4,7.5-7.5V29C205.5,24.9,202.1,21.5,198,21.5z"/>
<path class="st1" d="M106.9,48h-1.8v-6.7h-7.3V48H96V33.7h1.8v6h7.3v-6h1.8V48z M114.6,37.1c1.3,0,2.3,0.3,2.9,0.9
	c0.6,0.6,0.9,1.5,0.9,2.7V48h-1.3l-0.3-1.5h-0.1c-0.5,0.6-1,1-1.5,1.3s-1.2,0.4-2.1,0.4c-1,0-1.8-0.3-2.4-0.8s-1-1.3-1-2.4
	c0-1.1,0.4-1.9,1.3-2.5c0.8-0.6,2.1-0.9,3.9-1l1.8-0.1v-0.6c0-0.9-0.2-1.5-0.6-1.9c-0.4-0.3-0.9-0.5-1.6-0.5c-0.6,0-1.1,0.1-1.6,0.3
	s-1,0.3-1.4,0.6L111,38c0.5-0.3,1-0.5,1.7-0.6C113.2,37.2,113.9,37.1,114.6,37.1z M116.7,42.8l-1.6,0.1c-1.3,0.1-2.3,0.3-2.8,0.6
	c-0.5,0.4-0.8,0.9-0.8,1.6c0,0.6,0.2,1,0.5,1.3c0.4,0.3,0.8,0.4,1.4,0.4c0.9,0,1.7-0.2,2.3-0.7c0.6-0.5,0.9-1.3,0.9-2.3L116.7,42.8
	L116.7,42.8z M126.9,37.1c1.3,0,2.2,0.3,2.9,0.9c0.7,0.6,1,1.6,1,3v7H129v-6.9c0-1.7-0.8-2.6-2.4-2.6c-1.2,0-2,0.3-2.5,1
	s-0.7,1.6-0.7,2.9V48h-1.8V37.3h1.4l0.3,1.5h0.1c0.3-0.6,0.8-1,1.4-1.2C125.6,37.2,126.2,37.1,126.9,37.1z M137.9,48.2
	c-1.3,0-2.4-0.5-3.2-1.4s-1.2-2.3-1.2-4.2s0.4-3.2,1.2-4.2c0.8-0.9,1.9-1.4,3.2-1.4c0.8,0,1.5,0.2,2,0.5s1,0.7,1.3,1.1h0.1
	c0-0.2,0-0.4-0.1-0.8c0-0.3,0-0.6,0-0.8v-4.3h1.8V48h-1.4l-0.3-1.4h-0.1c-0.3,0.5-0.7,0.8-1.3,1.2C139.4,48,138.7,48.2,137.9,48.2z
	 M138.2,46.7c1.1,0,1.9-0.3,2.4-0.9c0.5-0.6,0.7-1.6,0.7-2.8v-0.3c0-1.3-0.2-2.4-0.7-3.1c-0.4-0.7-1.3-1.1-2.4-1.1
	c-0.9,0-1.7,0.4-2.1,1.1c-0.5,0.7-0.7,1.8-0.7,3c0,1.3,0.2,2.3,0.7,3C136.5,46.4,137.2,46.7,138.2,46.7z M153.4,45
	c0,1-0.4,1.8-1.2,2.4c-0.8,0.5-1.8,0.8-3.1,0.8c-0.7,0-1.4-0.1-1.9-0.2c-0.5-0.1-1-0.3-1.4-0.5v-1.6c0.4,0.2,0.9,0.4,1.5,0.6
	c0.6,0.2,1.2,0.3,1.9,0.3c0.9,0,1.5-0.1,1.9-0.4c0.4-0.3,0.6-0.7,0.6-1.2c0-0.3-0.1-0.5-0.2-0.7s-0.4-0.4-0.8-0.6
	c-0.4-0.2-0.9-0.5-1.6-0.7c-0.7-0.3-1.3-0.5-1.8-0.8s-0.9-0.6-1.1-1c-0.3-0.4-0.4-0.9-0.4-1.4c0-0.9,0.4-1.6,1.1-2.1
	c0.7-0.5,1.7-0.7,2.9-0.7c0.7,0,1.3,0.1,1.8,0.2c0.6,0.1,1.1,0.3,1.6,0.5l-0.6,1.4c-0.5-0.2-0.9-0.3-1.4-0.5c-0.5-0.1-1-0.2-1.5-0.2
	c-0.7,0-1.3,0.1-1.7,0.4c-0.4,0.2-0.6,0.5-0.6,0.9c0,0.3,0.1,0.5,0.3,0.8c0.2,0.2,0.5,0.4,0.9,0.6c0.4,0.2,1,0.4,1.6,0.7
	c0.7,0.3,1.3,0.5,1.7,0.8s0.8,0.6,1.1,1C153.3,44,153.4,44.5,153.4,45z M173.9,40.8c0,1.5-0.3,2.8-0.8,3.9c-0.5,1.1-1.2,1.9-2.2,2.6
	c-1,0.6-2.2,0.9-3.6,0.9c-1.5,0-2.7-0.3-3.7-0.9c-1-0.6-1.7-1.5-2.2-2.6s-0.7-2.4-0.7-3.9s0.2-2.7,0.7-3.8s1.2-1.9,2.2-2.6
	c1-0.6,2.2-0.9,3.7-0.9c1.4,0,2.6,0.3,3.6,0.9c1,0.6,1.7,1.5,2.2,2.6C173.6,38.1,173.9,39.4,173.9,40.8z M162.6,40.8
	c0,1.8,0.4,3.2,1.1,4.3c0.8,1,1.9,1.5,3.6,1.5c1.6,0,2.8-0.5,3.6-1.5c0.7-1,1.1-2.5,1.1-4.3s-0.4-3.2-1.1-4.2
	c-0.7-1-1.9-1.5-3.5-1.5s-2.8,0.5-3.6,1.5C163,37.6,162.6,39,162.6,40.8z M182,37.1c1.3,0,2.2,0.3,2.9,0.9c0.7,0.6,1,1.6,1,3v7h-1.7
	v-6.9c0-1.7-0.8-2.6-2.4-2.6c-1.2,0-2,0.3-2.5,1s-0.7,1.6-0.7,2.9V48h-1.8V37.3h1.4l0.3,1.5h0.1c0.3-0.6,0.8-1,1.4-1.2
	C180.6,37.2,181.3,37.1,182,37.1z"/>
<rect x="80" y="22" class="st2" width="8" height="37"/>
<path class="st3" d="M34.1,52.7l-1.8,1.1l-0.6,1.6c-0.5,1.3-0.1,2.7,0.9,3.6c0.3,0.2,0.6,0.1,0.8-0.2l1.6-3.9L34.1,52.7z"/>
<path class="st3" d="M60.8,52.7l1.8,1.1l0.6,1.6c0.5,1.3,0.1,2.7-0.9,3.6c-0.3,0.2-0.6,0.1-0.8-0.2l-1.6-3.9L60.8,52.7z"/>
<path class="st3" d="M48.2,14h-1.5c-0.6,0-1,0.5-1,1v6h3.6v-6C49.2,14.5,48.8,14,48.2,14L48.2,14z"/>
<path class="st4" d="M65.2,41H29.8c-0.4,0-0.8,0.3-0.8,0.8v1.5c0,0.4,0.4,0.8,0.8,0.8h35.4c0.4,0,0.8-0.3,0.8-0.8v-1.5
	C66,41.3,65.6,41,65.2,41z"/>
<path class="st5" d="M31.2,54.9C31.1,55,31,55.1,31,55.3l3,0.7l1-1.5L34,53l-2.1,0.8L31.2,54.9z"/>
<path class="st6" d="M42.6,23L31.1,51.8c-0.3,0.8,0.1,1.7,0.8,2l2.6,1.1c0.8,0.3,1.7-0.1,2-0.9L48,25.2L42.6,23z"/>
<path class="st5" d="M61,53l-1,1.5l1,1.5l3-0.7c0-0.1-0.1-0.3-0.2-0.4l-0.7-1.1L61,53z"/>
<path class="st6" d="M52.4,23l11.5,28.8c0.3,0.8-0.1,1.7-0.8,2l-2.6,1.1c-0.8,0.3-1.7-0.1-2-0.9L47,25.2L52.4,23z"/>
<path class="st7" d="M52.2,23L47,25.2l3.3,8.8c1.9-0.6,3.6-1.9,4.7-3.6L52.2,23z"/>
<path class="st7" d="M42.8,23L40,30.4c1.1,1.7,2.8,3,4.7,3.6l3.3-8.8L42.8,23z"/>
<path class="st4" d="M47.5,32c3.6,0,6.5-3.1,6.5-7s-2.9-7-6.5-7S41,21.1,41,25S43.9,32,47.5,32z"/>
<path class="st3" d="M47.5,27c1.4,0,2.5-0.9,2.5-2s-1.1-2-2.5-2S45,23.9,45,25S46.1,27,47.5,27z"/>
<path class="st3" d="M47.5,36c-0.8,0-1.5,0.8-1.5,1.8v8.4c0,1,0.7,1.8,1.5,1.8s1.5-0.8,1.5-1.8v-8.4C49,36.8,48.3,36,47.5,36z"/>
</svg>
