<svg width="250" height="87" viewBox="0 0 250 87" fill="none" xmlns="http://www.w3.org/2000/svg">
    <path d="M0.5 31.1853C0.5 27.0431 3.85786 23.6853 7.99999 23.6852L242 23.6851C246.142 23.6851 249.5 27.0429 249.5 31.1851V57.1955C249.5 61.3376 246.142 64.6955 242 64.6955L8 64.6957C3.85786 64.6957 0.5 61.3378 0.5 57.1957V31.1853Z" fill="white"/>
    <path d="M0.5 31.1853C0.5 27.0431 3.85786 23.6853 7.99999 23.6852L242 23.6851C246.142 23.6851 249.5 27.0429 249.5 31.1851V57.1955C249.5 61.3376 246.142 64.6955 242 64.6955L8 64.6957C3.85786 64.6957 0.5 61.3378 0.5 57.1957V31.1853Z" fill="url(#paint0_linear)"/>
    <path d="M0.5 31.1853C0.5 27.0431 3.85786 23.6853 7.99999 23.6852L242 23.6851C246.142 23.6851 249.5 27.0429 249.5 31.1851V57.1955C249.5 61.3376 246.142 64.6955 242 64.6955L8 64.6957C3.85786 64.6957 0.5 61.3378 0.5 57.1957V31.1853Z" stroke="#FF84A7"/>
    <path d="M95.7134 43.6521C95.7134 67.1656 76.3642 86.2397 52.4801 86.2397C28.596 86.2397 9.2468 67.1656 9.2468 43.6521C9.2468 20.1386 28.596 1.06445 52.4801 1.06445C76.3642 1.06445 95.7134 20.1386 95.7134 43.6521Z" fill="white" stroke="#FF84A7"/>
    <path d="M104.172 39H100.56V38.272L101.736 38.006V30.012L100.56 29.732V29.004H104.172V29.732L102.996 30.012V38.006L104.172 38.272V39ZM108.594 39.14C107.661 39.14 106.914 38.818 106.354 38.174C105.794 37.5207 105.514 36.55 105.514 35.262C105.514 33.974 105.794 33.0033 106.354 32.35C106.923 31.6873 107.675 31.356 108.608 31.356C109.187 31.356 109.658 31.4633 110.022 31.678C110.395 31.8927 110.699 32.154 110.932 32.462H111.016C111.007 32.3407 110.988 32.1633 110.96 31.93C110.941 31.6873 110.932 31.496 110.932 31.356V28.36H112.164V39H111.17L110.988 37.992H110.932C110.708 38.3093 110.409 38.58 110.036 38.804C109.663 39.028 109.182 39.14 108.594 39.14ZM108.79 38.118C109.583 38.118 110.139 37.9033 110.456 37.474C110.783 37.0353 110.946 36.3773 110.946 35.5V35.276C110.946 34.3427 110.792 33.6287 110.484 33.134C110.176 32.63 109.607 32.378 108.776 32.378C108.113 32.378 107.614 32.644 107.278 33.176C106.951 33.6987 106.788 34.4033 106.788 35.29C106.788 36.186 106.951 36.8813 107.278 37.376C107.614 37.8707 108.118 38.118 108.79 38.118ZM117.445 31.356C118.089 31.356 118.64 31.496 119.097 31.776C119.564 32.056 119.919 32.4527 120.161 32.966C120.413 33.47 120.539 34.0627 120.539 34.744V35.486H115.401C115.42 36.3353 115.635 36.984 116.045 37.432C116.465 37.8707 117.049 38.09 117.795 38.09C118.271 38.09 118.691 38.048 119.055 37.964C119.429 37.8707 119.811 37.74 120.203 37.572V38.65C119.821 38.818 119.443 38.9393 119.069 39.014C118.696 39.098 118.253 39.14 117.739 39.14C117.03 39.14 116.4 38.9953 115.849 38.706C115.308 38.4167 114.883 37.9873 114.575 37.418C114.277 36.8393 114.127 36.1347 114.127 35.304C114.127 34.4827 114.263 33.778 114.533 33.19C114.813 32.602 115.201 32.1493 115.695 31.832C116.199 31.5147 116.783 31.356 117.445 31.356ZM117.431 32.364C116.843 32.364 116.377 32.5553 116.031 32.938C115.695 33.3113 115.495 33.834 115.429 34.506H119.251C119.242 33.8713 119.093 33.358 118.803 32.966C118.514 32.5647 118.057 32.364 117.431 32.364ZM126.062 31.356C126.958 31.356 127.634 31.5753 128.092 32.014C128.549 32.4433 128.778 33.1433 128.778 34.114V39H127.56V34.198C127.56 32.994 127 32.392 125.88 32.392C125.049 32.392 124.475 32.6253 124.158 33.092C123.84 33.5587 123.682 34.2307 123.682 35.108V39H122.45V31.496H123.444L123.626 32.518H123.696C123.938 32.126 124.274 31.8367 124.704 31.65C125.133 31.454 125.586 31.356 126.062 31.356ZM133.61 38.132C133.797 38.132 133.988 38.118 134.184 38.09C134.38 38.0527 134.539 38.0153 134.66 37.978V38.916C134.529 38.9813 134.343 39.0327 134.1 39.07C133.857 39.1167 133.624 39.14 133.4 39.14C133.008 39.14 132.644 39.0747 132.308 38.944C131.981 38.804 131.715 38.566 131.51 38.23C131.305 37.894 131.202 37.4227 131.202 36.816V32.448H130.138V31.86L131.216 31.37L131.706 29.774H132.434V31.496H134.604V32.448H132.434V36.788C132.434 37.2453 132.541 37.586 132.756 37.81C132.98 38.0247 133.265 38.132 133.61 38.132ZM136.793 28.682C136.979 28.682 137.143 28.7473 137.283 28.878C137.432 28.9993 137.507 29.1953 137.507 29.466C137.507 29.7273 137.432 29.9233 137.283 30.054C137.143 30.1847 136.979 30.25 136.793 30.25C136.587 30.25 136.415 30.1847 136.275 30.054C136.135 29.9233 136.065 29.7273 136.065 29.466C136.065 29.1953 136.135 28.9993 136.275 28.878C136.415 28.7473 136.587 28.682 136.793 28.682ZM137.395 31.496V39H136.163V31.496H137.395ZM143.23 32.448H141.34V39H140.108V32.448H138.792V31.874L140.108 31.454V31.02C140.108 30.0493 140.323 29.354 140.752 28.934C141.181 28.5047 141.779 28.29 142.544 28.29C142.843 28.29 143.113 28.318 143.356 28.374C143.608 28.4207 143.823 28.4767 144 28.542L143.678 29.508C143.529 29.4613 143.356 29.4147 143.16 29.368C142.964 29.3213 142.763 29.298 142.558 29.298C142.147 29.298 141.839 29.438 141.634 29.718C141.438 29.9887 141.34 30.418 141.34 31.006V31.496H143.23V32.448ZM143.409 31.496H144.725L146.349 35.766C146.489 36.1393 146.615 36.4987 146.727 36.844C146.839 37.18 146.923 37.502 146.979 37.81H147.035C147.091 37.5767 147.179 37.2733 147.301 36.9C147.422 36.5173 147.548 36.1347 147.679 35.752L149.205 31.496H150.535L147.301 40.036C147.039 40.7453 146.699 41.31 146.279 41.73C145.868 42.15 145.299 42.36 144.571 42.36C144.347 42.36 144.151 42.346 143.983 42.318C143.815 42.2993 143.67 42.276 143.549 42.248V41.268C143.651 41.2867 143.773 41.3053 143.913 41.324C144.062 41.3427 144.216 41.352 144.375 41.352C144.804 41.352 145.149 41.2307 145.411 40.988C145.681 40.7453 145.891 40.4233 146.041 40.022L146.433 39.028L143.409 31.496ZM155.526 39V29.004H156.786V37.88H161.154V39H155.526ZM165.598 31.356C166.242 31.356 166.792 31.496 167.25 31.776C167.716 32.056 168.071 32.4527 168.314 32.966C168.566 33.47 168.692 34.0627 168.692 34.744V35.486H163.554C163.572 36.3353 163.787 36.984 164.198 37.432C164.618 37.8707 165.201 38.09 165.948 38.09C166.424 38.09 166.844 38.048 167.208 37.964C167.581 37.8707 167.964 37.74 168.356 37.572V38.65C167.973 38.818 167.595 38.9393 167.222 39.014C166.848 39.098 166.405 39.14 165.892 39.14C165.182 39.14 164.552 38.9953 164.002 38.706C163.46 38.4167 163.036 37.9873 162.728 37.418C162.429 36.8393 162.28 36.1347 162.28 35.304C162.28 34.4827 162.415 33.778 162.686 33.19C162.966 32.602 163.353 32.1493 163.848 31.832C164.352 31.5147 164.935 31.356 165.598 31.356ZM165.584 32.364C164.996 32.364 164.529 32.5553 164.184 32.938C163.848 33.3113 163.647 33.834 163.582 34.506H167.404C167.394 33.8713 167.245 33.358 166.956 32.966C166.666 32.5647 166.209 32.364 165.584 32.364ZM173.444 31.37C174.359 31.37 175.035 31.5707 175.474 31.972C175.913 32.3733 176.132 33.0127 176.132 33.89V39H175.236L174.998 37.936H174.942C174.615 38.3467 174.27 38.65 173.906 38.846C173.551 39.042 173.057 39.14 172.422 39.14C171.741 39.14 171.176 38.9627 170.728 38.608C170.28 38.244 170.056 37.6793 170.056 36.914C170.056 36.1673 170.35 35.5933 170.938 35.192C171.526 34.7813 172.431 34.5573 173.654 34.52L174.928 34.478V34.03C174.928 33.4047 174.793 32.9707 174.522 32.728C174.251 32.4853 173.869 32.364 173.374 32.364C172.982 32.364 172.609 32.4247 172.254 32.546C171.899 32.658 171.568 32.7887 171.26 32.938L170.882 32.014C171.209 31.8367 171.596 31.6873 172.044 31.566C172.492 31.4353 172.959 31.37 173.444 31.37ZM173.808 35.374C172.875 35.4113 172.226 35.5607 171.862 35.822C171.507 36.0833 171.33 36.452 171.33 36.928C171.33 37.348 171.456 37.656 171.708 37.852C171.969 38.048 172.301 38.146 172.702 38.146C173.337 38.146 173.864 37.9733 174.284 37.628C174.704 37.2733 174.914 36.732 174.914 36.004V35.332L173.808 35.374ZM181.95 31.356C182.09 31.356 182.239 31.3653 182.398 31.384C182.566 31.3933 182.71 31.412 182.832 31.44L182.678 32.574C182.556 32.546 182.421 32.5227 182.272 32.504C182.132 32.4853 181.996 32.476 181.866 32.476C181.483 32.476 181.124 32.5833 180.788 32.798C180.452 33.0033 180.181 33.2973 179.976 33.68C179.78 34.0533 179.682 34.492 179.682 34.996V39H178.45V31.496H179.458L179.598 32.868H179.654C179.896 32.4573 180.209 32.1027 180.592 31.804C180.974 31.5053 181.427 31.356 181.95 31.356ZM187.845 31.356C188.741 31.356 189.418 31.5753 189.875 32.014C190.332 32.4433 190.561 33.1433 190.561 34.114V39H189.343V34.198C189.343 32.994 188.783 32.392 187.663 32.392C186.832 32.392 186.258 32.6253 185.941 33.092C185.624 33.5587 185.465 34.2307 185.465 35.108V39H184.233V31.496H185.227L185.409 32.518H185.479C185.722 32.126 186.058 31.8367 186.487 31.65C186.916 31.454 187.369 31.356 187.845 31.356ZM193.517 28.682C193.704 28.682 193.867 28.7473 194.007 28.878C194.157 28.9993 194.231 29.1953 194.231 29.466C194.231 29.7273 194.157 29.9233 194.007 30.054C193.867 30.1847 193.704 30.25 193.517 30.25C193.312 30.25 193.139 30.1847 192.999 30.054C192.859 29.9233 192.789 29.7273 192.789 29.466C192.789 29.1953 192.859 28.9993 192.999 28.878C193.139 28.7473 193.312 28.682 193.517 28.682ZM194.119 31.496V39H192.887V31.496H194.119ZM200.109 31.356C201.005 31.356 201.681 31.5753 202.139 32.014C202.596 32.4433 202.825 33.1433 202.825 34.114V39H201.607V34.198C201.607 32.994 201.047 32.392 199.927 32.392C199.096 32.392 198.522 32.6253 198.205 33.092C197.887 33.5587 197.729 34.2307 197.729 35.108V39H196.497V31.496H197.491L197.673 32.518H197.743C197.985 32.126 198.321 31.8367 198.751 31.65C199.18 31.454 199.633 31.356 200.109 31.356ZM207.811 31.356C208.306 31.356 208.749 31.4493 209.141 31.636C209.542 31.8227 209.883 32.1073 210.163 32.49H210.233L210.401 31.496H211.381V39.126C211.381 40.1993 211.106 41.0067 210.555 41.548C210.014 42.0893 209.169 42.36 208.021 42.36C206.92 42.36 206.019 42.2013 205.319 41.884V40.75C206.056 41.142 206.98 41.338 208.091 41.338C208.735 41.338 209.239 41.1467 209.603 40.764C209.976 40.3907 210.163 39.8773 210.163 39.224V38.93C210.163 38.818 210.168 38.6593 210.177 38.454C210.186 38.2393 210.196 38.09 210.205 38.006H210.149C209.645 38.762 208.87 39.14 207.825 39.14C206.854 39.14 206.094 38.7993 205.543 38.118C205.002 37.4367 204.731 36.4847 204.731 35.262C204.731 34.0673 205.002 33.12 205.543 32.42C206.094 31.7107 206.85 31.356 207.811 31.356ZM207.979 32.392C207.354 32.392 206.868 32.644 206.523 33.148C206.178 33.6427 206.005 34.352 206.005 35.276C206.005 36.2 206.173 36.9093 206.509 37.404C206.854 37.8893 207.354 38.132 208.007 38.132C208.763 38.132 209.314 37.9313 209.659 37.53C210.004 37.1193 210.177 36.4613 210.177 35.556V35.262C210.177 34.2353 210 33.5027 209.645 33.064C209.29 32.616 208.735 32.392 207.979 32.392ZM104.522 58H103.262V49.11H100.14V48.004H107.63V49.11H104.522V58ZM107.52 50.496H108.836L110.46 54.766C110.6 55.1393 110.726 55.4987 110.838 55.844C110.95 56.18 111.034 56.502 111.09 56.81H111.146C111.202 56.5767 111.291 56.2733 111.412 55.9C111.533 55.5173 111.659 55.1347 111.79 54.752L113.316 50.496H114.646L111.412 59.036C111.151 59.7453 110.81 60.31 110.39 60.73C109.979 61.15 109.41 61.36 108.682 61.36C108.458 61.36 108.262 61.346 108.094 61.318C107.926 61.2993 107.781 61.276 107.66 61.248V60.268C107.763 60.2867 107.884 60.3053 108.024 60.324C108.173 60.3427 108.327 60.352 108.486 60.352C108.915 60.352 109.261 60.2307 109.522 59.988C109.793 59.7453 110.003 59.4233 110.152 59.022L110.544 58.028L107.52 50.496ZM119.403 50.356C120.327 50.356 121.069 50.678 121.629 51.322C122.198 51.966 122.483 52.9367 122.483 54.234C122.483 55.5127 122.198 56.4833 121.629 57.146C121.069 57.8087 120.322 58.14 119.389 58.14C118.81 58.14 118.329 58.0327 117.947 57.818C117.573 57.594 117.279 57.3373 117.065 57.048H116.981C116.999 57.2067 117.018 57.4073 117.037 57.65C117.055 57.8927 117.065 58.1027 117.065 58.28V61.36H115.833V50.496H116.841L117.009 51.518H117.065C117.289 51.1913 117.583 50.916 117.947 50.692C118.311 50.468 118.796 50.356 119.403 50.356ZM119.179 51.392C118.413 51.392 117.872 51.6067 117.555 52.036C117.247 52.4653 117.083 53.1187 117.065 53.996V54.234C117.065 55.158 117.214 55.872 117.513 56.376C117.821 56.8707 118.385 57.118 119.207 57.118C119.664 57.118 120.037 56.992 120.327 56.74C120.625 56.488 120.845 56.1473 120.985 55.718C121.134 55.2793 121.209 54.78 121.209 54.22C121.209 53.3613 121.041 52.6753 120.705 52.162C120.378 51.6487 119.869 51.392 119.179 51.392ZM127.344 50.356C127.988 50.356 128.539 50.496 128.996 50.776C129.463 51.056 129.817 51.4527 130.06 51.966C130.312 52.47 130.438 53.0627 130.438 53.744V54.486H125.3C125.319 55.3353 125.533 55.984 125.944 56.432C126.364 56.8707 126.947 57.09 127.694 57.09C128.17 57.09 128.59 57.048 128.954 56.964C129.327 56.8707 129.71 56.74 130.102 56.572V57.65C129.719 57.818 129.341 57.9393 128.968 58.014C128.595 58.098 128.151 58.14 127.638 58.14C126.929 58.14 126.299 57.9953 125.748 57.706C125.207 57.4167 124.782 56.9873 124.474 56.418C124.175 55.8393 124.026 55.1347 124.026 54.304C124.026 53.4827 124.161 52.778 124.432 52.19C124.712 51.602 125.099 51.1493 125.594 50.832C126.098 50.5147 126.681 50.356 127.344 50.356ZM127.33 51.364C126.742 51.364 126.275 51.5553 125.93 51.938C125.594 52.3113 125.393 52.834 125.328 53.506H129.15C129.141 52.8713 128.991 52.358 128.702 51.966C128.413 51.5647 127.955 51.364 127.33 51.364ZM137.234 55.928C137.234 56.656 136.964 57.2067 136.422 57.58C135.881 57.9533 135.153 58.14 134.238 58.14C133.716 58.14 133.263 58.098 132.88 58.014C132.507 57.93 132.176 57.8133 131.886 57.664V56.544C132.185 56.6933 132.544 56.8333 132.964 56.964C133.394 57.0853 133.828 57.146 134.266 57.146C134.892 57.146 135.344 57.048 135.624 56.852C135.904 56.6467 136.044 56.376 136.044 56.04C136.044 55.8533 135.993 55.6853 135.89 55.536C135.788 55.3867 135.601 55.2373 135.33 55.088C135.069 54.9387 134.691 54.7707 134.196 54.584C133.711 54.3973 133.296 54.2107 132.95 54.024C132.605 53.8373 132.339 53.6133 132.152 53.352C131.966 53.0907 131.872 52.7547 131.872 52.344C131.872 51.7093 132.129 51.2193 132.642 50.874C133.165 50.5287 133.846 50.356 134.686 50.356C135.144 50.356 135.568 50.4027 135.96 50.496C136.362 50.58 136.735 50.7013 137.08 50.86L136.66 51.84C136.343 51.7093 136.012 51.5973 135.666 51.504C135.321 51.4107 134.966 51.364 134.602 51.364C134.098 51.364 133.711 51.448 133.44 51.616C133.179 51.7747 133.048 51.994 133.048 52.274C133.048 52.4793 133.109 52.6567 133.23 52.806C133.352 52.946 133.552 53.086 133.832 53.226C134.122 53.3567 134.504 53.5153 134.98 53.702C135.456 53.8793 135.862 54.0613 136.198 54.248C136.534 54.4347 136.791 54.6633 136.968 54.934C137.146 55.1953 137.234 55.5267 137.234 55.928Z" fill="#333333"/>
    <rect x="87.4666" y="24.2627" width="8.74666" height="39.856" fill="white"/>
    <rect x="7.6535" y="24.2627" width="8.74666" height="39.856" fill="white"/>
    <path d="M50.5 78C69.5538 78 85 62.5538 85 43.5C85 24.4462 69.5538 9 50.5 9C31.4462 9 16 24.4462 16 43.5C16 62.5538 31.4462 78 50.5 78Z" fill="#F2F2F2"/>
    <path d="M34.2801 43.6313L50.5396 54.4701V32.7886L34.2801 43.6313Z" fill="#CCCBCA"/>
    <path d="M66.8004 43.6313L50.5396 54.4701V32.7886L66.8004 43.6313Z" fill="#D9D8D7"/>
    <path d="M50.5396 32.7892L34.2796 43.6328L25.3631 37.6895L41.6235 26.8521L50.5396 32.7892Z" fill="white"/>
    <path d="M50.541 32.7876L66.8004 43.6312L75.7144 37.6884L59.4563 26.8501L50.541 32.7876Z" fill="white"/>
    <path d="M43.681 27.3067C43.2852 27.1251 42.7983 27.0156 42.3375 27.0156C40.6392 27.0156 39.2615 28.3916 39.2615 30.0895C39.2615 30.3864 39.3042 30.6833 39.3808 30.9509C39.3643 30.9505 39.346 30.95 39.3295 30.95C37.6308 30.95 36.2516 32.3296 36.2516 34.0287C36.2516 34.8438 36.5708 35.5877 37.0926 36.1379C35.9704 36.5942 35.1762 37.6969 35.1762 38.9878C35.1762 40.1457 35.8167 41.1549 36.7623 41.6792C36.3158 42.2125 36.0473 42.8963 36.0473 43.6491C36.0473 45.3478 37.4264 46.7224 39.1234 46.7224C39.1862 46.7224 39.2484 46.7211 39.3089 46.7166C39.1936 47.0411 39.1234 47.4076 39.1234 47.7717C39.1234 49.4714 40.5016 50.8469 42.2021 50.8469C42.7212 50.8469 43.2264 50.7124 43.6565 50.4793C43.6565 50.4793 43.6565 50.4806 43.6565 50.482C43.8074 52.0365 45.0823 53.2509 46.7183 53.2509C47.2668 53.2509 47.6202 53.0804 47.9345 53.0804C48.6485 53.0804 49.018 53.6734 49.018 54.3029V55.9459H49.7948V27.8028C49.7948 26.1031 48.4171 24.7231 46.7182 24.7231C45.1883 24.723 43.9174 25.8435 43.681 27.3067Z" fill="#FF916E"/>
    <path d="M42.2018 51.2224C40.2978 51.2224 38.7501 49.6764 38.7501 47.772C38.7501 47.3655 38.8195 46.9703 38.958 46.5892C39.0283 46.3942 39.2415 46.2954 39.437 46.3661C39.6306 46.4361 39.7307 46.6493 39.6596 46.8443C39.5523 47.1425 39.4984 47.455 39.4984 47.772C39.4984 49.2616 40.7101 50.4736 42.2019 50.4736C42.648 50.4736 43.0896 50.365 43.4791 50.1567C43.6616 50.0543 43.8877 50.1238 43.9861 50.3049C44.0841 50.4874 44.0168 50.7141 43.8348 50.8124C43.3352 51.0791 42.7707 51.2224 42.2018 51.2224Z" fill="#EE643C"/>
    <path d="M39.123 47.0965C37.2207 47.0965 35.6734 45.5469 35.6734 43.6488C35.6734 42.8423 35.9582 42.0605 36.4747 41.4391C36.6078 41.2792 36.8423 41.2593 37 41.3937C37.1594 41.5214 37.1807 41.7618 37.0485 41.9167C36.6425 42.4032 36.4208 43.0166 36.4208 43.6488C36.4208 45.1361 37.6338 46.3487 39.123 46.3487C39.1763 46.3487 39.2293 46.3478 39.2805 46.3412C40.7108 46.2623 41.8273 45.0756 41.8273 43.6484C41.8273 43.4414 41.9951 43.2754 42.2021 43.2754C42.4077 43.2754 42.5742 43.4414 42.5742 43.6484C42.5742 45.4732 41.1492 46.9827 39.3321 47.0891C39.2681 47.0938 39.1952 47.0965 39.123 47.0965Z" fill="#EE643C"/>
    <path d="M46.7727 44.0191C46.5657 44.0191 46.3979 43.8527 46.3979 43.6488C46.3979 42.5929 45.5405 41.7342 44.486 41.7342C43.4328 41.7342 42.574 42.5929 42.574 43.6488C42.574 43.8527 42.4076 44.0191 42.2019 44.0191C41.9949 44.0191 41.8272 43.8527 41.8272 43.6488C41.8272 42.1828 43.0202 40.9858 44.4861 40.9858C45.9529 40.9858 47.1446 42.1828 47.1446 43.6488C47.1443 43.8526 46.9779 44.0191 46.7727 44.0191Z" fill="#EE643C"/>
    <path d="M38.2518 42.4366C36.3506 42.4366 34.8018 40.8896 34.8018 38.9875C34.8018 37.0822 36.3506 35.5371 38.2518 35.5371C40.1549 35.5371 41.7028 37.0822 41.7028 38.9875C41.7028 39.1928 41.5363 39.3609 41.328 39.3609C41.1227 39.3609 40.955 39.1926 40.955 38.9875C40.955 37.4985 39.7437 36.2867 38.252 36.2867C36.762 36.2867 35.5498 37.4989 35.5498 38.9875C35.5498 40.4796 36.7624 41.6897 38.252 41.6897C38.459 41.6897 38.6259 41.8575 38.6259 42.0664C38.6258 42.27 38.4588 42.4366 38.2518 42.4366Z" fill="#EE643C"/>
    <path d="M37.0935 36.5132C36.9938 36.5132 36.8968 36.4726 36.8229 36.3953C36.2143 35.752 35.8796 34.9115 35.8796 34.0288C35.8796 32.1244 37.4273 30.5757 39.3296 30.5757C39.3554 30.5757 39.3835 30.5757 39.4088 30.5766C41.0497 30.606 42.4519 31.6967 42.6527 33.1172C42.7921 34.0944 43.438 35.0764 44.5691 35.0764C44.7752 35.0764 44.9421 35.2483 44.9421 35.4522C44.9421 35.6588 44.7752 35.8256 44.5691 35.8256C43.2011 35.8256 42.1336 34.7777 41.9137 33.2196C41.7486 32.0573 40.4945 31.3437 39.3789 31.3255L39.33 31.3238C37.8396 31.3238 36.627 32.536 36.627 34.0285C36.627 34.7176 36.8887 35.3768 37.3659 35.8822C37.5074 36.0332 37.5012 36.2678 37.3521 36.4089C37.2783 36.4757 37.1861 36.5132 37.0935 36.5132Z" fill="#EE643C"/>
    <path d="M39.3839 31.3252C39.2227 31.3252 39.0736 31.2197 39.0265 31.0536C38.9343 30.7452 38.8881 30.4189 38.8881 30.0894C38.8881 28.1912 40.4358 26.6421 42.3371 26.6421C42.8659 26.6421 43.3704 26.7574 43.8414 26.9848C44.0265 27.0778 44.1023 27.3008 44.0128 27.4852C43.9233 27.6721 43.7003 27.7496 43.5138 27.6566C43.1469 27.4794 42.7512 27.3908 42.3372 27.3908C40.8463 27.3908 39.6351 28.6017 39.6351 30.0898C39.6351 30.348 39.6716 30.6018 39.7437 30.8479C39.8007 31.0477 39.6867 31.2526 39.4882 31.3082C39.4546 31.3207 39.4186 31.3252 39.3839 31.3252Z" fill="#EE643C"/>
    <path d="M49.7944 56.3147H49.0176C48.8106 56.3147 48.6428 56.15 48.6428 55.9461V54.303C48.6428 53.9113 48.4572 53.4501 47.9341 53.4501C47.8411 53.4501 47.7178 53.4785 47.5753 53.5129C47.3505 53.5637 47.0714 53.6264 46.7175 53.6264C44.7811 53.6264 43.2658 52.1107 43.2658 50.171C43.2658 48.2724 44.8149 46.7227 46.7175 46.7227C46.9236 46.7227 47.0915 46.8888 47.0915 47.0967C47.0915 47.305 46.9237 47.4697 46.7175 47.4697C45.2254 47.4697 44.0145 48.6833 44.0145 50.171C44.0145 51.688 45.2022 52.8767 46.7175 52.8767C46.9868 52.8767 47.2036 52.8308 47.4116 52.7827C47.5905 52.7418 47.7583 52.7052 47.9342 52.7052C48.8896 52.7052 49.3903 53.5118 49.3903 54.3029V55.5729H49.4197V27.8026C49.4197 26.3091 48.2067 25.0969 46.7175 25.0969C45.2254 25.0969 44.0145 26.3091 44.0145 27.8026C44.0145 29.2912 45.2258 30.5069 46.7175 30.5069C46.9236 30.5069 47.0915 30.672 47.0915 30.8755C47.0915 31.0838 46.9237 31.2516 46.7175 31.2516C44.8153 31.2516 43.2658 29.7065 43.2658 27.8026C43.2658 25.8995 44.8149 24.3535 46.7175 24.3535C48.6202 24.3535 50.1671 25.8995 50.1671 27.8026V55.9461C50.1674 56.15 50.001 56.3147 49.7944 56.3147Z" fill="#EE643C"/>
    <path d="M57.3969 27.3067C57.7958 27.1251 58.2877 27.0156 58.744 27.0156C60.44 27.0156 61.8227 28.3916 61.8227 30.0895C61.8227 30.3864 61.776 30.6833 61.7035 30.9509C61.7159 30.9505 61.7373 30.95 61.752 30.95C63.4517 30.95 64.8294 32.3296 64.8294 34.0287C64.8294 34.8438 64.5089 35.5877 63.9902 36.1379C65.1124 36.5942 65.9071 37.6969 65.9071 38.9878C65.9071 40.1457 65.2669 41.1549 64.321 41.6792C64.7613 42.2125 65.035 42.8963 65.035 43.6491C65.035 45.3478 63.6546 46.7224 61.9563 46.7224C61.8908 46.7224 61.8316 46.7211 61.7729 46.7166H61.7702C61.89 47.0411 61.9563 47.4076 61.9563 47.7717C61.9563 49.4714 60.5807 50.8469 58.8807 50.8469C58.3607 50.8469 57.8546 50.7124 57.4268 50.4793C57.4268 50.4793 57.4268 50.4806 57.4268 50.482C57.2697 52.0365 55.996 53.2509 54.3641 53.2509C53.8135 53.2509 53.4613 53.0804 53.1467 53.0804C52.4327 53.0804 52.0635 53.6734 52.0635 54.3029V55.9459H51.2895V27.8028C51.2895 26.1031 52.6646 24.7231 54.3641 24.7231C55.8949 24.723 57.165 25.8435 57.3969 27.3067Z" fill="#FF916E"/>
    <path d="M58.8815 51.2224C58.3094 51.2224 57.7485 51.0795 57.2477 50.8124C57.0657 50.7141 56.9989 50.4879 57.0937 50.3049C57.1969 50.1238 57.4226 50.0543 57.6026 50.1567C57.9947 50.365 58.4323 50.4736 58.8815 50.4736C60.371 50.4736 61.5837 49.261 61.5837 47.772C61.5837 47.455 61.5276 47.1425 61.4234 46.8443C61.35 46.6493 61.4559 46.4361 61.6473 46.3661C61.8373 46.2954 62.0545 46.3942 62.1281 46.5892C62.2607 46.9703 62.3334 47.3655 62.3334 47.772C62.3332 49.6764 60.7868 51.2224 58.8815 51.2224Z" fill="#EE643C"/>
    <path d="M61.9571 47.0966C61.8891 47.0966 61.8178 47.0939 61.7447 47.0895C59.9333 46.9832 58.5075 45.4731 58.5075 43.6488C58.5075 43.4418 58.6731 43.2757 58.8815 43.2757C59.0894 43.2757 59.2549 43.4418 59.2549 43.6488C59.2549 45.0759 60.3692 46.2628 61.7946 46.3415C61.8533 46.3483 61.905 46.3491 61.9571 46.3491C63.4498 46.3491 64.6601 45.1361 64.6601 43.6492C64.6601 43.017 64.4398 42.4037 64.0316 41.917C63.8989 41.7621 63.922 41.5218 64.0814 41.394C64.239 41.2591 64.4753 41.2792 64.6054 41.4394C65.1209 42.0608 65.4116 42.8426 65.4116 43.6492C65.4116 45.5471 63.8611 47.0966 61.9571 47.0966Z" fill="#EE643C"/>
    <path d="M58.8815 44.0196C58.6731 44.0196 58.5075 43.8532 58.5075 43.6493C58.5075 42.5934 57.6488 41.7347 56.5929 41.7347C55.5436 41.7347 54.6845 42.5934 54.6845 43.6493C54.6845 43.8532 54.5189 44.0196 54.3105 44.0196C54.1026 44.0196 53.9371 43.8532 53.9371 43.6493C53.9371 42.1833 55.131 40.9863 56.5929 40.9863C58.0589 40.9863 59.2545 42.1833 59.2545 43.6493C59.2551 43.8531 59.0894 44.0196 58.8815 44.0196Z" fill="#EE643C"/>
    <path d="M62.8274 42.4367C62.6218 42.4367 62.4557 42.2703 62.4557 42.0664C62.4557 41.8576 62.6218 41.6897 62.8274 41.6897C64.3214 41.6897 65.5349 40.4794 65.5349 38.9875C65.5349 37.4985 64.3213 36.2867 62.8274 36.2867C61.3392 36.2867 60.1231 37.4989 60.1231 38.9875C60.1231 39.1928 59.9615 39.361 59.7541 39.361C59.5457 39.361 59.3801 39.1926 59.3801 38.9875C59.3801 37.0822 60.9248 35.5371 62.8274 35.5371C64.7331 35.5371 66.2751 37.0822 66.2751 38.9875C66.2757 40.8901 64.7335 42.4367 62.8274 42.4367Z" fill="#EE643C"/>
    <path d="M63.9911 36.5129C63.8958 36.5129 63.8042 36.4756 63.7285 36.4087C63.5837 36.268 63.5775 36.033 63.7169 35.8821C64.1968 35.3768 64.455 34.7176 64.455 34.0284C64.455 32.5353 63.2414 31.3236 61.7528 31.3236C61.7474 31.3246 61.7074 31.3246 61.7052 31.3254C60.5892 31.3436 59.3352 32.0573 59.17 33.2195C58.9483 34.7771 57.8799 35.8255 56.5159 35.8255C56.3094 35.8255 56.1416 35.6585 56.1416 35.452C56.1416 35.2481 56.3094 35.0763 56.5159 35.0763C57.647 35.0763 58.2935 34.0943 58.4279 33.1172C58.6314 31.6967 60.0331 30.6061 61.6909 30.5766C61.7025 30.5757 61.7283 30.5757 61.7532 30.5757C63.6541 30.5757 65.2028 32.1244 65.2028 34.0288C65.2028 34.9115 64.8702 35.752 64.2617 36.3953C64.1879 36.4724 64.0863 36.5129 63.9911 36.5129Z" fill="#EE643C"/>
    <path d="M61.6998 31.3251C61.6643 31.3251 61.6291 31.3203 61.5912 31.3077C61.3967 31.2521 61.2831 31.0474 61.3397 30.8474C61.4097 30.6007 61.447 30.3466 61.447 30.0893C61.447 28.6011 60.2361 27.3904 58.7444 27.3904C58.3331 27.3904 57.9315 27.4785 57.5666 27.6561C57.3849 27.7487 57.1561 27.6717 57.0733 27.4847C56.9785 27.3003 57.0542 27.0765 57.2411 26.9843C57.7116 26.7568 58.2178 26.6416 58.7448 26.6416C60.6479 26.6416 62.1921 28.1907 62.1921 30.0889C62.1921 30.4175 62.149 30.7447 62.0576 31.0532C62.0093 31.2196 61.8583 31.3251 61.6998 31.3251Z" fill="#EE643C"/>
    <path d="M52.0648 56.3152H51.2907C51.0833 56.3152 50.9163 56.1505 50.9163 55.9466V27.8031C50.9163 25.9 52.4627 24.354 54.3653 24.354C56.2689 24.354 57.8131 25.9 57.8131 27.8031C57.8131 29.707 56.2688 31.2521 54.3653 31.2521C54.1588 31.2521 53.9896 31.0843 53.9896 30.876C53.9896 30.6725 54.1588 30.5074 54.3653 30.5074C55.8575 30.5074 57.0728 29.2917 57.0728 27.8031C57.0728 26.3096 55.8575 25.0974 54.3653 25.0974C52.8781 25.0974 51.6645 26.3096 51.6645 27.8031V55.5731H51.6921V54.3031C51.6921 53.512 52.1933 52.7055 53.1483 52.7055C53.3255 52.7055 53.4915 52.742 53.6727 52.7829C53.8787 52.8311 54.096 52.8769 54.3662 52.8769C55.8815 52.8769 57.0736 51.6882 57.0736 50.1712C57.0736 48.683 55.8583 47.4699 54.3662 47.4699C54.1596 47.4699 53.9904 47.3053 53.9904 47.0969C53.9904 46.889 54.1596 46.7229 54.3662 46.7229C56.2697 46.7229 57.8139 48.2726 57.8139 50.1712C57.8139 52.1103 56.2982 53.6266 54.3662 53.6266C54.0136 53.6266 53.7345 53.5638 53.5078 53.5131C53.3685 53.4793 53.2452 53.4503 53.1481 53.4503C52.6251 53.4503 52.439 53.9115 52.439 54.3032V55.9463C52.4382 56.1505 52.2726 56.3152 52.0648 56.3152Z" fill="#EE643C"/>
    <path d="M34.2801 43.6313V62.6038L50.5396 73.4443V54.4701L34.2801 43.6313Z" fill="#ADECF7"/>
    <path d="M66.8004 43.6313V62.6038L50.5396 73.4443V54.4701L66.8004 43.6313Z" fill="#92DEEB"/>
    <path d="M66.8004 43.6313V62.6038L55.7693 69.9565L50.5396 54.4701L66.8004 43.6313Z" fill="#76D0DE"/>
    <path d="M75.7144 49.5698L59.4563 60.4136L50.5396 54.4701L66.8004 43.6313L75.7144 49.5698Z" fill="white"/>
    <path d="M25.3631 49.5698L41.6235 60.4136L50.5396 54.4701L34.2796 43.6313L25.3631 49.5698Z" fill="white"/>
    <path d="M50.541 11.1216C48.5974 11.1216 47.0158 12.7032 47.0158 14.6473H48.7118C48.7118 13.6399 49.5318 12.8177 50.541 12.8177C51.5462 12.8177 52.3674 13.6404 52.3674 14.6473C52.3674 15.3534 51.9685 15.9868 51.3302 16.2985C50.3197 16.7921 49.6929 17.7915 49.6929 18.9112V19.5465H51.3889V18.9112C51.3889 18.4482 51.6547 18.0289 52.0735 17.8232C53.3039 17.2293 54.0639 16.0132 54.0639 14.6475C54.0635 12.7028 52.4832 11.1216 50.541 11.1216Z" fill="#474F59"/>
    <path d="M51.3903 20.376H49.6942V22.0729H51.3903V20.376Z" fill="#474F59"/>
    <path d="M39.9737 17.6727C38.8898 18.1806 38.4192 19.4738 38.925 20.5583L39.8696 20.1172C39.6069 19.5528 39.8522 18.8823 40.4148 18.6218C40.978 18.3596 41.6483 18.604 41.9102 19.1676C42.094 19.5598 42.0383 20.0175 41.761 20.354C41.3252 20.8936 41.2361 21.6205 41.5273 22.2384L41.6916 22.5954L42.6375 22.1529L42.4732 21.8022C42.3526 21.5408 42.3905 21.2395 42.5716 21.0138C43.1022 20.3625 43.2117 19.4873 42.8569 18.7248C42.3495 17.6411 41.0576 17.1719 39.9737 17.6727Z" fill="#474F59"/>
    <path d="M42.3487 24.0015L43.2946 23.5648L42.853 22.6162L41.9079 23.0578L42.3487 24.0015Z" fill="#474F59"/>
    <path d="M61.1042 17.6727C60.0216 17.171 58.7265 17.6403 58.2232 18.7247L59.1683 19.1663C59.4313 18.6028 60.1031 18.3579 60.6671 18.6205C61.2245 18.8809 61.468 19.5527 61.2098 20.1154C61.0237 20.5129 60.6383 20.7622 60.1984 20.7688C59.5102 20.7773 58.9003 21.1757 58.6052 21.8012L58.4427 22.1519L59.3913 22.5944L59.5533 22.2374C59.6739 21.9819 59.9312 21.8158 60.2174 21.8074C61.0574 21.7989 61.8004 21.3159 62.1548 20.5574C62.66 19.4731 62.1917 18.1812 61.1042 17.6727Z" fill="#474F59"/>
    <path d="M57.786 23.5648L58.7288 24.0015L59.1722 23.0578L58.2289 22.6162L57.786 23.5648Z" fill="#474F59"/>
    <path d="M45.7055 20.1781L44.5969 20.3095L43.5913 14.6567L45.3613 14.4469L45.7055 20.1781Z" fill="white"/>
    <path d="M45.7914 20.9018L44.6827 21.0332L44.8143 22.1428L45.9229 22.0113L45.7914 20.9018Z" fill="white"/>
    <path d="M64.6983 26.1302L63.6307 25.8035L64.9897 20.2251L66.6941 20.7467L64.6983 26.1302Z" fill="white"/>
    <path d="M64.4849 26.8277L63.4173 26.501L63.0903 27.5694L64.1579 27.8961L64.4849 26.8277Z" fill="white"/>
    <defs>
        <linearGradient id="paint0_linear" x1="125" y1="23.1851" x2="125" y2="65.1957" gradientUnits="userSpaceOnUse">
            <stop stop-color="white"/>
            <stop offset="1" stop-color="white" stop-opacity="0"/>
        </linearGradient>
    </defs>
</svg>
