<svg width="246" height="87" viewBox="0 0 246 87" fill="none" xmlns="http://www.w3.org/2000/svg">
    <rect x="0.651123" y="23.5005" width="243.907" height="41.0104" rx="7.5" fill="white"/>
    <rect x="0.651123" y="23.5005" width="243.907" height="41.0104" rx="7.5" fill="url(#paint0_linear)"/>
    <rect x="0.651123" y="23.5005" width="243.907" height="41.0104" rx="7.5" stroke="#7D6599"/>
    <path d="M95.8645 43.467C95.8645 66.9805 76.5154 86.0546 52.6312 86.0546C28.7471 86.0546 9.39792 66.9805 9.39792 43.467C9.39792 19.9535 28.7471 0.879395 52.6312 0.879395C76.5154 0.879395 95.8645 19.9535 95.8645 43.467Z" fill="white" stroke="#7D6599"/>
    <path d="M103.816 48.4634H100.204V47.7354L101.38 47.4694V39.4754L100.204 39.1954V38.4674H103.816V39.1954L102.64 39.4754V47.4694L103.816 47.7354V48.4634ZM113.811 40.8194C114.66 40.8194 115.295 41.0387 115.715 41.4774C116.135 41.9067 116.345 42.6067 116.345 43.5774V48.4634H115.127V43.6334C115.127 42.448 114.618 41.8554 113.601 41.8554C112.873 41.8554 112.35 42.0654 112.033 42.4854C111.725 42.9054 111.571 43.5167 111.571 44.3194V48.4634H110.353V43.6334C110.353 42.448 109.839 41.8554 108.813 41.8554C108.057 41.8554 107.534 42.0887 107.245 42.5554C106.955 43.022 106.811 43.694 106.811 44.5714V48.4634H105.579V40.9594H106.573L106.755 41.9814H106.825C107.058 41.5894 107.371 41.3 107.763 41.1134C108.164 40.9174 108.589 40.8194 109.037 40.8194C110.213 40.8194 110.978 41.2394 111.333 42.0794H111.403C111.655 41.65 111.995 41.3327 112.425 41.1274C112.863 40.922 113.325 40.8194 113.811 40.8194ZM122.233 40.8194C123.157 40.8194 123.899 41.1414 124.459 41.7854C125.028 42.4294 125.313 43.4 125.313 44.6974C125.313 45.976 125.028 46.9467 124.459 47.6094C123.899 48.272 123.152 48.6034 122.219 48.6034C121.64 48.6034 121.159 48.496 120.777 48.2814C120.403 48.0574 120.109 47.8007 119.895 47.5114H119.811C119.829 47.67 119.848 47.8707 119.867 48.1134C119.885 48.356 119.895 48.566 119.895 48.7434V51.8234H118.663V40.9594H119.671L119.839 41.9814H119.895C120.119 41.6547 120.413 41.3794 120.777 41.1554C121.141 40.9314 121.626 40.8194 122.233 40.8194ZM122.009 41.8554C121.243 41.8554 120.702 42.07 120.385 42.4994C120.077 42.9287 119.913 43.582 119.895 44.4594V44.6974C119.895 45.6214 120.044 46.3354 120.343 46.8394C120.651 47.334 121.215 47.5814 122.037 47.5814C122.494 47.5814 122.867 47.4554 123.157 47.2034C123.455 46.9514 123.675 46.6107 123.815 46.1814C123.964 45.7427 124.039 45.2434 124.039 44.6834C124.039 43.8247 123.871 43.1387 123.535 42.6254C123.208 42.112 122.699 41.8554 122.009 41.8554ZM130.776 40.8194C130.916 40.8194 131.065 40.8287 131.224 40.8474C131.392 40.8567 131.536 40.8754 131.658 40.9034L131.504 42.0374C131.382 42.0094 131.247 41.986 131.098 41.9674C130.958 41.9487 130.822 41.9394 130.692 41.9394C130.309 41.9394 129.95 42.0467 129.614 42.2614C129.278 42.4667 129.007 42.7607 128.802 43.1434C128.606 43.5167 128.508 43.9554 128.508 44.4594V48.4634H127.276V40.9594H128.284L128.424 42.3314H128.48C128.722 41.9207 129.035 41.566 129.418 41.2674C129.8 40.9687 130.253 40.8194 130.776 40.8194ZM139.31 44.6974C139.31 45.9387 138.992 46.9 138.358 47.5814C137.732 48.2627 136.883 48.6034 135.81 48.6034C135.147 48.6034 134.554 48.454 134.032 48.1554C133.518 47.8474 133.112 47.404 132.814 46.8254C132.515 46.2374 132.366 45.528 132.366 44.6974C132.366 43.456 132.678 42.4994 133.304 41.8274C133.929 41.1554 134.778 40.8194 135.852 40.8194C136.533 40.8194 137.13 40.9734 137.644 41.2814C138.166 41.58 138.572 42.0187 138.862 42.5974C139.16 43.1667 139.31 43.8667 139.31 44.6974ZM133.64 44.6974C133.64 45.584 133.812 46.2887 134.158 46.8114C134.512 47.3247 135.072 47.5814 135.838 47.5814C136.594 47.5814 137.149 47.3247 137.504 46.8114C137.858 46.2887 138.036 45.584 138.036 44.6974C138.036 43.8107 137.858 43.1154 137.504 42.6114C137.149 42.1074 136.589 41.8554 135.824 41.8554C135.058 41.8554 134.503 42.1074 134.158 42.6114C133.812 43.1154 133.64 43.8107 133.64 44.6974ZM142.641 48.4634L139.799 40.9594H141.115L142.711 45.3834C142.785 45.5887 142.865 45.8174 142.949 46.0694C143.033 46.3214 143.107 46.564 143.173 46.7974C143.238 47.0214 143.285 47.2127 143.313 47.3714H143.369C143.406 47.2127 143.457 47.0167 143.523 46.7834C143.597 46.55 143.677 46.3074 143.761 46.0554C143.854 45.8034 143.933 45.5794 143.999 45.3834L145.595 40.9594H146.911L144.055 48.4634H142.641ZM150.996 40.8194C151.64 40.8194 152.191 40.9594 152.648 41.2394C153.115 41.5194 153.469 41.916 153.712 42.4294C153.964 42.9334 154.09 43.526 154.09 44.2074V44.9494H148.952C148.971 45.7987 149.185 46.4474 149.596 46.8954C150.016 47.334 150.599 47.5534 151.346 47.5534C151.822 47.5534 152.242 47.5114 152.606 47.4274C152.979 47.334 153.362 47.2034 153.754 47.0354V48.1134C153.371 48.2814 152.993 48.4027 152.62 48.4774C152.247 48.5614 151.803 48.6034 151.29 48.6034C150.581 48.6034 149.951 48.4587 149.4 48.1694C148.859 47.88 148.434 47.4507 148.126 46.8814C147.827 46.3027 147.678 45.598 147.678 44.7674C147.678 43.946 147.813 43.2414 148.084 42.6534C148.364 42.0654 148.751 41.6127 149.246 41.2954C149.75 40.978 150.333 40.8194 150.996 40.8194ZM150.982 41.8274C150.394 41.8274 149.927 42.0187 149.582 42.4014C149.246 42.7747 149.045 43.2974 148.98 43.9694H152.802C152.793 43.3347 152.643 42.8214 152.354 42.4294C152.065 42.028 151.607 41.8274 150.982 41.8274ZM164.145 43.1854H167.603V48.0854C167.062 48.2627 166.516 48.3934 165.965 48.4774C165.414 48.5614 164.789 48.6034 164.089 48.6034C163.053 48.6034 162.18 48.398 161.471 47.9874C160.762 47.5674 160.22 46.9747 159.847 46.2094C159.483 45.4347 159.301 44.52 159.301 43.4654C159.301 42.42 159.506 41.5147 159.917 40.7494C160.328 39.984 160.916 39.3914 161.681 38.9714C162.456 38.542 163.389 38.3274 164.481 38.3274C165.041 38.3274 165.568 38.3787 166.063 38.4814C166.567 38.584 167.034 38.7287 167.463 38.9154L166.987 40.0074C166.632 39.8487 166.231 39.7134 165.783 39.6014C165.344 39.4894 164.887 39.4334 164.411 39.4334C163.216 39.4334 162.283 39.7927 161.611 40.5114C160.948 41.23 160.617 42.2147 160.617 43.4654C160.617 44.2587 160.743 44.9634 160.995 45.5794C161.256 46.186 161.662 46.662 162.213 47.0074C162.764 47.3434 163.487 47.5114 164.383 47.5114C164.822 47.5114 165.195 47.488 165.503 47.4414C165.811 47.3947 166.091 47.3387 166.343 47.2734V44.3054H164.145V43.1854ZM173.323 40.8194C173.463 40.8194 173.612 40.8287 173.771 40.8474C173.939 40.8567 174.083 40.8754 174.205 40.9034L174.051 42.0374C173.929 42.0094 173.794 41.986 173.645 41.9674C173.505 41.9487 173.369 41.9394 173.239 41.9394C172.856 41.9394 172.497 42.0467 172.161 42.2614C171.825 42.4667 171.554 42.7607 171.349 43.1434C171.153 43.5167 171.055 43.9554 171.055 44.4594V48.4634H169.823V40.9594H170.831L170.971 42.3314H171.027C171.269 41.9207 171.582 41.566 171.965 41.2674C172.347 40.9687 172.8 40.8194 173.323 40.8194ZM178.174 40.8334C179.089 40.8334 179.766 41.034 180.204 41.4354C180.643 41.8367 180.862 42.476 180.862 43.3534V48.4634H179.966L179.728 47.3994H179.672C179.346 47.81 179 48.1134 178.636 48.3094C178.282 48.5054 177.787 48.6034 177.152 48.6034C176.471 48.6034 175.906 48.426 175.458 48.0714C175.01 47.7074 174.786 47.1427 174.786 46.3774C174.786 45.6307 175.08 45.0567 175.668 44.6554C176.256 44.2447 177.162 44.0207 178.384 43.9834L179.658 43.9414V43.4934C179.658 42.868 179.523 42.434 179.252 42.1914C178.982 41.9487 178.599 41.8274 178.104 41.8274C177.712 41.8274 177.339 41.888 176.984 42.0094C176.63 42.1214 176.298 42.252 175.99 42.4014L175.612 41.4774C175.939 41.3 176.326 41.1507 176.774 41.0294C177.222 40.8987 177.689 40.8334 178.174 40.8334ZM178.538 44.8374C177.605 44.8747 176.956 45.024 176.592 45.2854C176.238 45.5467 176.06 45.9154 176.06 46.3914C176.06 46.8114 176.186 47.1194 176.438 47.3154C176.7 47.5114 177.031 47.6094 177.432 47.6094C178.067 47.6094 178.594 47.4367 179.014 47.0914C179.434 46.7367 179.644 46.1954 179.644 45.4674V44.7954L178.538 44.8374ZM185.84 48.6034C184.907 48.6034 184.16 48.2814 183.6 47.6374C183.04 46.984 182.76 46.0134 182.76 44.7254C182.76 43.4374 183.04 42.4667 183.6 41.8134C184.169 41.1507 184.921 40.8194 185.854 40.8194C186.433 40.8194 186.904 40.9267 187.268 41.1414C187.641 41.356 187.945 41.6174 188.178 41.9254H188.262C188.253 41.804 188.234 41.6267 188.206 41.3934C188.187 41.1507 188.178 40.9594 188.178 40.8194V37.8234H189.41V48.4634H188.416L188.234 47.4554H188.178C187.954 47.7727 187.655 48.0434 187.282 48.2674C186.909 48.4914 186.428 48.6034 185.84 48.6034ZM186.036 47.5814C186.829 47.5814 187.385 47.3667 187.702 46.9374C188.029 46.4987 188.192 45.8407 188.192 44.9634V44.7394C188.192 43.806 188.038 43.092 187.73 42.5974C187.422 42.0934 186.853 41.8414 186.022 41.8414C185.359 41.8414 184.86 42.1074 184.524 42.6394C184.197 43.162 184.034 43.8667 184.034 44.7534C184.034 45.6494 184.197 46.3447 184.524 46.8394C184.86 47.334 185.364 47.5814 186.036 47.5814ZM194.691 40.8194C195.335 40.8194 195.886 40.9594 196.343 41.2394C196.81 41.5194 197.165 41.916 197.407 42.4294C197.659 42.9334 197.785 43.526 197.785 44.2074V44.9494H192.647C192.666 45.7987 192.881 46.4474 193.291 46.8954C193.711 47.334 194.295 47.5534 195.041 47.5534C195.517 47.5534 195.937 47.5114 196.301 47.4274C196.675 47.334 197.057 47.2034 197.449 47.0354V48.1134C197.067 48.2814 196.689 48.4027 196.315 48.4774C195.942 48.5614 195.499 48.6034 194.985 48.6034C194.276 48.6034 193.646 48.4587 193.095 48.1694C192.554 47.88 192.129 47.4507 191.821 46.8814C191.523 46.3027 191.373 45.598 191.373 44.7674C191.373 43.946 191.509 43.2414 191.779 42.6534C192.059 42.0654 192.447 41.6127 192.941 41.2954C193.445 40.978 194.029 40.8194 194.691 40.8194ZM194.677 41.8274C194.089 41.8274 193.623 42.0187 193.277 42.4014C192.941 42.7747 192.741 43.2974 192.675 43.9694H196.497C196.488 43.3347 196.339 42.8214 196.049 42.4294C195.76 42.028 195.303 41.8274 194.677 41.8274ZM204.582 46.3914C204.582 47.1194 204.311 47.67 203.77 48.0434C203.228 48.4167 202.5 48.6034 201.586 48.6034C201.063 48.6034 200.61 48.5614 200.228 48.4774C199.854 48.3934 199.523 48.2767 199.234 48.1274V47.0074C199.532 47.1567 199.892 47.2967 200.312 47.4274C200.741 47.5487 201.175 47.6094 201.614 47.6094C202.239 47.6094 202.692 47.5114 202.972 47.3154C203.252 47.11 203.392 46.8394 203.392 46.5034C203.392 46.3167 203.34 46.1487 203.238 45.9994C203.135 45.85 202.948 45.7007 202.678 45.5514C202.416 45.402 202.038 45.234 201.544 45.0474C201.058 44.8607 200.643 44.674 200.298 44.4874C199.952 44.3007 199.686 44.0767 199.5 43.8154C199.313 43.554 199.22 43.218 199.22 42.8074C199.22 42.1727 199.476 41.6827 199.99 41.3374C200.512 40.992 201.194 40.8194 202.034 40.8194C202.491 40.8194 202.916 40.866 203.308 40.9594C203.709 41.0434 204.082 41.1647 204.428 41.3234L204.008 42.3034C203.69 42.1727 203.359 42.0607 203.014 41.9674C202.668 41.874 202.314 41.8274 201.95 41.8274C201.446 41.8274 201.058 41.9114 200.788 42.0794C200.526 42.238 200.396 42.4574 200.396 42.7374C200.396 42.9427 200.456 43.12 200.578 43.2694C200.699 43.4094 200.9 43.5494 201.18 43.6894C201.469 43.82 201.852 43.9787 202.328 44.1654C202.804 44.3427 203.21 44.5247 203.546 44.7114C203.882 44.898 204.138 45.1267 204.316 45.3974C204.493 45.6587 204.582 45.99 204.582 46.3914Z" fill="#333333"/>
    <rect x="87.6177" y="24.0776" width="8.74666" height="39.856" fill="white"/>
    <rect x="7.80463" y="24.0776" width="8.74666" height="39.856" fill="white"/>
    <path d="M53 78C72.33 78 88 62.33 88 43C88 23.67 72.33 8 53 8C33.67 8 18 23.67 18 43C18 62.33 33.67 78 53 78Z" fill="#ADECF7"/>
    <path d="M64.2243 29.5436C64.2298 29.5436 64.2298 29.5436 64.2298 29.5436C64.2298 29.4912 64.2243 29.437 64.2243 29.3819C64.2243 26.2179 66.7913 23.6519 69.9549 23.6519C72.5417 23.6519 74.728 25.3679 75.4384 27.7222C75.8705 27.5191 76.3519 27.4044 76.8609 27.4044C78.7053 27.4044 80.2011 28.8997 80.2011 30.7445C80.2011 31.1695 80.1211 31.5751 79.9772 31.949C80.0138 31.9463 80.0495 31.9432 80.086 31.9432C81.2711 31.9432 82.2271 32.902 82.2271 34.0843C82.2271 35.2662 81.2711 36.2259 80.086 36.2259H64.2243C62.3804 36.2259 60.886 34.7302 60.886 32.8857C60.886 31.0403 62.3804 29.5436 64.2243 29.5436Z" fill="white"/>
    <path d="M27.9947 24.0647C27.9874 23.9563 27.9839 23.8475 27.9839 23.7369C27.9839 20.7901 30.3747 18.3984 33.3201 18.3984C36.1197 18.3984 38.4139 20.5553 38.6384 23.2975C38.9152 23.2112 39.2074 23.1651 39.5113 23.1651C40.2948 23.1651 41.0052 23.4714 41.5354 23.969C42.1217 23.1169 43.1066 22.5573 44.2198 22.5573C45.9494 22.5577 47.3648 23.9057 47.4696 25.6106C47.6254 25.5659 47.788 25.5416 47.9555 25.5416C48.9319 25.5416 49.7208 26.3324 49.7217 27.3079C49.7217 28.281 48.9292 29.0745 47.9555 29.0732H28.3017C26.9121 29.0732 25.7872 27.9482 25.7872 26.5581C25.7867 25.2733 26.7514 24.2147 27.9947 24.0647Z" fill="white"/>
    <path d="M73.9413 62.5596H24.4354V69.9539H73.9413V62.5596Z" fill="#F77B55"/>
    <path d="M37.1688 62.5591H32.9168V69.9534H37.1688V62.5591Z" fill="white"/>
    <path d="M31.5091 62.5591H30.0942V69.9534H31.5091V62.5591Z" fill="white"/>
    <path d="M65.4579 62.5591H61.2059V69.9534H65.4579V62.5591Z" fill="white"/>
    <path d="M68.284 62.5591H66.8691V69.9534H68.284V62.5591Z" fill="white"/>
    <path d="M69.0459 46.7617H27.5969V55.169H69.0459V46.7617Z" fill="white"/>
    <path d="M64.3061 46.7617H32.3341V55.169H64.3061V46.7617Z" fill="#76D0DE"/>
    <path d="M59.2097 51.4268H37.4284V52.5463H59.2097V51.4268Z" fill="white"/>
    <path d="M48.3168 49.3813H37.4284V50.5045H48.3168V49.3813Z" fill="white"/>
    <path d="M79.5639 55.1665H35.7303V62.5594H79.5639V55.1665Z" fill="white"/>
    <path d="M73.9421 55.1665H41.3537V62.5594H73.9421V55.1665Z" fill="#E6E5E5"/>
    <path d="M38.0109 24.5815H35.7303V69.9551H38.0109V24.5815Z" fill="#353F49"/>
    <path d="M51.6723 31.9761H38.0019V32.989H51.6723V31.9761Z" fill="#474F59"/>
    <path d="M51.6723 39.3691H38.0019V40.3825H51.6723V39.3691Z" fill="#474F59"/>
    <path d="M51.6723 46.7622H38.0019V47.7747H51.6723V46.7622Z" fill="#474F59"/>
    <path d="M51.6723 54.1548H38.0019V55.1677H51.6723V54.1548Z" fill="#474F59"/>
    <path d="M51.6723 61.5479H38.0019V62.5608H51.6723V61.5479Z" fill="#474F59"/>
    <path d="M53.9483 24.5815H51.6677V69.9551H53.9483V24.5815Z" fill="#353F49"/>
    <path d="M38.281 40.2134C38.28 40.2134 38.2792 40.2134 38.2783 40.2134C38.2792 40.1936 38.281 40.1669 38.281 40.1438C38.281 38.7975 37.189 37.7056 35.8428 37.7056C34.7418 37.7056 33.8118 38.4358 33.5088 39.4375C33.3255 39.3517 33.1204 39.302 32.9032 39.302C32.1192 39.302 31.4814 39.9383 31.4814 40.7232C31.4814 40.9044 31.5167 41.0768 31.5781 41.2362C31.5628 41.2348 31.5469 41.2335 31.5311 41.2335C31.0285 41.2335 30.6201 41.6409 30.6201 42.1448C30.6201 42.6474 31.0279 43.0562 31.5311 43.0562H38.2809C39.0654 43.0562 39.7016 42.4203 39.7016 41.6354C39.7018 40.8493 39.0659 40.2134 38.281 40.2134Z" fill="white"/>
    <path d="M68.3232 15.7063C68.1714 15.7063 68.026 15.7307 67.8897 15.7781C67.9294 15.5749 67.951 15.3662 67.951 15.153C67.951 13.3691 66.5067 11.9258 64.7238 11.9258C62.9399 11.9258 61.4944 13.3695 61.4944 15.153C61.4944 15.177 61.4971 15.1995 61.4971 15.2234C61.293 15.1331 61.0677 15.0858 60.8296 15.0858C59.9169 15.0858 59.1794 15.8205 59.1794 16.731C59.1794 17.6424 59.9179 18.3812 60.8296 18.3812L68.3232 18.3808C69.0616 18.3808 69.6608 17.781 69.6608 17.0428C69.661 16.3047 69.0612 15.7063 68.3232 15.7063Z" fill="white"/>
    <defs>
        <linearGradient id="paint0_linear" x1="122.604" y1="23.0005" x2="122.604" y2="65.0109" gradientUnits="userSpaceOnUse">
            <stop stop-color="white"/>
            <stop offset="1" stop-color="white" stop-opacity="0"/>
        </linearGradient>
    </defs>
</svg>
