<?xml version="1.0" encoding="utf-8"?>
<!-- Generator: Adobe Illustrator 25.1.0, SVG Export Plug-In . SVG Version: 6.00 Build 0)  -->
<svg version="1.1" id="Layer_1" xmlns="http://www.w3.org/2000/svg" xmlns:xlink="http://www.w3.org/1999/xlink" x="0px" y="0px"
	 viewBox="0 0 249 86.7" style="enable-background:new 0 0 249 86.7;" xml:space="preserve">
<style type="text/css">
	.st0{fill:#FFFFFF;}
	.st1{fill:#FFFFFF;stroke:#E5A84F;}
	.st2{fill:#333333;}
	.st3{fill:#474F59;}
	.st4{fill:#FFDB79;}
	.st5{fill:#D9D8D7;}
	.st6{fill:#353F49;}
	.st7{fill:#FF916E;}
	.st8{fill:#F77B55;}
	.st9{fill:#EE643C;}
	.st10{fill:#F2F2F2;}
</style>
<g>
	<path class="st0" d="M241,26.3H92.3c-6.7-15-21.9-25.5-39.6-25.5S19.8,11.3,13.1,26.3H8c-4.4,0-8,3.6-8,8v23c0,4.4,3.6,8,8,8h7.7
		C23.2,77.7,37,85.9,52.7,85.9s29.5-8.3,37.1-20.7h63.7H241c4.4,0,8-3.6,8-8v-23C249,29.9,245.4,26.3,241,26.3z"/>
	<path class="st1" d="M241,26.8H92.6c-6.6-15.3-21.9-26-39.8-26c-17.9,0-33.3,10.7-39.8,26H8c-4.1,0-7.5,3.4-7.5,7.5v23
		c0,4.1,3.4,7.5,7.5,7.5h7.4c7.5,12.7,21.4,21.2,37.4,21.2c16,0,29.9-8.5,37.4-21.2h63.4H241c4.1,0,7.5-3.4,7.5-7.5v-23
		C248.5,30.1,245.1,26.8,241,26.8z"/>
	<path class="st2" d="M100.4,49.3h-3.6v-0.7l1.2-0.3v-8L96.8,40v-0.7h3.6V40l-1.2,0.3v8l1.2,0.3V49.3z M105.8,41.6
		c0.9,0,1.6,0.2,2,0.7c0.5,0.4,0.7,1.1,0.7,2.1v4.9h-1.2v-4.8c0-1.2-0.6-1.8-1.7-1.8c-0.8,0-1.4,0.2-1.7,0.7c-0.3,0.5-0.5,1.1-0.5,2
		v3.9h-1.2v-7.5h1l0.2,1h0.1c0.2-0.4,0.6-0.7,1-0.9C104.9,41.7,105.3,41.6,105.8,41.6z M113.9,49.4c-0.7,0-1.3-0.1-1.8-0.4
		c-0.5-0.3-0.9-0.7-1.2-1.3c-0.3-0.6-0.4-1.3-0.4-2.2c0-0.9,0.2-1.7,0.5-2.3c0.3-0.6,0.7-1,1.2-1.3c0.5-0.3,1.1-0.4,1.8-0.4
		c0.4,0,0.8,0,1.1,0.1c0.4,0.1,0.6,0.2,0.9,0.3l-0.4,1c-0.2-0.1-0.5-0.2-0.8-0.2c-0.3-0.1-0.6-0.1-0.8-0.1c-1.5,0-2.2,0.9-2.2,2.8
		c0,0.9,0.2,1.6,0.5,2.1c0.4,0.5,0.9,0.7,1.6,0.7c0.4,0,0.8,0,1.1-0.1c0.3-0.1,0.6-0.2,0.9-0.3V49c-0.3,0.1-0.5,0.2-0.8,0.3
		C114.6,49.4,114.3,49.4,113.9,49.4z M121.1,41.6c0.1,0,0.3,0,0.4,0c0.2,0,0.3,0,0.4,0.1l-0.2,1.1c-0.1,0-0.3-0.1-0.4-0.1
		c-0.1,0-0.3,0-0.4,0c-0.4,0-0.7,0.1-1.1,0.3c-0.3,0.2-0.6,0.5-0.8,0.9c-0.2,0.4-0.3,0.8-0.3,1.3v4h-1.2v-7.5h1l0.1,1.4h0.1
		c0.2-0.4,0.6-0.8,0.9-1.1C120.1,41.8,120.5,41.6,121.1,41.6z M126,41.6c0.6,0,1.2,0.1,1.7,0.4c0.5,0.3,0.8,0.7,1.1,1.2
		c0.3,0.5,0.4,1.1,0.4,1.8v0.7h-5.1c0,0.8,0.2,1.5,0.6,1.9c0.4,0.4,1,0.7,1.8,0.7c0.5,0,0.9,0,1.3-0.1c0.4-0.1,0.8-0.2,1.1-0.4v1.1
		c-0.4,0.2-0.8,0.3-1.1,0.4c-0.4,0.1-0.8,0.1-1.3,0.1c-0.7,0-1.3-0.1-1.9-0.4c-0.5-0.3-1-0.7-1.3-1.3c-0.3-0.6-0.4-1.3-0.4-2.1
		c0-0.8,0.1-1.5,0.4-2.1c0.3-0.6,0.7-1,1.2-1.4C124.7,41.8,125.3,41.6,126,41.6z M126,42.6c-0.6,0-1.1,0.2-1.4,0.6
		c-0.3,0.4-0.5,0.9-0.6,1.6h3.8c0-0.6-0.2-1.1-0.4-1.5C127,42.8,126.6,42.6,126,42.6z M133.8,41.6c0.9,0,1.6,0.2,2,0.6
		c0.4,0.4,0.7,1,0.7,1.9v5.1h-0.9l-0.2-1.1h-0.1c-0.3,0.4-0.7,0.7-1,0.9c-0.4,0.2-0.8,0.3-1.5,0.3c-0.7,0-1.2-0.2-1.7-0.5
		c-0.4-0.4-0.7-0.9-0.7-1.7c0-0.7,0.3-1.3,0.9-1.7c0.6-0.4,1.5-0.6,2.7-0.7l1.3,0v-0.4c0-0.6-0.1-1.1-0.4-1.3
		c-0.3-0.2-0.7-0.4-1.1-0.4c-0.4,0-0.8,0.1-1.1,0.2c-0.4,0.1-0.7,0.2-1,0.4l-0.4-0.9c0.3-0.2,0.7-0.3,1.2-0.4
		C132.9,41.7,133.3,41.6,133.8,41.6z M134.2,45.6c-0.9,0-1.6,0.2-1.9,0.4c-0.4,0.3-0.5,0.6-0.5,1.1c0,0.4,0.1,0.7,0.4,0.9
		c0.3,0.2,0.6,0.3,1,0.3c0.6,0,1.2-0.2,1.6-0.5c0.4-0.4,0.6-0.9,0.6-1.6v-0.7L134.2,45.6z M143.7,47.2c0,0.7-0.3,1.3-0.8,1.7
		c-0.5,0.4-1.3,0.6-2.2,0.6c-0.5,0-1,0-1.4-0.1c-0.4-0.1-0.7-0.2-1-0.3v-1.1c0.3,0.1,0.7,0.3,1.1,0.4c0.4,0.1,0.9,0.2,1.3,0.2
		c0.6,0,1.1-0.1,1.4-0.3c0.3-0.2,0.4-0.5,0.4-0.8c0-0.2-0.1-0.4-0.2-0.5c-0.1-0.1-0.3-0.3-0.6-0.4c-0.3-0.1-0.6-0.3-1.1-0.5
		c-0.5-0.2-0.9-0.4-1.2-0.6c-0.3-0.2-0.6-0.4-0.8-0.7c-0.2-0.3-0.3-0.6-0.3-1c0-0.6,0.3-1.1,0.8-1.5c0.5-0.3,1.2-0.5,2-0.5
		c0.5,0,0.9,0,1.3,0.1c0.4,0.1,0.8,0.2,1.1,0.4l-0.4,1c-0.3-0.1-0.6-0.2-1-0.3s-0.7-0.1-1.1-0.1c-0.5,0-0.9,0.1-1.2,0.3
		c-0.3,0.2-0.4,0.4-0.4,0.7c0,0.2,0.1,0.4,0.2,0.5c0.1,0.1,0.3,0.3,0.6,0.4c0.3,0.1,0.7,0.3,1.1,0.5c0.5,0.2,0.9,0.4,1.2,0.5
		c0.3,0.2,0.6,0.4,0.8,0.7C143.6,46.5,143.7,46.8,143.7,47.2z M148.4,41.6c0.6,0,1.2,0.1,1.7,0.4c0.5,0.3,0.8,0.7,1.1,1.2
		c0.3,0.5,0.4,1.1,0.4,1.8v0.7h-5.1c0,0.8,0.2,1.5,0.6,1.9c0.4,0.4,1,0.7,1.8,0.7c0.5,0,0.9,0,1.3-0.1c0.4-0.1,0.8-0.2,1.1-0.4v1.1
		c-0.4,0.2-0.8,0.3-1.1,0.4c-0.4,0.1-0.8,0.1-1.3,0.1c-0.7,0-1.3-0.1-1.9-0.4c-0.5-0.3-1-0.7-1.3-1.3c-0.3-0.6-0.4-1.3-0.4-2.1
		c0-0.8,0.1-1.5,0.4-2.1c0.3-0.6,0.7-1,1.2-1.4C147.2,41.8,147.8,41.6,148.4,41.6z M148.4,42.6c-0.6,0-1.1,0.2-1.4,0.6
		c-0.3,0.4-0.5,0.9-0.6,1.6h3.8c0-0.6-0.2-1.1-0.4-1.5C149.5,42.8,149,42.6,148.4,42.6z M162.8,49.3h-5.6v-10h5.6v1.1h-4.3v3.1h4.1
		v1.1h-4.1v3.6h4.3V49.3z M168.5,41.6c0.9,0,1.6,0.2,2,0.7c0.5,0.4,0.7,1.1,0.7,2.1v4.9H170v-4.8c0-1.2-0.6-1.8-1.7-1.8
		c-0.8,0-1.4,0.2-1.7,0.7c-0.3,0.5-0.5,1.1-0.5,2v3.9h-1.2v-7.5h1l0.2,1h0.1c0.2-0.4,0.6-0.7,1-0.9C167.5,41.7,168,41.6,168.5,41.6z
		 M176.2,41.6c0.5,0,0.9,0.1,1.3,0.3c0.4,0.2,0.7,0.5,1,0.9h0.1l0.2-1h1v7.6c0,1.1-0.3,1.9-0.8,2.4c-0.5,0.5-1.4,0.8-2.5,0.8
		c-1.1,0-2-0.2-2.7-0.5V51c0.7,0.4,1.7,0.6,2.8,0.6c0.6,0,1.1-0.2,1.5-0.6c0.4-0.4,0.6-0.9,0.6-1.5v-0.3c0-0.1,0-0.3,0-0.5
		c0-0.2,0-0.4,0-0.4h-0.1c-0.5,0.8-1.3,1.1-2.3,1.1c-1,0-1.7-0.3-2.3-1c-0.5-0.7-0.8-1.6-0.8-2.9c0-1.2,0.3-2.1,0.8-2.8
		C174.4,42,175.2,41.6,176.2,41.6z M176.3,42.7c-0.6,0-1.1,0.3-1.5,0.8c-0.3,0.5-0.5,1.2-0.5,2.1s0.2,1.6,0.5,2.1
		c0.3,0.5,0.8,0.7,1.5,0.7c0.8,0,1.3-0.2,1.7-0.6c0.3-0.4,0.5-1.1,0.5-2v-0.3c0-1-0.2-1.8-0.5-2.2C177.6,42.9,177.1,42.7,176.3,42.7
		z M185,41.6c0.9,0,1.6,0.2,2,0.6s0.7,1,0.7,1.9v5.1h-0.9l-0.2-1.1h-0.1c-0.3,0.4-0.7,0.7-1,0.9c-0.4,0.2-0.8,0.3-1.5,0.3
		c-0.7,0-1.2-0.2-1.7-0.5c-0.4-0.4-0.7-0.9-0.7-1.7c0-0.7,0.3-1.3,0.9-1.7c0.6-0.4,1.5-0.6,2.7-0.7l1.3,0v-0.4
		c0-0.6-0.1-1.1-0.4-1.3c-0.3-0.2-0.7-0.4-1.1-0.4c-0.4,0-0.8,0.1-1.1,0.2c-0.4,0.1-0.7,0.2-1,0.4l-0.4-0.9c0.3-0.2,0.7-0.3,1.2-0.4
		C184,41.7,184.5,41.6,185,41.6z M185.3,45.6c-0.9,0-1.6,0.2-1.9,0.4c-0.4,0.3-0.5,0.6-0.5,1.1c0,0.4,0.1,0.7,0.4,0.9
		c0.3,0.2,0.6,0.3,1,0.3c0.6,0,1.2-0.2,1.6-0.5c0.4-0.4,0.6-0.9,0.6-1.6v-0.7L185.3,45.6z M192.6,41.6c0.5,0,0.9,0.1,1.3,0.3
		c0.4,0.2,0.7,0.5,1,0.9h0.1l0.2-1h1v7.6c0,1.1-0.3,1.9-0.8,2.4c-0.5,0.5-1.4,0.8-2.5,0.8c-1.1,0-2-0.2-2.7-0.5V51
		c0.7,0.4,1.7,0.6,2.8,0.6c0.6,0,1.1-0.2,1.5-0.6c0.4-0.4,0.6-0.9,0.6-1.5v-0.3c0-0.1,0-0.3,0-0.5c0-0.2,0-0.4,0-0.4H195
		c-0.5,0.8-1.3,1.1-2.3,1.1c-1,0-1.7-0.3-2.3-1c-0.5-0.7-0.8-1.6-0.8-2.9c0-1.2,0.3-2.1,0.8-2.8C190.9,42,191.7,41.6,192.6,41.6z
		 M192.8,42.7c-0.6,0-1.1,0.3-1.5,0.8c-0.3,0.5-0.5,1.2-0.5,2.1s0.2,1.6,0.5,2.1c0.3,0.5,0.8,0.7,1.5,0.7c0.8,0,1.3-0.2,1.7-0.6
		c0.3-0.4,0.5-1.1,0.5-2v-0.3c0-1-0.2-1.8-0.5-2.2C194.1,42.9,193.5,42.7,192.8,42.7z M201.5,41.6c0.6,0,1.2,0.1,1.7,0.4
		c0.5,0.3,0.8,0.7,1.1,1.2c0.3,0.5,0.4,1.1,0.4,1.8v0.7h-5.1c0,0.8,0.2,1.5,0.6,1.9c0.4,0.4,1,0.7,1.8,0.7c0.5,0,0.9,0,1.3-0.1
		c0.4-0.1,0.8-0.2,1.1-0.4v1.1c-0.4,0.2-0.8,0.3-1.1,0.4c-0.4,0.1-0.8,0.1-1.3,0.1c-0.7,0-1.3-0.1-1.9-0.4c-0.5-0.3-1-0.7-1.3-1.3
		c-0.3-0.6-0.4-1.3-0.4-2.1c0-0.8,0.1-1.5,0.4-2.1c0.3-0.6,0.7-1,1.2-1.4C200.2,41.8,200.8,41.6,201.5,41.6z M201.5,42.6
		c-0.6,0-1.1,0.2-1.4,0.6c-0.3,0.4-0.5,0.9-0.6,1.6h3.8c0-0.6-0.2-1.1-0.4-1.5C202.5,42.8,202.1,42.6,201.5,42.6z M214.7,41.6
		c0.9,0,1.5,0.2,1.9,0.7c0.4,0.4,0.6,1.1,0.6,2.1v4.9H216v-4.8c0-1.2-0.5-1.8-1.5-1.8c-0.7,0-1.2,0.2-1.6,0.6
		c-0.3,0.4-0.5,1-0.5,1.8v4.1h-1.2v-4.8c0-1.2-0.5-1.8-1.5-1.8c-0.8,0-1.3,0.2-1.6,0.7c-0.3,0.5-0.4,1.1-0.4,2v3.9h-1.2v-7.5h1
		l0.2,1h0.1c0.2-0.4,0.5-0.7,0.9-0.9c0.4-0.2,0.8-0.3,1.3-0.3c1.2,0,1.9,0.4,2.3,1.3h0.1c0.3-0.4,0.6-0.7,1-1
		C213.8,41.7,214.2,41.6,214.7,41.6z M222.5,41.6c0.6,0,1.2,0.1,1.7,0.4c0.5,0.3,0.8,0.7,1.1,1.2c0.3,0.5,0.4,1.1,0.4,1.8v0.7h-5.1
		c0,0.8,0.2,1.5,0.6,1.9c0.4,0.4,1,0.7,1.8,0.7c0.5,0,0.9,0,1.3-0.1c0.4-0.1,0.8-0.2,1.1-0.4v1.1c-0.4,0.2-0.8,0.3-1.1,0.4
		c-0.4,0.1-0.8,0.1-1.3,0.1c-0.7,0-1.3-0.1-1.9-0.4c-0.5-0.3-1-0.7-1.3-1.3c-0.3-0.6-0.4-1.3-0.4-2.1c0-0.8,0.1-1.5,0.4-2.1
		c0.3-0.6,0.7-1,1.2-1.4C221.2,41.8,221.8,41.6,222.5,41.6z M222.4,42.6c-0.6,0-1.1,0.2-1.4,0.6c-0.3,0.4-0.5,0.9-0.6,1.6h3.8
		c0-0.6-0.2-1.1-0.4-1.5C223.5,42.8,223.1,42.6,222.4,42.6z M231.1,41.6c0.9,0,1.6,0.2,2,0.7c0.5,0.4,0.7,1.1,0.7,2.1v4.9h-1.2v-4.8
		c0-1.2-0.6-1.8-1.7-1.8c-0.8,0-1.4,0.2-1.7,0.7c-0.3,0.5-0.5,1.1-0.5,2v3.9h-1.2v-7.5h1l0.2,1h0.1c0.2-0.4,0.6-0.7,1-0.9
		C230.1,41.7,230.6,41.6,231.1,41.6z M238.6,48.4c0.2,0,0.4,0,0.6,0c0.2,0,0.4-0.1,0.5-0.1v0.9c-0.1,0.1-0.3,0.1-0.6,0.2
		c-0.2,0-0.5,0.1-0.7,0.1c-0.4,0-0.8-0.1-1.1-0.2c-0.3-0.1-0.6-0.4-0.8-0.7c-0.2-0.3-0.3-0.8-0.3-1.4v-4.4h-1.1v-0.6l1.1-0.5
		l0.5-1.6h0.7v1.7h2.2v1h-2.2v4.3c0,0.5,0.1,0.8,0.3,1C238,48.3,238.3,48.4,238.6,48.4z"/>
	<path class="st3" d="M52.9,15.3h-0.8v2.9h0.8V15.3z"/>
	<path class="st3" d="M46.6,15.9l0.8-0.2l0.6,2.9l-0.8,0.2L46.6,15.9z"/>
	<path class="st3" d="M41.3,17.7l0.7-0.3l1.2,2.7l-0.7,0.3L41.3,17.7z"/>
	<path class="st3" d="M36.5,20.6l0.6-0.5l1.7,2.4l-0.6,0.5L36.5,20.6z"/>
	<path class="st3" d="M32.5,24.4l0.5-0.6l2.2,2l-0.5,0.6L32.5,24.4z"/>
	<path class="st3" d="M29.3,28.9l0.4-0.7l2.5,1.5l-0.4,0.7L29.3,28.9z"/>
	<path class="st3" d="M27.1,34l0.2-0.7l2.8,0.9l-0.2,0.7L27.1,34z"/>
	<path class="st3" d="M26,39.5l0.1-0.8L29,39l-0.1,0.8L26,39.5z"/>
	<path class="st3" d="M26,44.3l2.9-0.3l0.1,0.8l-2.9,0.3L26,44.3z"/>
	<path class="st3" d="M27.1,49.7l2.8-0.9l0.2,0.7l-2.8,0.9L27.1,49.7z"/>
	<path class="st3" d="M31.8,53.4l-2.5,1.5l0.4,0.7l2.5-1.5L31.8,53.4z"/>
	<path class="st3" d="M32.5,59.4l2.2-2l0.5,0.6L33,60L32.5,59.4z"/>
	<path class="st3" d="M36.5,63.2l1.7-2.4l0.6,0.5l-1.7,2.4L36.5,63.2z"/>
	<path class="st3" d="M41.3,66l1.2-2.7l0.7,0.3L42,66.3L41.3,66z"/>
	<path class="st3" d="M61.8,63.7l0.7-0.3l1.2,2.7L63,66.3L61.8,63.7z"/>
	<path class="st3" d="M66.1,61.3l0.6-0.5l1.7,2.4l-0.6,0.5L66.1,61.3z"/>
	<path class="st3" d="M69.8,58l0.5-0.6l2.2,2L72,60L69.8,58z"/>
	<path class="st3" d="M73.2,53.4l-0.4,0.7l2.5,1.5l0.4-0.7L73.2,53.4z"/>
	<path class="st3" d="M74.9,49.6l0.2-0.7l2.8,0.9l-0.2,0.7L74.9,49.6z"/>
	<path class="st3" d="M76,44.7l0.1-0.8l2.9,0.3l-0.1,0.8L76,44.7z"/>
	<path class="st3" d="M76,39l2.9-0.3l0.1,0.8l-2.9,0.3L76,39z"/>
	<path class="st3" d="M74.9,34.2l2.8-0.9l0.2,0.7l-2.8,0.9L74.9,34.2z"/>
	<path class="st3" d="M72.8,29.7l2.5-1.5l0.4,0.7l-2.5,1.5L72.8,29.7z"/>
	<path class="st3" d="M69.8,25.7l2.2-2l0.5,0.6l-2.2,2L69.8,25.7z"/>
	<path class="st3" d="M66.1,22.5l1.7-2.4l0.6,0.5l-1.7,2.4L66.1,22.5z"/>
	<path class="st3" d="M61.8,20.1l1.2-2.7l0.7,0.3l-1.2,2.7L61.8,20.1z"/>
	<path class="st3" d="M57,18.6l0.6-2.9l0.8,0.2l-0.6,2.9L57,18.6z"/>
	<path class="st4" d="M67.4,41.9c0,8.2-6.7,14.9-14.9,14.9c-8.2,0-14.9-6.7-14.9-14.9S44.3,27,52.5,27C60.7,27,67.4,33.6,67.4,41.9z
		"/>
	<path class="st0" d="M58,51.5l-5.5,1.4L47,51.5c0-0.1,0.1-0.3,0.1-0.4c0,0,0-0.1,0.1-0.1l5.3-9.2l5.3,9.2c0,0,0,0.1,0.1,0.1
		C57.9,51.3,58,51.4,58,51.5z"/>
	<path class="st5" d="M52.5,41.9l1.8,9.9l0,0.3l3.4-1L52.5,41.9z"/>
	<path class="st3" d="M52.5,41.9l-1.9,3.3h3.8L52.5,41.9z"/>
	<path class="st6" d="M52.5,41.9l0.6,3.3h1.3L52.5,41.9z"/>
	<path class="st7" d="M50.6,52h-3.7v12.6h3.7V52z"/>
	<path class="st8" d="M54.4,52h-3.7v12.6h3.7V52z"/>
	<path class="st9" d="M58.1,52h-3.7v12.6h3.7V52z"/>
	<path class="st7" d="M48.8,53.9c1,0,1.9-0.8,1.9-1.9c0-1-0.8-1.9-1.9-1.9c-1,0-1.9,0.8-1.9,1.9C46.9,53.1,47.7,53.9,48.8,53.9z"/>
	<path class="st8" d="M54.4,52c0,1-0.8,1.9-1.9,1.9c-1,0-1.9-0.8-1.9-1.9c0-1,0.8-1.9,1.9-1.9C53.5,50.2,54.4,51,54.4,52z"/>
	<path class="st9" d="M56.2,53.9c1,0,1.9-0.8,1.9-1.9s-0.8-1.9-1.9-1.9S54.4,51,54.4,52S55.2,53.9,56.2,53.9z"/>
	<path class="st10" d="M58.5,64.7H46.6v4h11.8V64.7z"/>
	<path class="st5" d="M58.4,64.7h-4.1v4h4.1V64.7z"/>
	<path class="st3" d="M58.1,70.4c0,0.6-0.2,1.1-0.7,1.6c-0.4,0.4-1,0.7-1.6,0.7h-6.7c-0.6,0-1.1-0.2-1.6-0.7c-0.4-0.4-0.7-1-0.7-1.6
		v-1.8h11.2L58.1,70.4L58.1,70.4z"/>
	<path class="st6" d="M54.4,68.6v1.8c0,0.6-0.2,1.1-0.7,1.6c-0.4,0.4-1,0.7-1.6,0.7h3.7c0.6,0,1.1-0.2,1.6-0.7
		c0.4-0.4,0.7-1,0.7-1.6v-1.8H54.4z"/>
</g>
</svg>
