<svg width="109" height="109" viewBox="0 0 109 109" fill="none" xmlns="http://www.w3.org/2000/svg">
<path d="M108 54.5C108 84.0472 84.0472 108 54.5 108C24.9528 108 1 84.0472 1 54.5C1 24.9528 24.9528 1 54.5 1C84.0472 1 108 24.9528 108 54.5Z" fill="#B3E8F0"/>
<path d="M108 54.5C108 84.0472 84.0472 108 54.5 108C24.9528 108 1 84.0472 1 54.5C1 24.9528 24.9528 1 54.5 1C84.0472 1 108 24.9528 108 54.5Z" stroke="#F27A54" stroke-width="2"/>
<path d="M108 54.5C108 84.0472 84.0472 108 54.5 108C24.9528 108 1 84.0472 1 54.5C1 24.9528 24.9528 1 54.5 1C84.0472 1 108 24.9528 108 54.5Z" stroke="url(#paint0_linear)" stroke-width="2"/>
<path d="M71.9779 33.5467C71.9864 33.5467 71.9864 33.5467 71.9864 33.5467C71.9864 33.4651 71.9779 33.3806 71.9779 33.2948C71.9779 28.3681 75.9751 24.3723 80.9012 24.3723C84.9293 24.3723 88.3337 27.0445 89.4398 30.7105C90.1128 30.3942 90.8624 30.2156 91.655 30.2156C94.5269 30.2156 96.8561 32.5439 96.8561 35.4167C96.8561 36.0783 96.7316 36.71 96.5074 37.2923C96.5644 37.288 96.62 37.2831 96.6768 37.2831C98.5222 37.2831 100.011 38.7761 100.011 40.6172C100.011 42.4576 98.5222 43.9519 96.6768 43.9519H71.9779C69.1066 43.9519 66.7798 41.6229 66.7798 38.7508C66.7798 35.8772 69.1066 33.5467 71.9779 33.5467Z" fill="white"/>
<path d="M15.5633 25.015C15.552 24.8462 15.5465 24.6767 15.5465 24.5045C15.5465 19.9159 19.2693 16.1918 23.8558 16.1918C28.2152 16.1918 31.7875 19.5503 32.1371 23.8203C32.5682 23.6859 33.0231 23.6142 33.4964 23.6142C34.7165 23.6142 35.8226 24.0911 36.6482 24.866C37.5611 23.5391 39.0948 22.6677 40.8281 22.6677C43.5214 22.6683 45.7255 24.7674 45.8885 27.4222C46.1312 27.3526 46.3844 27.3147 46.6451 27.3147C48.1656 27.3147 49.394 28.546 49.3955 30.065C49.3955 31.5804 48.1614 32.816 46.6451 32.8138H16.0415C13.8777 32.8138 12.126 31.0622 12.126 28.8975C12.1251 26.897 13.6273 25.2486 15.5633 25.015Z" fill="white"/>
<path d="M87.1086 84.9568H10.0209V96.4708H87.1086V84.9568Z" fill="#F77B55"/>
<path d="M29.8484 84.9568H23.2275V96.4708H29.8484V84.9568Z" fill="white"/>
<path d="M21.0355 84.9568H18.8323V96.4708H21.0355V84.9568Z" fill="white"/>
<path d="M73.8984 84.9568H67.2775V96.4708H73.8984V84.9568Z" fill="white"/>
<path d="M78.2991 84.9568H76.0959V96.4708H78.2991V84.9568Z" fill="white"/>
<path d="M79.4857 60.3579H14.9437V73.4492H79.4857V60.3579Z" fill="white"/>
<path d="M72.1054 60.3579H22.3204V73.4492H72.1054V60.3579Z" fill="#76D0DE"/>
<path d="M64.1695 67.6221H30.2529V69.3655H64.1695V67.6221Z" fill="white"/>
<path d="M47.2077 64.4366H30.2529V66.1855H47.2077V64.4366Z" fill="white"/>
<path d="M95.8639 73.4449H27.6088V84.9567H95.8639V73.4449Z" fill="white"/>
<path d="M87.1101 73.4449H36.3653V84.9568H87.1101V73.4449Z" fill="#E6E5E5"/>
<path d="M31.1598 25.8196H27.6086V96.4727H31.1598V25.8196Z" fill="#353F49"/>
<path d="M52.433 37.3342H31.1463V38.9115H52.433V37.3342Z" fill="#474F59"/>
<path d="M52.4327 48.8461H31.146V50.424H52.4327V48.8461Z" fill="#474F59"/>
<path d="M52.4327 60.3579H31.146V61.9346H52.4327V60.3579Z" fill="#474F59"/>
<path d="M52.4327 71.8698H31.146V73.4471H52.4327V71.8698Z" fill="#474F59"/>
<path d="M52.4327 83.3814H31.146V84.9587H52.4327V83.3814Z" fill="#474F59"/>
<path d="M55.9765 25.8196H52.4253V96.4727H55.9765V25.8196Z" fill="#353F49"/>
<path d="M31.5807 50.1612C31.5792 50.1612 31.5779 50.1612 31.5764 50.1612C31.5779 50.1303 31.5807 50.0888 31.5807 50.0528C31.5807 47.9565 29.8803 46.2561 27.784 46.2561C26.0696 46.2561 24.6215 47.3932 24.1497 48.953C23.8642 48.8193 23.5449 48.742 23.2066 48.742C21.9859 48.742 20.9928 49.7328 20.9928 50.955C20.9928 51.2371 21.0477 51.5056 21.1433 51.7538C21.1194 51.7517 21.0947 51.7495 21.07 51.7495C20.2875 51.7495 19.6516 52.3839 19.6516 53.1687C19.6516 53.9512 20.2866 54.5878 21.07 54.5878H31.5805C32.802 54.5878 33.7928 53.5976 33.7928 52.3754C33.793 51.1513 32.8029 50.1612 31.5807 50.1612Z" fill="white"/>
<path d="M78.3608 11.9998C78.1245 11.9998 77.898 12.0377 77.6857 12.1116C77.7477 11.7952 77.7813 11.4702 77.7813 11.1383C77.7813 8.36046 75.5323 6.11298 72.756 6.11298C69.9782 6.11298 67.7273 8.3611 67.7273 11.1383C67.7273 11.1755 67.7316 11.2106 67.7316 11.2479C67.4137 11.1072 67.0629 11.0335 66.6922 11.0335C65.271 11.0335 64.1227 12.1776 64.1227 13.5954C64.1227 15.0146 65.2725 16.165 66.6922 16.165L78.3608 16.1644C79.5106 16.1644 80.4437 15.2304 80.4437 14.0808C80.4439 12.9316 79.51 11.9998 78.3608 11.9998Z" fill="white"/>
<defs>
<linearGradient id="paint0_linear" x1="54.5" y1="0" x2="54.5" y2="109" gradientUnits="userSpaceOnUse">
<stop stop-color="#E5A84F"/>
<stop offset="1" stop-color="white" stop-opacity="0"/>
</linearGradient>
</defs>
</svg>
