<svg width="589" height="337" viewBox="0 0 589 337" fill="none" xmlns="http://www.w3.org/2000/svg">
<g filter="url(#filter0_d)">
<rect x="4" width="581" height="329" fill="#E5A84F"/>
</g>
<g opacity="0.5">
<path d="M513.5 145.85C513.5 225.107 377.988 270.08 285.976 270.08C193.964 270.08 119.373 205.83 119.373 126.573C119.373 47.317 154.8 42.5044 246.812 42.5044C338.824 42.5044 513.5 66.594 513.5 145.85Z" fill="#EEEEEE" fill-opacity="0.4"/>
<path d="M513.5 145.85C513.5 225.107 377.988 270.08 285.976 270.08C193.964 270.08 119.373 205.83 119.373 126.573C119.373 47.317 154.8 42.5044 246.812 42.5044C338.824 42.5044 513.5 66.594 513.5 145.85Z" fill="url(#paint0_linear)"/>
</g>
<path d="M531.559 218.612L483.643 141.292C481.805 138.326 476.721 138.755 475.587 141.972L454.67 201.272C453.966 203.266 455.272 205.374 457.587 205.98L526.42 224C530.155 224.978 533.397 221.578 531.559 218.612ZM473.826 195.486L482.835 169.944L503.474 203.248L473.826 195.486Z" fill="#FFDC54"/>
<path d="M479.487 143.134L527.47 220.562C528.262 221.84 528.11 223.198 527.384 224.253C530.669 224.455 533.201 221.396 531.527 218.696L483.544 141.268C481.871 138.567 477.512 138.678 475.88 141.141C477.301 141.209 478.695 141.856 479.487 143.134Z" fill="#E5A84F"/>
<path d="M520.031 222.328L521.854 217.16C522.05 216.605 522.73 216.293 523.374 216.461C524.017 216.63 524.381 217.216 524.185 217.77L522.362 222.938L520.031 222.328Z" fill="#E5A84F"/>
<path d="M513.072 220.505L514.365 216.838C514.561 216.283 515.241 215.97 515.885 216.139C516.529 216.307 516.892 216.893 516.696 217.448L515.402 221.116L513.072 220.505Z" fill="#E5A84F"/>
<path d="M506.112 218.684L507.405 215.016C507.601 214.461 508.281 214.148 508.925 214.317C509.569 214.485 509.932 215.071 509.736 215.626L508.442 219.294L506.112 218.684Z" fill="#E5A84F"/>
<path d="M499.151 216.861L500.445 213.193C500.64 212.639 501.32 212.326 501.964 212.495C502.608 212.663 502.971 213.249 502.775 213.804L501.482 217.471L499.151 216.861Z" fill="#E5A84F"/>
<path d="M492.191 215.039L494.013 209.871C494.209 209.317 494.889 209.004 495.533 209.172C496.176 209.341 496.54 209.927 496.344 210.481L494.521 215.649L492.191 215.039Z" fill="#E5A84F"/>
<path d="M485.23 213.217L486.524 209.549C486.72 208.994 487.4 208.682 488.044 208.85C488.687 209.019 489.05 209.605 488.855 210.159L487.561 213.827L485.23 213.217Z" fill="#E5A84F"/>
<path d="M478.271 211.395L479.565 207.727C479.76 207.173 480.441 206.86 481.084 207.028C481.728 207.197 482.091 207.783 481.895 208.337L480.602 212.005L478.271 211.395Z" fill="#E5A84F"/>
<path d="M471.311 209.572L472.605 205.904C472.8 205.349 473.481 205.037 474.124 205.205C474.768 205.374 475.131 205.96 474.935 206.514L473.642 210.182L471.311 209.572Z" fill="#E5A84F"/>
<path d="M464.35 207.75L466.173 202.583C466.368 202.028 467.048 201.715 467.692 201.884C468.336 202.052 468.699 202.638 468.503 203.193L466.68 208.36L464.35 207.75Z" fill="#E5A84F"/>
<path d="M457.001 194.662L463 196.232C463.643 196.401 464.007 196.986 463.811 197.541C463.615 198.096 462.935 198.408 462.291 198.24L456.293 196.67L457.001 194.662Z" fill="#E5A84F"/>
<path d="M459.116 188.665L463.373 189.779C464.017 189.948 464.38 190.534 464.184 191.088C463.989 191.643 463.309 191.956 462.665 191.787L458.408 190.673L459.116 188.665Z" fill="#E5A84F"/>
<path d="M461.232 182.669L465.489 183.784C466.133 183.953 466.496 184.538 466.3 185.093C466.105 185.648 465.424 185.96 464.781 185.792L460.523 184.677L461.232 182.669Z" fill="#E5A84F"/>
<path d="M463.347 176.672L467.604 177.787C468.248 177.955 468.611 178.541 468.415 179.096C468.22 179.651 467.539 179.963 466.896 179.795L462.639 178.68L463.347 176.672Z" fill="#E5A84F"/>
<path d="M465.461 170.677L471.459 172.247C472.103 172.415 472.466 173.001 472.27 173.556C472.075 174.111 471.394 174.423 470.751 174.255L464.753 172.684L465.461 170.677Z" fill="#E5A84F"/>
<path d="M467.577 164.68L471.834 165.794C472.478 165.963 472.841 166.549 472.645 167.103C472.45 167.658 471.769 167.971 471.126 167.802L466.869 166.688L467.577 164.68Z" fill="#E5A84F"/>
<path d="M469.692 158.683L473.949 159.798C474.592 159.966 474.956 160.552 474.76 161.107C474.565 161.662 473.884 161.974 473.241 161.806L468.983 160.691L469.692 158.683Z" fill="#E5A84F"/>
<path d="M471.807 152.687L476.064 153.802C476.708 153.97 477.071 154.556 476.875 155.111C476.68 155.665 475.999 155.978 475.356 155.81L471.099 154.695L471.807 152.687Z" fill="#E5A84F"/>
<path d="M473.922 146.691L479.92 148.262C480.564 148.43 480.927 149.016 480.731 149.571C480.536 150.125 479.855 150.438 479.212 150.27L473.213 148.699L473.922 146.691Z" fill="#E5A84F"/>
<path d="M409.288 118.743L366.138 152.746C362.979 155.235 362.764 159.461 365.657 162.186L417.339 210.862C420.232 213.587 425.138 213.778 428.296 211.29L471.446 177.287C474.604 174.798 474.819 170.572 471.926 167.847L420.244 119.17C417.351 116.445 412.446 116.254 409.288 118.743Z" fill="#506366"/>
<path d="M425.54 204.4L373.858 155.723C370.965 152.998 371.183 148.77 374.344 146.279L366.144 152.741C362.982 155.232 362.764 159.461 365.657 162.186L417.339 210.862C420.232 213.587 425.14 213.776 428.302 211.285L436.503 204.823C433.341 207.314 428.433 207.125 425.54 204.4Z" fill="#3A484A"/>
<path d="M388.731 174.603C388.219 175.007 387.423 174.977 386.957 174.538L370.307 158.856C369.841 158.417 369.877 157.731 370.389 157.328L414.208 122.798C414.72 122.395 415.516 122.425 415.982 122.864L432.632 138.546C433.098 138.985 433.061 139.67 432.55 140.073L388.731 174.603Z" fill="#5BBCBD"/>
<path d="M434.53 144.238L419.052 156.435C417.98 157.279 417.906 158.712 418.887 159.636L429.043 169.201C430.023 170.125 431.687 170.188 432.758 169.344L448.236 157.147C449.308 156.303 449.382 154.87 448.401 153.946L438.245 144.381C437.265 143.457 435.601 143.394 434.53 144.238Z" fill="#B8B8B8"/>
<path d="M408.847 164.476L393.37 176.672C392.298 177.517 392.224 178.95 393.204 179.874L403.36 189.439C404.34 190.362 406.004 190.426 407.076 189.582L422.553 177.385C423.625 176.541 423.699 175.107 422.719 174.184L412.563 164.619C411.582 163.695 409.919 163.631 408.847 164.476Z" fill="#B8B8B8"/>
<path d="M452.594 161.253L437.117 173.45C436.045 174.294 435.971 175.727 436.951 176.651L447.107 186.216C448.087 187.139 449.751 187.203 450.823 186.359L466.3 174.162C467.372 173.318 467.446 171.884 466.466 170.961L456.31 161.396C455.33 160.472 453.666 160.409 452.594 161.253Z" fill="#B8B8B8"/>
<path d="M426.912 181.491L411.435 193.687C410.363 194.532 410.289 195.965 411.269 196.889L421.425 206.454C422.405 207.377 424.069 207.441 425.141 206.597L440.618 194.4C441.69 193.556 441.764 192.122 440.784 191.199L430.628 181.634C429.647 180.71 427.984 180.647 426.912 181.491Z" fill="#B8B8B8"/>
<path d="M370.49 157.248C369.923 157.696 369.841 158.417 370.307 158.856L386.957 174.538C387.423 174.977 388.265 174.971 388.832 174.524L391.619 172.327L374.123 155.849C373.835 155.578 373.582 155.289 373.36 154.987L370.49 157.248Z" fill="#46926F"/>
<path d="M393.37 176.672C392.298 177.517 392.224 178.95 393.204 179.874L403.36 189.439C404.34 190.362 406.004 190.426 407.076 189.582L408.527 188.438L394.821 175.528L393.37 176.672L393.37 176.672Z" fill="#999999"/>
<path d="M412.886 192.544L411.435 193.687C410.363 194.532 410.289 195.965 411.269 196.889L421.425 206.454C422.405 207.377 424.069 207.441 425.141 206.597L426.717 205.355C426.285 205.088 425.878 204.779 425.505 204.428L412.886 192.544L412.886 192.544Z" fill="#999999"/>
<path d="M409.563 180.653L407.856 179.045L405.989 180.516C405.45 180.941 404.644 180.815 403.975 180.184C403.341 179.588 403.214 178.835 403.753 178.41L405.62 176.939L403.93 175.347C403.507 174.949 403.624 174.127 404.317 173.581C405.048 173.005 405.952 173.023 406.374 173.421L408.064 175.013L409.912 173.557C410.374 173.193 411.329 173.293 411.962 173.89C412.631 174.52 412.61 175.299 412.148 175.663L410.3 177.119L412.008 178.727C412.5 179.191 412.354 179.886 411.622 180.462C410.93 181.008 410.056 181.117 409.563 180.653Z" fill="#EFEDEE"/>
<path d="M430.26 192.771L427.733 192.674L427.845 190.519C427.872 189.98 427.249 189.416 426.259 189.378C425.321 189.342 424.563 189.853 424.535 190.392L424.424 192.547L421.923 192.451C421.297 192.427 420.643 192.964 420.599 193.817C420.557 194.625 421.15 195.278 421.775 195.302L424.277 195.398L424.164 197.575C424.131 198.204 424.839 198.658 425.777 198.694C426.767 198.732 427.441 198.331 427.473 197.702L427.586 195.525L430.113 195.622C430.843 195.65 431.37 195.04 431.412 194.232C431.456 193.379 430.99 192.799 430.26 192.771Z" fill="#EFEDEE"/>
<path d="M430.013 157.717L435.017 153.774C435.479 153.41 436.434 153.51 437.067 154.107C437.736 154.737 437.715 155.516 437.253 155.88L432.249 159.823C431.71 160.248 430.904 160.122 430.235 159.491C429.601 158.894 429.474 158.142 430.013 157.717Z" fill="#EFEDEE"/>
<path d="M446.291 173.049L451.295 169.106C451.757 168.742 452.712 168.842 453.346 169.439C454.014 170.069 453.993 170.848 453.531 171.212L448.527 175.155C447.988 175.58 447.182 175.453 446.513 174.823C445.879 174.226 445.752 173.474 446.291 173.049ZM449.865 176.415L454.869 172.472C455.331 172.108 456.285 172.208 456.919 172.805C457.588 173.435 457.566 174.214 457.104 174.578L452.1 178.521C451.562 178.945 450.756 178.819 450.087 178.189C449.453 177.592 449.326 176.84 449.865 176.415Z" fill="#EFEDEE"/>
<path d="M354.358 145.87C348.998 145.87 343.837 146.582 338.968 147.873L372.977 224.501H319.395C328.664 231.678 340.916 236.047 354.358 236.047C383.267 236.047 406.7 215.862 406.7 190.955C406.7 166.05 383.264 145.87 354.358 145.87Z" fill="#FFDC54"/>
<path d="M302.023 190.953C302.023 170.668 317.577 153.512 338.964 147.856L294.821 48.3944L216.66 224.5H319.379C308.732 216.243 302.023 204.272 302.023 190.953Z" fill="#8053D7"/>
<path d="M259.894 212.05H255.101V213.83H259.894V212.05Z" fill="#34495E"/>
<path d="M154.178 228.232L152.728 226.982L159.136 221.458L160.586 222.711L154.178 228.232ZM166.996 217.204L165.537 215.943L169.755 212.311L170.482 212.048H173.573V213.828H170.913L166.996 217.204ZM246.041 213.828H236.987V212.047H246.041V213.828ZM227.925 213.828H218.871V212.047H227.925V213.828ZM209.807 213.828H200.754V212.047H209.807V213.828ZM191.698 213.828H182.635V212.047H191.698V213.828Z" fill="#F2F2F2"/>
<path d="M144.391 236.677L142.93 235.427L146.32 232.506L147.778 233.757L144.391 236.677Z" fill="#34495E"/>
<path d="M144.391 236.677L142.93 235.427L146.32 232.506L147.778 233.757L144.391 236.677Z" fill="#34495E"/>
<path d="M154.178 228.232L152.728 226.982L159.138 221.458L160.588 222.71L154.178 228.232ZM166.996 217.203L165.537 215.938L169.455 212.567V210.275H171.513V212.941L171.213 213.559L166.996 217.203ZM171.515 202.476H169.456V194.659H171.515V202.476ZM171.515 186.857H169.456V179.06H171.515V186.857ZM171.515 171.259H169.456V163.45H171.515V171.259ZM171.515 155.643H169.456V147.843H171.515V155.643Z" fill="#F2F2F2"/>
<path d="M171.514 135.91H169.455V140.04H171.514V135.91Z" fill="#34495E"/>
<path d="M233.076 237.695H143.665C142.602 237.695 141.745 236.958 141.745 236.046V159.012C141.745 158.097 142.602 157.36 143.665 157.36H233.076C234.14 157.36 234.997 158.097 234.997 159.012V236.046C234.998 236.96 234.141 237.695 233.076 237.695ZM145.576 234.4H231.155V160.671H145.576V234.4Z" fill="#F2F2F2"/>
<path d="M233.076 160.671H143.664C142.884 160.671 142.184 160.259 141.889 159.654C141.593 159.025 141.755 158.314 142.304 157.846L169.13 134.747C169.484 134.439 169.978 134.263 170.482 134.263H259.898C260.672 134.263 261.377 134.654 261.673 135.277C261.969 135.903 261.807 136.611 261.258 137.075L234.435 160.189C234.071 160.49 233.587 160.671 233.076 160.671ZM148.287 157.359H232.278L255.268 137.555H171.278L148.287 157.359Z" fill="#F2F2F2"/>
<path d="M233.077 237.695C232.827 237.695 232.583 237.657 232.345 237.579C231.628 237.321 231.155 236.714 231.155 236.045V159.012C231.155 158.572 231.363 158.162 231.717 157.843L258.54 134.744C259.089 134.268 259.914 134.117 260.631 134.376C261.348 134.633 261.821 135.241 261.821 135.912V212.938C261.821 213.379 261.613 213.795 261.259 214.113L234.436 237.211C234.066 237.541 233.58 237.695 233.077 237.695ZM234.998 159.702V232.059L257.978 212.253V139.892L234.998 159.702Z" fill="#F2F2F2"/>
<path d="M188.72 244.952C186.549 244.952 184.573 245.544 182.99 246.851L184.227 248.624C185.392 247.605 186.743 247.116 188.269 247.116C190.131 247.116 191.462 247.954 191.462 249.304V251.066C190.447 250.058 188.893 249.548 187.027 249.548C184.792 249.548 182.312 250.676 182.312 253.396C182.312 255.985 184.828 257.29 187.027 257.29C188.834 257.29 190.447 256.734 191.462 255.714V257H194.429V249.194C194.428 246.052 191.772 244.952 188.72 244.952ZM191.462 254.327C190.757 255.123 189.488 255.544 188.217 255.544C186.549 255.544 185.28 254.706 185.28 253.419C185.28 252.161 186.55 251.3 188.217 251.3C189.489 251.3 190.757 251.718 191.462 252.528V254.327Z" fill="#E0E0E0"/>
<path d="M126.341 193.46C124.646 193.46 123.067 194.109 121.965 195.374V189.268H119V205.497H121.964V203.901C123.015 205.056 124.594 205.789 126.341 205.789C129.843 205.789 132.418 203.503 132.418 199.615C132.419 195.815 129.87 193.46 126.341 193.46ZM125.492 203.527C124.081 203.527 122.644 202.847 121.964 201.982V197.294C122.643 196.428 124.081 195.724 125.492 195.724C127.842 195.724 129.342 197.358 129.342 199.618C129.342 201.897 127.842 203.527 125.492 203.527Z" fill="#E0E0E0"/>
<path d="M261.991 235.44C259.528 235.44 257.86 233.806 257.86 231.524C257.86 229.228 259.527 227.633 261.991 227.633C263.314 227.633 264.365 228.06 265.123 228.982L267.072 227.459C266.109 226.331 264.533 225.358 261.849 225.358C257.726 225.358 254.818 227.968 254.818 231.524C254.818 235.067 257.726 237.697 261.849 237.697C264.532 237.697 266.109 236.704 267.072 235.613L265.123 234.026C264.364 234.956 263.314 235.44 261.991 235.44Z" fill="#E0E0E0"/>
<path d="M199.68 76.519L197.741 74.8478L177.061 92.654L179 94.3253L199.68 76.519Z" fill="#E0E0E0"/>
<path d="M195.473 94.6615C192.937 94.6615 190.878 92.8892 190.878 90.704C190.878 88.5188 192.936 86.7466 195.473 86.7466C198.006 86.7466 200.07 88.5188 200.07 90.704C200.07 92.8892 198.006 94.6615 195.473 94.6615ZM195.473 89.0964C194.449 89.0964 193.614 89.8162 193.614 90.704C193.614 91.5923 194.449 92.3117 195.473 92.3117C196.503 92.3117 197.335 91.5918 197.335 90.704C197.335 89.8157 196.503 89.0964 195.473 89.0964Z" fill="#E0E0E0"/>
<path d="M181.261 82.427C178.725 82.427 176.661 80.6426 176.661 78.4569C176.661 76.2698 178.725 74.498 181.261 74.498C183.799 74.498 185.863 76.2703 185.863 78.4569C185.864 80.6416 183.799 82.427 181.261 82.427ZM181.261 76.8619C180.239 76.8619 179.402 77.5817 179.402 78.4574C179.402 79.3433 180.238 80.0636 181.261 80.0636C182.291 80.0636 183.119 79.3433 183.119 78.4574C183.119 77.5812 182.291 76.8619 181.261 76.8619Z" fill="#E0E0E0"/>
<path d="M346.986 74.161H328.005V76.5098H346.986V74.161Z" fill="#E0E0E0"/>
<path d="M244.488 113.734H225.507V116.1H244.488V113.734Z" fill="#E0E0E0"/>
<path d="M236.364 106.746H233.629V123.108H236.364V106.746Z" fill="#E0E0E0"/>
<path d="M305.594 262.844H286.614V265.21H305.594V262.844Z" fill="#E0E0E0"/>
<path d="M305.594 256.103H286.614V258.468H305.594V256.103Z" fill="#E0E0E0"/>
<path d="M389.113 112.133H360.228V114.488H389.113V112.133Z" fill="#E0E0E0"/>
<path d="M374.67 118.866H360.228V121.231H374.67V118.866Z" fill="#E0E0E0"/>
<path d="M389.113 105.399H360.228V107.748H389.113V105.399Z" fill="#E0E0E0"/>
<path d="M350.789 110.093H348.045V100.436C348.045 99.2577 348.58 98.1612 349.545 97.3208C350.508 96.5003 351.788 96.0409 353.157 96.0409V98.4047C352.522 98.4047 351.93 98.6172 351.486 98.9919C351.038 99.3874 350.789 99.8967 350.789 100.436V110.093H350.789Z" fill="#E0E0E0"/>
<path d="M345.685 114.488V112.132C346.31 112.132 346.903 111.924 347.361 111.537C347.806 111.15 348.045 110.636 348.045 110.093H350.789C350.789 111.276 350.253 112.37 349.287 113.212C348.319 114.029 347.039 114.488 345.685 114.488Z" fill="#E0E0E0"/>
<path d="M353.157 130.592C351.791 130.592 350.511 130.131 349.543 129.291C348.577 128.472 348.044 127.359 348.044 126.195V116.541H350.788V126.195C350.788 126.738 351.035 127.244 351.479 127.624C351.93 128.013 352.52 128.228 353.155 128.228L353.157 130.592Z" fill="#E0E0E0"/>
<path d="M350.789 116.54H348.045C348.045 115.981 347.806 115.47 347.358 115.096C346.904 114.703 346.31 114.488 345.685 114.488V112.133C347.044 112.133 348.322 112.583 349.287 113.423C350.256 114.244 350.789 115.36 350.789 116.54Z" fill="#E0E0E0"/>
<path d="M401.281 110.093H398.544V100.437C398.544 99.898 398.294 99.3883 397.849 98.9928C397.405 98.6176 396.813 98.4056 396.178 98.4056V96.0417C397.548 96.0417 398.828 96.5011 399.791 97.3217C400.756 98.1621 401.281 99.2581 401.281 100.437V110.093Z" fill="#E0E0E0"/>
<path d="M403.648 114.488C402.297 114.488 401.017 114.03 400.046 113.214C399.076 112.365 398.544 111.273 398.544 110.094H401.282C401.282 110.633 401.529 111.151 401.977 111.543C402.431 111.926 403.025 112.134 403.649 112.134V114.489H403.648V114.488Z" fill="#E0E0E0"/>
<path d="M396.178 130.592V128.228C396.813 128.228 397.405 128.013 397.849 127.629C398.295 127.244 398.544 126.738 398.544 126.195V116.541H401.281V126.195C401.281 127.359 400.753 128.472 399.788 129.291C398.823 130.131 397.543 130.592 396.178 130.592Z" fill="#E0E0E0"/>
<path d="M401.282 116.54H398.544C398.544 115.364 399.078 114.249 400.044 113.427C401.014 112.583 402.294 112.133 403.649 112.133V114.488C403.022 114.488 402.431 114.703 401.971 115.096C401.527 115.47 401.282 115.981 401.282 116.54Z" fill="#E0E0E0"/>
<path d="M243.125 60.0422L242.163 59.226C239.798 57.1797 235.686 57.1797 233.321 59.226L232.356 60.0422L230.421 58.3692L231.384 57.5506C234.775 54.6291 240.7 54.6291 244.094 57.5549L245.056 58.3735L243.125 60.0422Z" fill="#E0E0E0"/>
<path d="M250.443 63.1449C248.042 63.1449 245.776 62.3437 244.078 60.8827L243.125 60.0423L245.055 58.3737L246.016 59.2131C248.378 61.238 252.498 61.238 254.859 59.2131L255.82 58.3737L257.765 60.0384L256.801 60.8788C255.104 62.3432 252.847 63.1449 250.443 63.1449Z" fill="#E0E0E0"/>
<path d="M91.9845 194.494L91.0278 193.536C91.4373 193.128 91.8531 192.732 92.2775 192.347L93.1847 193.352C92.7777 193.719 92.3778 194.102 91.9845 194.494Z" fill="#E6E5E5"/>
<path d="M143.174 238.422L142.088 237.619C142.731 236.748 143.337 235.839 143.889 234.916L145.051 235.609C144.476 236.57 143.845 237.516 143.174 238.422ZM146.64 232.623L145.417 232.047C145.876 231.07 146.292 230.059 146.654 229.043L147.928 229.495C147.552 230.553 147.119 231.607 146.64 232.623ZM148.902 226.256L147.589 225.932C147.849 224.882 148.06 223.81 148.215 222.743L149.554 222.938C149.392 224.049 149.172 225.166 148.902 226.256ZM149.879 219.573L148.528 219.507C148.553 218.979 148.566 218.45 148.566 217.922C148.566 217.368 148.552 216.812 148.525 216.258L149.876 216.19C149.905 216.767 149.919 217.345 149.919 217.922C149.919 218.472 149.905 219.022 149.879 219.573ZM148.202 213.023C148.045 211.958 147.832 210.886 147.568 209.836L148.881 209.507C149.155 210.602 149.377 211.717 149.541 212.825L148.202 213.023ZM146.626 206.725C146.262 205.708 145.843 204.698 145.381 203.724L146.603 203.145C147.085 204.16 147.521 205.211 147.899 206.269L146.626 206.725ZM143.845 200.861C143.291 199.94 142.683 199.032 142.034 198.163L143.119 197.354C143.793 198.259 144.427 199.205 145.004 200.164L143.845 200.861ZM139.968 195.653C139.61 195.258 139.24 194.87 138.86 194.489C138.47 194.099 138.073 193.721 137.669 193.355L138.578 192.353C138.999 192.734 139.412 193.127 139.818 193.532C140.213 193.928 140.597 194.331 140.97 194.742L139.968 195.653ZM135.158 191.291C134.291 190.647 133.382 190.039 132.457 189.484L133.154 188.324C134.115 188.902 135.061 189.535 135.964 190.205L135.158 191.291ZM95.6988 191.286L94.8931 190.199C95.7959 189.529 96.7432 188.896 97.7056 188.319L98.4018 189.479C97.4764 190.034 96.5673 190.641 95.6988 191.286ZM129.592 187.953C128.62 187.493 127.61 187.075 126.589 186.71L127.045 185.437C128.107 185.815 129.159 186.251 130.171 186.729L129.592 187.953ZM101.268 187.947L100.69 186.724C101.703 186.245 102.755 185.811 103.816 185.432L104.272 186.705C103.252 187.07 102.241 187.487 101.268 187.947ZM123.479 185.771C122.435 185.51 121.362 185.298 120.291 185.139L120.489 183.8C121.603 183.965 122.719 184.186 123.806 184.458L123.479 185.771ZM107.383 185.766L107.056 184.454C108.151 184.181 109.267 183.96 110.374 183.798L110.571 185.137C109.508 185.292 108.435 185.504 107.383 185.766ZM117.056 184.821C115.973 184.768 114.887 184.769 113.806 184.821L113.74 183.47C114.867 183.414 115.996 183.415 117.123 183.47L117.056 184.821Z" fill="#E6E5E5"/>
<path d="M139.812 242.321L138.855 241.364C139.249 240.971 139.63 240.571 139.999 240.163L141.002 241.072C140.617 241.496 140.221 241.913 139.812 242.321Z" fill="#E6E5E5"/>
<path d="M87.5629 192.938L140.415 245.79L143.285 242.92L90.4326 190.068L87.5629 192.938Z" fill="#3F4A5A"/>
<path d="M115.423 253.777C115.421 253.777 115.421 253.777 115.419 253.777C105.844 253.776 96.8424 250.047 90.0716 243.276C83.2995 236.505 79.5697 227.503 79.5703 217.928C79.5703 208.355 83.2995 199.352 90.0703 192.582L92.9404 195.45C86.9353 201.455 83.6281 209.438 83.6281 217.928C83.6281 226.419 86.9359 234.402 92.9409 240.406C98.9454 246.41 106.928 249.718 115.42 249.718C115.42 249.718 115.422 249.718 115.422 249.718C123.913 249.718 131.895 246.413 137.897 240.409L140.768 243.277C133.999 250.048 124.998 253.777 115.423 253.777Z" fill="#3F4A5A"/>
<path d="M117.453 251.751H113.396V259.866H117.453V251.751Z" fill="#3F4A5A"/>
<path d="M129.797 263.922H101.049V261.894C101.049 261.375 101.247 260.856 101.644 260.459C102.041 260.061 102.558 259.864 103.079 259.864H127.766C128.288 259.864 128.808 260.061 129.203 260.459C129.599 260.856 129.797 261.375 129.797 261.894V263.922Z" fill="#333C49"/>
<path d="M141.803 267.981H89.0425V265.952C89.0425 265.433 89.2409 264.915 89.6386 264.518C90.0349 264.12 90.5534 263.923 91.0731 263.923H139.775C140.293 263.923 140.814 264.12 141.21 264.518C141.605 264.915 141.803 265.433 141.803 265.952V267.981Z" fill="#3F4A5A"/>
<path d="M141.802 217.928C141.802 232.496 129.995 244.305 115.42 244.305C100.85 244.305 89.0435 232.496 89.0435 217.928C89.0435 203.355 100.851 191.55 115.42 191.55C129.994 191.55 141.802 203.355 141.802 217.928Z" fill="#84D7E8"/>
<path d="M124.684 193.225C129.495 197.621 132.515 203.946 132.515 210.979C132.515 224.256 121.753 235.02 108.468 235.02C101.438 235.02 95.1147 231.999 90.7188 227.188C94.4691 237.187 104.111 244.305 115.42 244.305C129.994 244.305 141.802 232.496 141.802 217.928C141.802 206.618 134.685 196.977 124.684 193.225Z" fill="#6BC7D9"/>
<path d="M109.249 239.98C109.355 239.999 109.641 239.902 109.72 239.88C109.525 239.723 109.098 239.705 108.852 239.553C108.874 239.563 108.058 239.07 108.232 239.475C108.276 239.573 108.427 239.483 108.5 239.536C108.402 239.68 108.358 239.637 108.465 239.703C108.465 239.699 107.564 239.211 108.469 239.178C107.843 238.615 108.511 238.79 108.312 238.436C108.176 238.19 108.844 237.959 108.482 237.748C108.314 237.648 108.125 237.666 107.947 237.546C107.698 237.365 107.934 237.045 108.167 237.078C108.189 237.078 108.312 236.511 108.354 236.42C108.286 236.393 107.821 235.814 107.934 235.692C108.071 235.547 108.677 236.066 108.825 235.682C108.885 235.544 108.615 235.173 108.636 235.017C108.91 234.991 110.711 235.059 110.406 234.231C110.3 233.948 109.542 233.519 109.622 233.281C109.884 233.321 110.322 233.702 110.601 233.551C110.834 233.432 111.018 233.683 111.263 233.415C111.302 233.367 111.704 232.936 111.586 232.856C111.464 232.854 111.399 232.921 111.386 233.067C111.246 232.872 111.491 232.735 111.621 232.599C111.651 232.638 111.68 232.68 111.712 232.718C111.86 232.495 112.695 231.409 112.72 231.383C113.148 230.893 112.798 230.226 113.22 229.829C113.604 229.466 114.022 229.228 114.503 229.039C114.653 228.978 115.181 228.697 115.29 228.731C116.174 229.003 116.067 227.945 116.632 227.47C117.199 226.993 116.78 224.547 117.245 224.368C117.499 224.271 118.249 223.342 118.64 222.921C119.017 222.514 119.063 221.993 118.918 221.474C118.695 220.682 118.469 221.133 117.9 220.794C117.44 220.518 117.091 219.974 116.525 219.895C116.193 219.847 115.842 219.949 115.518 219.85C115.375 219.81 114.996 219.576 114.854 219.774C114.877 219.739 114.548 219.895 114.573 219.904C114.537 219.882 114.565 219.471 114.458 219.369C114.286 219.207 113.694 219.04 113.48 218.988C112.989 218.86 112.869 219.441 112.742 218.747C112.336 218.639 111.935 218.166 112.004 218.046C112.04 217.997 111.373 216.587 111.281 216.721C111.273 216.244 109.806 215.658 109.432 215.881C109.096 216.126 108.483 215.663 108.276 215.444C108.044 215.19 108.049 214.925 107.661 214.764C107.493 214.69 107.207 214.728 107.272 214.441C107.339 214.139 106.55 214.075 106.475 213.784C106.588 213.804 106.681 213.75 106.785 213.72C106.479 213.828 106.105 213.603 105.802 213.852C105.362 214.219 105.101 213.679 104.619 213.773C104.005 213.89 104.418 213.668 104.032 213.431C104.19 213.529 103.316 213.033 103.521 213.051C103.34 213.031 103.548 213.354 103.346 213.423C103.028 213.541 102.752 213.613 102.958 213.998C103.31 214.694 102.227 214.365 102.735 213.89C102.827 213.809 102.853 212.899 102.953 212.928C102.826 212.887 101.837 213.529 101.722 213.665C101.407 213.156 100.868 214.926 100.689 214.936C100.6 214.503 100.185 214.325 99.8265 214.199C99.5172 214.076 99.2098 214.812 98.8123 214.411C98.0973 213.686 98.4103 212.525 98.7723 211.697C98.9256 211.318 97.4549 211.202 97.2758 211.356C96.9151 211.65 97.3315 210.752 97.3296 210.777C97.3685 210.416 97.4511 210.178 97.6121 210.181C97.7067 209.969 98.2539 208.988 98.1968 208.868C97.9777 208.356 97.051 209.27 96.9634 209.496C96.8689 209.719 96.6905 209.844 96.6041 210.045C96.5165 210.249 96.3467 210 96.199 210.082C95.7989 210.308 95.228 210.191 95.3136 209.611C95.405 208.912 95.1383 207.53 95.9242 207.051C96.1645 206.904 96.2028 206.207 96.479 205.958C96.5127 205.929 97.3073 205.469 97.2284 205.38C97.3456 205.501 97.9684 205.252 98.048 205.416C98.11 205.545 98.4775 205.689 98.6064 205.612C98.5989 205.627 98.6697 205.306 98.6697 205.302C98.6603 205.298 98.415 205.263 98.4243 205.186C98.4544 205.076 99.1982 205.15 99.2238 205.152C99.575 205.178 99.8355 205.47 100.099 205.294C100.504 205.019 100.256 206.833 100.418 206.996C100.506 207.094 100.442 207.312 100.614 207.295C100.845 207.271 100.919 204.945 101.518 204.46C101.956 204.105 102.435 203.787 102.919 203.525C103.073 203.447 103.475 203.251 103.558 203.099C103.54 203.027 103.467 202.938 103.384 203.016C103.36 202.871 103.598 202.96 103.643 202.81C103.687 202.663 103.519 202.61 103.538 202.561C103.532 202.574 103.688 202.253 103.635 202.298C103.643 202.305 103.643 202.321 103.646 202.328C103.886 202.368 103.594 202.105 103.583 202.065C103.896 202.227 103.768 201.718 104.074 201.692C103.853 201.784 103.894 202.032 103.926 202.186C103.988 202.514 104.282 201.725 104.249 201.754C104.545 201.633 105.005 201.385 105.322 201.163C105.246 201.132 105.171 201.188 105.08 201.126C105.405 201.008 105.771 201.048 106.079 200.886C106.064 200.559 106.262 200.215 106.631 200.153C107.194 200.062 107.856 199.717 108.418 199.525C108.334 199.721 108.464 199.569 108.617 199.643C108.432 199.167 107.434 200.525 107.911 200.25C108.312 200.02 109.664 199.806 109.85 199.415C109.845 199.394 109.758 199.136 109.761 199.136C109.427 199.136 109.399 199.547 108.989 199.544C108.242 199.537 108.693 199.077 108.537 198.873C108.406 198.903 108.292 198.867 108.203 198.765C108.277 198.749 109.197 198.536 108.711 198.426C107.921 198.256 107.396 199.136 106.746 199.114C107.231 198.819 107.892 198.187 108.48 198.109C109.107 198.021 109.978 198.329 110.529 197.94C111.021 197.6 111.359 197.849 111.637 197.294C111.72 197.145 111.276 196.955 111.162 196.929C111.213 196.873 111.31 196.929 111.346 196.835C110.607 196.507 110.452 196.179 110.364 195.323C109.986 195.598 108.725 196.185 109.4 195.232C109.158 195.125 108.39 194.487 108.097 194.928C107.96 195.126 107.747 195.461 107.519 195.563C107.02 195.788 107.468 195.747 107.297 196.082C107.013 196.636 106.331 196.559 106.003 197.044C105.799 197.349 105.737 197.563 105.418 197.706C105.14 197.828 105.035 197.499 105.172 197.24C105.27 197.349 105.359 197.367 105.438 197.284C105.463 197.166 105.293 197.224 105.24 197.178C105.335 197.006 105.457 196.849 105.595 196.704C105.549 196.679 104.84 196.567 104.866 196.379C104.914 195.993 104.425 196.206 104.342 196.088C104.721 195.612 104.721 195.39 105.463 195.017C105.714 194.891 107.141 194.161 107.406 194.342C107.372 194.508 107.195 194.474 107.101 194.556C107.305 194.613 107.901 194.674 108.104 194.532C108.06 194.494 107.821 194.099 107.945 194.006C107.925 194.024 108.352 194.016 108.385 194.001C108.615 193.948 108.866 193.919 108.996 193.686C109.108 193.482 109.86 193.216 110.041 193.318C111.024 193.874 108.705 194.467 108.681 194.405C108.729 194.567 109.353 194.291 109.51 194.72C109.55 194.823 110.263 195.056 110.33 194.956C110.374 194.904 110.129 194.644 110.119 194.582C110.866 194.944 110.821 194.756 110.701 194.255C110.583 193.778 111.138 194.289 111.17 194.303C111.293 194.367 111.796 194.078 111.872 193.974C111.69 193.832 111.376 193.837 111.221 193.666C111.068 193.517 111.608 193.482 111.421 193.325C111.193 193.14 110.835 193.188 110.961 192.824C110.83 192.789 110.704 192.803 110.592 192.872C110.625 192.938 110.701 192.888 110.726 192.922C110.604 193 110.464 193.013 110.325 193.009C110.366 192.944 110.499 192.944 110.5 192.821C110.113 192.777 109.908 193.009 109.57 193.11C109.666 192.972 109.829 192.928 109.946 192.825C109.577 192.873 109.226 193.009 108.937 193.25C108.981 193.291 109.021 193.331 109.049 193.387C108.767 193.635 108.392 193.71 108.061 193.862C108.12 193.643 108.358 193.693 108.434 193.529C108.315 193.531 108.196 193.559 108.09 193.609C108.231 193.592 108.645 193.178 108.74 193.072C108.141 193.003 107.889 193.777 107.318 193.669C107.439 193.531 107.678 193.601 107.759 193.388C107.55 193.41 106.754 193.953 106.626 193.669C106.616 193.652 108.078 193.072 108.232 192.86C108.133 192.85 108.022 192.952 107.933 192.834C108.003 192.754 108.12 192.748 108.205 192.66C107.726 192.656 106.302 193.234 106.409 193.57C106.226 193.72 106.025 193.761 105.8 193.667C105.889 193.528 106.201 193.526 105.949 193.327C105.489 193.495 105.041 193.682 104.595 193.877C103.568 194.334 102.557 194.871 101.604 195.463C100.026 196.437 98.7222 197.59 97.4201 198.899C96.7288 199.601 94.0929 202.677 94.1017 203.321C94.1111 203.794 93.8293 204.212 93.6515 204.64C93.5093 204.988 93.4911 205.475 93.3185 205.798C92.936 206.479 93.1113 207.269 92.9365 208.057C93.1562 207.892 93.6028 204.3 93.9915 204.434C94.0666 204.462 93.7504 205.926 93.6686 206.109C93.3429 206.862 93.7713 207.783 93.5565 208.569C93.5359 208.646 93.4288 209.045 93.425 209.126C93.0637 209.403 93.5201 209.819 93.5171 210.127C93.5171 210.308 94.4419 211.118 94.6197 211.224C95.0092 211.459 95.0875 211.044 95.4418 211.118C95.7593 211.187 95.8506 211.765 96.0208 212.008C96.2475 212.35 97.1147 212.314 97.2612 212.473C97.3615 212.595 97.2775 213.255 97.6725 213.349C97.6687 213.301 97.6587 213.068 97.7144 213.036C97.8359 212.962 98.0895 213.401 98.0042 213.486C97.8816 213.511 97.7664 213.469 97.6737 213.349C97.6737 213.407 97.6079 214.273 97.8615 214.105C97.8653 214.052 97.8816 213.998 97.8865 213.948C98.2165 214.085 98.1915 214.572 98.4243 214.638C98.7492 214.729 98.9903 215.135 99.2314 215.249C99.4499 215.358 99.3898 214.489 99.803 214.446C100.136 214.417 100.323 215.284 100.437 215.494C100.613 215.799 100.204 216.532 100.43 216.77C100.661 217.011 99.8605 217.59 99.818 217.837C99.7936 218.025 99.3847 218.199 99.4004 218.27C99.4306 218.474 99.3091 218.749 99.2376 218.944C99.0359 219.483 99.1356 219.533 99.485 219.782C99.4956 219.788 98.8364 221.103 99.2158 221.439C99.8156 221.934 100.609 223.148 100.8 223.913C101.193 224.967 101.793 225.612 102.795 226.131C103.61 226.562 104.185 227.292 104.185 228.273C104.215 228.849 104.131 229.574 104.375 230.114C104.547 230.493 104.222 231.112 104.466 231.457C104.624 231.67 104.418 231.785 104.51 231.988C104.605 232.201 104.828 232.554 104.824 232.805C104.818 233.217 104.823 233.706 104.849 234.117C104.859 234.255 104.729 234.495 104.799 234.582C104.895 234.694 105.451 236.064 105.451 236.468C105.446 236.563 105.876 236.437 105.489 236.05C105.95 235.793 105.856 236.877 105.889 236.885C105.476 236.742 105.742 236.854 105.774 237.39C105.794 237.701 105.691 237.551 105.95 237.611C106.355 237.701 105.95 237.974 106.104 238.194C106.409 238.637 106.881 239.044 107.203 239.385C107.725 239.936 108.623 239.848 109.249 239.98C109.338 239.996 109.133 239.958 109.249 239.98ZM110.966 196.983C110.82 197.113 110.665 197.136 110.501 197.184C110.614 197.008 110.793 197.036 110.966 196.983ZM109.594 196.865C109.702 196.849 109.786 196.879 109.844 196.954C109.845 196.994 109.281 197.02 109.194 197.166C109.269 196.917 109.474 196.961 109.594 196.865C109.652 196.937 109.474 196.961 109.594 196.865ZM108.214 197.842C108.334 197.871 108.04 197.815 108.214 197.842C108.219 197.842 108.179 197.837 108.214 197.842ZM107.456 196.396C107.505 196.336 107.547 196.346 107.574 196.422C107.518 196.482 107.479 196.474 107.456 196.396C107.459 196.363 107.448 196.428 107.456 196.396ZM106.7 198.648C106.487 198.635 106.923 198.658 106.7 198.648C106.67 198.648 106.731 198.653 106.7 198.648ZM106.923 197.775C106.188 198.464 106.761 197.783 106.546 197.996C106.551 198.008 106.546 198.02 106.535 198.02C106.477 197.953 106.91 197.78 106.923 197.775C106.829 197.864 106.798 197.797 106.923 197.775ZM106.654 196.963C106.52 197.117 106.52 197.117 106.337 197.082C106.434 197.017 106.563 197.041 106.654 196.963ZM109.933 194.37C109.884 194.375 109.838 194.375 109.761 194.375C109.996 194.178 109.956 194.37 109.933 194.37C109.885 194.375 109.966 194.37 109.933 194.37ZM110.463 194.022C110.383 194.113 110.268 194.056 110.165 194.103C110.272 193.898 110.291 193.894 110.463 194.022ZM107.489 194.261C107.551 194.208 107.626 194.178 107.707 194.185C107.779 194.289 107.26 194.345 107.489 194.261C107.518 194.208 107.462 194.273 107.489 194.261ZM107.357 194.114C107.441 194.152 107.434 194.188 107.334 194.232C107.262 194.188 107.274 194.152 107.357 194.114C107.389 194.114 107.315 194.118 107.357 194.114ZM103.511 200.676C103.517 200.672 102.359 201.137 102.448 200.85C102.42 200.941 102.843 200.523 102.755 200.562C102.849 200.521 103.626 200.473 103.852 200.477C103.733 200.593 103.622 200.633 103.511 200.676C103.253 200.771 103.622 200.633 103.511 200.676ZM104.436 200.103C105.391 200.197 103.867 200.487 103.704 200.315C103.919 200.128 104.172 200.074 104.436 200.103C104.51 200.111 104.172 200.074 104.436 200.103ZM104.278 194.163C104.535 194.002 104.808 193.88 105.141 193.804C104.897 194.006 104.569 194.089 104.271 194.171L104.278 194.163ZM104.331 199.326C104.288 199.367 104.247 199.365 104.208 199.324C104.267 199.303 104.322 199.283 104.331 199.326C104.352 199.365 104.322 199.283 104.331 199.326ZM104.051 199.898C104.029 199.898 103.955 199.878 104.051 199.898C104.057 199.898 104.019 199.89 104.051 199.898ZM103.769 199.411C104.113 199.57 103.916 200.111 103.619 199.692C103.607 199.94 103.173 200.363 102.94 200.415C103.031 200.315 103.058 200.207 103.031 200.087C102.956 200.028 102.811 200.197 102.733 200.193C102.764 200.344 103.355 199.179 102.859 199.516C102.679 199.654 101.486 200.925 101.415 200.856C101.305 200.744 101.944 199.808 101.991 199.774C102.398 199.437 103.253 199.168 103.769 199.411ZM103.105 194.974C103.152 194.944 103.536 194.711 103.585 194.766C103.708 194.916 102.968 195.106 102.932 195.109C102.977 195.018 103.047 195.004 103.105 194.974C103.239 194.898 103.047 195.004 103.105 194.974ZM103.186 198.086C103.184 198.106 103.03 198.396 102.939 198.279C102.866 198.2 103.159 197.953 103.186 198.086C103.174 198.162 103.178 198.05 103.186 198.086ZM102.348 195.682C102.39 195.682 103.012 195.293 103.03 195.454C103.037 195.498 102.277 195.694 102.348 195.682ZM102.175 196.322C102.138 196.392 102.102 196.427 102.014 196.427C102.048 196.35 102.102 196.345 102.175 196.322ZM101.745 197.815C101.83 197.748 102.032 197.423 101.934 197.296C101.988 197.368 101.563 197.25 101.759 197.178C101.837 197.152 102.322 196.887 102.398 196.967C102.541 197.113 101.793 197.892 101.645 197.958C101.659 197.879 101.703 197.844 101.745 197.815C101.867 197.723 101.703 197.844 101.745 197.815ZM102.169 198.798C102.702 198.627 102.897 198.326 103.217 198.735C103.339 198.885 103.315 199.28 103.03 199.185C103.108 199.214 102.164 199.123 102.338 199.022C102.149 199.138 101.78 199.221 101.559 199.124C101.764 199.006 101.946 198.874 102.169 198.798C102.3 198.757 101.946 198.874 102.169 198.798ZM101.423 197.807C101.472 197.935 101.437 197.997 101.291 198.02C101.347 197.935 101.388 197.867 101.423 197.807ZM93.8507 209.319C93.6066 209.31 94.0397 209.31 93.8507 209.319C93.823 209.317 93.8752 209.317 93.8507 209.319ZM96.9054 211.514C96.8391 211.54 97.0984 211.47 96.9054 211.514C96.8935 211.519 96.9394 211.51 96.9054 211.514ZM104.365 213.978C104.239 213.959 104.515 213.992 104.365 213.978C104.355 213.978 104.384 213.98 104.365 213.978ZM105.586 235.844C105.377 235.804 105.699 235.674 105.586 235.844C105.536 235.834 105.59 235.834 105.586 235.844ZM106.129 224.904C106.055 224.829 106.176 224.946 106.129 224.904C106.121 224.895 106.146 224.917 106.129 224.904ZM106.214 231.72C106.079 231.765 106.36 231.668 106.214 231.72C106.178 231.729 106.236 231.708 106.214 231.72ZM106.933 239.062C106.836 239.006 106.836 238.971 106.928 238.954C107.035 238.996 107.036 239.036 106.933 239.062C106.893 239.056 106.967 239.07 106.933 239.062ZM107.886 239.475C107.786 239.457 107.794 239.417 107.912 239.359C107.997 239.397 107.988 239.436 107.886 239.475C107.843 239.475 107.91 239.467 107.886 239.475ZM105.871 236.765C105.86 236.772 105.847 236.774 105.837 236.777C105.868 236.752 105.874 236.747 105.871 236.765ZM108.232 192.858C108.232 192.858 108.231 192.858 108.23 192.858C108.231 192.858 108.231 192.857 108.231 192.857L108.232 192.858ZM99.271 197.108C99.271 197.113 99.2685 197.113 99.2685 197.113L99.271 197.108ZM141.372 213.198L141.374 213.2C140.858 211.301 140.473 209.421 139.686 207.579C138.751 205.392 137.524 203.331 136.037 201.474C134.637 199.722 133.016 198.148 131.219 196.804C130.343 196.148 129.432 195.552 128.481 195.011C128.03 194.75 127.568 194.505 127.099 194.269C126.895 194.173 126.174 193.983 126.066 193.81C126.071 193.89 126.486 194.099 126.542 194.153C126.264 194.08 125.522 193.767 125.513 193.72C125.529 193.686 125.59 193.72 125.583 193.666C125.166 193.399 123.609 192.825 123.299 193.251C123.366 193.168 124.371 194.331 124.397 194.536C124.465 194.989 125.174 195.472 125.624 195.618C126.251 195.83 125.781 195.546 126.044 195.398C126.219 195.312 126.377 195.686 126.535 195.602C126.534 195.598 126.535 195.594 126.542 195.59C126.497 195.502 126.445 195.416 126.396 195.331C126.351 195.331 127.536 196.552 127.683 196.286C127.545 195.955 127.332 195.58 126.997 195.269C126.699 194.989 126.23 194.965 125.91 194.686C125.746 194.544 125.144 194.103 125.08 193.899C125.874 193.926 126.793 195.608 127.589 194.957C127.48 194.881 127.37 194.8 127.268 194.713C127.413 194.755 128.079 194.969 127.858 195.248C127.219 195.136 128.393 195.781 128.412 195.853C128.295 195.847 128.218 195.752 128.109 195.745C128.154 195.965 128.783 196.193 128.827 196.569C128.449 196.629 128.614 196.342 128.366 196.649C128.287 196.746 127.951 196.714 127.767 196.728C127.329 196.764 126.841 196.024 126.526 195.797C126.658 196.21 126.888 196.408 127.348 196.7C127.569 196.824 127.032 196.882 127.043 197.068C127.056 197.068 127.189 197.133 127.183 197.169C127.183 197.192 127.061 197.083 127.043 197.068C127.085 197.039 126.964 197.793 126.952 197.782C127.312 198.199 126.474 198.078 126.457 198.093C126.525 198.187 126.656 198.235 126.684 198.373C126.441 198.388 126.244 198.35 126.009 198.438C126.351 198.537 128.241 199.412 127.829 200.072C127.697 200.286 126.419 200.02 126.178 200.009C125.682 199.974 126.145 200.483 126.156 200.541C126.237 200.916 126.53 201.082 126.503 201.525C126.481 201.832 126.799 201.844 126.896 202.105C126.984 202.333 126.932 202.355 127.17 202.388C127.591 202.443 127.602 202.376 127.959 202.654C128.213 202.852 128.31 202.471 128.608 202.458C129.36 202.427 128.72 202.273 129.081 202.174C129.524 202.048 128.956 201.353 128.984 201.218C129.015 201.036 128.956 200.831 129.198 200.763C129.578 200.661 129.099 200.266 129.074 200.163C129 199.849 130.121 200.428 129.986 199.636C130.63 199.839 131.293 200.422 131.894 200.757C132.241 200.97 132.593 201.171 132.852 201.506C133.155 201.902 132.412 201.739 132.363 201.852C132.318 201.98 133.021 202.296 133.133 202.29C133.15 202.22 133.048 201.815 133.038 201.744C133.004 201.465 132.599 201.188 132.627 200.965C132.755 200.976 132.873 201.028 132.976 201.108C132.596 200.641 131.982 200.595 131.553 200.253C131.293 200.04 130.968 199.868 130.711 199.648C130.711 199.647 130.255 199.069 130.575 199.178C131.078 199.353 131.628 199.862 132.14 200.13C132.547 200.343 132.648 200.475 132.95 200.824C133.068 200.964 133.694 201.692 133.834 201.716C133.829 201.708 134.346 202.173 134.554 202.243C134.464 202.031 134.382 201.764 134.274 201.599C134.132 201.366 133.547 201.239 133.547 200.895C133.68 200.905 133.694 200.768 133.979 200.778C133.829 200.772 134.164 200.554 134.145 200.587C133.598 200.273 132.864 199.359 132.662 198.743C132.813 198.749 132.894 198.948 133.062 198.846C133.005 198.743 132.991 198.633 133.005 198.518C133.048 198.566 133.565 199.01 133.46 199.097C133.316 199.094 133.196 199.032 133.089 198.92C133.167 199.179 133.425 199.184 133.531 199.363C133.543 199.291 133.493 199.232 133.554 199.154C134.007 199.342 134.927 200.062 135.053 200.569C134.856 200.587 134.474 200.165 134.341 200.269C134.299 200.371 134.304 200.47 134.363 200.57C134.303 200.574 134.249 200.586 134.196 200.616C134.269 200.674 134.308 200.749 134.318 200.84C134.245 200.864 134.174 200.885 134.097 200.905C134.158 201.159 135.495 202.436 135.591 202.304C135.618 202.262 135.534 202.132 135.555 202.11C135.626 202.03 135.835 202.399 135.948 202.327C136.035 202.272 135.859 202.154 135.957 202.105C136.161 202.003 136.96 203.573 137.061 203.756C137.445 204.485 137.192 204.042 136.897 204.143C136.855 204.217 136.823 204.296 136.814 204.384C136.349 204.278 135.835 204.006 135.457 203.733C134.85 203.297 135.651 204.922 135.301 204.718C135.094 204.6 134.973 204.427 134.72 204.406C134.35 204.371 134.248 203.975 133.909 203.863C133.634 203.768 132.541 203.67 132.682 203.169C132.796 202.743 132.251 202.389 132.066 202.224C131.974 202.141 130.759 202.299 130.566 202.359C130.232 202.465 129.706 202.575 129.516 202.884C129.196 203.463 128.458 202.701 128.16 202.822C128.003 202.882 128.154 203.361 128.073 203.512C127.953 203.74 127.657 203.756 127.582 204.025C127.457 204.521 127.829 204.927 127.657 205.382C127.519 205.743 126.821 205.9 126.812 206.196C126.807 206.355 126.775 206.533 126.63 206.615C126.31 206.798 126.635 207.217 126.437 207.423C125.364 208.518 126.784 209.587 126.542 210.785C126.402 211.465 126.324 211.603 126.616 212.187C126.683 212.337 126.631 213.39 127.167 212.963C127.233 213.58 128.026 213.706 128.167 214.288C128.333 214.984 129.015 215.288 129.544 215.703C129.757 215.866 129.936 216.082 130.182 216.208C130.615 216.429 130.904 216.083 131.324 215.97C131.698 215.862 132.09 215.903 132.441 216.067C132.643 216.162 134.157 215.092 134.57 215.297C134.868 215.447 134.883 215.813 135.02 216.073C135.221 216.444 135.637 215.957 135.915 216.083C136.411 216.308 136.56 218.119 136.139 218.454C135.823 218.687 136.544 219.677 136.641 219.88C136.926 220.441 137.179 221.419 137.093 222.039C137.024 222.546 137.159 223.34 136.873 223.787C136.585 224.227 136.419 224.701 136.189 225.206C135.589 226.498 136.162 227.965 135.65 229.305C135.338 229.994 135.395 230.727 135.225 231.448C135.114 231.909 134.552 232.58 134.773 233.065C135.107 232.76 135.609 232.799 135.99 232.608C136.77 232.224 137.145 231.323 137.709 230.72C138.012 230.402 138.201 230.001 138.381 229.611C138.551 229.239 138.897 229 139.058 228.635C139.455 227.713 139.815 226.794 140.215 225.874C141.05 223.886 141.189 221.979 141.48 219.846C141.789 217.592 141.794 215.451 141.372 213.198ZM139.382 207.96C139.274 207.695 137.871 205.632 138.032 205.519C138.222 205.402 141.224 210.72 140.901 211.544C140.442 210.331 139.892 209.152 139.382 207.96C139.375 207.946 139.483 208.202 139.382 207.96ZM140.668 217.368C140.612 217.221 140.688 217.093 140.731 216.921C140.793 217.105 140.694 217.228 140.668 217.368ZM140.512 218.206C140.504 218.117 140.502 218.043 140.56 217.979C140.603 218.066 140.561 218.128 140.512 218.206ZM140.009 225.033C139.96 225.051 139.902 225.072 139.848 225.09C139.754 225.09 140.029 224.956 140.04 224.946C140.028 224.995 140.028 225.018 140.009 225.033C139.975 225.092 140.028 225.018 140.009 225.033ZM140.087 222.26C140.084 222.008 140.096 221.997 140.349 221.833C140.296 222.012 140.117 222.095 140.087 222.26ZM140.372 220.967C140.367 220.506 140.356 219.959 140.456 219.513C140.473 220.297 140.513 221.089 140.488 221.881C140.363 221.711 140.372 221.167 140.372 220.967C140.371 220.802 140.372 221.13 140.372 220.967ZM140.786 222.448C140.775 222.869 140.718 224.02 140.442 224.349C140.465 223.632 140.73 222.984 140.742 222.276C140.803 222.346 140.786 222.398 140.786 222.448C140.786 222.494 140.786 222.398 140.786 222.448ZM141.116 218.134C140.993 218.641 141.112 218.797 140.812 219.076C140.812 218.7 140.67 217.984 141.06 217.76C141.108 217.885 141.153 217.984 141.116 218.134C141.065 218.342 141.153 217.984 141.116 218.134ZM124.554 242.635C124.597 242.707 121.241 243.655 120.896 243.731C119.501 244.024 118.086 244.206 116.659 244.278C113.946 244.409 111.114 244.162 108.511 243.37C108.844 243.409 109.249 243.581 109.589 243.528C109.265 243.327 108.864 243.396 108.573 243.141C109.66 243.32 110.699 243.236 111.692 243.365C111.587 243.227 110.681 243.009 110.686 242.911C110.814 242.902 111.515 242.878 111.543 242.858C111.872 242.604 111.019 242.635 111.093 242.45C111.118 242.4 111.354 242.483 111.436 242.374C111.563 242.198 111.436 242.111 111.484 242.023C111.521 241.947 112.835 241.72 112.976 241.779C112.821 241.873 112.64 241.765 112.709 242.021C112.576 242.003 112.168 242.011 112.143 242.192C112.153 242.148 112.591 242.757 112.604 242.783C112.757 243.02 113.283 243.165 113.327 243.449C113.415 243.928 115.912 243.882 116.287 243.838C117.22 243.73 118.094 243.399 119.011 243.238C119.559 243.141 120.104 242.985 120.658 242.934C120.917 242.909 121.777 242.607 121.973 242.675C122.098 243.125 124.092 242.544 124.554 242.635C124.559 242.646 124.479 242.62 124.554 242.635ZM139.748 228.073C139.857 227.803 139.943 227.522 140.076 227.26C139.992 227.544 139.872 227.808 139.748 228.073ZM140.186 226.982C140.199 226.947 140.215 226.911 140.226 226.883C140.23 226.925 140.201 226.947 140.186 226.982ZM111.336 192.446C111.195 192.426 111.045 192.44 110.896 192.418C110.974 192.346 111.418 192.331 111.221 192.208C111.833 191.835 113.102 191.759 113.804 191.843C114.591 191.941 115.375 191.698 116.147 191.819C116.462 191.871 116.734 191.877 117.045 191.896C117.315 191.931 117.006 192.208 117.315 192.255C117.501 192.275 117.866 192.691 118.031 192.601C118.023 192.89 117.894 192.692 117.985 192.958C118.005 193.02 118.33 193.203 118.315 193.225C118.285 193.268 117.408 193.204 117.449 193.215C117.38 193.204 117.462 193.353 117.519 193.329C117.695 193.375 118.076 193.317 118.264 193.331C117.821 193.732 117.159 193.684 116.67 194.006C116.37 194.203 115.917 194.185 115.587 194.305C115.587 194.642 115.333 195.051 115.108 195.398C114.952 195.64 113.835 195.085 113.722 194.942C113.478 194.651 112.923 193.882 113.526 193.645C114.256 193.356 113.53 193.591 113.315 193.435C113.487 193.19 113.681 193.274 113.96 193.312C113.819 193.116 113.642 193.068 113.43 193.17C113.36 192.959 113.733 192.769 113.405 192.544C113.263 192.446 112.492 192.562 112.47 192.428C112.421 192.09 113.41 192.267 113.581 191.993C112.843 191.837 112.052 192.555 111.336 192.446C111.195 192.426 111.466 192.465 111.336 192.446ZM125.222 197.477C125.342 197.462 125.073 197.085 125.004 197.008C125.086 197.017 125.155 197.024 125.236 196.977C125.177 196.805 124.404 196.36 124.353 196.392C124.062 196.575 123.696 195.762 123.662 195.652C124.159 195.584 124.466 196.115 124.915 196.334C125.297 196.52 126.676 197.176 126.715 197.589C126.745 197.797 125.673 197.71 125.512 197.956C125.393 197.652 125.781 197.655 125.773 197.56C125.759 197.487 125.28 197.47 125.222 197.477C125.196 197.482 125.39 197.453 125.222 197.477ZM111.17 197.864C111.093 197.918 110.16 198.8 110.184 198.885C110.204 198.967 111.153 198.908 111.316 199.001C111.304 199.106 111.179 199.053 111.155 199.149C111.279 199.149 111.663 198.907 111.725 198.979C111.734 199.039 111.725 199.098 111.692 199.155C112.116 199.568 112.072 198.668 112.097 198.622C111.8 198.58 112.16 198.167 111.659 198.343C111.692 198.33 111.12 198.171 111.153 198.206C111.106 198.161 111.557 197.768 111.591 197.718C111.326 197.652 111.292 197.769 111.17 197.864C111.009 197.98 111.202 197.837 111.17 197.864ZM112.089 198.842C112.128 198.876 112.026 198.876 112.089 198.842C112.098 198.848 112.077 198.847 112.089 198.842ZM111.878 198.82C111.906 198.788 112.062 198.72 111.965 198.812C111.932 198.874 111.793 198.916 111.878 198.82C111.887 198.807 111.859 198.842 111.878 198.82ZM111.218 197.745L111.22 197.743C111.22 197.745 111.22 197.747 111.224 197.753C111.22 197.746 111.22 197.746 111.218 197.745ZM110.376 198.591C110.403 198.591 110.421 198.591 110.44 198.609C110.419 198.609 110.314 198.602 110.376 198.591C110.402 198.591 110.358 198.593 110.376 198.591ZM101.222 209.592C100.963 209.618 101.389 209.391 101.353 209.309C101.178 208.908 99.9841 208.821 99.872 208.501C99.924 208.477 99.9604 208.443 99.9767 208.391C99.5659 208.224 99.3563 208.727 98.9855 208.693C99.7543 207.389 101.663 208.88 102.431 209.485C102.028 209.532 101.623 209.537 101.222 209.592C101.19 209.594 101.442 209.563 101.222 209.592ZM102.217 210.287C102.027 210.203 102.849 210.211 102.963 210.165C102.799 209.916 102.946 209.78 102.63 209.682C102.919 209.329 103.878 209.742 104.18 209.874C104.157 209.918 104.098 209.878 104.068 209.933C104.093 209.953 104.727 210.476 104.298 210.298C103.834 210.101 103.575 210.378 103.245 210.561C102.986 210.193 102.561 210.449 102.217 210.287C102.178 210.271 102.295 210.325 102.217 210.287ZM124.552 196.943C125.002 197.408 124.308 197.764 123.991 197.465C123.839 197.308 123.93 196.933 123.572 196.824C123.666 196.793 123.764 196.763 123.858 196.73C123.614 196.156 124.44 196.823 124.552 196.943C124.651 197.051 124.522 196.907 124.552 196.943ZM118.713 194.126C118.686 194.032 119.357 194.074 119.471 194.052C119.648 194.022 120.985 194.153 120.517 194.37C120.151 194.532 119.617 194.72 119.27 194.405C119.183 194.331 118.716 194.144 118.713 194.126C118.696 194.06 118.739 194.213 118.713 194.126ZM130.925 200.754C131.083 200.754 131.462 201.354 131.396 201.45C131.219 201.734 130.919 201.015 130.733 200.905C130.799 200.861 130.865 200.81 130.925 200.754ZM110.051 192.631C110.507 192.284 110.613 192.482 111.18 192.537C110.998 192.705 110.562 192.736 110.051 192.631C110.178 192.534 110.562 192.736 110.051 192.631ZM120.119 192.239C119.784 192.145 119.429 192.129 119.104 191.999C119.497 191.957 119.97 192.107 120.242 192.182C120.335 192.214 120.097 192.228 120.119 192.239C119.784 192.144 120.153 192.244 120.119 192.239ZM119.104 191.999C119.069 192.005 119.031 192.007 118.995 192.013C119.031 191.975 119.069 191.968 119.104 191.999C119.069 192.004 119.088 191.995 119.104 191.999ZM101.324 210.309C101.402 210.315 101.438 210.353 101.454 210.425C101.409 210.614 100.814 210.345 100.75 210.259C100.955 210.144 101.145 210.211 101.324 210.309ZM105.576 210.294C105.263 211.063 104.47 209.759 105.576 210.294C105.526 210.405 105.389 210.203 105.576 210.294ZM106.799 214.026C106.808 214.004 106.826 213.996 106.857 213.992C106.836 214.004 106.824 214.012 106.799 214.026ZM106.91 214.004C106.893 214 106.993 213.689 107.194 213.674C107.431 213.821 107.025 214.018 106.91 214.004C106.892 214 107.168 214.034 106.91 214.004ZM109.405 192.465C109.195 192.607 108.942 192.513 108.724 192.593C109.028 192.386 109.166 192.402 109.405 192.465C109.195 192.607 109.368 192.456 109.405 192.465ZM101.477 207.933C101.395 207.618 101.275 207.611 101.485 207.336C101.569 207.629 101.569 207.807 101.477 207.933C101.442 207.802 101.569 207.807 101.477 207.933ZM95.7596 218.842C95.7534 218.956 95.6995 219 95.5906 218.96C95.5525 218.926 95.5343 218.545 95.6006 218.465C95.652 218.591 95.7115 218.711 95.7596 218.842C95.7803 218.894 95.7115 218.711 95.7596 218.842ZM108.982 198.21C109.226 198.202 109.423 198.278 109.64 198.44C109.351 198.495 109.166 198.384 108.982 198.21ZM130.825 200.646L130.828 200.651C130.757 200.626 130.327 200.367 130.503 200.225C130.628 200.135 130.808 200.6 130.825 200.646ZM135.253 202.849C135.171 202.764 134.999 202.82 134.953 202.647C135.101 202.727 135.266 202.685 135.407 202.799C135.355 202.841 135.303 202.893 135.253 202.849C135.171 202.764 135.303 202.893 135.253 202.849ZM109.778 192.611C109.735 192.549 109.661 192.592 109.617 192.534C109.739 192.402 109.905 192.446 110.053 192.405C110.045 192.426 109.869 192.747 109.778 192.611C109.735 192.549 109.8 192.654 109.778 192.611ZM109.037 192.774C108.844 192.92 108.641 193.068 108.369 193.042C108.552 192.851 108.8 192.824 109.037 192.774ZM108.971 199.305C109.024 199.316 109.08 199.301 109.165 199.293C108.905 199.61 108.605 199.168 108.667 199.151C108.621 199.164 108.954 199.303 108.971 199.305C109.024 199.316 108.867 199.287 108.971 199.305ZM109.08 192.902C109.261 192.754 109.473 192.729 109.698 192.746C109.505 192.858 109.307 192.92 109.08 192.902ZM129.723 201.386C129.515 201.356 130.11 201.165 129.894 201.443C129.832 201.438 129.772 201.42 129.723 201.386C129.688 201.38 129.786 201.391 129.723 201.386ZM136.308 202.89C136.184 202.83 136.135 202.747 136.172 202.599C136.277 202.676 136.319 202.761 136.308 202.89ZM109.531 193.858C109.608 193.725 109.688 193.689 109.946 193.692C109.82 193.84 109.68 193.864 109.531 193.858ZM107.626 194.744C107.478 194.824 107.365 194.886 107.201 194.874C107.315 194.744 107.448 194.747 107.626 194.744ZM123.46 195.832C123.429 195.889 123.46 195.929 123.5 195.969C123.455 195.947 123.272 195.718 123.411 195.682C123.477 195.71 123.494 195.759 123.46 195.832C123.429 195.889 123.483 195.797 123.46 195.832ZM99.6029 208.75C99.5953 208.842 99.5491 208.886 99.4664 208.884C99.4249 208.807 99.5614 208.589 99.6029 208.75C99.6146 208.804 99.5915 208.719 99.6029 208.75ZM108.482 236.147C108.552 236.171 108.591 236.226 108.601 236.301C108.601 236.529 108.185 236.175 108.482 236.147C108.527 236.139 108.417 236.153 108.482 236.147ZM107.886 194.88C107.834 194.956 107.767 194.993 107.654 195.031C107.71 194.906 107.789 194.888 107.886 194.88ZM95.9518 218.798C95.9312 219.066 95.8762 218.545 95.9518 218.798C95.9507 218.837 95.9444 218.771 95.9518 218.798ZM109.648 195.318C109.653 195.313 109.667 195.323 109.678 195.325C109.648 195.347 109.589 195.347 109.648 195.318ZM108.467 192.803C108.437 192.811 108.405 192.813 108.375 192.817C108.402 192.795 108.433 192.793 108.467 192.803ZM108.363 192.821C108.339 192.821 108.368 192.817 108.375 192.817C108.369 192.818 108.365 192.818 108.363 192.821ZM108.234 192.857L108.231 192.858C108.231 192.857 108.232 192.857 108.234 192.857ZM108.234 192.857C108.265 192.817 108.312 192.824 108.355 192.821C108.323 192.867 108.284 192.872 108.234 192.857ZM109.074 192.902H109.08C109.08 192.907 109.074 192.908 109.074 192.902ZM109.074 192.907C109.065 192.952 109.028 192.944 108.995 192.944C109.006 192.907 109.037 192.9 109.074 192.907ZM99.3667 219.929C99.3091 219.884 99.4056 219.959 99.3667 219.929C99.3449 219.908 99.3987 219.954 99.3667 219.929ZM127.581 194.974C127.745 195.018 127.589 195.007 127.581 194.974C127.581 194.974 127.587 195 127.581 194.974ZM123.502 195.973C123.501 195.973 123.501 195.969 123.5 195.969C123.515 195.973 123.519 195.983 123.515 196.005C123.513 195.993 123.509 195.983 123.502 195.973C123.501 195.973 123.509 195.983 123.502 195.973ZM108.988 192.944C108.993 192.944 108.993 192.944 108.995 192.944C108.995 192.949 108.994 192.949 108.987 192.946C108.987 192.946 108.988 192.946 108.988 192.944ZM108.937 192.959C108.954 192.951 108.971 192.951 108.987 192.946C108.966 192.982 108.944 192.986 108.937 192.959C108.954 192.951 108.939 192.962 108.937 192.959ZM132.974 201.109V201.108L132.976 201.112L132.974 201.109ZM112.031 218.12C111.95 218.05 112.092 218.07 112.031 218.12C112.026 218.114 112.053 218.1 112.031 218.12ZM124.572 242.628C124.565 242.634 124.562 242.634 124.554 242.634C124.559 242.62 124.562 242.612 124.572 242.618C124.572 242.618 124.572 242.626 124.572 242.628ZM124.554 242.635C124.554 242.633 124.552 242.633 124.554 242.633V242.635ZM103.482 199.443C103.497 199.439 103.74 199.411 103.654 199.508C103.559 199.557 103.505 199.533 103.482 199.443C103.511 199.439 103.483 199.495 103.482 199.443ZM101.944 197.296C101.874 197.25 101.889 197.202 101.988 197.152C102.075 197.181 102.058 197.232 101.944 197.296C101.908 197.294 101.996 197.28 101.944 197.296Z" fill="white"/>
<path d="M130.732 200.905C130.799 200.861 130.865 200.809 130.925 200.754C131.082 200.754 131.462 201.353 131.396 201.45C131.218 201.733 130.919 201.015 130.732 200.905ZM130.503 200.225C130.328 200.367 130.757 200.626 130.829 200.65L130.826 200.646C130.807 200.6 130.627 200.135 130.503 200.225ZM109.248 239.98C108.622 239.848 107.724 239.936 107.199 239.381C106.877 239.04 106.406 238.633 106.101 238.19C105.946 237.971 106.352 237.697 105.946 237.607C105.688 237.547 105.791 237.698 105.771 237.386C105.739 236.851 105.472 236.739 105.885 236.881C105.853 236.873 105.946 235.789 105.486 236.047C105.873 236.434 105.443 236.559 105.447 236.464C105.447 236.132 105.074 235.157 104.884 234.751C106.056 234.925 107.252 235.02 108.468 235.02C108.55 235.02 108.62 235.015 108.702 235.013C108.675 235.015 108.657 235.017 108.637 235.017C108.616 235.173 108.886 235.544 108.826 235.682C108.678 236.065 108.072 235.547 107.935 235.692C107.822 235.814 108.286 236.393 108.355 236.421C108.313 236.511 108.19 237.078 108.168 237.078C107.935 237.045 107.699 237.365 107.948 237.546C108.126 237.666 108.315 237.648 108.483 237.748C108.844 237.959 108.176 238.19 108.313 238.436C108.511 238.79 107.844 238.615 108.47 239.179C107.564 239.211 108.466 239.699 108.466 239.703C108.359 239.637 108.403 239.681 108.501 239.536C108.428 239.484 108.277 239.574 108.233 239.475C108.059 239.07 108.875 239.563 108.853 239.554C109.099 239.705 109.526 239.723 109.721 239.88C109.641 239.902 109.364 239.998 109.254 239.98C109.223 239.974 109.181 239.968 109.248 239.98ZM105.576 235.84C105.564 235.837 105.559 235.84 105.587 235.844C105.696 235.68 105.4 235.798 105.576 235.84ZM106.928 238.954C106.836 238.97 106.836 239.006 106.932 239.062C106.892 239.056 106.967 239.069 106.932 239.062C107.036 239.036 107.035 238.996 106.928 238.954ZM107.912 239.359C107.799 239.417 107.788 239.453 107.876 239.473C107.869 239.473 107.866 239.475 107.886 239.475C107.988 239.436 107.997 239.397 107.912 239.359ZM107.876 239.473C107.876 239.473 107.878 239.475 107.885 239.475C107.9 239.47 107.885 239.47 107.876 239.473ZM105.836 236.777C105.847 236.774 105.86 236.772 105.87 236.765C105.874 236.747 105.868 236.751 105.836 236.777ZM109.253 239.98C109.253 239.98 109.251 239.98 109.248 239.98C109.281 239.986 109.271 239.984 109.253 239.98ZM126.389 194.951C126.779 195.387 127.151 195.836 127.51 196.298C127.589 196.332 127.655 196.334 127.681 196.286C127.543 195.955 127.33 195.579 126.995 195.268C126.828 195.111 126.607 195.035 126.389 194.951ZM127.581 194.974C127.589 195.007 127.745 195.018 127.581 194.974V194.974ZM135.256 202.849H135.252C135.267 202.864 135.265 202.857 135.256 202.849ZM140.786 222.448C140.786 222.445 140.786 222.444 140.786 222.441C140.786 222.43 140.786 222.423 140.786 222.448ZM140.544 210.053C140.673 210.52 140.798 210.987 140.919 211.457C140.949 211.188 140.793 210.674 140.544 210.053ZM141.108 218.152C141.112 218.148 141.112 218.142 141.115 218.134C141.09 218.237 141.101 218.2 141.108 218.152ZM136.172 202.6C136.134 202.747 136.185 202.831 136.308 202.89C136.319 202.761 136.277 202.676 136.172 202.6ZM132.973 201.107V201.109L132.976 201.111L132.973 201.107ZM135.407 202.799C135.265 202.685 135.101 202.727 134.952 202.647C134.998 202.82 135.17 202.763 135.252 202.849C135.193 202.787 135.239 202.83 135.256 202.849C135.304 202.89 135.357 202.84 135.407 202.799ZM141.479 219.85C141.188 221.983 141.049 223.891 140.214 225.877C139.814 226.798 139.454 227.717 139.057 228.638C138.896 229.003 138.55 229.243 138.38 229.614C138.2 230.005 138.011 230.407 137.708 230.723C137.144 231.326 136.769 232.227 135.989 232.612C135.608 232.803 135.106 232.763 134.772 233.068C134.551 232.584 135.113 231.913 135.224 231.452C135.394 230.731 135.337 229.998 135.649 229.309C136.161 227.968 135.589 226.502 136.188 225.209C136.419 224.704 136.584 224.231 136.872 223.79C137.157 223.343 137.022 222.549 137.092 222.042C137.179 221.422 136.925 220.445 136.64 219.884C136.543 219.68 135.822 218.69 136.138 218.458C136.559 218.123 136.411 216.312 135.914 216.087C135.637 215.961 135.22 216.448 135.019 216.076C134.882 215.816 134.867 215.45 134.569 215.301C134.156 215.096 132.642 216.166 132.44 216.071C132.302 216.007 132.152 215.963 132 215.941C132.338 214.335 132.515 212.678 132.515 210.979C132.515 207.914 131.939 204.993 130.897 202.298C131.324 202.234 131.995 202.168 132.064 202.226C132.249 202.391 132.794 202.745 132.68 203.171C132.539 203.672 133.632 203.77 133.907 203.865C134.246 203.977 134.348 204.373 134.718 204.408C134.97 204.428 135.092 204.602 135.299 204.72C135.649 204.924 134.848 203.299 135.455 203.735C135.833 204.007 136.347 204.28 136.812 204.386C136.821 204.297 136.852 204.219 136.895 204.145C137.19 204.044 137.443 204.487 137.059 203.758C136.958 203.575 136.159 202.005 135.955 202.107C135.858 202.156 136.033 202.274 135.946 202.329C135.833 202.401 135.624 202.031 135.553 202.112C135.532 202.133 135.616 202.264 135.589 202.306C135.493 202.438 134.156 201.161 134.095 200.907C134.171 200.887 134.242 200.865 134.316 200.842C134.305 200.751 134.267 200.676 134.194 200.618C134.247 200.588 134.301 200.576 134.361 200.572C134.302 200.472 134.297 200.372 134.339 200.271C134.472 200.167 134.853 200.589 135.051 200.571C134.926 200.063 134.005 199.344 133.552 199.156C133.49 199.234 133.54 199.293 133.529 199.365C133.423 199.186 133.165 199.182 133.087 198.922C133.194 199.034 133.314 199.096 133.458 199.099C133.563 199.012 133.047 198.567 133.003 198.52C132.989 198.635 133.003 198.745 133.06 198.848C132.892 198.95 132.812 198.751 132.66 198.745C132.862 199.361 133.595 200.275 134.143 200.589C134.162 200.556 133.827 200.774 133.977 200.78C133.692 200.77 133.678 200.907 133.545 200.897C133.545 201.24 134.13 201.368 134.272 201.601C134.38 201.766 134.462 202.033 134.552 202.245C134.344 202.175 133.827 201.71 133.832 201.718C133.692 201.694 133.066 200.966 132.948 200.826C132.646 200.477 132.545 200.345 132.138 200.132C131.626 199.865 131.076 199.355 130.573 199.18C130.253 199.071 130.709 199.649 130.709 199.65C130.966 199.87 131.291 200.042 131.551 200.255C131.981 200.597 132.594 200.643 132.974 201.11C132.871 201.03 132.753 200.978 132.625 200.967C132.597 201.189 133.003 201.467 133.036 201.746C133.047 201.817 133.148 202.221 133.131 202.291C133.019 202.298 132.315 201.982 132.361 201.854C132.409 201.741 133.153 201.904 132.85 201.508C132.591 201.173 132.239 200.972 131.892 200.759C131.291 200.424 130.628 199.841 129.984 199.638C130.021 199.848 129.964 199.959 129.869 200.019C129.28 198.866 128.601 197.765 127.837 196.729C128.025 196.724 128.297 196.735 128.365 196.652C128.613 196.344 128.448 196.631 128.826 196.572C128.782 196.195 128.153 195.968 128.108 195.748C128.217 195.756 128.294 195.85 128.411 195.856C128.392 195.784 127.219 195.139 127.857 195.251C128.078 194.972 127.412 194.758 127.267 194.716C127.369 194.802 127.478 194.884 127.587 194.96C126.956 195.474 126.251 194.534 125.594 194.104C125.328 193.834 125.056 193.571 124.776 193.312C125.117 193.429 125.428 193.571 125.583 193.668C125.589 193.722 125.528 193.689 125.512 193.722C125.522 193.77 126.262 194.082 126.542 194.155C126.485 194.101 126.07 193.893 126.066 193.812C126.173 193.985 126.895 194.175 127.099 194.272C127.568 194.507 128.029 194.752 128.481 195.013C129.432 195.555 130.343 196.151 131.219 196.807C133.016 198.15 134.636 199.725 136.037 201.476C137.524 203.334 138.751 205.395 139.686 207.581C140.033 208.399 140.304 209.225 140.543 210.056C139.789 208.212 138.172 205.437 138.031 205.521C137.87 205.634 139.273 207.697 139.381 207.963C139.374 207.948 139.482 208.204 139.381 207.963C139.891 209.153 140.441 210.333 140.9 211.546C140.911 211.52 140.915 211.491 140.918 211.458C141.067 212.036 141.216 212.621 141.374 213.202L141.372 213.199C141.794 215.45 141.788 217.592 141.479 219.85ZM140.667 217.368C140.693 217.228 140.793 217.105 140.731 216.921C140.688 217.093 140.611 217.221 140.667 217.368ZM140.512 218.206C140.561 218.128 140.603 218.066 140.559 217.979C140.502 218.043 140.504 218.116 140.512 218.206ZM140.009 225.033C140.027 225.018 140.027 224.995 140.04 224.946C140.029 224.956 139.753 225.089 139.848 225.089C139.902 225.072 139.96 225.051 140.009 225.033C139.975 225.092 140.028 225.018 140.009 225.033ZM140.349 221.834C140.095 221.997 140.083 222.009 140.087 222.261C140.116 222.095 140.296 222.012 140.349 221.834ZM140.371 220.967C140.371 221.167 140.363 221.711 140.488 221.881C140.512 221.089 140.473 220.297 140.455 219.513C140.355 219.959 140.367 220.507 140.371 220.967C140.371 220.802 140.371 221.129 140.371 220.967ZM140.742 222.276C140.729 222.984 140.465 223.633 140.441 224.349C140.718 224.02 140.775 222.869 140.786 222.448C140.786 222.474 140.786 222.454 140.786 222.442C140.786 222.394 140.798 222.344 140.742 222.276ZM141.115 218.134C141.153 217.984 141.108 217.884 141.059 217.761C140.67 217.984 140.811 218.701 140.811 219.076C141.108 218.801 140.997 218.643 141.108 218.152C141.121 218.114 141.131 218.06 141.115 218.134ZM108.601 236.301C108.591 236.226 108.551 236.17 108.482 236.147C108.185 236.175 108.601 236.529 108.601 236.301ZM124.528 242.631C124.024 242.564 122.097 243.116 121.972 242.675C121.776 242.607 120.916 242.909 120.658 242.934C120.103 242.986 119.559 243.141 119.01 243.239C118.094 243.399 117.22 243.73 116.287 243.838C115.912 243.882 113.415 243.928 113.326 243.449C113.283 243.166 112.756 243.02 112.603 242.783C112.59 242.757 112.152 242.148 112.142 242.192C112.167 242.011 112.574 242.003 112.708 242.021C112.64 241.765 112.821 241.874 112.975 241.779C112.834 241.72 111.521 241.947 111.484 242.023C111.436 242.111 111.563 242.198 111.436 242.375C111.353 242.483 111.118 242.4 111.092 242.45C111.019 242.636 111.871 242.604 111.542 242.859C111.515 242.879 110.813 242.902 110.685 242.911C110.681 243.009 111.587 243.227 111.691 243.366C110.697 243.237 109.659 243.32 108.572 243.141C108.863 243.396 109.264 243.327 109.589 243.529C109.248 243.582 108.844 243.409 108.51 243.37C111.113 244.163 113.947 244.409 116.658 244.278C118.085 244.206 119.5 244.024 120.896 243.731C121.24 243.656 124.596 242.708 124.553 242.636C124.559 242.641 124.536 242.635 124.528 242.631ZM124.528 242.631C124.536 242.635 124.548 242.635 124.554 242.635C124.523 242.628 124.523 242.63 124.528 242.631ZM108.482 236.147C108.526 236.139 108.416 236.153 108.482 236.147V236.147ZM124.554 242.633C124.562 242.633 124.566 242.633 124.571 242.627C124.571 242.625 124.571 242.617 124.571 242.617C124.562 242.611 124.559 242.619 124.554 242.633ZM140.226 226.883C140.214 226.911 140.198 226.947 140.186 226.982C140.201 226.947 140.229 226.925 140.226 226.883ZM140.076 227.26C139.942 227.522 139.857 227.803 139.748 228.073C139.872 227.808 139.991 227.544 140.076 227.26Z" fill="#E6E5E5"/>
<path d="M147.216 178.337C147.216 179.862 145.973 181.104 144.449 181.104C142.919 181.104 141.676 179.861 141.676 178.337C141.676 176.805 142.918 175.564 144.449 175.564C145.973 175.564 147.216 176.805 147.216 178.337Z" fill="#CCCBCA"/>
<path d="M76.6319 186.391C76.6319 188.215 75.1498 189.706 73.3165 189.706C71.4832 189.706 70 188.215 70 186.391C70 184.559 71.4826 183.074 73.3165 183.074C75.1504 183.074 76.6319 184.559 76.6319 186.391Z" fill="#CCCBCA"/>
<path d="M95.3308 178.705C95.3308 179.606 94.6045 180.339 93.7066 180.339C92.7994 180.339 92.0742 179.606 92.0742 178.705C92.0742 177.809 92.7992 177.075 93.7066 177.075C94.6045 177.075 95.3308 177.808 95.3308 178.705Z" fill="#CCCBCA"/>
<path d="M76.6316 202.904C76.6316 204.12 75.6423 205.11 74.4163 205.11C73.2017 205.11 72.2144 204.12 72.2144 202.904C72.2144 201.68 73.2017 200.69 74.4163 200.69C75.6423 200.69 76.6316 201.68 76.6316 202.904Z" fill="#CCCBCA"/>
<path d="M76.632 240.791C76.632 241.409 76.138 241.902 75.5307 241.902C74.9128 241.902 74.4175 241.409 74.4175 240.791C74.4175 240.183 74.9128 239.689 75.5307 239.689C76.138 239.689 76.632 240.183 76.632 240.791Z" fill="#CCCBCA"/>
<path d="M156.709 192.609C156.709 193.061 156.336 193.433 155.885 193.433C155.424 193.433 155.052 193.061 155.052 192.609C155.052 192.147 155.424 191.775 155.885 191.775C156.336 191.775 156.709 192.147 156.709 192.609Z" fill="#CCCBCA"/>
<path d="M167.048 227.339C167.048 228.239 166.322 228.972 165.415 228.972C164.518 228.972 163.79 228.239 163.79 227.339C163.79 226.442 164.518 225.715 165.415 225.715C166.322 225.715 167.048 226.442 167.048 227.339Z" fill="#CCCBCA"/>
<path d="M154.609 238.79C154.609 239.408 154.113 239.902 153.498 239.902C152.888 239.902 152.396 239.408 152.396 238.79C152.396 238.182 152.888 237.689 153.498 237.689C154.113 237.689 154.609 238.182 154.609 238.79Z" fill="#CCCBCA"/>
<defs>
<filter id="filter0_d" x="0" y="0" width="589" height="337" filterUnits="userSpaceOnUse" color-interpolation-filters="sRGB">
<feFlood flood-opacity="0" result="BackgroundImageFix"/>
<feColorMatrix in="SourceAlpha" type="matrix" values="0 0 0 0 0 0 0 0 0 0 0 0 0 0 0 0 0 0 127 0"/>
<feOffset dy="4"/>
<feGaussianBlur stdDeviation="2"/>
<feColorMatrix type="matrix" values="0 0 0 0 0 0 0 0 0 0 0 0 0 0 0 0 0 0 0.25 0"/>
<feBlend mode="normal" in2="BackgroundImageFix" result="effect1_dropShadow"/>
<feBlend mode="normal" in="SourceGraphic" in2="effect1_dropShadow" result="shape"/>
</filter>
<linearGradient id="paint0_linear" x1="285.976" y1="-16.9329" x2="285.976" y2="270.08" gradientUnits="userSpaceOnUse">
<stop stop-color="white" stop-opacity="0.37"/>
<stop offset="1" stop-color="white" stop-opacity="0"/>
</linearGradient>
</defs>
</svg>
