<svg width="152" height="152" viewBox="0 0 152 152" fill="none" xmlns="http://www.w3.org/2000/svg">
<circle cx="76" cy="76" r="75" fill="#D7753E"/>
<circle cx="76" cy="76" r="75" stroke="#F27A54" stroke-width="2"/>
<circle cx="76" cy="76" r="75" stroke="url(#paint0_linear)" stroke-width="2"/>
<path d="M27.4634 75.1456C26.3206 75.8054 25.43 76.9008 25.0622 78.2747C24.6942 79.6502 24.9175 81.0437 25.577 82.1861L46.1906 117.89C46.8501 119.032 47.9455 119.923 49.3197 120.291C50.6938 120.66 52.0874 120.436 53.2302 119.776L83.1324 102.512C84.5555 104.977 87.7079 105.822 90.1718 104.399C92.6357 102.977 93.4804 99.8241 92.0574 97.3592L121.961 80.0944C123.102 79.4358 123.994 78.3402 124.362 76.9655C124.731 75.591 124.506 74.1975 123.846 73.0553L103.233 37.3515C102.573 36.2093 101.479 35.3179 100.104 34.9501C98.7299 34.5819 97.335 34.806 96.1941 35.4647L27.4638 75.1462L27.4634 75.1456Z" fill="#3F4A5A"/>
<path d="M54.7889 53.4197L24.8868 70.6837L50.6541 115.314L80.5562 98.05C83.0212 96.6268 86.1726 97.4721 87.5954 99.9365L61.8281 55.3062C60.4058 52.8428 57.2524 51.9974 54.7889 53.4197Z" fill="#EFEFEF"/>
<path d="M63.7131 48.2649L93.6167 31L119.384 75.6302L89.4804 92.8951C87.0149 94.3185 86.1717 97.4701 87.5945 99.9345L61.8273 55.3043C60.405 52.8408 61.2501 49.6869 63.7131 48.2649Z" fill="#EFEFEF"/>
<path d="M54.7891 53.4186L80.5563 98.0488C83.0213 96.6257 86.1727 97.471 87.5955 99.9354L61.8282 55.3051C60.406 52.8416 57.2525 51.9963 54.7891 53.4186Z" fill="#E6E5E5"/>
<path d="M60.176 73.0595L39.2008 85.1696L40.414 87.2708L61.3892 75.1608L60.176 73.0595Z" fill="#CCCBCA"/>
<path d="M62.6034 77.263L41.6283 89.373L42.8411 91.4736L63.8163 79.3636L62.6034 77.263Z" fill="#CCCBCA"/>
<path d="M65.0269 81.4616L44.0518 93.5716L45.2643 95.6718L66.2395 83.5618L65.0269 81.4616Z" fill="#CCCBCA"/>
<path d="M67.4537 85.665L46.4785 97.775L47.6906 99.8743L68.6657 87.7643L67.4537 85.665Z" fill="#CCCBCA"/>
<path d="M69.8779 89.8635L48.9027 101.974L50.115 104.073L71.0901 91.9633L69.8779 89.8635Z" fill="#CCCBCA"/>
<path d="M72.302 94.0622L51.3268 106.172L52.5391 108.272L73.5143 96.1619L72.302 94.0622Z" fill="#CCCBCA"/>
<path d="M91.7295 38.0412L70.7548 50.1509L71.9676 52.2516L92.9424 40.1418L91.7295 38.0412Z" fill="#CCCBCA"/>
<path d="M94.1544 42.2398L73.1796 54.3495L74.3922 56.4498L95.3669 44.34L94.1544 42.2398Z" fill="#CCCBCA"/>
<path d="M96.5805 46.4424L75.6057 58.5521L76.8183 60.6523L97.793 48.5426L96.5805 46.4424Z" fill="#CCCBCA"/>
<path d="M99.0046 50.6418L78.0299 62.7515L79.243 64.8528L100.218 52.743L99.0046 50.6418Z" fill="#CCCBCA"/>
<path d="M101.432 54.8452L80.4573 66.955L81.6702 69.0556L102.645 56.9459L101.432 54.8452Z" fill="#CCCBCA"/>
<path d="M103.856 59.0437L82.8815 71.1535L84.094 73.2537L105.069 61.1439L103.856 59.0437Z" fill="#CCCBCA"/>
<path d="M106.282 63.2472L85.3076 75.357L86.5196 77.4563L107.494 65.3465L106.282 63.2472Z" fill="#CCCBCA"/>
<path d="M108.706 67.4458L87.7318 79.5555L88.944 81.6553L109.919 69.5455L108.706 67.4458Z" fill="#CCCBCA"/>
<path d="M111.131 71.6443L90.1559 83.7541L91.3682 85.8538L112.343 73.7441L111.131 71.6443Z" fill="#CCCBCA"/>
<path d="M52.9019 60.4584L31.9268 72.5684L37.9896 83.0696L58.9648 70.9596L52.9019 60.4584Z" fill="#F8C963"/>
<path d="M63.9775 48.1131L88.3807 90.3806L89.2681 87.0686L92.5812 87.9554L68.1781 45.6879L63.9775 48.1131Z" fill="#F67656"/>
<defs>
<linearGradient id="paint0_linear" x1="76" y1="0" x2="76" y2="152" gradientUnits="userSpaceOnUse">
<stop stop-color="#E5A84F"/>
<stop offset="1" stop-color="white" stop-opacity="0"/>
</linearGradient>
</defs>
</svg>
