<svg width="152" height="152" viewBox="0 0 152 152" fill="none" xmlns="http://www.w3.org/2000/svg">
<circle cx="76" cy="76" r="75" fill="#B3E8F0"/>
<circle cx="76" cy="76" r="75" stroke="#F27A54" stroke-width="2"/>
<circle cx="76" cy="76" r="75" stroke="url(#paint0_linear)" stroke-width="2"/>
<path d="M73.5951 90.826V94.0641C73.5951 95.8826 72.8818 97.5898 71.5986 98.8778C70.3153 100.166 68.6023 100.87 66.7836 100.87C64.9686 100.87 63.2565 100.166 61.9731 98.8778C60.6839 97.5898 59.9766 95.8826 59.9766 94.0641V62.204C59.9766 60.3851 60.6835 58.6723 61.9731 57.389C63.2563 56.1056 64.9686 55.3925 66.7836 55.3925H77.7647V46.8463H66.7836C62.6847 46.8463 58.8304 48.4447 55.9296 51.3433C53.0279 54.245 51.4317 58.101 51.4317 62.2044V94.0645C51.4317 98.1681 53.0279 102.022 55.9287 104.924C58.8301 107.824 62.6849 109.422 66.7838 109.422C70.8881 109.422 74.7418 107.825 77.6435 104.924C80.5449 102.023 82.143 98.1684 82.143 94.0645V90.8264H73.5953V90.826H73.5951Z" fill="#5D6D7E"/>
<path d="M93.5898 38.9295H77.7658V63.3102H93.5898V38.9295Z" fill="#5D6D7E"/>
<path d="M91.0437 36.4286H79.8357L77.4397 38.7143H93.4397L91.0437 36.4286Z" fill="#34495E"/>
<path d="M91.154 28.8095H80.4874V36.4286H91.154V28.8095Z" fill="#5D6D7E"/>
<path d="M93.4397 25H77.4397V28.8095H93.4397V25Z" fill="#34495E"/>
<path d="M100.297 77.0422L95.1974 82.1429L88.4025 75.3495C87.7508 74.6964 87.3445 73.7924 87.3445 72.7979C87.3445 71.8002 87.7508 70.8999 88.4025 70.2475C89.0547 69.5959 89.9535 69.1905 90.9536 69.1905C91.9462 69.1905 92.8517 69.5963 93.5043 70.2475L100.297 77.0422Z" fill="#5D6D7E"/>
<path d="M100.297 79.8579L97.6304 82.1428H94.9635L100.297 77.5714V79.8579Z" fill="#34495E"/>
<path d="M100.297 63.0952H71.3445V66.1428H100.297V63.0952Z" fill="#5D6D7E"/>
<path d="M73.6302 66.1429C73.6302 72.8753 78.9198 78.3334 85.4375 78.3334C91.961 78.3334 97.2493 72.8753 97.2493 66.1429H73.6302Z" fill="#34495E"/>
<path d="M89.63 82.9048H82.0112V72.9348C82.0112 71.9771 82.385 71.0178 83.1282 70.2884C83.8714 69.5599 84.8463 69.1905 85.8227 69.1905C86.7927 69.1905 87.7692 69.5599 88.5189 70.2884C89.2605 71.0178 89.6302 71.9771 89.6302 72.9348V82.9048H89.63Z" fill="#5D6D7E"/>
<path d="M87.6022 85.0535H83.9645L82.1427 82.6024H89.422L87.6022 85.0535Z" fill="#34495E"/>
<path d="M84.4672 51.1201C84.4672 54.821 81.4599 57.8209 77.7652 57.8209C74.0629 57.8209 71.0629 54.821 71.0629 51.1201C71.0629 47.4192 74.0629 44.417 77.7652 44.417C81.4595 44.4172 84.4672 47.4194 84.4672 51.1201Z" fill="#34495E"/>
<path d="M80.4874 51.2863C80.4874 52.7582 79.2986 53.9524 77.8238 53.9524C76.3503 53.9524 75.154 52.7582 75.154 51.2863C75.154 49.8145 76.3503 48.619 77.8238 48.619C79.2986 48.6192 80.4874 49.8145 80.4874 51.2863Z" fill="#5D6D7E"/>
<path d="M100.291 87.7294H71.062V90.8248H100.291V87.7294Z" fill="#34495E"/>
<path d="M80.0821 90.8259C80.0821 92.0494 79.0914 93.0454 77.8691 93.0454C76.6442 93.0454 75.6483 92.0495 75.6483 90.8259C75.6483 89.6023 76.6442 88.6097 77.8691 88.6097C79.0918 88.6097 80.0821 89.6027 80.0821 90.8259Z" fill="#34495E"/>
<path d="M71.0626 111.322H62.5096V105.148C62.5096 104.051 62.9275 102.958 63.7643 102.125C64.5995 101.292 65.6911 100.87 66.7834 100.87C67.8807 100.87 68.9729 101.292 69.8097 102.125C70.6442 102.958 71.0626 104.051 71.0626 105.148V111.322Z" fill="#34495E"/>
<path d="M69.0588 105.383C69.0588 106.433 68.2069 107.286 67.1516 107.286C66.1012 107.286 65.2493 106.433 65.2493 105.383C65.2493 104.332 66.1012 103.476 67.1516 103.476C68.2069 103.476 69.0588 104.331 69.0588 105.383Z" fill="#5D6D7E"/>
<path d="M73.6302 111.095H59.9159V112.619H73.6302V111.095Z" fill="#34495E"/>
<path d="M49.0651 112.619C48.3356 112.619 47.6007 112.915 47.0412 113.507C46.4817 114.1 46.2016 114.875 46.2016 115.652V119.476H105.63V115.652C105.63 114.875 105.35 114.1 104.791 113.507C104.231 112.915 103.496 112.619 102.767 112.619H49.0651Z" fill="#5D6D7E"/>
<path d="M61.8336 119.416H46V121H61.8336V119.416Z" fill="#34495E"/>
<path d="M105.725 119.416H89.891V121H105.725V119.416Z" fill="#34495E"/>
<defs>
<linearGradient id="paint0_linear" x1="76" y1="0" x2="76" y2="152" gradientUnits="userSpaceOnUse">
<stop stop-color="#E5A84F"/>
<stop offset="1" stop-color="white" stop-opacity="0"/>
</linearGradient>
</defs>
</svg>
