<svg width="152" height="152" viewBox="0 0 152 152" fill="none" xmlns="http://www.w3.org/2000/svg">
<circle cx="76" cy="76" r="75" fill="#FFDC54"/>
<circle cx="76" cy="76" r="75" stroke="#F27A54" stroke-width="2"/>
<circle cx="76" cy="76" r="75" stroke="url(#paint0_linear)" stroke-width="2"/>
<path d="M97.875 35.6875H54.125C52.3991 35.6875 51 37.0866 51 38.8125V123.188C51 124.913 52.3991 126.312 54.125 126.312H97.875C99.6009 126.312 101 124.913 101 123.188V38.8125C101 37.0866 99.6009 35.6875 97.875 35.6875Z" fill="#8053D7"/>
<path d="M55.6875 48.1875H96.3125V110.688H55.6875V48.1875Z" fill="#F2F2F2"/>
<path d="M72.875 40.375H82.25V43.5H72.875V40.375Z" fill="#F2F2F2"/>
<path d="M69.75 43.5C70.6129 43.5 71.3125 42.8004 71.3125 41.9375C71.3125 41.0746 70.6129 40.375 69.75 40.375C68.8871 40.375 68.1875 41.0746 68.1875 41.9375C68.1875 42.8004 68.8871 43.5 69.75 43.5Z" fill="#FFDC54"/>
<path d="M76 123.188C75.0729 123.188 74.1666 122.913 73.3958 122.398C72.6249 121.882 72.0241 121.15 71.6693 120.294C71.3145 119.437 71.2217 118.495 71.4026 117.586C71.5834 116.676 72.0299 115.841 72.6854 115.185C73.341 114.53 74.1762 114.083 75.0855 113.903C75.9948 113.722 76.9373 113.815 77.7938 114.169C78.6503 114.524 79.3824 115.125 79.8975 115.896C80.4126 116.667 80.6875 117.573 80.6875 118.5C80.6861 119.743 80.1918 120.934 79.313 121.813C78.4342 122.692 77.2428 123.186 76 123.188ZM76 116.938C75.691 116.938 75.3889 117.029 75.1319 117.201C74.875 117.373 74.6747 117.617 74.5564 117.902C74.4382 118.188 74.4072 118.502 74.4675 118.805C74.5278 119.108 74.6766 119.386 74.8951 119.605C75.1137 119.823 75.3921 119.972 75.6952 120.032C75.9983 120.093 76.3124 120.062 76.5979 119.944C76.8834 119.825 77.1275 119.625 77.2992 119.368C77.4709 119.111 77.5625 118.809 77.5625 118.5C77.562 118.086 77.3972 117.689 77.1043 117.396C76.8114 117.103 76.4142 116.938 76 116.938Z" fill="#FFDC54"/>
<path d="M71.3125 82.5625L65.0625 88.8125V98.1875C65.0625 99.0163 64.7333 99.8112 64.1472 100.397C63.5612 100.983 62.7663 101.312 61.9375 101.312H33.8125C32.9837 101.312 32.1888 100.983 31.6028 100.397C31.0167 99.8112 30.6875 99.0163 30.6875 98.1875V85.6875C30.6875 84.8587 31.0167 84.0638 31.6028 83.4778C32.1888 82.8917 32.9837 82.5625 33.8125 82.5625H71.3125Z" fill="#E5A84F"/>
<path d="M71.3125 76.3125L65.0625 70.0625V60.6875C65.0625 59.8587 64.7333 59.0638 64.1472 58.4778C63.5612 57.8917 62.7663 57.5625 61.9375 57.5625H33.8125C32.9837 57.5625 32.1888 57.8917 31.6028 58.4778C31.0167 59.0638 30.6875 59.8587 30.6875 60.6875V73.1875C30.6875 74.0163 31.0167 74.8112 31.6028 75.3972C32.1888 75.9833 32.9837 76.3125 33.8125 76.3125H71.3125Z" fill="#D7753E"/>
<path d="M80.6875 85.6875L86.9375 79.4375V70.0625C86.9375 69.2337 87.2667 68.4388 87.8528 67.8528C88.4388 67.2667 89.2337 66.9375 90.0625 66.9375H118.188C119.016 66.9375 119.811 67.2667 120.397 67.8528C120.983 68.4388 121.312 69.2337 121.312 70.0625V82.5625C121.312 83.3913 120.983 84.1862 120.397 84.7722C119.811 85.3583 119.016 85.6875 118.188 85.6875H80.6875Z" fill="#B3E8F0"/>
<path d="M38.5 62.25H44.75V65.375H38.5V62.25Z" fill="#F2F2F2"/>
<path d="M47.875 62.25H60.375V65.375H47.875V62.25Z" fill="#F2F2F2"/>
<path d="M35.375 68.5H41.625V71.625H35.375V68.5Z" fill="#F2F2F2"/>
<path d="M44.75 68.5H54.125V71.625H44.75V68.5Z" fill="#F2F2F2"/>
<path d="M94.75 71.625H104.125V74.75H94.75V71.625Z" fill="#333333"/>
<path d="M107.25 71.625H116.625V74.75H107.25V71.625Z" fill="#333333"/>
<path d="M91.625 77.875H110.375V81H91.625V77.875Z" fill="#333333"/>
<path d="M38.5 87.25H44.75V90.375H38.5V87.25Z" fill="#F2F2F2"/>
<path d="M47.875 87.25H54.125V90.375H47.875V87.25Z" fill="#F2F2F2"/>
<path d="M57.25 87.25H60.375V90.375H57.25V87.25Z" fill="#F2F2F2"/>
<path d="M35.375 93.5H47.875V96.625H35.375V93.5Z" fill="#F2F2F2"/>
<path d="M51 93.5H60.375V96.625H51V93.5Z" fill="#F2F2F2"/>
<defs>
<linearGradient id="paint0_linear" x1="76" y1="0" x2="76" y2="152" gradientUnits="userSpaceOnUse">
<stop stop-color="#E5A84F"/>
<stop offset="1" stop-color="white" stop-opacity="0"/>
</linearGradient>
</defs>
</svg>
