<svg width="249" height="87" viewBox="0 0 249 87" fill="none" xmlns="http://www.w3.org/2000/svg">
    <rect x="0.499939" y="23.686" width="247.187" height="41.0104" rx="7.5" fill="white"/>
    <rect x="0.499939" y="23.686" width="247.187" height="41.0104" rx="7.5" fill="url(#paint0_linear)"/>
    <rect x="0.499939" y="23.686" width="247.187" height="41.0104" rx="7.5" stroke="#60E4E6"/>
    <path d="M95.7138 43.6525C95.7138 67.1661 76.3646 86.2402 52.4805 86.2402C28.5964 86.2402 9.24719 67.1661 9.24719 43.6525C9.24719 20.139 28.5964 1.06494 52.4805 1.06494C76.3646 1.06494 95.7138 20.139 95.7138 43.6525Z" fill="white" stroke="#60E4E6"/>
    <path d="M111.319 47.6489H107.707V46.9209L108.883 46.6549V38.6609L107.707 38.3809V37.6529H111.319V38.3809L110.143 38.6609V46.6549L111.319 46.9209V47.6489ZM114.173 37.8069C114.052 38.2923 113.874 38.8383 113.641 39.4449C113.417 40.0423 113.193 40.5883 112.969 41.0829H112.059C112.152 40.7283 112.241 40.3503 112.325 39.9489C112.418 39.5383 112.502 39.1369 112.577 38.7449C112.652 38.3436 112.712 37.9796 112.759 37.6529H114.075L114.173 37.8069ZM123.336 40.0049C124.186 40.0049 124.82 40.2243 125.24 40.6629C125.66 41.0923 125.87 41.7923 125.87 42.7629V47.6489H124.652V42.8189C124.652 41.6336 124.144 41.0409 123.126 41.0409C122.398 41.0409 121.876 41.2509 121.558 41.6709C121.25 42.0909 121.096 42.7023 121.096 43.5049V47.6489H119.878V42.8189C119.878 41.6336 119.365 41.0409 118.338 41.0409C117.582 41.0409 117.06 41.2743 116.77 41.7409C116.481 42.2076 116.336 42.8796 116.336 43.7569V47.6489H115.104V40.1449H116.098L116.28 41.1669H116.35C116.584 40.7749 116.896 40.4856 117.288 40.2989C117.69 40.1029 118.114 40.0049 118.562 40.0049C119.738 40.0049 120.504 40.4249 120.858 41.2649H120.928C121.18 40.8356 121.521 40.5183 121.95 40.3129C122.389 40.1076 122.851 40.0049 123.336 40.0049ZM135.437 40.0049C136.333 40.0049 137.01 40.2243 137.467 40.6629C137.924 41.0923 138.153 41.7923 138.153 42.7629V47.6489H136.935V42.8469C136.935 41.6429 136.375 41.0409 135.255 41.0409C134.424 41.0409 133.85 41.2743 133.533 41.7409C133.216 42.2076 133.057 42.8796 133.057 43.7569V47.6489H131.825V40.1449H132.819L133.001 41.1669H133.071C133.314 40.7749 133.65 40.4856 134.079 40.2989C134.508 40.1029 134.961 40.0049 135.437 40.0049ZM147.003 43.8829C147.003 45.1243 146.686 46.0856 146.051 46.7669C145.426 47.4483 144.577 47.7889 143.503 47.7889C142.841 47.7889 142.248 47.6396 141.725 47.3409C141.212 47.0329 140.806 46.5896 140.507 46.0109C140.209 45.4229 140.059 44.7136 140.059 43.8829C140.059 42.6416 140.372 41.6849 140.997 41.0129C141.623 40.3409 142.472 40.0049 143.545 40.0049C144.227 40.0049 144.824 40.1589 145.337 40.4669C145.86 40.7656 146.266 41.2043 146.555 41.7829C146.854 42.3523 147.003 43.0523 147.003 43.8829ZM141.333 43.8829C141.333 44.7696 141.506 45.4743 141.851 45.9969C142.206 46.5103 142.766 46.7669 143.531 46.7669C144.287 46.7669 144.843 46.5103 145.197 45.9969C145.552 45.4743 145.729 44.7696 145.729 43.8829C145.729 42.9963 145.552 42.3009 145.197 41.7969C144.843 41.2929 144.283 41.0409 143.517 41.0409C142.752 41.0409 142.197 41.2929 141.851 41.7969C141.506 42.3009 141.333 42.9963 141.333 43.8829ZM151.462 46.7809C151.649 46.7809 151.84 46.7669 152.036 46.7389C152.232 46.7016 152.391 46.6643 152.512 46.6269V47.5649C152.381 47.6303 152.195 47.6816 151.952 47.7189C151.709 47.7656 151.476 47.7889 151.252 47.7889C150.86 47.7889 150.496 47.7236 150.16 47.5929C149.833 47.4529 149.567 47.2149 149.362 46.8789C149.157 46.5429 149.054 46.0716 149.054 45.4649V41.0969H147.99V40.5089L149.068 40.0189L149.558 38.4229H150.286V40.1449H152.456V41.0969H150.286V45.4369C150.286 45.8943 150.393 46.2349 150.608 46.4589C150.832 46.6736 151.117 46.7809 151.462 46.7809ZM162.537 45.5769C162.537 46.3049 162.267 46.8556 161.725 47.2289C161.184 47.6023 160.456 47.7889 159.541 47.7889C159.019 47.7889 158.566 47.7469 158.183 47.6629C157.81 47.5789 157.479 47.4623 157.189 47.3129V46.1929C157.488 46.3423 157.847 46.4823 158.267 46.6129C158.697 46.7343 159.131 46.7949 159.569 46.7949C160.195 46.7949 160.647 46.6969 160.927 46.5009C161.207 46.2956 161.347 46.0249 161.347 45.6889C161.347 45.5023 161.296 45.3343 161.193 45.1849C161.091 45.0356 160.904 44.8863 160.633 44.7369C160.372 44.5876 159.994 44.4196 159.499 44.2329C159.014 44.0463 158.599 43.8596 158.253 43.6729C157.908 43.4863 157.642 43.2623 157.455 43.0009C157.269 42.7396 157.175 42.4036 157.175 41.9929C157.175 41.3583 157.432 40.8683 157.945 40.5229C158.468 40.1776 159.149 40.0049 159.989 40.0049C160.447 40.0049 160.871 40.0516 161.263 40.1449C161.665 40.2289 162.038 40.3503 162.383 40.5089L161.963 41.4889C161.646 41.3583 161.315 41.2463 160.969 41.1529C160.624 41.0596 160.269 41.0129 159.905 41.0129C159.401 41.0129 159.014 41.0969 158.743 41.2649C158.482 41.4236 158.351 41.6429 158.351 41.9229C158.351 42.1283 158.412 42.3056 158.533 42.4549C158.655 42.5949 158.855 42.7349 159.135 42.8749C159.425 43.0056 159.807 43.1643 160.283 43.3509C160.759 43.5283 161.165 43.7103 161.501 43.8969C161.837 44.0836 162.094 44.3123 162.271 44.5829C162.449 44.8443 162.537 45.1756 162.537 45.5769ZM170.622 40.1449V47.6489H169.614L169.432 46.6549H169.376C169.134 47.0469 168.798 47.3363 168.368 47.5229C167.939 47.7003 167.482 47.7889 166.996 47.7889C166.091 47.7889 165.41 47.5743 164.952 47.1449C164.495 46.7063 164.266 46.0109 164.266 45.0589V40.1449H165.512V44.9749C165.512 46.1696 166.068 46.7669 167.178 46.7669C168.009 46.7669 168.583 46.5336 168.9 46.0669C169.227 45.6003 169.39 44.9283 169.39 44.0509V40.1449H170.622ZM176.505 40.0049C176.645 40.0049 176.794 40.0143 176.953 40.0329C177.121 40.0423 177.265 40.0609 177.387 40.0889L177.233 41.2229C177.111 41.1949 176.976 41.1716 176.827 41.1529C176.687 41.1343 176.551 41.1249 176.421 41.1249C176.038 41.1249 175.679 41.2323 175.343 41.4469C175.007 41.6523 174.736 41.9463 174.531 42.3289C174.335 42.7023 174.237 43.1409 174.237 43.6449V47.6489H173.005V40.1449H174.013L174.153 41.5169H174.209C174.451 41.1063 174.764 40.7516 175.147 40.4529C175.529 40.1543 175.982 40.0049 176.505 40.0049ZM181.412 40.0049C182.056 40.0049 182.607 40.1449 183.064 40.4249C183.531 40.7049 183.886 41.1016 184.128 41.6149C184.38 42.1189 184.506 42.7116 184.506 43.3929V44.1349H179.368C179.387 44.9843 179.602 45.6329 180.012 46.0809C180.432 46.5196 181.016 46.7389 181.762 46.7389C182.238 46.7389 182.658 46.6969 183.022 46.6129C183.396 46.5196 183.778 46.3889 184.17 46.2209V47.2989C183.788 47.4669 183.41 47.5883 183.036 47.6629C182.663 47.7469 182.22 47.7889 181.706 47.7889C180.997 47.7889 180.367 47.6443 179.816 47.3549C179.275 47.0656 178.85 46.6363 178.542 46.0669C178.244 45.4883 178.094 44.7836 178.094 43.9529C178.094 43.1316 178.23 42.4269 178.5 41.8389C178.78 41.2509 179.168 40.7983 179.662 40.4809C180.166 40.1636 180.75 40.0049 181.412 40.0049ZM181.398 41.0129C180.81 41.0129 180.344 41.2043 179.998 41.5869C179.662 41.9603 179.462 42.4829 179.396 43.1549H183.218C183.209 42.5203 183.06 42.0069 182.77 41.6149C182.481 41.2136 182.024 41.0129 181.398 41.0129Z" fill="#333333"/>
    <rect x="87.4661" y="24.2632" width="8.74666" height="39.856" fill="white"/>
    <rect x="7.65344" y="24.2632" width="8.74666" height="39.856" fill="white"/>
    <path d="M44.5991 57.0512C34.5979 57.0512 26.5 49.0363 26.5 39.1613C26.5 29.2863 34.5979 21.2715 44.5989 21.2715H58.7874C68.8541 21.2715 76.9786 29.3876 76.8859 39.3267L76.6965 59.564C76.6713 62.2575 73.9023 64.0944 71.36 63.0724L65.8355 60.8515C59.5922 58.3417 52.9168 57.0512 46.1776 57.0512H44.5991Z" fill="#8053D7"/>
    <path d="M44.5991 57.0512C34.5979 57.0512 26.5 49.0363 26.5 39.1613C26.5 29.2863 34.5979 21.2715 44.5989 21.2715H58.7874C68.8541 21.2715 76.9786 29.3876 76.8859 39.3267L76.6965 59.564C76.6713 62.2575 73.9023 64.0944 71.36 63.0724L65.8355 60.8515C59.5922 58.3417 52.9168 57.0512 46.1776 57.0512H44.5991Z" fill="url(#paint1_linear)"/>
    <path d="M44.5991 57.0512C34.5979 57.0512 26.5 49.0363 26.5 39.1613C26.5 29.2863 34.5979 21.2715 44.5989 21.2715H58.7874C68.8541 21.2715 76.9786 29.3876 76.8859 39.3267L76.6965 59.564C76.6713 62.2575 73.9023 64.0944 71.36 63.0724L65.8355 60.8515C59.5922 58.3417 52.9168 57.0512 46.1776 57.0512H44.5991Z" stroke="#8053D7"/>
    <path d="M59.001 33.0635C59.001 33.6201 58.8711 34.1582 58.6113 34.6777C58.3516 35.1973 58.0238 35.7106 57.6279 36.2178C57.2321 36.7126 56.8053 37.2074 56.3477 37.7021C55.89 38.1969 55.4632 38.6979 55.0674 39.2051C54.6715 39.6999 54.3438 40.2132 54.084 40.7451C53.8242 41.2646 53.6943 41.8027 53.6943 42.3594H52.5811C52.5811 41.9141 52.6058 41.4935 52.6553 41.0977C52.7171 40.6895 52.8037 40.2874 52.915 39.8916C53.0387 39.4958 53.1872 39.0876 53.3604 38.667C53.5459 38.2464 53.7624 37.7826 54.0098 37.2754C54.3932 36.4961 54.653 35.7848 54.7891 35.1416C54.9375 34.4984 55.0117 33.8551 55.0117 33.2119C55.0117 31.0101 54.2324 29.9092 52.6738 29.9092C52.4512 29.9092 52.2285 29.9401 52.0059 30.002C51.7956 30.0514 51.6038 30.1257 51.4307 30.2246C51.2699 30.3112 51.14 30.4225 51.041 30.5586C50.9421 30.6823 50.8926 30.8245 50.8926 30.9854C50.8926 31.1214 50.9359 31.2946 51.0225 31.5049C51.109 31.7028 51.208 31.9255 51.3193 32.1729C51.4307 32.4079 51.5296 32.6553 51.6162 32.915C51.7028 33.1748 51.7461 33.4284 51.7461 33.6758C51.7461 34.1087 51.61 34.486 51.3379 34.8076C51.0658 35.1169 50.6947 35.2715 50.2246 35.2715C49.5814 35.2715 49.0618 35.0736 48.666 34.6777C48.2702 34.2819 48.0723 33.7747 48.0723 33.1562C48.0723 32.6615 48.165 32.1481 48.3506 31.6162C48.5485 31.0843 48.8639 30.5957 49.2969 30.1504C49.7422 29.7051 50.3236 29.3402 51.041 29.0557C51.7585 28.7712 52.6367 28.6289 53.6758 28.6289C54.4056 28.6289 55.0921 28.7155 55.7354 28.8887C56.391 29.0618 56.96 29.334 57.4424 29.7051C57.9248 30.0638 58.3021 30.5215 58.5742 31.0781C58.8587 31.6348 59.001 32.2965 59.001 33.0635ZM55.2529 46.293C55.2529 46.5775 55.1911 46.8496 55.0674 47.1094C54.9561 47.3691 54.8014 47.598 54.6035 47.7959C54.418 47.9814 54.1953 48.1299 53.9355 48.2412C53.6758 48.3525 53.3975 48.4082 53.1006 48.4082C52.8037 48.4082 52.5254 48.3525 52.2656 48.2412C52.0182 48.1299 51.7956 47.9814 51.5977 47.7959C51.4121 47.598 51.2637 47.3691 51.1523 47.1094C51.041 46.8496 50.9854 46.5775 50.9854 46.293C50.9854 45.9961 51.041 45.7178 51.1523 45.458C51.2637 45.1982 51.4121 44.9694 51.5977 44.7715C51.7956 44.5736 52.0182 44.4189 52.2656 44.3076C52.5254 44.1963 52.8037 44.1406 53.1006 44.1406C53.3975 44.1406 53.6758 44.1963 53.9355 44.3076C54.1953 44.4189 54.418 44.5736 54.6035 44.7715C54.8014 44.9694 54.9561 45.1982 55.0674 45.458C55.1911 45.7178 55.2529 45.9961 55.2529 46.293Z" fill="white"/>
    <defs>
        <linearGradient id="paint0_linear" x1="124.093" y1="23.186" x2="124.093" y2="65.1965" gradientUnits="userSpaceOnUse">
            <stop stop-color="white"/>
            <stop offset="1" stop-color="white" stop-opacity="0"/>
        </linearGradient>
        <linearGradient id="paint1_linear" x1="51.6933" y1="20.7715" x2="52.0437" y2="50.7598" gradientUnits="userSpaceOnUse">
            <stop stop-color="#7941E6"/>
            <stop offset="1" stop-color="white" stop-opacity="0"/>
        </linearGradient>
    </defs>
</svg>
