<?xml version="1.0" encoding="utf-8"?>
<!-- Generator: Adobe Illustrator 25.0.1, SVG Export Plug-In . SVG Version: 6.00 Build 0)  -->
<svg version="1.1" id="Layer_1" xmlns="http://www.w3.org/2000/svg" xmlns:xlink="http://www.w3.org/1999/xlink" x="0px" y="0px"
	 viewBox="0 0 227 80" style="enable-background:new 0 0 227 80;" xml:space="preserve">
<style type="text/css">
	.st0{fill:#FFFFFF;stroke:#60E4E6;}
	.st1{fill:#5BBCBD;}
	.st2{fill:#FFFFFF;}
	.st3{fill:#8053D7;}
	.st4{fill:url(#SVGID_1_);}
	.st5{fill:none;stroke:#8053D7;}
</style>
<path class="st0" d="M219,21.5H82.9C76.3,9,63.1,0.5,48,0.5S19.7,9,13.1,21.5H8c-4.1,0-7.5,3.4-7.5,7.5v23c0,4.1,3.4,7.5,7.5,7.5
	h5.7c6.8,11.9,19.6,20,34.3,20s27.6-8.1,34.3-20H219c4.1,0,7.5-3.4,7.5-7.5V29C226.5,24.9,223.1,21.5,219,21.5z"/>
<path class="st1" d="M104,48h-5.2v-1l1.7-0.4V35.2l-1.7-0.4v-1h5.2v1l-1.7,0.4v11.4L104,47V48z M107.9,33.7l0.1,0.2
	c-0.2,0.7-0.4,1.5-0.8,2.3c-0.3,0.9-0.6,1.6-1,2.3H105c0.1-0.5,0.3-1,0.4-1.6s0.3-1.2,0.4-1.7c0.1-0.6,0.2-1.1,0.3-1.6L107.9,33.7
	L107.9,33.7z M121.1,37.1c1.2,0,2.1,0.3,2.7,0.9c0.6,0.6,0.9,1.6,0.9,3v7H123v-6.9c0-1.7-0.7-2.5-2.2-2.5c-1,0-1.8,0.3-2.2,0.9
	c-0.4,0.6-0.7,1.5-0.7,2.6V48h-1.7v-6.9c0-1.7-0.7-2.5-2.2-2.5c-1.1,0-1.8,0.3-2.2,1c-0.4,0.7-0.6,1.6-0.6,2.9V48h-1.8V37.3h1.4
	l0.3,1.5h0.1c0.3-0.6,0.8-1,1.3-1.2c0.6-0.3,1.2-0.4,1.8-0.4c1.7,0,2.8,0.6,3.3,1.8h0.1c0.4-0.6,0.8-1.1,1.5-1.4
	C119.8,37.2,120.4,37.1,121.1,37.1z M138.4,37.1c1.3,0,2.2,0.3,2.9,0.9c0.7,0.6,1,1.6,1,3v7h-1.7v-6.9c0-1.7-0.8-2.6-2.4-2.6
	c-1.2,0-2,0.3-2.5,1s-0.7,1.6-0.7,2.9V48h-1.8V37.3h1.4l0.3,1.5h0.1c0.3-0.6,0.8-1,1.4-1.2C137.1,37.2,137.7,37.1,138.4,37.1z
	 M154.9,42.6c0,1.8-0.5,3.1-1.4,4.1s-2.1,1.5-3.6,1.5c-0.9,0-1.8-0.2-2.5-0.6c-0.7-0.4-1.3-1.1-1.7-1.9c-0.4-0.8-0.6-1.9-0.6-3
	c0-1.8,0.4-3.1,1.3-4.1s2.1-1.4,3.6-1.4c1,0,1.8,0.2,2.6,0.7c0.7,0.4,1.3,1.1,1.7,1.9C154.7,40.4,154.9,41.4,154.9,42.6z
	 M146.8,42.6c0,1.3,0.2,2.3,0.7,3s1.3,1.1,2.4,1.1c1.1,0,1.9-0.4,2.4-1.1c0.5-0.7,0.8-1.8,0.8-3s-0.3-2.3-0.8-3s-1.3-1.1-2.4-1.1
	c-1.1,0-1.9,0.4-2.4,1.1S146.8,41.4,146.8,42.6z M161.3,46.8c0.3,0,0.5,0,0.8-0.1s0.5-0.1,0.7-0.2v1.3c-0.2,0.1-0.5,0.2-0.8,0.2
	c-0.3,0.1-0.7,0.1-1,0.1c-0.6,0-1.1-0.1-1.6-0.3s-0.8-0.5-1.1-1s-0.4-1.2-0.4-2v-6.2h-1.5v-0.8l1.5-0.7l0.7-2.3h1v2.5h3.1v1.4h-3.1
	v6.2c0,0.7,0.2,1.1,0.5,1.5C160.4,46.6,160.8,46.8,161.3,46.8z M177.1,45c0,1-0.4,1.8-1.2,2.4c-0.8,0.5-1.8,0.8-3.1,0.8
	c-0.7,0-1.4-0.1-1.9-0.2c-0.5-0.1-1-0.3-1.4-0.5v-1.6c0.4,0.2,0.9,0.4,1.5,0.6c0.6,0.2,1.2,0.3,1.9,0.3c0.9,0,1.5-0.1,1.9-0.4
	c0.4-0.3,0.6-0.7,0.6-1.2c0-0.3-0.1-0.5-0.2-0.7c-0.1-0.2-0.4-0.4-0.8-0.6c-0.4-0.2-0.9-0.5-1.6-0.7c-0.7-0.3-1.3-0.5-1.8-0.8
	s-0.9-0.6-1.1-1c-0.3-0.4-0.4-0.9-0.4-1.4c0-0.9,0.4-1.6,1.1-2.1c0.7-0.5,1.7-0.7,2.9-0.7c0.7,0,1.3,0.1,1.8,0.2
	c0.6,0.1,1.1,0.3,1.6,0.5l-0.6,1.4c-0.5-0.2-0.9-0.3-1.4-0.5c-0.5-0.1-1-0.2-1.5-0.2c-0.7,0-1.3,0.1-1.7,0.4
	c-0.4,0.2-0.6,0.5-0.6,0.9c0,0.3,0.1,0.5,0.3,0.8c0.2,0.2,0.5,0.4,0.9,0.6c0.4,0.2,1,0.4,1.6,0.7c0.7,0.3,1.3,0.5,1.7,0.8
	s0.8,0.6,1.1,1C177,44,177.1,44.5,177.1,45z M188.7,37.3V48h-1.4l-0.3-1.4h-0.1c-0.3,0.6-0.8,1-1.4,1.2c-0.6,0.3-1.3,0.4-2,0.4
	c-1.3,0-2.3-0.3-2.9-0.9c-0.7-0.6-1-1.6-1-3v-7h1.8v6.9c0,1.7,0.8,2.6,2.4,2.6c1.2,0,2-0.3,2.5-1s0.7-1.6,0.7-2.9v-5.6H188.7z
	 M197.1,37.1c0.2,0,0.4,0,0.6,0c0.2,0,0.4,0,0.6,0.1l-0.2,1.6c-0.2,0-0.4-0.1-0.6-0.1c-0.2,0-0.4,0-0.6,0c-0.5,0-1.1,0.2-1.5,0.5
	c-0.5,0.3-0.9,0.7-1.2,1.3c-0.3,0.5-0.4,1.2-0.4,1.9V48H192V37.3h1.4l0.2,2h0.1c0.3-0.6,0.8-1.1,1.3-1.5
	C195.7,37.3,196.3,37.1,197.1,37.1z M204.1,37.1c0.9,0,1.7,0.2,2.4,0.6c0.7,0.4,1.2,1,1.5,1.7c0.4,0.7,0.5,1.6,0.5,2.5V43h-7.3
	c0,1.2,0.3,2.1,0.9,2.8c0.6,0.6,1.4,0.9,2.5,0.9c0.7,0,1.3-0.1,1.8-0.2c0.5-0.1,1.1-0.3,1.6-0.6v1.5c-0.5,0.2-1.1,0.4-1.6,0.5
	s-1.2,0.2-1.9,0.2c-1,0-1.9-0.2-2.7-0.6c-0.8-0.4-1.4-1-1.8-1.8c-0.4-0.8-0.6-1.8-0.6-3s0.2-2.2,0.6-3c0.4-0.8,1-1.5,1.7-1.9
	C202.3,37.3,203.1,37.1,204.1,37.1z M204.1,38.5c-0.8,0-1.5,0.3-2,0.8s-0.8,1.3-0.9,2.2h5.5c0-0.9-0.2-1.6-0.6-2.2
	C205.6,38.8,205,38.5,204.1,38.5z"/>
<rect x="80" y="22" class="st2" width="8" height="37"/>
<path class="st3" d="M40,52.3c-9.1,0-16.5-7.4-16.5-16.6S30.9,19.1,40,19.1h13c9.2,0,16.6,7.5,16.5,16.7l-0.2,18.8
	c0,2.5-2.5,4.2-4.8,3.2l-5.1-2.1c-5.7-2.3-11.8-3.5-18-3.5H40V52.3z"/>
<linearGradient id="SVGID_1_" gradientUnits="userSpaceOnUse" x1="46.2985" y1="800.6228" x2="46.6286" y2="828.4621" gradientTransform="matrix(1 0 0 1 0 -782)">
	<stop  offset="0" style="stop-color:#7941E6"/>
	<stop  offset="1" style="stop-color:#FFFFFF;stop-opacity:0"/>
</linearGradient>
<path class="st4" d="M40,52.3c-9.1,0-16.5-7.4-16.5-16.6S30.9,19.1,40,19.1h13c9.2,0,16.6,7.5,16.5,16.7l-0.2,18.8
	c0,2.5-2.5,4.2-4.8,3.2l-5.1-2.1c-5.7-2.3-11.8-3.5-18-3.5H40V52.3z"/>
<path class="st5" d="M40,52.3c-9.1,0-16.5-7.4-16.5-16.6S30.9,19.1,40,19.1h13c9.2,0,16.6,7.5,16.5,16.7l-0.2,18.8
	c0,2.5-2.5,4.2-4.8,3.2l-5.1-2.1c-5.7-2.3-11.8-3.5-18-3.5H40V52.3z"/>
<path class="st2" d="M52.7,31.7c0,0.6-0.1,1.1-0.4,1.6c-0.3,0.5-0.6,1-1,1.5s-0.8,1-1.3,1.5s-0.9,1-1.3,1.5c-0.4,0.5-0.7,1-1,1.5
	s-0.4,1.1-0.4,1.6h-1.1c0-0.4,0-0.9,0.1-1.3c0.1-0.4,0.1-0.8,0.3-1.2c0.1-0.4,0.3-0.8,0.4-1.2c0.2-0.4,0.4-0.9,0.6-1.4
	c0.4-0.8,0.6-1.5,0.8-2.1c0.1-0.6,0.2-1.3,0.2-1.9c0-2.2-0.8-3.3-2.3-3.3c-0.2,0-0.4,0-0.7,0.1c-0.2,0-0.4,0.1-0.6,0.2
	c-0.2,0.1-0.3,0.2-0.4,0.3c-0.1,0.1-0.1,0.3-0.1,0.4s0,0.3,0.1,0.5s0.2,0.4,0.3,0.7c0.1,0.2,0.2,0.5,0.3,0.7
	c0.1,0.3,0.1,0.5,0.1,0.8c0,0.4-0.1,0.8-0.4,1.1c-0.3,0.3-0.6,0.5-1.1,0.5c-0.6,0-1.2-0.2-1.6-0.6c-0.4-0.4-0.6-0.9-0.6-1.5
	c0-0.5,0.1-1,0.3-1.5s0.5-1,0.9-1.5c0.4-0.4,1-0.8,1.7-1.1c0.7-0.3,1.6-0.4,2.6-0.4c0.7,0,1.4,0.1,2.1,0.3c0.7,0.2,1.2,0.4,1.7,0.8
	s0.9,0.8,1.1,1.4C52.5,30.3,52.7,31,52.7,31.7z M48.9,45c0,0.3-0.1,0.6-0.2,0.8c-0.1,0.3-0.3,0.5-0.5,0.7s-0.4,0.3-0.7,0.4
	c-0.3,0.1-0.5,0.2-0.8,0.2s-0.6-0.1-0.8-0.2c-0.2-0.1-0.5-0.3-0.7-0.4c-0.2-0.2-0.3-0.4-0.4-0.7c-0.1-0.3-0.2-0.5-0.2-0.8
	s0.1-0.6,0.2-0.8c0.1-0.3,0.3-0.5,0.4-0.7c0.2-0.2,0.4-0.4,0.7-0.5s0.5-0.2,0.8-0.2s0.6,0.1,0.8,0.2c0.3,0.1,0.5,0.3,0.7,0.5
	s0.4,0.4,0.5,0.7C48.9,44.4,48.9,44.7,48.9,45z"/>
</svg>
