<svg width="444" height="250" viewBox="0 0 444 250" fill="none" xmlns="http://www.w3.org/2000/svg">
    <path d="M393.534 110.545L438.945 195.603C439.694 197.007 439.551 198.498 438.864 199.658C441.972 199.88 444.369 196.52 442.785 193.553L397.374 108.495C395.79 105.528 391.665 105.65 390.12 108.356C391.465 108.431 392.784 109.141 393.534 110.545Z" fill="#E5A84F"/>
    <path d="M431.906 197.543L433.631 191.866C433.816 191.257 434.46 190.913 435.069 191.098C435.678 191.283 436.022 191.927 435.836 192.536L434.111 198.213L431.906 197.543Z" fill="#E5A84F"/>
    <path d="M425.319 195.541L426.543 191.512C426.728 190.903 427.372 190.559 427.981 190.744C428.59 190.929 428.934 191.573 428.749 192.182L427.524 196.211L425.319 195.541Z" fill="#E5A84F"/>
    <path d="M418.732 193.54L419.956 189.51C420.141 188.901 420.785 188.558 421.394 188.743C422.003 188.928 422.347 189.572 422.162 190.181L420.937 194.21L418.732 193.54Z" fill="#E5A84F"/>
    <path d="M412.144 191.538L413.369 187.509C413.554 186.899 414.198 186.556 414.807 186.741C415.416 186.926 415.76 187.57 415.574 188.179L414.35 192.208L412.144 191.538Z" fill="#E5A84F"/>
    <path d="M405.557 189.536L407.282 183.859C407.468 183.25 408.111 182.906 408.72 183.091C409.33 183.276 409.673 183.92 409.488 184.529L407.763 190.206L405.557 189.536Z" fill="#E5A84F"/>
    <path d="M398.97 187.534L400.194 183.505C400.379 182.896 401.023 182.552 401.632 182.737C402.241 182.922 402.585 183.566 402.4 184.175L401.176 188.204L398.97 187.534Z" fill="#E5A84F"/>
    <path d="M392.383 185.533L393.608 181.504C393.793 180.895 394.437 180.551 395.046 180.736C395.655 180.921 395.999 181.565 395.813 182.174L394.589 186.203L392.383 185.533Z" fill="#E5A84F"/>
    <path d="M385.796 183.53L387.02 179.501C387.206 178.891 387.849 178.548 388.458 178.733C389.068 178.918 389.411 179.562 389.226 180.171L388.002 184.2L385.796 183.53Z" fill="#E5A84F"/>
    <path d="M379.209 181.529L380.934 175.852C381.119 175.243 381.763 174.899 382.372 175.084C382.981 175.269 383.325 175.913 383.139 176.522L381.414 182.199L379.209 181.529Z" fill="#E5A84F"/>
    <path d="M372.254 167.151L377.931 168.876C378.54 169.061 378.883 169.704 378.698 170.314C378.513 170.923 377.869 171.267 377.26 171.081L371.583 169.356L372.254 167.151Z" fill="#E5A84F"/>
    <path d="M374.255 160.563L378.284 161.787C378.893 161.972 379.237 162.616 379.052 163.225C378.867 163.835 378.223 164.178 377.614 163.993L373.585 162.769L374.255 160.563Z" fill="#E5A84F"/>
    <path d="M376.257 153.977L380.286 155.201C380.895 155.386 381.239 156.03 381.054 156.639C380.869 157.248 380.225 157.592 379.616 157.407L375.587 156.183L376.257 153.977Z" fill="#E5A84F"/>
    <path d="M378.259 147.389L382.288 148.613C382.897 148.798 383.241 149.442 383.056 150.051C382.871 150.66 382.227 151.004 381.618 150.819L377.589 149.594L378.259 147.389Z" fill="#E5A84F"/>
    <path d="M380.26 140.802L385.937 142.527C386.546 142.712 386.89 143.356 386.705 143.965C386.52 144.574 385.876 144.918 385.267 144.733L379.59 143.008L380.26 140.802Z" fill="#E5A84F"/>
    <path d="M382.263 134.214L386.292 135.439C386.901 135.624 387.245 136.268 387.059 136.877C386.874 137.486 386.23 137.83 385.621 137.645L381.592 136.42L382.263 134.214Z" fill="#E5A84F"/>
    <path d="M384.264 127.627L388.293 128.852C388.902 129.037 389.246 129.68 389.061 130.29C388.876 130.899 388.232 131.242 387.623 131.057L383.594 129.833L384.264 127.627Z" fill="#E5A84F"/>
    <path d="M386.266 121.04L390.295 122.264C390.904 122.45 391.248 123.093 391.063 123.702C390.878 124.312 390.234 124.655 389.625 124.47L385.596 123.246L386.266 121.04Z" fill="#E5A84F"/>
    <path d="M388.267 114.453L393.944 116.179C394.553 116.364 394.897 117.007 394.712 117.617C394.526 118.226 393.883 118.569 393.274 118.384L387.597 116.659L388.267 114.453Z" fill="#E5A84F"/>
    <path d="M327.098 83.751L286.261 121.104C283.272 123.838 283.068 128.481 285.806 131.474L334.718 184.948C337.456 187.941 342.098 188.151 345.087 185.417L385.924 148.064C388.913 145.33 389.117 140.687 386.379 137.694L337.467 84.22C334.729 81.227 330.087 81.017 327.098 83.751Z" fill="#506366"/>
    <path d="M342.479 177.849L293.567 124.375C290.83 121.382 291.036 116.737 294.028 114L286.267 121.099C283.274 123.836 283.068 128.481 285.806 131.474L334.718 184.948C337.456 187.941 342.101 188.149 345.093 185.412L352.854 178.313C349.862 181.05 345.217 180.842 342.479 177.849Z" fill="#3A484A"/>
    <path d="M307.643 145.116C307.159 145.559 306.405 145.526 305.964 145.044L290.207 127.817C289.765 127.334 289.8 126.581 290.284 126.138L331.754 88.2059C332.238 87.7629 332.992 87.7949 333.433 88.2779L349.19 105.505C349.632 105.987 349.597 106.741 349.113 107.183L307.643 145.116Z" fill="#5BBCBD"/>
    <path d="M350.986 111.759L336.339 125.157C335.324 126.085 335.254 127.659 336.182 128.673L345.793 139.181C346.721 140.196 348.296 140.266 349.31 139.338L363.958 125.94C364.972 125.012 365.042 123.438 364.114 122.423L354.503 111.915C353.575 110.901 352.001 110.831 350.986 111.759Z" fill="#B8B8B8"/>
    <path d="M326.681 133.99L312.033 147.388C311.019 148.316 310.949 149.891 311.876 150.905L321.488 161.413C322.416 162.427 323.99 162.497 325.005 161.57L339.652 148.172C340.667 147.244 340.737 145.669 339.809 144.655L330.197 134.147C329.27 133.133 327.695 133.062 326.681 133.99Z" fill="#B8B8B8"/>
    <path d="M368.082 130.45L353.435 143.848C352.42 144.776 352.35 146.351 353.278 147.365L362.889 157.873C363.817 158.887 365.392 158.957 366.406 158.029L381.054 144.631C382.068 143.703 382.138 142.129 381.21 141.115L371.599 130.607C370.671 129.592 369.097 129.522 368.082 130.45Z" fill="#B8B8B8"/>
    <path d="M343.777 152.682L329.129 166.081C328.115 167.008 328.045 168.583 328.973 169.597L338.584 180.105C339.512 181.119 341.086 181.189 342.101 180.262L356.748 166.864C357.763 165.936 357.833 164.361 356.905 163.347L347.293 152.839C346.366 151.825 344.791 151.755 343.777 152.682Z" fill="#B8B8B8"/>
    <path d="M290.38 126.05C289.843 126.542 289.765 127.334 290.207 127.817L305.964 145.044C306.405 145.526 307.202 145.519 307.739 145.028L310.376 142.615L293.818 124.513C293.546 124.215 293.306 123.898 293.096 123.566L290.38 126.05Z" fill="#46926F"/>
    <path d="M312.033 147.388C311.019 148.316 310.949 149.891 311.876 150.905L321.488 161.413C322.416 162.427 323.99 162.498 325.005 161.57L326.378 160.313L313.407 146.132L312.033 147.388Z" fill="#999999"/>
    <path d="M330.503 164.824L329.129 166.081C328.115 167.008 328.045 168.583 328.973 169.597L338.584 180.105C339.512 181.119 341.086 181.189 342.101 180.262L343.592 178.897C343.183 178.604 342.798 178.265 342.445 177.879L330.503 164.824Z" fill="#999999"/>
    <path d="M327.359 151.762L325.743 149.995L323.976 151.611C323.466 152.078 322.703 151.939 322.07 151.247C321.47 150.591 321.35 149.764 321.86 149.298L323.627 147.682L322.027 145.933C321.627 145.496 321.738 144.592 322.393 143.992C323.086 143.359 323.941 143.38 324.341 143.817L325.94 145.566L327.689 143.966C328.126 143.566 329.03 143.676 329.629 144.332C330.262 145.024 330.242 145.88 329.805 146.28L328.056 147.879L329.672 149.646C330.139 150.156 330 150.918 329.308 151.552C328.652 152.151 327.825 152.272 327.359 151.762Z" fill="#EFEDEE"/>
    <path d="M346.946 165.073L344.555 164.967L344.66 162.599C344.687 162.007 344.096 161.388 343.159 161.346C342.272 161.307 341.555 161.868 341.528 162.46L341.423 164.827L339.056 164.722C338.464 164.695 337.845 165.285 337.803 166.222C337.763 167.11 338.324 167.827 338.916 167.853L341.283 167.959L341.177 170.351C341.146 171.041 341.816 171.541 342.703 171.58C343.64 171.622 344.278 171.181 344.309 170.49L344.415 168.098L346.807 168.205C347.498 168.236 347.997 167.566 348.036 166.678C348.078 165.741 347.637 165.104 346.946 165.073Z" fill="#EFEDEE"/>
    <path d="M346.712 126.566L351.448 122.234C351.885 121.834 352.789 121.944 353.389 122.6C354.022 123.292 354.001 124.147 353.564 124.547L348.828 128.879C348.318 129.345 347.555 129.207 346.922 128.515C346.322 127.859 346.202 127.032 346.712 126.566Z" fill="#EFEDEE"/>
    <path d="M362.118 143.409L366.854 139.077C367.291 138.677 368.195 138.787 368.795 139.443C369.428 140.135 369.407 140.99 368.97 141.39L364.234 145.722C363.724 146.188 362.961 146.05 362.328 145.357C361.729 144.702 361.608 143.875 362.118 143.409ZM365.5 147.106L370.236 142.774C370.673 142.374 371.577 142.485 372.176 143.14C372.81 143.832 372.789 144.688 372.352 145.087L367.616 149.419C367.106 149.886 366.344 149.747 365.71 149.055C365.111 148.399 364.99 147.572 365.5 147.106Z" fill="#EFEDEE"/>
    <path d="M225.584 163.077C225.584 140.792 240.304 121.946 260.544 115.733L218.768 6.4707L144.796 199.929H242.009C231.932 190.859 225.584 177.708 225.584 163.077Z" fill="#8053D7"/>
    <path d="M185.712 186.253H181.176V188.208H185.712V186.253Z" fill="#34495E"/>
    <path d="M76.401 213.307L75.0184 211.933L78.2272 208.724L79.6072 210.099L76.401 213.307Z" fill="#34495E"/>
    <path d="M76.401 213.307L75.0184 211.933L78.2272 208.724L79.6072 210.099L76.401 213.307Z" fill="#34495E"/>
    <path d="M102.07 102.609H100.121V107.147H102.07V102.609Z" fill="#34495E"/>
    <path d="M59.3192 165.831C57.7148 165.831 56.2204 166.544 55.1771 167.934V161.226H52.3713V179.053H55.1765V177.3C56.1715 178.569 57.6659 179.374 59.3187 179.374C62.6333 179.374 65.07 176.863 65.07 172.592C65.0711 168.418 62.6589 165.831 59.3192 165.831ZM58.5157 176.89C57.1798 176.89 55.82 176.142 55.1765 175.192V170.042C55.8189 169.091 57.1798 168.318 58.5157 168.318C60.7391 168.318 62.159 170.113 62.159 172.595C62.159 175.098 60.7391 176.89 58.5157 176.89Z" fill="#E0E0E0"/>
    <g opacity="0.5">
        <path opacity="0.5" d="M425.724 113.529C425.724 200.595 297.476 250 210.396 250C123.316 250 52.7244 179.419 52.7244 92.353C52.7244 5.2869 86.2519 0 173.331 0C260.411 0 425.724 26.4633 425.724 113.529Z" fill="#EEEEEE" fill-opacity="0.4"/>
        <path opacity="0.5" d="M425.724 113.529C425.724 200.595 297.476 250 210.396 250C123.316 250 52.7244 179.419 52.7244 92.353C52.7244 5.2869 86.2519 0 173.331 0C260.411 0 425.724 26.4633 425.724 113.529Z" fill="url(#paint0_linear)"/>
    </g>
    <path d="M442.814 193.46L397.467 108.522C395.728 105.263 390.917 105.735 389.843 109.269L370.047 174.412C369.381 176.603 370.618 178.919 372.809 179.584L437.951 199.38C441.486 200.454 444.554 196.719 442.814 193.46ZM388.176 168.056L396.703 139.998L416.235 176.583L388.176 168.056Z" fill="#FFDC54"/>
    <path d="M275.113 113.551C270.04 113.551 265.156 114.333 260.548 115.751L292.734 199.93H242.024C250.796 207.814 262.391 212.614 275.113 212.614C302.472 212.614 324.649 190.44 324.649 163.078C324.649 135.719 302.47 113.551 275.113 113.551Z" fill="#FFDC54"/>
    <path d="M85.6638 204.029L84.2917 202.656L90.3564 196.588L91.7283 197.964L85.6638 204.029ZM97.7943 191.914L96.4144 190.529L100.405 186.539L101.093 186.25H104.019V188.206H101.501L97.7943 191.914ZM172.603 188.205H164.034V186.25H172.603V188.205ZM155.458 188.205H146.889V186.25H155.458V188.205ZM138.31 188.205H129.743V186.25H138.31V188.205ZM121.172 188.205H112.596V186.25H121.172V188.205Z" fill="#E0E0E0"/>
    <path d="M85.6638 204.029L84.2917 202.656L90.3579 196.587L91.7299 197.963L85.6638 204.029ZM97.7943 191.913L96.4144 190.524L100.121 186.82V184.302H102.07V187.231L101.786 187.91L97.7943 191.913ZM102.071 175.735H100.122V167.148H102.071V175.735ZM102.071 158.577H100.122V150.011H102.071V158.577ZM102.071 141.442H100.122V132.864H102.071V141.442ZM102.071 124.287H100.122V115.719H102.071V124.287Z" fill="#E0E0E0"/>
    <path d="M160.332 214.425H75.7143C74.7076 214.425 73.8966 213.614 73.8966 212.612V127.988C73.8966 126.983 74.7082 126.173 75.7143 126.173H160.332C161.339 126.173 162.15 126.983 162.15 127.988V212.612C162.151 213.617 161.34 214.425 160.332 214.425ZM77.5229 210.804H158.513V129.81H77.5229V210.804Z" fill="#E0E0E0"/>
    <path d="M160.332 129.81H75.7136C74.9749 129.81 74.3123 129.358 74.0336 128.693C73.7534 128.002 73.9065 127.222 74.4266 126.707L99.8143 101.332C100.149 100.994 100.616 100.8 101.093 100.8H185.716C186.448 100.8 187.116 101.23 187.396 101.915C187.676 102.602 187.523 103.38 187.003 103.89L161.618 129.281C161.274 129.612 160.816 129.81 160.332 129.81ZM80.0881 126.172H159.576L181.334 104.417H101.847L80.0881 126.172Z" fill="#E0E0E0"/>
    <path d="M160.332 214.425C160.096 214.425 159.865 214.383 159.64 214.297C158.962 214.013 158.514 213.346 158.514 212.612V127.988C158.514 127.505 158.71 127.055 159.045 126.704L184.431 101.329C184.951 100.806 185.731 100.64 186.41 100.924C187.088 101.207 187.536 101.875 187.536 102.612V187.228C187.536 187.712 187.339 188.17 187.004 188.519L161.619 213.892C161.269 214.255 160.809 214.425 160.332 214.425ZM162.151 128.746V208.233L183.899 186.475V106.984L162.151 128.746Z" fill="#E0E0E0"/>
    <path d="M118.354 222.396C116.3 222.396 114.429 223.047 112.931 224.483L114.101 226.43C115.204 225.31 116.483 224.773 117.927 224.773C119.689 224.773 120.949 225.694 120.949 227.178V229.113C119.988 228.006 118.518 227.446 116.752 227.446C114.636 227.446 112.289 228.685 112.289 231.672C112.289 234.517 114.67 235.95 116.752 235.95C118.461 235.95 119.988 235.339 120.949 234.219V235.631H123.757V227.056C123.755 223.605 121.243 222.396 118.354 222.396ZM120.949 232.695C120.281 233.57 119.08 234.032 117.878 234.032C116.3 234.032 115.098 233.112 115.098 231.698C115.098 230.316 116.3 229.37 117.878 229.37C119.082 229.37 120.281 229.83 120.949 230.719V232.695Z" fill="#E0E0E0"/>
    <path d="M187.697 211.947C185.366 211.947 183.788 210.152 183.788 207.645C183.788 205.123 185.365 203.371 187.697 203.371C188.949 203.371 189.944 203.84 190.661 204.853L192.505 203.18C191.594 201.94 190.103 200.872 187.563 200.872C183.661 200.872 180.909 203.738 180.909 207.645C180.909 211.538 183.661 214.426 187.563 214.426C190.102 214.426 191.594 213.336 192.505 212.138L190.661 210.394C189.943 211.415 188.949 211.947 187.697 211.947Z" fill="#E0E0E0"/>
    <path d="M128.726 37.3664L126.891 35.5305L107.319 55.091L109.154 56.927L128.726 37.3664Z" fill="#E0E0E0"/>
    <path d="M124.745 57.2971C122.345 57.2971 120.396 55.3501 120.396 52.9491C120.396 50.5491 122.344 48.6021 124.745 48.6021C127.142 48.6021 129.096 50.5491 129.096 52.9491C129.096 55.3501 127.142 57.2971 124.745 57.2971ZM124.745 51.1831C123.776 51.1831 122.985 51.9741 122.985 52.9491C122.985 53.9251 123.776 54.715 124.745 54.715C125.719 54.715 126.507 53.9251 126.507 52.9491C126.507 51.9731 125.719 51.1831 124.745 51.1831Z" fill="#E0E0E0"/>
    <path d="M111.295 43.8571C108.894 43.8571 106.941 41.8965 106.941 39.4955C106.941 37.0928 108.895 35.1465 111.295 35.1465C113.696 35.1465 115.65 37.0934 115.65 39.4955C115.651 41.8954 113.696 43.8571 111.295 43.8571ZM111.295 37.7432C110.327 37.7432 109.535 38.534 109.535 39.496C109.535 40.4692 110.326 41.2605 111.295 41.2605C112.269 41.2605 113.053 40.4692 113.053 39.496C113.053 38.5334 112.269 37.7432 111.295 37.7432Z" fill="#E0E0E0"/>
    <path d="M268.136 34.7761H250.172V37.3564H268.136V34.7761Z" fill="#E0E0E0"/>
    <path d="M171.132 78.249H153.168V80.847H171.132V78.249Z" fill="#E0E0E0"/>
    <path d="M163.444 70.572H160.856V88.547H163.444V70.572Z" fill="#E0E0E0"/>
    <path d="M228.963 242.052H211V244.65H228.963V242.052Z" fill="#E0E0E0"/>
    <path d="M228.963 234.646H211V237.245H228.963V234.646Z" fill="#E0E0E0"/>
    <path d="M308.004 76.49H280.667V79.077H308.004V76.49Z" fill="#E0E0E0"/>
    <path d="M294.335 83.886H280.667V86.484H294.335V83.886Z" fill="#E0E0E0"/>
    <path d="M308.004 69.092H280.667V71.673H308.004V69.092Z" fill="#E0E0E0"/>
    <path d="M271.735 74.249H269.139V63.641C269.139 62.346 269.644 61.141 270.558 60.218C271.469 59.317 272.681 58.812 273.976 58.812V61.409C273.375 61.409 272.815 61.642 272.395 62.054C271.971 62.488 271.735 63.048 271.735 63.64V74.249Z" fill="#E0E0E0"/>
    <path d="M266.905 79.077V76.489C267.496 76.489 268.057 76.26 268.491 75.835C268.912 75.41 269.138 74.846 269.138 74.249H271.735C271.735 75.548 271.228 76.751 270.313 77.676C269.398 78.573 268.186 79.077 266.905 79.077Z" fill="#E0E0E0"/>
    <path d="M273.976 96.768C272.683 96.768 271.471 96.262 270.556 95.339C269.641 94.439 269.137 93.217 269.137 91.938V81.332H271.734V91.938C271.734 92.534 271.968 93.09 272.388 93.507C272.814 93.935 273.373 94.171 273.974 94.171L273.976 96.768Z" fill="#E0E0E0"/>
    <path d="M271.735 81.331H269.138C269.138 80.717 268.912 80.155 268.488 79.745C268.058 79.313 267.496 79.077 266.905 79.077V76.49C268.19 76.49 269.4 76.984 270.313 77.907C271.23 78.809 271.735 80.034 271.735 81.331Z" fill="#E0E0E0"/>
    <path d="M319.52 74.249H316.93V63.641C316.93 63.049 316.694 62.489 316.272 62.055C315.852 61.643 315.292 61.41 314.691 61.41V58.813C315.987 58.813 317.199 59.318 318.11 60.219C319.023 61.142 319.52 62.346 319.52 63.642V74.249Z" fill="#E0E0E0"/>
    <path d="M321.761 79.077C320.482 79.077 319.27 78.574 318.352 77.677C317.434 76.745 316.93 75.545 316.93 74.25H319.521C319.521 74.842 319.755 75.411 320.179 75.841C320.609 76.263 321.17 76.491 321.761 76.491V79.078V79.077Z" fill="#E0E0E0"/>
    <path d="M314.691 96.768V94.171C315.292 94.171 315.852 93.935 316.272 93.512C316.695 93.09 316.93 92.534 316.93 91.938V81.332H319.52V91.938C319.52 93.217 319.021 94.439 318.107 95.339C317.194 96.262 315.983 96.768 314.691 96.768Z" fill="#E0E0E0"/>
    <path d="M319.521 81.331H316.93C316.93 80.039 317.435 78.814 318.349 77.912C319.268 76.985 320.479 76.49 321.762 76.49V79.077C321.168 79.077 320.608 79.313 320.173 79.745C319.753 80.155 319.521 80.717 319.521 81.331Z" fill="#E0E0E0"/>
    <path d="M169.842 19.2661L168.932 18.3695C166.694 16.1216 162.802 16.1216 160.563 18.3695L159.65 19.2661L157.819 17.4282L158.73 16.529C161.939 13.3196 167.547 13.3196 170.759 16.5338L171.67 17.433L169.842 19.2661Z" fill="#E0E0E0"/>
    <path d="M176.768 22.6745C174.496 22.6745 172.351 21.7944 170.744 20.1894L169.842 19.2662L171.669 17.4331L172.578 18.3553C174.814 20.5797 178.713 20.5797 180.947 18.3553L181.857 17.4331L183.697 19.262L182.785 20.1852C181.179 21.7938 179.043 22.6745 176.768 22.6745Z" fill="#E0E0E0"/>
    <path d="M7.78287 130.609L8.78227 132.436C8.95237 132.747 9.20827 133.003 9.51947 133.173L11.3467 134.172C12.633 134.876 12.633 136.723 11.3467 137.427L9.51947 138.426C9.20827 138.596 8.95237 138.852 8.78227 139.163L7.78287 140.99C7.07937 142.277 5.23207 142.277 4.52855 140.99L3.52919 139.163C3.35903 138.852 3.10318 138.596 2.79195 138.426L0.964725 137.427C-0.321575 136.723 -0.321575 134.876 0.964725 134.172L2.79195 133.173C3.10318 133.003 3.35903 132.747 3.52919 132.436L4.52855 130.609C5.23207 129.322 7.07937 129.322 7.78287 130.609Z" fill="#F9EF90"/>
    <path d="M23.6331 114.592L22.7924 117.463C22.6492 117.952 22.6492 118.472 22.7924 118.96L23.6331 121.831C24.225 123.852 22.3488 125.728 20.328 125.136L17.4576 124.295C16.9688 124.152 16.4489 124.152 15.9601 124.295L13.0896 125.136C11.0689 125.728 9.19266 123.852 9.78456 121.831L10.6253 118.96C10.7685 118.472 10.7685 117.952 10.6253 117.463L9.78456 114.592C9.19266 112.572 11.0689 110.695 13.0896 111.287L15.9601 112.128C16.4489 112.271 16.9688 112.271 17.4576 112.128L20.328 111.287C22.3488 110.695 24.225 112.572 23.6331 114.592Z" fill="#F9EF90"/>
    <path d="M28.7596 195.058L35.2918 197.697L30.5626 209.406L24.0304 206.768L28.7596 195.058Z" fill="#F8E86A"/>
    <path d="M42.9203 216.405L43.1617 215.041C43.631 212.389 42.1806 209.771 39.6837 208.763L17.9146 199.971C15.4177 198.962 12.5559 199.839 11.052 202.072L10.2783 203.222C9.47772 204.411 9.97532 206.036 11.3047 206.573L39.8546 218.103C41.184 218.64 42.6705 217.817 42.9203 216.405Z" fill="#FAB659"/>
    <path d="M15.367 205.277L16.1406 204.128C17.6443 201.894 20.5063 201.018 23.0032 202.026L17.9145 199.971C15.4176 198.962 12.5558 199.839 11.0519 202.073L10.2783 203.222C9.47772 204.411 9.97532 206.036 11.3046 206.573L16.3933 208.628C15.064 208.091 14.5664 206.467 15.367 205.277Z" fill="#F59E18"/>
    <path d="M31.3691 198.004C20.9499 193.796 12.7929 185.782 8.40088 175.439L13.4278 173.304C17.2496 182.304 24.3477 189.278 33.4143 192.94C34.0386 193.192 34.6628 193.424 35.2698 193.631C47.8846 197.957 61.8591 195.068 71.7443 186.094C75.8438 182.374 78.9797 177.869 81.0656 172.705C84.2874 164.727 84.5948 155.835 81.9315 147.666C81.6216 146.715 81.2698 145.767 80.8858 144.849L85.9239 142.741C86.3651 143.795 86.7689 144.883 87.1244 145.974C90.1855 155.363 89.8322 165.582 86.1297 174.75C83.7331 180.684 80.1281 185.861 75.4148 190.138C64.0562 200.45 47.9961 203.769 33.5026 198.799C32.8055 198.561 32.0861 198.293 31.3691 198.004Z" fill="#FAB659"/>
    <path d="M85.9247 142.741L80.8866 144.85C81.2707 145.768 81.6224 146.715 81.9323 147.666C82.2969 148.785 82.6057 149.916 82.8592 151.057L87.9604 148.891C87.7179 147.912 87.4396 146.938 87.1252 145.974C86.7697 144.883 86.366 143.795 85.9247 142.741Z" fill="#F59E18"/>
    <path d="M13.4284 173.304L8.40137 175.439C9.28177 177.512 10.313 179.491 11.4838 181.365L16.5842 179.199C15.3682 177.353 14.311 175.383 13.4284 173.304Z" fill="#F59E18"/>
    <path d="M89.4553 142.217L88.6329 140.28C88.2705 139.427 87.285 139.029 86.4315 139.391L5.86668 173.601C5.01328 173.963 4.61523 174.949 4.97758 175.802L5.79998 177.739C6.16238 178.593 7.14788 178.991 8.00138 178.628L88.5662 144.418C89.4197 144.056 89.8177 143.07 89.4553 142.217Z" fill="#F8E86A"/>
    <path d="M33.1267 132.196C26.9737 135.405 21.89 140.736 19.0881 147.673C12.8346 163.157 20.317 180.778 35.8006 187.032C36.3113 187.238 36.8251 187.43 37.341 187.606L46.0938 183.889L51.3006 170.997L42.6585 162.038L50.2218 143.311L33.1267 132.196Z" fill="#B3E8F0"/>
    <path d="M67.4636 181.375C70.7298 178.411 73.3958 174.682 75.1579 170.319C77.9303 163.454 78.0019 156.168 75.8736 149.64L50.2221 143.311L42.6588 162.038L51.3008 170.997L67.4636 181.375Z" fill="#B3E8F0"/>
    <path d="M37.3412 187.606L37.5748 187.507C24.3721 180.223 18.3882 164.062 24.1769 149.729C26.8183 143.189 31.488 138.077 37.1693 134.824L33.1269 132.196C28.1275 134.803 23.8339 138.812 20.8969 143.944C15.8588 152.748 15.5946 163.76 20.2146 172.786C23.5108 179.225 29.0936 184.323 35.8006 187.032C36.1839 187.187 37.2123 187.562 37.3412 187.606Z" fill="#00C8DE"/>
    <path d="M67.4634 181.375C59.5242 188.582 48.0349 191.273 37.3411 187.606L37.3268 185.543C37.3241 185.165 37.3972 184.798 37.5327 184.463C37.8681 183.632 38.5895 182.984 39.5027 182.765C40.3958 182.553 41.1297 181.92 41.4735 181.068L41.8349 180.173C42.1046 179.506 42.1103 178.76 41.8499 178.088L41.0683 176.069C40.5885 174.83 41.0337 173.423 42.1392 172.686L42.7257 172.294C44.2963 171.246 44.4232 168.984 42.9814 167.767L39.5237 164.849C39.2063 164.58 38.9993 164.207 38.9407 163.796L38.1062 157.989C37.9255 156.724 36.4597 156.109 35.4294 156.867L34.3469 157.663C33.8684 158.015 33.2492 158.087 32.7119 157.87C32.6232 157.834 32.536 157.79 32.4537 157.739C31.6106 157.217 31.3955 156.087 31.9855 155.291L35.5895 150.444C35.8758 150.058 36.3144 149.812 36.7933 149.768L40.2774 149.448C40.9189 149.39 41.4586 148.974 41.6919 148.397C41.7376 148.284 41.7716 148.164 41.7917 148.041C42.0109 146.728 41.4133 145.413 40.2813 144.714L38.513 143.622C37.9548 143.278 37.4653 142.83 37.0724 142.304L33.9128 138.073C33.1318 137.026 32.7706 135.725 32.9021 134.426L33.1267 132.195L33.1272 132.194C40.7046 128.242 49.8999 127.509 58.4462 130.961C67.0641 134.441 73.2031 141.444 75.8732 149.639L73.9156 151.205C73.5325 151.513 73.0849 151.714 72.6171 151.801C72.1487 151.889 71.6596 151.864 71.19 151.717C70.2334 151.416 69.1898 151.623 68.4203 152.264L66.5916 153.787C65.6985 154.531 64.4513 154.681 63.4062 154.169L62.7025 153.825C62.5855 153.767 62.4679 153.716 62.3475 153.667C60.9308 153.095 59.3334 153.138 57.943 153.8C57.0651 154.219 56.3153 154.864 55.7696 155.669L54.5119 157.526C54.0682 158.18 53.4892 158.731 52.8127 159.138L49.1525 161.351C48.3005 161.867 48.0348 162.98 48.5636 163.825L50.0211 166.152C50.3044 166.603 50.7737 166.904 51.303 166.974L54.4905 167.388C54.7836 167.426 55.0667 167.502 55.3344 167.61C56.1808 167.952 56.8684 168.62 57.2277 169.485C57.5818 170.339 58.2636 171.014 59.1197 171.36L60.7467 172.017C61.2697 172.228 61.7324 172.564 62.094 172.995L63.388 174.533C63.5121 174.681 63.6237 174.839 63.7205 175.006L67.4634 181.375Z" fill="#5BBCBD"/>
    <path d="M37.3401 187.375L37.3417 187.606C37.6392 187.708 37.9375 187.803 38.2361 187.895C38.2898 187.912 38.3433 187.929 38.3969 187.945C38.0392 187.762 37.6878 187.571 37.3401 187.375Z" fill="#00AD8D"/>
    <path d="M32.9021 134.426C32.8001 135.434 32.9961 136.443 33.4536 137.334C34.9457 136.156 36.5406 135.124 38.2161 134.25C45.0333 130.694 53.1594 129.746 60.9446 132.104C60.7894 132.025 60.6324 131.947 60.4752 131.87C59.8101 131.543 59.1336 131.238 58.4463 130.961C55.2415 129.666 51.9454 128.96 48.6775 128.792C43.3198 128.516 37.8799 129.707 33.1268 132.195L32.9021 134.426Z" fill="#00AD8D"/>
    <defs>
        <linearGradient id="paint0_linear" x1="210.396" y1="-65.2941" x2="210.396" y2="250" gradientUnits="userSpaceOnUse">
            <stop stop-color="white" stop-opacity="0.37"/>
            <stop offset="1" stop-color="white" stop-opacity="0"/>
        </linearGradient>
    </defs>
</svg>
