<svg width="114" height="114" viewBox="0 0 114 114" fill="none" xmlns="http://www.w3.org/2000/svg">
<circle cx="57" cy="57" r="56" fill="#FFDC54"/>
<circle cx="57" cy="57" r="56" stroke="#F27A54" stroke-width="2"/>
<circle cx="57" cy="57" r="56" stroke="url(#paint0_linear)" stroke-width="2"/>
<path d="M32.5446 31.9338C32.3337 32.8361 32.2199 33.7755 32.2199 34.7406C32.2199 41.5839 37.7679 47.1309 44.6098 47.1309C51.4526 47.1309 57.0002 41.5843 57.0002 34.7406H40.3971C37.4148 34.7406 34.6807 33.6883 32.5446 31.9338Z" fill="#E6E5E5"/>
<path d="M81.4579 31.9338C81.6652 32.8361 81.7791 33.7755 81.7791 34.7406C81.7791 41.5839 76.2338 47.1309 69.3896 47.1309C62.5453 47.1309 56.9996 41.5839 56.9996 34.7406H73.6017C76.5819 34.7406 79.3182 33.6883 81.4579 31.9338Z" fill="#E6E5E5"/>
<path d="M73.6041 34.7402H40.3972V50.9408H73.6041V34.7402Z" fill="#E6E5E5"/>
<path d="M42.3866 50.9393C38.7833 54.6244 36.56 59.6635 36.56 65.2241C36.56 76.5134 45.7109 85.664 56.9999 85.664C68.2892 85.664 77.4398 76.5134 77.4398 65.2241C77.4398 59.6634 75.217 54.6244 71.6149 50.9393H42.3866Z" fill="#3F4A5A"/>
<path d="M56.9999 85.6642C63.9215 85.6642 69.5325 80.0531 69.5325 73.1315C69.5325 66.2099 63.9215 60.5988 56.9999 60.5988C50.0783 60.5988 44.4672 66.2099 44.4672 73.1315C44.4672 80.0531 50.0783 85.6642 56.9999 85.6642Z" fill="white"/>
<path d="M56.9998 67.0056L51.4003 61.406L56.9998 50.9413L62.5994 61.406L56.9998 67.0056Z" fill="#FAD97F"/>
<path d="M90.0406 28.6172H88.0796V40.1603H90.0406V28.6172Z" fill="#3F4A5A"/>
<path d="M70.9997 28.6172H42.9999V34.7405L56.9998 38.7599L70.9997 34.7405V28.6172Z" fill="#333C49"/>
<path d="M56.9998 26.281H22V28.6173H56.9998V26.281Z" fill="#3F4A5A"/>
<path d="M91.9996 26.281H56.9998V28.6173H91.9996V26.281Z" fill="#262E37"/>
<path d="M65.6093 48.7704H62.3897C62.3897 45.7988 59.9709 43.3808 56.9994 43.3808C54.0272 43.3808 51.609 45.7987 51.609 48.7704H48.3894C48.3894 44.0235 52.2516 40.1604 56.9989 40.1604C61.7463 40.1604 65.6093 44.0235 65.6093 48.7704Z" fill="#333C49"/>
<path d="M42.9999 64.9393C50.7318 64.9393 56.9998 58.6714 56.9998 50.9394C56.9998 43.2075 50.7318 36.9395 42.9999 36.9395C35.2679 36.9395 28.9999 43.2075 28.9999 50.9394C28.9999 58.6714 35.2679 64.9393 42.9999 64.9393Z" fill="#333C49"/>
<path d="M42.9998 61.7194C48.9534 61.7194 53.7798 56.893 53.7798 50.9394C53.7798 44.9858 48.9534 40.1595 42.9998 40.1595C37.0463 40.1595 32.2199 44.9858 32.2199 50.9394C32.2199 56.893 37.0463 61.7194 42.9998 61.7194Z" fill="white"/>
<path d="M70.9997 64.9393C78.7317 64.9393 84.9996 58.6714 84.9996 50.9394C84.9996 43.2075 78.7317 36.9395 70.9997 36.9395C63.2678 36.9395 56.9998 43.2075 56.9998 50.9394C56.9998 58.6714 63.2678 64.9393 70.9997 64.9393Z" fill="#333C49"/>
<path d="M70.9997 61.7189C76.9531 61.7189 81.7792 56.8928 81.7792 50.9394C81.7792 44.986 76.9531 40.1599 70.9997 40.1599C65.0463 40.1599 60.2202 44.986 60.2202 50.9394C60.2202 56.8928 65.0463 61.7189 70.9997 61.7189Z" fill="white"/>
<path d="M50.0037 50.9394C50.0037 54.8078 46.8677 57.9438 42.9988 57.9438C39.1408 57.9438 36.0038 54.8078 36.0038 50.9394C36.0038 47.0804 39.1402 43.9439 42.9988 43.9439C46.8677 43.9439 50.0037 47.0804 50.0037 50.9394Z" fill="#FAD97F"/>
<path d="M46.2365 50.9394C46.2365 52.7265 44.7868 54.1774 42.9988 54.1774C41.2122 54.1774 39.7608 52.7265 39.7608 50.9394C39.7608 49.1524 41.2123 47.7014 42.9988 47.7014C44.7868 47.7014 46.2365 49.1525 46.2365 50.9394Z" fill="#3F4A5A"/>
<path d="M42.348 48.8823C42.348 49.6586 41.7184 50.2886 40.9408 50.2886C40.1731 50.2886 39.5439 49.6586 39.5439 48.8823C39.5439 48.1133 40.173 47.4841 40.9408 47.4841C41.7186 47.4846 42.348 48.1133 42.348 48.8823Z" fill="white"/>
<path d="M78.0042 50.9394C78.0042 54.8078 74.8687 57.9438 70.9997 57.9438C67.1407 57.9438 64.0043 54.8078 64.0043 50.9394C64.0043 47.0804 67.1407 43.9439 70.9997 43.9439C74.8682 43.9439 78.0042 47.0804 78.0042 50.9394Z" fill="#FAD97F"/>
<path d="M74.2378 50.9394C74.2378 52.7265 72.7886 54.1774 70.9998 54.1774C69.2128 54.1774 67.7618 52.7265 67.7618 50.9394C67.7618 49.1524 69.2128 47.7014 70.9998 47.7014C72.7886 47.7014 74.2378 49.1525 74.2378 50.9394Z" fill="#3F4A5A"/>
<path d="M70.3498 48.8823C70.3498 49.6586 69.7194 50.2886 68.943 50.2886C68.174 50.2886 67.5448 49.6586 67.5448 48.8823C67.5448 48.1133 68.1738 47.4841 68.943 47.4841C69.7189 47.4846 70.3498 48.1133 70.3498 48.8823Z" fill="white"/>
<path d="M86.6661 81.5631H27.329V83.6125H86.6661V81.5631Z" fill="#FAD97F"/>
<path d="M86.6661 83.6134H27.329V85.6659H86.6661V83.6134Z" fill="#F8C963"/>
<path d="M86.6661 85.6637H27.329V87.7163H86.6661V85.6637Z" fill="#D7753E"/>
<path d="M27.3304 87.7189L23.774 85.6642V83.6134L27.3291 81.5627L27.3304 87.7189Z" fill="#EFEFEF"/>
<path d="M27.3304 87.7189L27.3291 85.6642L23.774 84.9768V85.6642L27.3304 87.7189Z" fill="#CCCBCA"/>
<path d="M23.7739 85.6642L22 84.6363L23.7739 83.6134V85.6642Z" fill="#3F4A5A"/>
<path d="M88.4435 85.6637H86.6659V87.7163H88.4435V85.6637Z" fill="#CCCBCA"/>
<path d="M88.4435 81.5631H86.6659V85.6637H88.4435V81.5631Z" fill="#EFEFEF"/>
<path d="M88.9231 87.715H88.4449V85.6642L88.9231 85.6625C89.7071 85.6625 90.4974 85.3635 91.099 84.766C91.4314 84.4223 91.6775 84.0299 91.8216 83.6099C91.939 83.9432 92 84.2856 92 84.6364C92 85.4276 91.6974 86.2103 91.0994 86.8145C90.4974 87.416 89.7072 87.7131 88.9231 87.715Z" fill="#262E37"/>
<path d="M88.9233 85.6624L88.4451 85.6643V81.5592H88.9233C89.7072 81.5592 90.4976 81.8617 91.0992 82.4615C91.4315 82.7948 91.6731 83.1895 91.8217 83.6099C91.6782 84.0299 91.4319 84.4223 91.0992 84.766C90.4976 85.3635 89.7074 85.6624 88.9233 85.6624Z" fill="#3F4A5A"/>
<path d="M64.1772 86.4585C64.1772 87.1516 63.6091 87.7185 62.9158 87.7185C62.2231 87.7185 61.6562 87.1516 61.6562 86.4585V81.5616C61.6562 80.8689 62.2231 80.3007 62.9158 80.3007C63.609 80.3007 64.1772 80.8688 64.1772 81.5616V86.4585Z" fill="#3F4A5A"/>
<path d="M66.6953 86.4585C66.6953 87.1516 66.129 87.7185 65.4358 87.7185C64.7426 87.7185 64.1771 87.1516 64.1771 86.4585V81.5616C64.1771 80.8689 64.7426 80.3007 65.4358 80.3007C66.1289 80.3007 66.6953 80.8688 66.6953 81.5616V86.4585Z" fill="#3F4A5A"/>
<path d="M69.2164 86.4585C69.2164 87.1516 68.6502 87.7185 67.9569 87.7185C67.2637 87.7185 66.6955 87.1516 66.6955 86.4585V81.5616C66.6955 80.8689 67.2636 80.3007 67.9569 80.3007C68.65 80.3007 69.2164 80.8688 69.2164 81.5616V86.4585Z" fill="#3F4A5A"/>
<path d="M47.3041 86.4585C47.3041 87.1516 46.7361 87.7185 46.0428 87.7185C45.35 87.7185 44.7832 87.1516 44.7832 86.4585V81.5616C44.7832 80.8689 45.35 80.3007 46.0428 80.3007C46.7359 80.3007 47.3041 80.8688 47.3041 81.5616V86.4585Z" fill="#3F4A5A"/>
<path d="M49.8232 86.4585C49.8232 87.1516 49.2569 87.7185 48.5632 87.7185C47.8705 87.7185 47.3042 87.1516 47.3042 86.4585V81.5616C47.3042 80.8689 47.8705 80.3007 48.5632 80.3007C49.2569 80.3007 49.8232 80.8688 49.8232 81.5616V86.4585Z" fill="#3F4A5A"/>
<path d="M52.3432 86.4585C52.3432 87.1516 51.7759 87.7185 51.0836 87.7185C50.3904 87.7185 49.8226 87.1516 49.8226 86.4585V81.5616C49.8226 80.8689 50.3899 80.3007 51.0836 80.3007C51.7759 80.3007 52.3432 80.8688 52.3432 81.5616V86.4585Z" fill="#3F4A5A"/>
<defs>
<linearGradient id="paint0_linear" x1="57" y1="0" x2="57" y2="114" gradientUnits="userSpaceOnUse">
<stop stop-color="#E5A84F"/>
<stop offset="1" stop-color="white" stop-opacity="0"/>
</linearGradient>
</defs>
</svg>
