<svg width="181" height="180" viewBox="0 0 181 180" fill="none" xmlns="http://www.w3.org/2000/svg">
    <g clip-path="url(#clip0)">
        <path d="M27.6871 25.5178C27.1452 27.8357 26.853 30.2488 26.853 32.728C26.853 50.3069 41.1047 64.5561 58.6801 64.5561C76.2577 64.5561 90.5083 50.308 90.5083 32.728H47.8586C40.1976 32.728 33.1743 30.0248 27.6871 25.5178Z" fill="#E6E5E5"/>
        <path d="M153.336 25.5178C153.868 27.8357 154.161 30.2488 154.161 32.728C154.161 50.3069 139.916 64.5561 122.334 64.5561C104.753 64.5561 90.5073 50.3069 90.5073 32.728H133.155C140.81 32.728 147.839 30.0248 153.336 25.5178Z" fill="#E6E5E5"/>
        <path d="M133.16 32.7268H47.8589V74.3429H133.16V32.7268Z" fill="#E6E5E5"/>
        <path d="M52.9689 74.3391C43.7127 83.8053 38.0015 96.7499 38.0015 111.034C38.0015 140.034 61.5083 163.54 90.5072 163.54C119.507 163.54 143.013 140.034 143.013 111.034C143.013 96.7495 137.303 83.8053 128.05 74.3391H52.9689Z" fill="#3F4A5A"/>
        <path d="M90.5072 163.54C108.287 163.54 122.701 149.126 122.701 131.346C122.701 113.566 108.287 99.1526 90.5072 99.1526C72.7271 99.1526 58.3135 113.566 58.3135 131.346C58.3135 149.126 72.7271 163.54 90.5072 163.54Z" fill="white"/>
        <path d="M90.5073 115.61L76.1232 101.226L90.5073 74.344L104.891 101.226L90.5073 115.61Z" fill="#FAD97F"/>
        <path d="M175.382 16.9985H170.345V46.6503H175.382V16.9985Z" fill="#3F4A5A"/>
        <path d="M126.47 16.9985H54.5443V32.7281L90.5072 43.053L126.47 32.7281V16.9985Z" fill="#333C49"/>
        <path d="M90.5072 10.9971H0.600098V16.9984H90.5072V10.9971Z" fill="#3F4A5A"/>
        <path d="M180.414 10.9971H90.5072V16.9984H180.414V10.9971Z" fill="#262E37"/>
        <path d="M112.623 68.7673H104.353C104.353 61.134 98.1395 54.9227 90.5062 54.9227C82.8715 54.9227 76.6594 61.1336 76.6594 68.7673H68.389C68.389 56.5736 78.3101 46.6501 90.5051 46.6501C102.7 46.6501 112.623 56.5736 112.623 68.7673Z" fill="#333C49"/>
        <path d="M54.5444 110.302C74.4061 110.302 90.5072 94.2008 90.5072 74.3391C90.5072 54.4773 74.4061 38.3762 54.5444 38.3762C34.6827 38.3762 18.5815 54.4773 18.5815 74.3391C18.5815 94.2008 34.6827 110.302 54.5444 110.302Z" fill="#333C49"/>
        <path d="M54.5444 102.03C69.838 102.03 82.2358 89.6326 82.2358 74.3391C82.2358 59.0456 69.838 46.6477 54.5444 46.6477C39.2509 46.6477 26.853 59.0456 26.853 74.3391C26.853 89.6326 39.2509 102.03 54.5444 102.03Z" fill="white"/>
        <path d="M126.47 110.302C146.332 110.302 162.433 94.2008 162.433 74.3391C162.433 54.4773 146.332 38.3762 126.47 38.3762C106.608 38.3762 90.5072 54.4773 90.5072 74.3391C90.5072 94.2008 106.608 110.302 126.47 110.302Z" fill="#333C49"/>
        <path d="M126.47 102.029C141.763 102.029 154.16 89.632 154.16 74.339C154.16 59.0461 141.763 46.6487 126.47 46.6487C111.177 46.6487 98.7797 59.0461 98.7797 74.339C98.7797 89.632 111.177 102.029 126.47 102.029Z" fill="white"/>
        <path d="M72.5362 74.339C72.5362 84.2762 64.4804 92.332 54.5421 92.332C44.6316 92.332 36.5734 84.2762 36.5734 74.339C36.5734 64.426 44.6302 56.3691 54.5421 56.3691C64.4804 56.3691 72.5362 64.426 72.5362 74.339Z" fill="#FAD97F"/>
        <path d="M62.8587 74.3393C62.8587 78.9298 59.1349 82.6571 54.5419 82.6571C49.9525 82.6571 46.2241 78.9298 46.2241 74.3393C46.2241 69.7488 49.9528 66.0215 54.5419 66.0215C59.1349 66.0215 62.8587 69.7491 62.8587 74.3393Z" fill="#3F4A5A"/>
        <path d="M52.8702 69.0551C52.8702 71.0492 51.2529 72.6675 49.2553 72.6675C47.2833 72.6675 45.6671 71.0492 45.6671 69.0551C45.6671 67.0796 47.283 65.4634 49.2553 65.4634C51.2533 65.4648 52.8702 67.0796 52.8702 69.0551Z" fill="white"/>
        <path d="M144.463 74.339C144.463 84.2762 136.409 92.332 126.47 92.332C116.557 92.332 108.5 84.2762 108.5 74.339C108.5 64.426 116.557 56.3691 126.47 56.3691C136.407 56.3691 144.463 64.426 144.463 74.339Z" fill="#FAD97F"/>
        <path d="M134.788 74.3393C134.788 78.9298 131.065 82.6571 126.47 82.6571C121.879 82.6571 118.152 78.9298 118.152 74.3393C118.152 69.7488 121.879 66.0215 126.47 66.0215C131.065 66.0215 134.788 69.7491 134.788 74.3393Z" fill="#3F4A5A"/>
        <path d="M124.801 69.0551C124.801 71.0492 123.181 72.6675 121.187 72.6675C119.211 72.6675 117.595 71.0492 117.595 69.0551C117.595 67.0796 119.211 65.4634 121.187 65.4634C123.18 65.4648 124.801 67.0796 124.801 69.0551Z" fill="white"/>
        <path d="M166.714 153.005H14.2891V158.27H166.714V153.005Z" fill="#FAD97F"/>
        <path d="M166.714 158.272H14.2891V163.545H166.714V158.272Z" fill="#F8C963"/>
        <path d="M166.714 163.539H14.2891V168.811H166.714V163.539Z" fill="#F5B947"/>
        <path d="M14.2926 168.818L5.15686 163.54V158.272L14.2891 153.004L14.2926 168.818Z" fill="#EFEFEF"/>
        <path d="M14.2926 168.818L14.2891 163.54L5.15686 161.774V163.54L14.2926 168.818Z" fill="#CCCBCA"/>
        <path d="M5.15691 163.54L0.600098 160.9L5.15691 158.272V163.54Z" fill="#3F4A5A"/>
        <path d="M171.28 163.539H166.714V168.811H171.28V163.539Z" fill="#CCCBCA"/>
        <path d="M171.28 153.005H166.714V163.539H171.28V153.005Z" fill="#EFEFEF"/>
        <path d="M172.512 168.808H171.283V163.54L172.512 163.535C174.525 163.535 176.556 162.767 178.101 161.232C178.955 160.35 179.587 159.342 179.957 158.263C180.259 159.119 180.415 159.998 180.415 160.9C180.415 162.932 179.638 164.943 178.102 166.494C176.556 168.04 174.526 168.803 172.512 168.808Z" fill="#262E37"/>
        <path d="M172.512 163.535L171.283 163.54V152.995H172.512C174.525 152.995 176.556 153.772 178.101 155.313C178.955 156.169 179.575 157.183 179.957 158.263C179.588 159.342 178.956 160.35 178.101 161.233C176.556 162.767 174.526 163.535 172.512 163.535Z" fill="#3F4A5A"/>
        <path d="M108.945 165.58C108.945 167.361 107.485 168.817 105.704 168.817C103.925 168.817 102.469 167.361 102.469 165.58V153.002C102.469 151.222 103.925 149.762 105.704 149.762C107.485 149.762 108.945 151.222 108.945 153.002V165.58Z" fill="#3F4A5A"/>
        <path d="M115.413 165.58C115.413 167.361 113.958 168.817 112.177 168.817C110.397 168.817 108.944 167.361 108.944 165.58V153.002C108.944 151.222 110.397 149.762 112.177 149.762C113.958 149.762 115.413 151.222 115.413 153.002V165.58Z" fill="#3F4A5A"/>
        <path d="M121.889 165.58C121.889 167.361 120.434 168.817 118.653 168.817C116.873 168.817 115.413 167.361 115.413 165.58V153.002C115.413 151.222 116.872 149.762 118.653 149.762C120.434 149.762 121.889 151.222 121.889 153.002V165.58Z" fill="#3F4A5A"/>
        <path d="M65.6011 165.58C65.6011 167.361 64.1419 168.817 62.361 168.817C60.5814 168.817 59.1254 167.361 59.1254 165.58V153.002C59.1254 151.222 60.5814 149.762 62.361 149.762C64.1416 149.762 65.6011 151.222 65.6011 153.002V165.58Z" fill="#3F4A5A"/>
        <path d="M72.0721 165.58C72.0721 167.361 70.6174 168.817 68.8354 168.817C67.0559 168.817 65.6012 167.361 65.6012 165.58V153.002C65.6012 151.222 67.0559 149.762 68.8354 149.762C70.6174 149.762 72.0721 151.222 72.0721 153.002V165.58Z" fill="#3F4A5A"/>
        <path d="M78.5454 165.58C78.5454 167.361 77.0883 168.817 75.3098 168.817C73.5292 168.817 72.0707 167.361 72.0707 165.58V153.002C72.0707 151.222 73.5278 149.762 75.3098 149.762C77.0883 149.762 78.5454 151.222 78.5454 153.002V165.58Z" fill="#3F4A5A"/>
        <path d="M154.541 106.703L134.411 141.568C133.675 142.844 134.107 144.474 135.388 145.213L164.013 161.737L185.476 124.563L154.541 106.703Z" fill="#52BFEB"/>
        <path d="M182.711 121.426L162.898 155.743L137.7 141.195C136.763 140.657 135.559 140.981 135.018 141.918C134.476 142.858 134.799 144.063 135.738 144.606L162.647 160.14L184.427 122.416L182.711 121.426Z" fill="#F6F8FB"/>
        <path d="M158.186 105.726C156.913 104.991 155.276 105.43 154.541 106.703L134.412 141.568C135.146 140.296 136.771 139.854 138.049 140.586L163.249 155.135L183.378 120.271L158.186 105.726Z" fill="#5BBCBD"/>
        <path d="M174.36 130.585L154.881 119.339L148.194 130.922L167.672 142.168L174.36 130.585Z" fill="#F6F8FB"/>
        <path d="M168.371 130.657L157.814 124.562L157.229 125.576L167.785 131.671L168.371 130.657Z" fill="#52BFEB"/>
        <path d="M169.676 134.369L153.948 125.288L153.602 125.888L169.33 134.968L169.676 134.369Z" fill="#34495E"/>
        <path d="M168.66 136.128L152.932 127.047L152.586 127.647L168.314 136.727L168.66 136.128Z" fill="#34495E"/>
        <path d="M167.646 137.885L151.917 128.804L151.571 129.404L167.299 138.485L167.646 137.885Z" fill="#34495E"/>
        <path d="M159.306 106.373L158.178 105.721L138.049 140.586L139.177 141.237L159.306 106.373Z" fill="#52BFEB"/>
        <path d="M137.843 143.549L135.524 147.565L138.21 146.843L138.931 149.532H138.932L141.251 145.517L137.843 143.549Z" fill="#FF7059"/>
        <g clip-path="url(#clip1)">
            <path d="M27.6871 25.5178C27.1452 27.8357 26.853 30.2488 26.853 32.728C26.853 50.3069 41.1047 64.5561 58.6801 64.5561C76.2577 64.5561 90.5083 50.308 90.5083 32.728H47.8586C40.1976 32.728 33.1743 30.0248 27.6871 25.5178Z" fill="#E6E5E5"/>
            <path d="M153.336 25.5178C153.868 27.8357 154.161 30.2488 154.161 32.728C154.161 50.3069 139.916 64.5561 122.334 64.5561C104.753 64.5561 90.5073 50.3069 90.5073 32.728H133.155C140.81 32.728 147.839 30.0248 153.336 25.5178Z" fill="#E6E5E5"/>
            <path d="M133.16 32.7268H47.8589V74.3429H133.16V32.7268Z" fill="#E6E5E5"/>
            <path d="M52.9689 74.3391C43.7127 83.8053 38.0015 96.7499 38.0015 111.034C38.0015 140.034 61.5083 163.54 90.5072 163.54C119.507 163.54 143.013 140.034 143.013 111.034C143.013 96.7495 137.303 83.8053 128.05 74.3391H52.9689Z" fill="#3F4A5A"/>
            <path d="M90.5072 163.54C108.287 163.54 122.701 149.126 122.701 131.346C122.701 113.566 108.287 99.1526 90.5072 99.1526C72.7271 99.1526 58.3135 113.566 58.3135 131.346C58.3135 149.126 72.7271 163.54 90.5072 163.54Z" fill="white"/>
            <path d="M90.5073 115.61L76.1232 101.226L90.5073 74.344L104.891 101.226L90.5073 115.61Z" fill="#FAD97F"/>
            <path d="M175.382 16.9985H170.345V46.6503H175.382V16.9985Z" fill="#3F4A5A"/>
            <path d="M126.47 16.9985H54.5443V32.7281L90.5072 43.053L126.47 32.7281V16.9985Z" fill="#333C49"/>
            <path d="M90.5072 10.9971H0.600098V16.9984H90.5072V10.9971Z" fill="#3F4A5A"/>
            <path d="M180.414 10.9971H90.5072V16.9984H180.414V10.9971Z" fill="#262E37"/>
            <path d="M112.623 68.7673H104.353C104.353 61.134 98.1395 54.9227 90.5062 54.9227C82.8715 54.9227 76.6594 61.1336 76.6594 68.7673H68.389C68.389 56.5736 78.3101 46.6501 90.5051 46.6501C102.7 46.6501 112.623 56.5736 112.623 68.7673Z" fill="#333C49"/>
            <path d="M54.5444 110.302C74.4061 110.302 90.5072 94.2008 90.5072 74.3391C90.5072 54.4773 74.4061 38.3762 54.5444 38.3762C34.6827 38.3762 18.5815 54.4773 18.5815 74.3391C18.5815 94.2008 34.6827 110.302 54.5444 110.302Z" fill="#333C49"/>
            <path d="M54.5444 102.03C69.838 102.03 82.2358 89.6326 82.2358 74.3391C82.2358 59.0456 69.838 46.6477 54.5444 46.6477C39.2509 46.6477 26.853 59.0456 26.853 74.3391C26.853 89.6326 39.2509 102.03 54.5444 102.03Z" fill="white"/>
            <path d="M126.47 110.302C146.332 110.302 162.433 94.2008 162.433 74.3391C162.433 54.4773 146.332 38.3762 126.47 38.3762C106.608 38.3762 90.5072 54.4773 90.5072 74.3391C90.5072 94.2008 106.608 110.302 126.47 110.302Z" fill="#333C49"/>
            <path d="M126.47 102.029C141.763 102.029 154.16 89.632 154.16 74.339C154.16 59.0461 141.763 46.6487 126.47 46.6487C111.177 46.6487 98.7797 59.0461 98.7797 74.339C98.7797 89.632 111.177 102.029 126.47 102.029Z" fill="white"/>
            <path d="M72.5362 74.339C72.5362 84.2762 64.4804 92.332 54.5421 92.332C44.6316 92.332 36.5734 84.2762 36.5734 74.339C36.5734 64.426 44.6302 56.3691 54.5421 56.3691C64.4804 56.3691 72.5362 64.426 72.5362 74.339Z" fill="#FAD97F"/>
            <path d="M62.8587 74.3393C62.8587 78.9298 59.1349 82.6571 54.5419 82.6571C49.9525 82.6571 46.2241 78.9298 46.2241 74.3393C46.2241 69.7488 49.9528 66.0215 54.5419 66.0215C59.1349 66.0215 62.8587 69.7491 62.8587 74.3393Z" fill="#3F4A5A"/>
            <path d="M52.8702 69.0551C52.8702 71.0492 51.2529 72.6675 49.2553 72.6675C47.2833 72.6675 45.6671 71.0492 45.6671 69.0551C45.6671 67.0796 47.283 65.4634 49.2553 65.4634C51.2533 65.4648 52.8702 67.0796 52.8702 69.0551Z" fill="white"/>
            <path d="M144.463 74.339C144.463 84.2762 136.409 92.332 126.47 92.332C116.557 92.332 108.5 84.2762 108.5 74.339C108.5 64.426 116.557 56.3691 126.47 56.3691C136.407 56.3691 144.463 64.426 144.463 74.339Z" fill="#FAD97F"/>
            <path d="M134.788 74.3393C134.788 78.9298 131.065 82.6571 126.47 82.6571C121.879 82.6571 118.152 78.9298 118.152 74.3393C118.152 69.7488 121.879 66.0215 126.47 66.0215C131.065 66.0215 134.788 69.7491 134.788 74.3393Z" fill="#3F4A5A"/>
            <path d="M124.801 69.0551C124.801 71.0492 123.181 72.6675 121.187 72.6675C119.211 72.6675 117.595 71.0492 117.595 69.0551C117.595 67.0796 119.211 65.4634 121.187 65.4634C123.18 65.4648 124.801 67.0796 124.801 69.0551Z" fill="white"/>
            <path d="M166.714 153.005H14.2891V158.27H166.714V153.005Z" fill="#FAD97F"/>
            <path d="M166.714 158.272H14.2891V163.545H166.714V158.272Z" fill="#F8C963"/>
            <path d="M166.714 163.539H14.2891V168.811H166.714V163.539Z" fill="#F5B947"/>
            <path d="M14.2926 168.818L5.15686 163.54V158.272L14.2891 153.004L14.2926 168.818Z" fill="#EFEFEF"/>
            <path d="M14.2926 168.818L14.2891 163.54L5.15686 161.774V163.54L14.2926 168.818Z" fill="#CCCBCA"/>
            <path d="M5.15691 163.54L0.600098 160.9L5.15691 158.272V163.54Z" fill="#3F4A5A"/>
            <path d="M171.28 163.539H166.714V168.811H171.28V163.539Z" fill="#CCCBCA"/>
            <path d="M171.28 153.005H166.714V163.539H171.28V153.005Z" fill="#EFEFEF"/>
            <path d="M172.512 168.808H171.283V163.54L172.512 163.535C174.525 163.535 176.556 162.767 178.101 161.232C178.955 160.35 179.587 159.342 179.957 158.263C180.259 159.119 180.415 159.998 180.415 160.9C180.415 162.932 179.638 164.943 178.102 166.494C176.556 168.04 174.526 168.803 172.512 168.808Z" fill="#262E37"/>
            <path d="M172.512 163.535L171.283 163.54V152.995H172.512C174.525 152.995 176.556 153.772 178.101 155.313C178.955 156.169 179.575 157.183 179.957 158.263C179.588 159.342 178.956 160.35 178.101 161.233C176.556 162.767 174.526 163.535 172.512 163.535Z" fill="#3F4A5A"/>
            <path d="M108.945 165.58C108.945 167.361 107.485 168.817 105.704 168.817C103.925 168.817 102.469 167.361 102.469 165.58V153.002C102.469 151.222 103.925 149.762 105.704 149.762C107.485 149.762 108.945 151.222 108.945 153.002V165.58Z" fill="#3F4A5A"/>
            <path d="M115.413 165.58C115.413 167.361 113.958 168.817 112.177 168.817C110.397 168.817 108.944 167.361 108.944 165.58V153.002C108.944 151.222 110.397 149.762 112.177 149.762C113.958 149.762 115.413 151.222 115.413 153.002V165.58Z" fill="#3F4A5A"/>
            <path d="M121.889 165.58C121.889 167.361 120.434 168.817 118.653 168.817C116.873 168.817 115.413 167.361 115.413 165.58V153.002C115.413 151.222 116.872 149.762 118.653 149.762C120.434 149.762 121.889 151.222 121.889 153.002V165.58Z" fill="#3F4A5A"/>
            <path d="M65.6011 165.58C65.6011 167.361 64.1419 168.817 62.361 168.817C60.5814 168.817 59.1254 167.361 59.1254 165.58V153.002C59.1254 151.222 60.5814 149.762 62.361 149.762C64.1416 149.762 65.6011 151.222 65.6011 153.002V165.58Z" fill="#3F4A5A"/>
            <path d="M72.0721 165.58C72.0721 167.361 70.6174 168.817 68.8354 168.817C67.0559 168.817 65.6012 167.361 65.6012 165.58V153.002C65.6012 151.222 67.0559 149.762 68.8354 149.762C70.6174 149.762 72.0721 151.222 72.0721 153.002V165.58Z" fill="#3F4A5A"/>
            <path d="M78.5454 165.58C78.5454 167.361 77.0883 168.817 75.3098 168.817C73.5292 168.817 72.0707 167.361 72.0707 165.58V153.002C72.0707 151.222 73.5278 149.762 75.3098 149.762C77.0883 149.762 78.5454 151.222 78.5454 153.002V165.58Z" fill="#3F4A5A"/>
            <path d="M154.541 106.703L134.411 141.568C133.675 142.844 134.107 144.474 135.388 145.213L164.013 161.737L185.476 124.563L154.541 106.703Z" fill="#52BFEB"/>
            <path d="M182.711 121.426L162.898 155.743L137.7 141.195C136.763 140.657 135.559 140.981 135.018 141.918C134.476 142.858 134.799 144.063 135.738 144.606L162.647 160.14L184.427 122.416L182.711 121.426Z" fill="#F6F8FB"/>
            <path d="M158.186 105.726C156.913 104.991 155.276 105.43 154.541 106.703L134.412 141.568C135.146 140.296 136.771 139.854 138.049 140.586L163.249 155.135L183.378 120.271L158.186 105.726Z" fill="#5BBCBD"/>
            <path d="M174.36 130.585L154.881 119.339L148.194 130.922L167.672 142.168L174.36 130.585Z" fill="#F6F8FB"/>
            <path d="M168.371 130.657L157.814 124.562L157.229 125.576L167.785 131.671L168.371 130.657Z" fill="#52BFEB"/>
            <path d="M169.676 134.369L153.948 125.288L153.602 125.888L169.33 134.968L169.676 134.369Z" fill="#34495E"/>
            <path d="M168.66 136.128L152.932 127.047L152.586 127.647L168.314 136.727L168.66 136.128Z" fill="#34495E"/>
            <path d="M167.646 137.885L151.917 128.804L151.571 129.404L167.299 138.485L167.646 137.885Z" fill="#34495E"/>
            <path d="M159.306 106.373L158.178 105.721L138.049 140.586L139.177 141.237L159.306 106.373Z" fill="#52BFEB"/>
            <path d="M137.843 143.549L135.524 147.565L138.21 146.843L138.931 149.532H138.932L141.251 145.517L137.843 143.549Z" fill="#FF7059"/>
            <g clip-path="url(#clip2)">
                <path d="M27.6871 25.5178C27.1452 27.8357 26.853 30.2488 26.853 32.728C26.853 50.3069 41.1047 64.5561 58.6801 64.5561C76.2577 64.5561 90.5083 50.308 90.5083 32.728H47.8586C40.1976 32.728 33.1743 30.0248 27.6871 25.5178Z" fill="#E6E5E5"/>
                <path d="M153.336 25.5178C153.868 27.8357 154.161 30.2488 154.161 32.728C154.161 50.3069 139.916 64.5561 122.334 64.5561C104.753 64.5561 90.5073 50.3069 90.5073 32.728H133.155C140.81 32.728 147.839 30.0248 153.336 25.5178Z" fill="#E6E5E5"/>
                <path d="M133.16 32.7268H47.8589V74.3429H133.16V32.7268Z" fill="#E6E5E5"/>
                <path d="M52.9689 74.3391C43.7127 83.8053 38.0015 96.7499 38.0015 111.034C38.0015 140.034 61.5083 163.54 90.5072 163.54C119.507 163.54 143.013 140.034 143.013 111.034C143.013 96.7495 137.303 83.8053 128.05 74.3391H52.9689Z" fill="#3F4A5A"/>
                <path d="M90.5072 163.54C108.287 163.54 122.701 149.126 122.701 131.346C122.701 113.566 108.287 99.1526 90.5072 99.1526C72.7271 99.1526 58.3135 113.566 58.3135 131.346C58.3135 149.126 72.7271 163.54 90.5072 163.54Z" fill="white"/>
                <path d="M90.5073 115.61L76.1232 101.226L90.5073 74.344L104.891 101.226L90.5073 115.61Z" fill="#FAD97F"/>
                <path d="M175.382 16.9985H170.345V46.6503H175.382V16.9985Z" fill="#3F4A5A"/>
                <path d="M126.47 16.9985H54.5443V32.7281L90.5072 43.053L126.47 32.7281V16.9985Z" fill="#333C49"/>
                <path d="M90.5072 10.9971H0.600098V16.9984H90.5072V10.9971Z" fill="#3F4A5A"/>
                <path d="M180.414 10.9971H90.5072V16.9984H180.414V10.9971Z" fill="#262E37"/>
                <path d="M112.623 68.7673H104.353C104.353 61.134 98.1395 54.9227 90.5062 54.9227C82.8715 54.9227 76.6594 61.1336 76.6594 68.7673H68.389C68.389 56.5736 78.3101 46.6501 90.5051 46.6501C102.7 46.6501 112.623 56.5736 112.623 68.7673Z" fill="#333C49"/>
                <path d="M54.5444 110.302C74.4061 110.302 90.5072 94.2008 90.5072 74.3391C90.5072 54.4773 74.4061 38.3762 54.5444 38.3762C34.6827 38.3762 18.5815 54.4773 18.5815 74.3391C18.5815 94.2008 34.6827 110.302 54.5444 110.302Z" fill="#333C49"/>
                <path d="M54.5444 102.03C69.838 102.03 82.2358 89.6326 82.2358 74.3391C82.2358 59.0456 69.838 46.6477 54.5444 46.6477C39.2509 46.6477 26.853 59.0456 26.853 74.3391C26.853 89.6326 39.2509 102.03 54.5444 102.03Z" fill="white"/>
                <path d="M126.47 110.302C146.332 110.302 162.433 94.2008 162.433 74.3391C162.433 54.4773 146.332 38.3762 126.47 38.3762C106.608 38.3762 90.5072 54.4773 90.5072 74.3391C90.5072 94.2008 106.608 110.302 126.47 110.302Z" fill="#333C49"/>
                <path d="M126.47 102.029C141.763 102.029 154.16 89.632 154.16 74.339C154.16 59.0461 141.763 46.6487 126.47 46.6487C111.177 46.6487 98.7797 59.0461 98.7797 74.339C98.7797 89.632 111.177 102.029 126.47 102.029Z" fill="white"/>
                <path d="M72.5362 74.339C72.5362 84.2762 64.4804 92.332 54.5421 92.332C44.6316 92.332 36.5734 84.2762 36.5734 74.339C36.5734 64.426 44.6302 56.3691 54.5421 56.3691C64.4804 56.3691 72.5362 64.426 72.5362 74.339Z" fill="#FAD97F"/>
                <path d="M62.8587 74.3393C62.8587 78.9298 59.1349 82.6571 54.5419 82.6571C49.9525 82.6571 46.2241 78.9298 46.2241 74.3393C46.2241 69.7488 49.9528 66.0215 54.5419 66.0215C59.1349 66.0215 62.8587 69.7491 62.8587 74.3393Z" fill="#3F4A5A"/>
                <path d="M52.8702 69.0551C52.8702 71.0492 51.2529 72.6675 49.2553 72.6675C47.2833 72.6675 45.6671 71.0492 45.6671 69.0551C45.6671 67.0796 47.283 65.4634 49.2553 65.4634C51.2533 65.4648 52.8702 67.0796 52.8702 69.0551Z" fill="white"/>
                <path d="M144.463 74.339C144.463 84.2762 136.409 92.332 126.47 92.332C116.557 92.332 108.5 84.2762 108.5 74.339C108.5 64.426 116.557 56.3691 126.47 56.3691C136.407 56.3691 144.463 64.426 144.463 74.339Z" fill="#FAD97F"/>
                <path d="M134.788 74.3393C134.788 78.9298 131.065 82.6571 126.47 82.6571C121.879 82.6571 118.152 78.9298 118.152 74.3393C118.152 69.7488 121.879 66.0215 126.47 66.0215C131.065 66.0215 134.788 69.7491 134.788 74.3393Z" fill="#3F4A5A"/>
                <path d="M124.801 69.0551C124.801 71.0492 123.181 72.6675 121.187 72.6675C119.211 72.6675 117.595 71.0492 117.595 69.0551C117.595 67.0796 119.211 65.4634 121.187 65.4634C123.18 65.4648 124.801 67.0796 124.801 69.0551Z" fill="white"/>
                <path d="M166.714 153.005H14.2891V158.27H166.714V153.005Z" fill="#FAD97F"/>
                <path d="M166.714 158.272H14.2891V163.545H166.714V158.272Z" fill="#F8C963"/>
                <path d="M166.714 163.539H14.2891V168.811H166.714V163.539Z" fill="#F5B947"/>
                <path d="M14.2926 168.818L5.15686 163.54V158.272L14.2891 153.004L14.2926 168.818Z" fill="#EFEFEF"/>
                <path d="M14.2926 168.818L14.2891 163.54L5.15686 161.774V163.54L14.2926 168.818Z" fill="#CCCBCA"/>
                <path d="M5.15691 163.54L0.600098 160.9L5.15691 158.272V163.54Z" fill="#3F4A5A"/>
                <path d="M171.28 163.539H166.714V168.811H171.28V163.539Z" fill="#CCCBCA"/>
                <path d="M171.28 153.005H166.714V163.539H171.28V153.005Z" fill="#EFEFEF"/>
                <path d="M172.512 168.808H171.283V163.54L172.512 163.535C174.525 163.535 176.556 162.767 178.101 161.232C178.955 160.35 179.587 159.342 179.957 158.263C180.259 159.119 180.415 159.998 180.415 160.9C180.415 162.932 179.638 164.943 178.102 166.494C176.556 168.04 174.526 168.803 172.512 168.808Z" fill="#262E37"/>
                <path d="M172.512 163.535L171.283 163.54V152.995H172.512C174.525 152.995 176.556 153.772 178.101 155.313C178.955 156.169 179.575 157.183 179.957 158.263C179.588 159.342 178.956 160.35 178.101 161.233C176.556 162.767 174.526 163.535 172.512 163.535Z" fill="#3F4A5A"/>
                <path d="M108.945 165.58C108.945 167.361 107.485 168.817 105.704 168.817C103.925 168.817 102.469 167.361 102.469 165.58V153.002C102.469 151.222 103.925 149.762 105.704 149.762C107.485 149.762 108.945 151.222 108.945 153.002V165.58Z" fill="#3F4A5A"/>
                <path d="M115.413 165.58C115.413 167.361 113.958 168.817 112.177 168.817C110.397 168.817 108.944 167.361 108.944 165.58V153.002C108.944 151.222 110.397 149.762 112.177 149.762C113.958 149.762 115.413 151.222 115.413 153.002V165.58Z" fill="#3F4A5A"/>
                <path d="M121.889 165.58C121.889 167.361 120.434 168.817 118.653 168.817C116.873 168.817 115.413 167.361 115.413 165.58V153.002C115.413 151.222 116.872 149.762 118.653 149.762C120.434 149.762 121.889 151.222 121.889 153.002V165.58Z" fill="#3F4A5A"/>
                <path d="M65.6011 165.58C65.6011 167.361 64.1419 168.817 62.361 168.817C60.5814 168.817 59.1254 167.361 59.1254 165.58V153.002C59.1254 151.222 60.5814 149.762 62.361 149.762C64.1416 149.762 65.6011 151.222 65.6011 153.002V165.58Z" fill="#3F4A5A"/>
                <path d="M72.0721 165.58C72.0721 167.361 70.6174 168.817 68.8354 168.817C67.0559 168.817 65.6012 167.361 65.6012 165.58V153.002C65.6012 151.222 67.0559 149.762 68.8354 149.762C70.6174 149.762 72.0721 151.222 72.0721 153.002V165.58Z" fill="#3F4A5A"/>
                <path d="M78.5454 165.58C78.5454 167.361 77.0883 168.817 75.3098 168.817C73.5292 168.817 72.0707 167.361 72.0707 165.58V153.002C72.0707 151.222 73.5278 149.762 75.3098 149.762C77.0883 149.762 78.5454 151.222 78.5454 153.002V165.58Z" fill="#3F4A5A"/>
                <path d="M154.541 106.703L134.411 141.568C133.675 142.844 134.107 144.474 135.388 145.213L164.013 161.737L185.476 124.563L154.541 106.703Z" fill="#52BFEB"/>
                <path d="M182.711 121.426L162.898 155.743L137.7 141.195C136.763 140.657 135.559 140.981 135.018 141.918C134.476 142.858 134.799 144.063 135.738 144.606L162.647 160.14L184.427 122.416L182.711 121.426Z" fill="#F6F8FB"/>
                <path d="M158.186 105.726C156.913 104.991 155.276 105.43 154.541 106.703L134.412 141.568C135.146 140.296 136.771 139.854 138.049 140.586L163.249 155.135L183.378 120.271L158.186 105.726Z" fill="#5BBCBD"/>
                <path d="M174.36 130.585L154.881 119.339L148.194 130.922L167.672 142.168L174.36 130.585Z" fill="#F6F8FB"/>
                <path d="M168.371 130.657L157.814 124.562L157.229 125.576L167.785 131.671L168.371 130.657Z" fill="#52BFEB"/>
                <path d="M169.676 134.369L153.948 125.288L153.602 125.888L169.33 134.968L169.676 134.369Z" fill="#34495E"/>
                <path d="M168.66 136.128L152.932 127.047L152.586 127.647L168.314 136.727L168.66 136.128Z" fill="#34495E"/>
                <path d="M167.646 137.885L151.917 128.804L151.571 129.404L167.299 138.485L167.646 137.885Z" fill="#34495E"/>
                <path d="M159.306 106.373L158.178 105.721L138.049 140.586L139.177 141.237L159.306 106.373Z" fill="#52BFEB"/>
                <path d="M137.843 143.549L135.524 147.565L138.21 146.843L138.931 149.532H138.932L141.251 145.517L137.843 143.549Z" fill="#FF7059"/>
            </g>
        </g>
    </g>
    <defs>
        <clipPath id="clip0">
            <rect width="181" height="180" fill="white"/>
        </clipPath>
        <clipPath id="clip1">
            <rect width="181" height="180" fill="white"/>
        </clipPath>
        <clipPath id="clip2">
            <rect width="181" height="180" fill="white"/>
        </clipPath>
    </defs>
</svg>
