<?xml version="1.0" encoding="utf-8"?>
<!-- Generator: Adobe Illustrator 25.1.0, SVG Export Plug-In . SVG Version: 6.00 Build 0)  -->
<svg version="1.1" id="Layer_1" xmlns="http://www.w3.org/2000/svg" xmlns:xlink="http://www.w3.org/1999/xlink" x="0px" y="0px"
	 viewBox="0 0 254.2 87" style="enable-background:new 0 0 254.2 87;" xml:space="preserve">
<style type="text/css">
	.st0{fill:#FFFFFF;}
	.st1{fill:none;stroke:#D7753E;}
	.st2{fill:#FFFFFF;stroke:#D7753E;}
	.st3{fill:#333333;}
	.st4{fill:#ADECF7;}
	.st5{fill:#353F49;}
	.st6{fill:#474F59;}
	.st7{fill:#F77B55;}
	.st8{fill:#CCCBCA;}
	.st9{fill:#D9D8D7;}
	.st10{fill:#F2F2F2;}
	.st11{fill:#76D0DE;}
</style>
<path class="st0" d="M1.2,30.6c0-4.1,3.4-7.5,7.5-7.5H246c4.1,0,7.5,3.4,7.5,7.5v26c0,4.1-3.4,7.5-7.5,7.5H8.7
	c-4.1,0-7.5-3.4-7.5-7.5V30.6z"/>
<path class="st1" d="M1.2,30.6c0-4.1,3.4-7.5,7.5-7.5H246c4.1,0,7.5,3.4,7.5,7.5v26c0,4.1-3.4,7.5-7.5,7.5H8.7
	c-4.1,0-7.5-3.4-7.5-7.5V30.6z"/>
<path class="st2" d="M246,23.1H91.4C84.1,9.7,69.8,0.5,53.2,0.5S22.3,9.7,15,23.1H8.7c-4.1,0-7.5,3.4-7.5,7.5v26
	c0,4.1,3.4,7.5,7.5,7.5h6.9C23.1,77,37.1,85.7,53.2,85.7S83.3,77,90.8,64.1H246c4.1,0,7.5-3.4,7.5-7.5v-26
	C253.5,26.5,250.1,23.1,246,23.1z"/>
<path class="st3" d="M102,37c1.3,0,2.3,0.3,2.9,0.8c0.6,0.5,0.9,1.2,0.9,2.2c0,0.6-0.1,1.1-0.4,1.6c-0.2,0.5-0.7,0.9-1.2,1.2
	c-0.6,0.3-1.4,0.4-2.4,0.4h-1.1V47h-1.3V37H102z M101.9,38.1h-1.3V42h1c1,0,1.7-0.2,2.1-0.5c0.5-0.3,0.7-0.8,0.7-1.6
	c0-0.6-0.2-1.1-0.6-1.4C103.4,38.2,102.8,38.1,101.9,38.1z M110.6,39.4c0.6,0,1.2,0.1,1.7,0.4c0.5,0.3,0.8,0.7,1.1,1.2
	c0.3,0.5,0.4,1.1,0.4,1.8v0.7h-5.1c0,0.8,0.2,1.5,0.6,1.9c0.4,0.4,1,0.7,1.8,0.7c0.5,0,0.9,0,1.3-0.1c0.4-0.1,0.8-0.2,1.1-0.4v1.1
	c-0.4,0.2-0.8,0.3-1.1,0.4c-0.4,0.1-0.8,0.1-1.3,0.1c-0.7,0-1.3-0.1-1.9-0.4c-0.5-0.3-1-0.7-1.3-1.3c-0.3-0.6-0.4-1.3-0.4-2.1
	c0-0.8,0.1-1.5,0.4-2.1c0.3-0.6,0.7-1,1.2-1.4C109.3,39.5,109.9,39.4,110.6,39.4z M110.6,40.4c-0.6,0-1.1,0.2-1.4,0.6
	c-0.3,0.4-0.5,0.9-0.6,1.6h3.8c0-0.6-0.2-1.1-0.4-1.5C111.6,40.6,111.2,40.4,110.6,40.4z M119.1,39.4c0.1,0,0.3,0,0.4,0
	c0.2,0,0.3,0,0.4,0.1l-0.2,1.1c-0.1,0-0.3-0.1-0.4-0.1c-0.1,0-0.3,0-0.4,0c-0.4,0-0.7,0.1-1.1,0.3c-0.3,0.2-0.6,0.5-0.8,0.9
	c-0.2,0.4-0.3,0.8-0.3,1.3v4h-1.2v-7.5h1l0.1,1.4h0.1c0.2-0.4,0.6-0.8,0.9-1.1C118.1,39.5,118.5,39.4,119.1,39.4z M124.8,40.4h-1.9
	V47h-1.2v-6.6h-1.3v-0.6l1.3-0.4V39c0-1,0.2-1.7,0.6-2.1c0.4-0.4,1-0.6,1.8-0.6c0.3,0,0.6,0,0.8,0.1c0.3,0,0.5,0.1,0.6,0.2l-0.3,1
	c-0.1,0-0.3-0.1-0.5-0.1s-0.4-0.1-0.6-0.1c-0.4,0-0.7,0.1-0.9,0.4c-0.2,0.3-0.3,0.7-0.3,1.3v0.5h1.9V40.4z M132.7,43.2
	c0,1.2-0.3,2.2-1,2.9c-0.6,0.7-1.5,1-2.5,1c-0.7,0-1.3-0.1-1.8-0.4c-0.5-0.3-0.9-0.8-1.2-1.3c-0.3-0.6-0.4-1.3-0.4-2.1
	c0-1.2,0.3-2.2,0.9-2.9c0.6-0.7,1.5-1,2.5-1c0.7,0,1.3,0.2,1.8,0.5c0.5,0.3,0.9,0.7,1.2,1.3C132.5,41.7,132.7,42.4,132.7,43.2z
	 M127,43.2c0,0.9,0.2,1.6,0.5,2.1c0.4,0.5,0.9,0.8,1.7,0.8c0.8,0,1.3-0.3,1.7-0.8c0.4-0.5,0.5-1.2,0.5-2.1s-0.2-1.6-0.5-2.1
	c-0.4-0.5-0.9-0.8-1.7-0.8c-0.8,0-1.3,0.3-1.7,0.8C127.2,41.7,127,42.3,127,43.2z M138.1,39.4c0.1,0,0.3,0,0.4,0
	c0.2,0,0.3,0,0.4,0.1l-0.2,1.1c-0.1,0-0.3-0.1-0.4-0.1c-0.1,0-0.3,0-0.4,0c-0.4,0-0.7,0.1-1.1,0.3c-0.3,0.2-0.6,0.5-0.8,0.9
	c-0.2,0.4-0.3,0.8-0.3,1.3v4h-1.2v-7.5h1l0.1,1.4h0.1c0.2-0.4,0.6-0.8,0.9-1.1C137.2,39.5,137.6,39.4,138.1,39.4z M148.7,39.4
	c0.8,0,1.5,0.2,1.9,0.7c0.4,0.4,0.6,1.1,0.6,2.1V47H150v-4.8c0-1.2-0.5-1.8-1.5-1.8c-0.7,0-1.2,0.2-1.6,0.6c-0.3,0.4-0.5,1-0.5,1.8
	V47h-1.2v-4.8c0-1.2-0.5-1.8-1.5-1.8c-0.8,0-1.3,0.2-1.6,0.7c-0.3,0.5-0.4,1.1-0.4,2V47h-1.2v-7.5h1l0.2,1h0.1
	c0.2-0.4,0.5-0.7,0.9-0.9c0.4-0.2,0.8-0.3,1.3-0.3c1.2,0,1.9,0.4,2.3,1.3h0.1c0.3-0.4,0.6-0.7,1-1C147.7,39.5,148.2,39.4,148.7,39.4
	z M156.4,39.4c0.9,0,1.6,0.2,2,0.6c0.4,0.4,0.7,1,0.7,1.9V47h-0.9l-0.2-1.1h-0.1c-0.3,0.4-0.7,0.7-1,0.9c-0.4,0.2-0.8,0.3-1.5,0.3
	c-0.7,0-1.2-0.2-1.7-0.5c-0.4-0.4-0.7-0.9-0.7-1.7c0-0.7,0.3-1.3,0.9-1.7c0.6-0.4,1.5-0.6,2.7-0.7l1.3,0V42c0-0.6-0.1-1.1-0.4-1.3
	c-0.3-0.2-0.7-0.4-1.1-0.4c-0.4,0-0.8,0.1-1.1,0.2c-0.4,0.1-0.7,0.2-1,0.4l-0.4-0.9c0.3-0.2,0.7-0.3,1.2-0.4
	C155.4,39.4,155.9,39.4,156.4,39.4z M156.7,43.4c-0.9,0-1.6,0.2-1.9,0.4c-0.4,0.3-0.5,0.6-0.5,1.1c0,0.4,0.1,0.7,0.4,0.9
	c0.3,0.2,0.6,0.3,1,0.3c0.6,0,1.2-0.2,1.6-0.5c0.4-0.4,0.6-0.9,0.6-1.6v-0.7L156.7,43.4z M165,39.4c0.9,0,1.6,0.2,2,0.7
	c0.5,0.4,0.7,1.1,0.7,2.1V47h-1.2v-4.8c0-1.2-0.6-1.8-1.7-1.8c-0.8,0-1.4,0.2-1.7,0.7c-0.3,0.5-0.5,1.1-0.5,2V47h-1.2v-7.5h1l0.2,1
	h0.1c0.2-0.4,0.6-0.7,1-0.9C164,39.5,164.5,39.4,165,39.4z M173,47.1c-0.7,0-1.3-0.1-1.8-0.4c-0.5-0.3-0.9-0.7-1.2-1.3
	c-0.3-0.6-0.4-1.3-0.4-2.2c0-0.9,0.2-1.7,0.5-2.3s0.7-1,1.2-1.3c0.5-0.3,1.1-0.4,1.8-0.4c0.4,0,0.8,0,1.1,0.1
	c0.4,0.1,0.6,0.2,0.9,0.3l-0.4,1c-0.2-0.1-0.5-0.2-0.8-0.2c-0.3-0.1-0.6-0.1-0.8-0.1c-1.5,0-2.2,0.9-2.2,2.8c0,0.9,0.2,1.6,0.5,2.1
	c0.4,0.5,0.9,0.7,1.6,0.7c0.4,0,0.8,0,1.1-0.1c0.3-0.1,0.6-0.2,0.9-0.3v1.1c-0.3,0.1-0.5,0.2-0.8,0.3
	C173.8,47.1,173.4,47.1,173,47.1z M179.6,39.4c0.6,0,1.2,0.1,1.7,0.4c0.5,0.3,0.8,0.7,1.1,1.2c0.3,0.5,0.4,1.1,0.4,1.8v0.7h-5.1
	c0,0.8,0.2,1.5,0.6,1.9c0.4,0.4,1,0.7,1.8,0.7c0.5,0,0.9,0,1.3-0.1c0.4-0.1,0.8-0.2,1.1-0.4v1.1c-0.4,0.2-0.8,0.3-1.1,0.4
	c-0.4,0.1-0.8,0.1-1.3,0.1c-0.7,0-1.3-0.1-1.9-0.4c-0.5-0.3-1-0.7-1.3-1.3c-0.3-0.6-0.4-1.3-0.4-2.1c0-0.8,0.1-1.5,0.4-2.1
	c0.3-0.6,0.7-1,1.2-1.4C178.4,39.5,179,39.4,179.6,39.4z M179.6,40.4c-0.6,0-1.1,0.2-1.4,0.6c-0.3,0.4-0.5,0.9-0.6,1.6h3.8
	c0-0.6-0.2-1.1-0.4-1.5C180.7,40.6,180.2,40.4,179.6,40.4z M191.6,47h-1.3v-8.9h-3.1V37h7.5v1.1h-3.1V47z M198.9,39.4
	c0.1,0,0.3,0,0.4,0c0.2,0,0.3,0,0.4,0.1l-0.2,1.1c-0.1,0-0.3-0.1-0.4-0.1c-0.1,0-0.3,0-0.4,0c-0.4,0-0.7,0.1-1.1,0.3
	c-0.3,0.2-0.6,0.5-0.8,0.9c-0.2,0.4-0.3,0.8-0.3,1.3v4h-1.2v-7.5h1l0.1,1.4h0.1c0.2-0.4,0.6-0.8,0.9-1.1
	C197.9,39.5,198.3,39.4,198.9,39.4z M203.7,39.4c0.9,0,1.6,0.2,2,0.6c0.4,0.4,0.7,1,0.7,1.9V47h-0.9l-0.2-1.1h-0.1
	c-0.3,0.4-0.7,0.7-1,0.9c-0.4,0.2-0.8,0.3-1.5,0.3c-0.7,0-1.2-0.2-1.7-0.5c-0.4-0.4-0.7-0.9-0.7-1.7c0-0.7,0.3-1.3,0.9-1.7
	c0.6-0.4,1.5-0.6,2.7-0.7l1.3,0V42c0-0.6-0.1-1.1-0.4-1.3c-0.3-0.2-0.7-0.4-1.1-0.4c-0.4,0-0.8,0.1-1.1,0.2c-0.4,0.1-0.7,0.2-1,0.4
	l-0.4-0.9c0.3-0.2,0.7-0.3,1.2-0.4C202.8,39.4,203.2,39.4,203.7,39.4z M204.1,43.4c-0.9,0-1.6,0.2-1.9,0.4c-0.4,0.3-0.5,0.6-0.5,1.1
	c0,0.4,0.1,0.7,0.4,0.9c0.3,0.2,0.6,0.3,1,0.3c0.6,0,1.2-0.2,1.6-0.5c0.4-0.4,0.6-0.9,0.6-1.6v-0.7L204.1,43.4z M211.7,47.1
	c-0.7,0-1.3-0.1-1.8-0.4c-0.5-0.3-0.9-0.7-1.2-1.3c-0.3-0.6-0.4-1.3-0.4-2.2c0-0.9,0.2-1.7,0.5-2.3s0.7-1,1.2-1.3
	c0.5-0.3,1.1-0.4,1.8-0.4c0.4,0,0.8,0,1.1,0.1c0.4,0.1,0.6,0.2,0.9,0.3l-0.4,1c-0.2-0.1-0.5-0.2-0.8-0.2c-0.3-0.1-0.6-0.1-0.8-0.1
	c-1.5,0-2.2,0.9-2.2,2.8c0,0.9,0.2,1.6,0.5,2.1c0.4,0.5,0.9,0.7,1.6,0.7c0.4,0,0.8,0,1.1-0.1c0.3-0.1,0.6-0.2,0.9-0.3v1.1
	c-0.3,0.1-0.5,0.2-0.8,0.3C212.5,47.1,212.2,47.1,211.7,47.1z M216.7,41.9c0,0.1,0,0.3,0,0.6c0,0.2,0,0.5,0,0.6h0.1
	c0.1-0.1,0.1-0.2,0.3-0.3s0.2-0.3,0.3-0.4c0.1-0.1,0.2-0.3,0.3-0.4l2.4-2.5h1.4l-3,3.2l3.2,4.3h-1.5l-2.6-3.5l-0.9,0.7V47h-1.2V36.4
	h1.2V41.9z M223.6,36.7c0.2,0,0.3,0.1,0.5,0.2c0.2,0.1,0.2,0.3,0.2,0.6c0,0.3-0.1,0.5-0.2,0.6c-0.1,0.1-0.3,0.2-0.5,0.2
	c-0.2,0-0.4-0.1-0.5-0.2s-0.2-0.3-0.2-0.6c0-0.3,0.1-0.5,0.2-0.6C223.2,36.7,223.3,36.7,223.6,36.7z M224.2,39.5V47h-1.2v-7.5H224.2
	z M230.1,39.4c0.9,0,1.6,0.2,2,0.7c0.5,0.4,0.7,1.1,0.7,2.1V47h-1.2v-4.8c0-1.2-0.6-1.8-1.7-1.8c-0.8,0-1.4,0.2-1.7,0.7
	c-0.3,0.5-0.5,1.1-0.5,2V47h-1.2v-7.5h1l0.2,1h0.1c0.2-0.4,0.6-0.7,1-0.9C229.2,39.5,229.7,39.4,230.1,39.4z M237.8,39.4
	c0.5,0,0.9,0.1,1.3,0.3c0.4,0.2,0.7,0.5,1,0.9h0.1l0.2-1h1v7.6c0,1.1-0.3,1.9-0.8,2.4c-0.5,0.5-1.4,0.8-2.5,0.8
	c-1.1,0-2-0.2-2.7-0.5v-1.1c0.7,0.4,1.7,0.6,2.8,0.6c0.6,0,1.1-0.2,1.5-0.6c0.4-0.4,0.6-0.9,0.6-1.5v-0.3c0-0.1,0-0.3,0-0.5
	c0-0.2,0-0.4,0-0.4h-0.1c-0.5,0.8-1.3,1.1-2.3,1.1c-1,0-1.7-0.3-2.3-1c-0.5-0.7-0.8-1.6-0.8-2.9c0-1.2,0.3-2.1,0.8-2.8
	C236.1,39.7,236.9,39.4,237.8,39.4z M238,40.4c-0.6,0-1.1,0.3-1.5,0.8c-0.3,0.5-0.5,1.2-0.5,2.1s0.2,1.6,0.5,2.1
	c0.3,0.5,0.8,0.7,1.5,0.7c0.8,0,1.3-0.2,1.7-0.6c0.3-0.4,0.5-1.1,0.5-2v-0.3c0-1-0.2-1.8-0.5-2.2C239.3,40.6,238.8,40.4,238,40.4z"
	/>
<g>
	<path class="st4" d="M54.3,76.8c18.6,0,33.6-15.1,33.6-33.6S72.8,9.5,54.3,9.5S20.7,24.6,20.7,43.2S35.7,76.8,54.3,76.8z"/>
	<path class="st5" d="M80.1,32.5c-0.3-0.3-0.8-0.5-1.2-0.5H29.7c-0.4,0-0.9,0.2-1.2,0.5c-0.3,0.3-0.5,0.8-0.5,1.2v30.4h52.6V33.7
		C80.6,33.3,80.4,32.8,80.1,32.5z"/>
	<path class="st6" d="M55,33.3c0,0.4-0.3,0.7-0.7,0.7c-0.4,0-0.7-0.3-0.7-0.7c0-0.4,0.3-0.7,0.7-0.7C54.7,32.6,55,32.9,55,33.3z"/>
	<path class="st0" d="M54.6,33.3c0,0.2-0.1,0.3-0.3,0.3c-0.2,0-0.3-0.1-0.3-0.3c0-0.2,0.1-0.3,0.3-0.3C54.5,33,54.6,33.2,54.6,33.3z
		"/>
	<path class="st0" d="M77.9,34.7H30.7v29.4h47.1V34.7z"/>
	<path class="st7" d="M52.8,41.9H33.2v11h19.5V41.9z"/>
	<path class="st0" d="M41.3,45.5l3.4,1.9l-3.4,1.9V45.5z"/>
	<path class="st5" d="M63.8,41.9h-8.1v4.5h8.1V41.9z"/>
	<path class="st8" d="M59,43.4l1.4,0.8L59,45V43.4z"/>
	<path class="st5" d="M63.8,48.4h-8.1v4.5h8.1V48.4z"/>
	<path class="st8" d="M59,49.9l1.4,0.8L59,51.5V49.9z"/>
	<path class="st5" d="M63.8,54.9h-8.1v4.5h8.1V54.9z"/>
	<path class="st8" d="M59,56.4l1.4,0.8L59,57.9V56.4z"/>
	<path class="st9" d="M75.4,44.6h-10v0.6h10V44.6z"/>
	<path class="st9" d="M75.4,45.9h-10v0.6h10V45.9z"/>
	<path class="st9" d="M75.4,43.3h-10v0.6h10V43.3z"/>
	<path class="st9" d="M71.1,41.9h-5.7v0.6h5.7V41.9z"/>
	<path class="st9" d="M52.8,57.5H37.5v0.6h15.2V57.5z"/>
	<path class="st9" d="M45.2,58.8h-7.6v0.6h7.6V58.8z"/>
	<path class="st9" d="M52.8,56.2H37.5v0.6h15.2V56.2z"/>
	<path class="st9" d="M41.9,54.9h-8.7v0.6h8.7V54.9z"/>
	<path class="st9" d="M75.4,51.1h-10v0.6h10V51.1z"/>
	<path class="st9" d="M75.4,52.4h-10v0.6h10V52.4z"/>
	<path class="st9" d="M75.4,49.7h-10v0.6h10V49.7z"/>
	<path class="st9" d="M71.1,48.4h-5.7V49h5.7V48.4z"/>
	<path class="st9" d="M75.4,57.5h-10v0.6h10V57.5z"/>
	<path class="st9" d="M75.4,58.8h-10v0.6h10V58.8z"/>
	<path class="st9" d="M75.4,56.2h-10v0.6h10V56.2z"/>
	<path class="st9" d="M71.1,54.9h-5.7v0.6h5.7V54.9z"/>
	<path class="st7" d="M75.4,37.3H33.2v2.3h42.1V37.3z"/>
	<path class="st0" d="M54.3,38.2H33.9v0.6h20.4V38.2z"/>
	<path class="st8" d="M22,65.1c2.5,1.1,5.2,1.7,8,1.7h48.6c2.9,0,5.6-0.6,8-1.7H22z"/>
	<path class="st10" d="M86.6,64.1H22v1h64.6V64.1z"/>
	<path class="st8" d="M59.9,64.1H48.7v0.5h11.2V64.1z"/>
	<path class="st7" d="M32.5,11.7v11.8h14.2l3,3v-3h1.5V11.7H32.5z"/>
	<path class="st0" d="M47.5,17.1H36V18h11.5V17.1z"/>
	<path class="st0" d="M47.5,19h-5.7v0.8h5.7V19z"/>
	<path class="st0" d="M47.5,15.3H36v0.8h11.5V15.3z"/>
	<path class="st0" d="M61.1,27.9l-3.8,1.3l1.3-3.8L61.1,27.9z"/>
	<path class="st6" d="M68.9,20.1l-2.6-2.6l-7.8,7.8l2.6,2.6L68.9,20.1z"/>
	<path class="st5" d="M58.8,28.6l-1.5,0.5l0.5-1.5L58.8,28.6z"/>
	<path class="st0" d="M69.4,19.7l-2.6-2.6l-0.4,0.4l2.6,2.6L69.4,19.7z"/>
	<path class="st6" d="M69.3,19.7l-2.6-2.6c0.7-0.7,1.9-0.7,2.6,0C70.1,17.8,70.1,18.9,69.3,19.7z"/>
	<path class="st5" d="M81.5,19.5c-1.7,0-3,1.4-3,3h1.5c0-0.9,0.7-1.6,1.6-1.6c0.9,0,1.6,0.7,1.6,1.6c0,0.6-0.3,1.2-0.9,1.4
		c-0.9,0.4-1.4,1.3-1.4,2.3v0.5h1.5v-0.5c0-0.4,0.2-0.8,0.6-0.9c1.1-0.5,1.7-1.6,1.7-2.7C84.5,20.9,83.2,19.5,81.5,19.5z"/>
	<path class="st5" d="M82.2,27.5h-1.5V29h1.5V27.5z"/>
	<path class="st11" d="M26.6,39.9c3.3,0,5.9-2.7,5.9-5.9S29.9,28,26.6,28c-3.3,0-5.9,2.7-5.9,5.9S23.3,39.9,26.6,39.9z"/>
	<path class="st0" d="M27.1,35.9H26l-0.3-5.6h1.7L27.1,35.9z"/>
	<path class="st0" d="M27.1,36.6H26v1.1h1.1V36.6z"/>
</g>
</svg>
