<?xml version="1.0" encoding="utf-8"?>
<!-- Generator: Adobe Illustrator 24.3.0, SVG Export Plug-In . SVG Version: 6.00 Build 0)  -->
<svg version="1.1" id="Layer_1" xmlns="http://www.w3.org/2000/svg" xmlns:xlink="http://www.w3.org/1999/xlink" x="0px" y="0px"
	 viewBox="0 0 378 308" style="enable-background:new 0 0 378 308;" xml:space="preserve">
<style type="text/css">
	.st0{fill:#EEEEEE;}
	.st1{fill:#E6EAEE;}
	.st2{fill:#FF7059;}
	.st3{fill:#AAB5BD;}
	.st4{fill:#52BFEB;}
	.st5{fill:#CDD3DA;}
	.st6{fill:#34495E;}
	.st7{fill:#283A4D;}
</style>
<path class="st0" d="M17,0h344c9.4,0,17,7.6,17,17v274c0,9.4-7.6,17-17,17H17c-9.4,0-17-7.6-17-17V17C0,7.6,7.6,0,17,0z"/>
<path class="st1" d="M239.1,81h-134v150h134V81z"/>
<path class="st2" d="M239.1,61h-134v20h134V61z"/>
<path class="st3" d="M238.7,97.2H105v2.1h133.7V97.2z"/>
<path class="st3" d="M238.7,108.7H105v2h133.7V108.7z"/>
<path class="st3" d="M238.7,120.3H105v2.1h133.7V120.3z"/>
<path class="st3" d="M238.7,131.9H105v2.1h133.7V131.9z"/>
<path class="st3" d="M238.7,143.5H105v2.1h133.7V143.5z"/>
<path class="st3" d="M238.7,155.1H105v2.1h133.7V155.1z"/>
<path class="st3" d="M238.7,166.7H105v2.1h133.7V166.7z"/>
<path class="st3" d="M238.7,178.2H105v2.1h133.7V178.2z"/>
<path class="st3" d="M238.7,189.8H105v2.1h133.7V189.8z"/>
<path class="st3" d="M238.7,201.4H105v2.1h133.7V201.4z"/>
<path class="st3" d="M238.7,213H105v2.1h133.7V213z"/>
<path class="st4" d="M124.1,81h-3v150h3V81z"/>
<path class="st5" d="M239.1,231h-134v16h134V231z"/>
<path class="st6" d="M267.1,115h-12v121h12V115z"/>
<path class="st5" d="M267.1,175h-12v1h12V175z"/>
<path class="st6" d="M267.1,240h-12v7h12V240z"/>
<path class="st7" d="M262.7,101h-3.1l-4.4,14h12L262.7,101z"/>
<path class="st5" d="M261.8,97.2h-1.3v3.4h1.3V97.2z"/>
<path class="st5" d="M266.2,236.1H256v4.2h10.2V236.1z"/>
<path class="st7" d="M270,186v43.7c0,0.3-0.1,0.6-0.3,0.8c-0.2,0.2-0.5,0.3-0.8,0.3h-13.8v2.2h13.8c0.8,0,1.7-0.3,2.3-1
	c0.6-0.6,0.9-1.4,0.9-2.3V186H270z"/>
</svg>
