<?xml version="1.0" encoding="utf-8"?>
<!-- Generator: Adobe Illustrator 25.0.1, SVG Export Plug-In . SVG Version: 6.00 Build 0)  -->
<svg version="1.1" id="Layer_1" xmlns="http://www.w3.org/2000/svg" xmlns:xlink="http://www.w3.org/1999/xlink" x="0px" y="0px"
	 viewBox="0 0 224 80" style="enable-background:new 0 0 224 80;" xml:space="preserve">
<style type="text/css">
	.st0{fill:#FFFFFF;stroke:#7D6599;}
	.st1{fill:#7D6599;}
	.st2{fill:#FFFFFF;}
	.st3{fill:#B49ACA;}
	.st4{fill:#F5EFCA;}
	.st5{fill:#5D4C72;}
	.st6{fill:#E64C3C;}
	.st7{fill:#3D324C;}
	.st8{fill:#FF5364;}
	.st9{fill:#FB7B76;}
	.st10{fill:#CBB292;}
	.st11{fill:#2C2F38;}
</style>
<path class="st0" d="M216,21.5H82.9C76.3,9,63.1,0.5,48,0.5S19.7,9,13.1,21.5H8c-4.1,0-7.5,3.4-7.5,7.5v23c0,4.1,3.4,7.5,7.5,7.5
	h5.7c6.8,11.9,19.6,20,34.3,20s27.6-8.1,34.3-20H216c4.1,0,7.5-3.4,7.5-7.5V29C223.5,24.9,220.1,21.5,216,21.5z"/>
<path class="st1" d="M97.5,48h-1.8V35.3h-4.5v-1.6h10.7v1.6h-4.4C97.5,35.3,97.5,48,97.5,48z M106.5,37.1c0.9,0,1.7,0.2,2.4,0.6
	c0.7,0.4,1.2,1,1.5,1.7c0.4,0.7,0.5,1.6,0.5,2.5V43h-7.3c0,1.2,0.3,2.1,0.9,2.8c0.6,0.6,1.4,0.9,2.5,0.9c0.7,0,1.3-0.1,1.8-0.2
	c0.5-0.1,1.1-0.3,1.6-0.6v1.5c-0.5,0.2-1.1,0.4-1.6,0.5s-1.2,0.2-1.9,0.2c-1,0-1.9-0.2-2.7-0.6c-0.8-0.4-1.4-1-1.8-1.8
	s-0.6-1.8-0.6-3s0.2-2.2,0.6-3s1-1.5,1.7-1.9C104.8,37.3,105.6,37.1,106.5,37.1z M106.5,38.5c-0.8,0-1.5,0.3-2,0.8s-0.8,1.3-0.9,2.2
	h5.5c0-0.9-0.2-1.6-0.6-2.2C108.1,38.8,107.4,38.5,106.5,38.5z M115.8,42.5l-3.7-5.2h2l2.8,4l2.7-4h2l-3.7,5.2l3.9,5.5h-2l-2.9-4.3
	l-3,4.3h-2L115.8,42.5z M127.5,46.8c0.3,0,0.5,0,0.8-0.1s0.5-0.1,0.7-0.2v1.3c-0.2,0.1-0.5,0.2-0.8,0.2c-0.3,0.1-0.7,0.1-1,0.1
	c-0.6,0-1.1-0.1-1.6-0.3s-0.8-0.5-1.1-1c-0.3-0.5-0.4-1.2-0.4-2v-6.2h-1.5v-0.8l1.5-0.7l0.7-2.3h1v2.5h3.1v1.4h-3.1v6.2
	c0,0.7,0.2,1.1,0.5,1.5C126.6,46.6,127,46.8,127.5,46.8z M136.7,33.7L131.3,48h-1.7l5.3-14.3H136.7z M142.7,33.7
	c1.8,0,3.1,0.3,3.9,1c0.9,0.7,1.3,1.7,1.3,3c0,0.8-0.1,1.4-0.4,1.9s-0.6,0.9-1.1,1.2c-0.4,0.3-0.9,0.5-1.4,0.7l4,6.5h-2.1l-3.5-5.9
	h-2.8V48h-1.8V33.7H142.7z M142.6,35.3h-2v5.3h2.1c1.2,0,2-0.2,2.5-0.7s0.8-1.1,0.8-2s-0.3-1.6-0.8-2
	C144.7,35.5,143.8,35.3,142.6,35.3z M155.1,37.1c0.9,0,1.7,0.2,2.4,0.6c0.7,0.4,1.2,1,1.5,1.7c0.4,0.7,0.5,1.6,0.5,2.5V43h-7.3
	c0,1.2,0.3,2.1,0.9,2.8c0.6,0.6,1.4,0.9,2.5,0.9c0.7,0,1.3-0.1,1.8-0.2c0.5-0.1,1.1-0.3,1.6-0.6v1.5c-0.5,0.2-1.1,0.4-1.6,0.5
	s-1.2,0.2-1.9,0.2c-1,0-1.9-0.2-2.7-0.6c-0.8-0.4-1.4-1-1.8-1.8c-0.4-0.8-0.6-1.8-0.6-3s0.2-2.2,0.6-3c0.4-0.8,1-1.5,1.7-1.9
	C153.4,37.3,154.2,37.1,155.1,37.1z M155.1,38.5c-0.8,0-1.5,0.3-2,0.8s-0.8,1.3-0.9,2.2h5.5c0-0.9-0.2-1.6-0.6-2.2
	C156.7,38.8,156,38.5,155.1,38.5z M166.4,37.1c1.3,0,2.3,0.3,2.9,0.9s0.9,1.5,0.9,2.7V48h-1.3l-0.3-1.5h-0.1c-0.5,0.6-1,1-1.5,1.3
	s-1.2,0.4-2.1,0.4c-1,0-1.8-0.3-2.4-0.8c-0.6-0.5-1-1.3-1-2.4c0-1.1,0.4-1.9,1.3-2.5c0.8-0.6,2.1-0.9,3.9-1l1.8-0.1v-0.6
	c0-0.9-0.2-1.5-0.6-1.9c-0.4-0.3-0.9-0.5-1.6-0.5c-0.6,0-1.1,0.1-1.6,0.3s-1,0.3-1.4,0.6l-0.5-1.3c0.5-0.3,1-0.5,1.7-0.6
	C165,37.2,165.7,37.1,166.4,37.1z M168.4,42.8l-1.6,0.1c-1.3,0.1-2.3,0.3-2.8,0.6c-0.5,0.4-0.8,0.9-0.8,1.6c0,0.6,0.2,1,0.5,1.3
	c0.4,0.3,0.8,0.4,1.4,0.4c0.9,0,1.7-0.2,2.3-0.7s0.9-1.3,0.9-2.3v-1H168.4z M177.3,48.2c-1.3,0-2.4-0.5-3.2-1.4s-1.2-2.3-1.2-4.2
	s0.4-3.2,1.2-4.2c0.8-0.9,1.9-1.4,3.2-1.4c0.8,0,1.5,0.2,2,0.5s1,0.7,1.3,1.1h0.1c0-0.2,0-0.4-0.1-0.8c0-0.3,0-0.6,0-0.8v-4.3h1.8
	V48H181l-0.3-1.4h-0.1c-0.3,0.5-0.7,0.8-1.3,1.2C178.8,48,178.1,48.2,177.3,48.2z M177.6,46.7c1.1,0,1.9-0.3,2.4-0.9
	c0.5-0.6,0.7-1.6,0.7-2.8v-0.3c0-1.3-0.2-2.4-0.7-3.1c-0.4-0.7-1.3-1.1-2.4-1.1c-0.9,0-1.7,0.4-2.1,1.1c-0.5,0.7-0.7,1.8-0.7,3
	c0,1.3,0.2,2.3,0.7,3C175.9,46.4,176.6,46.7,177.6,46.7z M186.7,33.3c0.3,0,0.5,0.1,0.7,0.3s0.3,0.5,0.3,0.8c0,0.4-0.1,0.7-0.3,0.8
	c-0.2,0.2-0.4,0.3-0.7,0.3s-0.5-0.1-0.7-0.3s-0.3-0.5-0.3-0.8c0-0.4,0.1-0.7,0.3-0.8C186.2,33.4,186.4,33.3,186.7,33.3z M187.6,37.3
	V48h-1.8V37.3H187.6z M196.1,37.1c1.3,0,2.2,0.3,2.9,0.9c0.7,0.6,1,1.6,1,3v7h-1.7v-6.9c0-1.7-0.8-2.6-2.4-2.6c-1.2,0-2,0.3-2.5,1
	s-0.7,1.6-0.7,2.9V48H191V37.3h1.4l0.3,1.5h0.1c0.3-0.6,0.8-1,1.4-1.2C194.8,37.2,195.4,37.1,196.1,37.1z M207.1,37.1
	c0.7,0,1.3,0.1,1.9,0.4c0.6,0.3,1.1,0.7,1.5,1.2h0.1l0.2-1.4h1.4v10.9c0,1.5-0.4,2.7-1.2,3.5s-2,1.2-3.6,1.2s-2.9-0.2-3.9-0.7v-1.6
	c1.1,0.6,2.4,0.8,4,0.8c0.9,0,1.6-0.3,2.2-0.8c0.5-0.5,0.8-1.3,0.8-2.2V48c0-0.2,0-0.4,0-0.7s0-0.5,0-0.6h-0.1
	c-0.7,1.1-1.8,1.6-3.3,1.6c-1.4,0-2.5-0.5-3.3-1.5s-1.2-2.3-1.2-4.1c0-1.7,0.4-3.1,1.2-4.1C204.7,37.6,205.8,37.1,207.1,37.1z
	 M207.4,38.6c-0.9,0-1.6,0.4-2.1,1.1c-0.5,0.7-0.7,1.7-0.7,3s0.2,2.3,0.7,3s1.2,1,2.1,1c1.1,0,1.9-0.3,2.4-0.9
	c0.5-0.6,0.7-1.5,0.7-2.8v-0.4c0-1.5-0.3-2.5-0.8-3.1C209.2,38.9,208.4,38.6,207.4,38.6z"/>
<rect x="80" y="22" class="st2" width="8" height="37"/>
<path class="st3" d="M38.2,15v37.9h-0.9c-2.4,0-4.3,1.9-4.3,4.3V19.3c0-2.4,1.9-4.3,4.3-4.3C37.3,15,38.2,15,38.2,15z"/>
<path class="st1" d="M66.7,16.7v34.5c0,1-0.8,1.7-1.7,1.7H38.2V15H65C65.9,15,66.7,15.8,66.7,16.7z"/>
<path class="st4" d="M64.1,61.6H37.6c-2.3,0-4.2-1.6-4.5-3.9c0-0.1,0-0.3,0-0.4c0-2.4,1.9-4.3,4.3-4.3h26.7c-1.4,0-2.6,1.9-2.6,4.3
	C61.5,59.6,62.7,61.6,64.1,61.6z"/>
<path class="st5" d="M65,52.1H38.2c-2.9,0-5.2,2.3-5.2,5.2c0,0.2,0,0.3,0,0.5c0.3,2.7,2.6,4.7,5.3,4.7h27.4c0.5,0,0.9-0.4,0.9-0.9
	V50.3C66.7,51.3,65.9,52.1,65,52.1z M34.8,57.6c0-0.1,0-0.2,0-0.3c0-1.9,1.5-3.4,3.4-3.4h24.3c-1.4,2.1-1.4,4.8,0,6.9H38.4
	C36.6,60.7,35,59.4,34.8,57.6z"/>
<path class="st6" d="M41.7,57.2h8.6v6.9c0,0.3-0.2,0.6-0.4,0.8c-0.3,0.2-0.6,0.1-0.9,0l-2.6-1.5c-0.3-0.2-0.6-0.2-0.9,0L43,64.9
	c-0.3,0.2-0.6,0.2-0.9,0c-0.3-0.2-0.4-0.4-0.4-0.8C41.7,64.1,41.7,57.2,41.7,57.2z"/>
<path class="st7" d="M47.4,31.1c-0.4,1.2-0.5,2.5-0.5,3.8v4.4c-2.1-0.8-3.4-2.3-3.4-4C43.4,33.4,45,31.8,47.4,31.1z"/>
<path class="st7" d="M58.1,35.3c0,1.7-1.4,3.2-3.4,4v-4.4c0-1.1,0.3-2.2,0.9-3.2C57.1,32.5,58.1,33.8,58.1,35.3z"/>
<path class="st8" d="M33.1,49.5v7.8c-2.9,0-5.7-1-7.9-2.9c-0.2-0.2-0.4-0.4-0.6-0.6c-0.2-0.2-0.4-0.4-0.6-0.6c-1.7-2-2.7-4.4-2.9-7
	c0-0.3,0-0.6,0-0.9V33.5c0-2.1,1.7-3.9,3.9-3.9s3.9,1.7,3.9,3.9v11.6c0,0.3,0,0.6,0.1,0.9c0.1,0.5,0.3,1.1,0.6,1.5
	c0.3,0.5,0.7,0.9,1.2,1.2C31.4,49.2,32.2,49.5,33.1,49.5z"/>
<path class="st9" d="M28.8,46H21c0-0.3,0-0.6,0-0.9v-0.9h7.8v0.9C28.8,45.5,28.8,45.8,28.8,46z"/>
<path class="st9" d="M21,37.4h7.8v1.7H21V37.4z"/>
<path class="st9" d="M30.7,48.8l-5.5,5.5c-0.2-0.2-0.4-0.4-0.6-0.6c-0.2-0.2-0.4-0.4-0.6-0.6l5.5-5.5C29.8,48,30.2,48.4,30.7,48.8z"
	/>
<path class="st10" d="M53.8,58.1H39.1c-0.5,0-0.9-0.4-0.9-0.9s0.4-0.9,0.9-0.9h14.7c0.5,0,0.9,0.4,0.9,0.9S54.2,58.1,53.8,58.1z"/>
<path class="st8" d="M71,24.9c0,1-0.4,2-1.1,2.7s-1.7,1.1-2.7,1.1h-6.5c-0.3,0-0.6,0-0.9,0.1c-0.3,0-0.6,0.1-0.9,0.2
	c-0.9,0.3-1.7,0.7-2.4,1.3c-0.2,0.2-0.4,0.4-0.6,0.6c-0.2,0.2-0.3,0.4-0.5,0.7c0,0,0,0,0,0.1c-0.4,0.7-0.7,1.4-0.8,2.2
	c0,0.3-0.1,0.6-0.1,0.9v4.4c-2.5,1-5.3,1-7.8,0v-4.4c0-0.3,0-0.6,0-0.9c0.1-1,0.2-2,0.5-2.9c0.5-1.8,1.4-3.4,2.5-4.9
	c0.2-0.2,0.4-0.4,0.6-0.7c0.1-0.2,0.3-0.3,0.4-0.4l0.2-0.2c2.1-2.1,4.9-3.4,7.9-3.7c0.3,0,0.6-0.1,0.9-0.1c0.3,0,0.6,0,0.9,0h2.6
	c0,1.7,1.2,3.1,2.8,3.4s3.3-0.6,3.8-2.2C70.6,23,71,23.9,71,24.9z"/>
<path class="st2" d="M70.1,21c0,0.4-0.1,0.8-0.2,1.2c-0.6,1.7-2.4,2.6-4.1,2.1s-2.8-2.2-2.4-3.9c0.3-1.7,1.9-3,3.7-2.8
	C68.8,17.8,70.1,19.3,70.1,21z"/>
<path class="st11" d="M66.7,21.9c0.5,0,0.9-0.4,0.9-0.9s-0.4-0.9-0.9-0.9s-0.9,0.4-0.9,0.9C65.8,21.5,66.2,21.9,66.7,21.9z"/>
<path class="st9" d="M56.6,30.4c-0.2,0.2-0.4,0.4-0.6,0.6c-0.2,0.2-0.3,0.4-0.5,0.7c0,0,0,0,0,0.1l-5.6-5.6c0.2-0.2,0.4-0.4,0.6-0.7
	c0.1-0.2,0.3-0.3,0.4-0.4l0.2-0.2L56.6,30.4z"/>
<path class="st9" d="M54.7,34c0,0.3-0.1,0.6-0.1,0.9v0.9h-7.8v-0.9c0-0.3,0-0.6,0-0.9H54.7z"/>
<path class="st9" d="M60.7,21v7.8c-0.3,0-0.6,0-0.9,0.1c-0.3,0-0.6,0.1-0.9,0.2v-7.9c0.3,0,0.6-0.1,0.9-0.1C60.1,21,60.4,21,60.7,21
	z"/>
</svg>
