<svg width="12" height="18" viewBox="0 0 12 18" fill="none" xmlns="http://www.w3.org/2000/svg">
<path d="M0.0317041 15.8842L0.031704 17.6959C0.031704 17.8529 0.212173 17.9397 0.334048 17.8436L10.8997 9.59122C10.9894 9.52141 11.0621 9.43202 11.112 9.32986C11.162 9.22771 11.188 9.11549 11.188 9.00177C11.188 8.88805 11.162 8.77583 11.112 8.67368C11.0621 8.57152 10.9894 8.48213 10.8997 8.41232L0.33405 0.159972C0.209831 0.0638781 0.0317055 0.150596 0.0317055 0.307628L0.0317053 2.11935C0.0317053 2.23419 0.0856108 2.34435 0.174673 2.41466L8.61217 9.0006L0.174672 15.5889C0.0856096 15.6592 0.0317041 15.7693 0.0317041 15.8842Z" fill="#FFDC54"/>
</svg>
