<svg width="394" height="220" viewBox="0 0 394 220" fill="none" xmlns="http://www.w3.org/2000/svg">
    <g opacity="0.5">
        <path d="M338.5 143.5C338.5 207.013 150 227 64 194C77 111 13 164.013 13 100.5C13 36.9873 221.987 44.5001 285.5 44.5001C349.013 44.5001 338.5 79.9873 338.5 143.5Z" fill="#EEEEEE" fill-opacity="0.4"/>
        <path d="M338.5 143.5C338.5 207.013 150 227 64 194C77 111 13 164.013 13 100.5C13 36.9873 221.987 44.5001 285.5 44.5001C349.013 44.5001 338.5 79.9873 338.5 143.5Z" fill="url(#paint0_linear)"/>
    </g>
    <path d="M15.4599 166.022C14.3788 166.646 13.5364 167.682 13.1885 168.982C12.8403 170.283 13.0516 171.601 13.6755 172.682L33.1748 206.456C33.7986 207.536 34.8349 208.379 36.1348 208.727C37.4346 209.076 38.7528 208.864 39.8339 208.24L68.1197 191.909C69.466 194.241 72.4479 195.04 74.7787 193.694C77.1094 192.349 77.9084 189.367 76.5623 187.035L104.85 170.703C105.929 170.08 106.772 169.044 107.121 167.744C107.469 166.443 107.257 165.125 106.633 164.045L87.1337 130.271C86.5098 129.19 85.4746 128.347 84.1741 127.999C82.8742 127.651 81.5546 127.863 80.4754 128.486L15.4602 166.023L15.4599 166.022Z" fill="#3F4A5A"/>
    <path d="M41.3084 145.47L13.0225 161.801L37.397 204.019L65.6828 187.688C68.0146 186.342 70.9956 187.141 72.3415 189.472L47.967 147.255C46.6216 144.924 43.6387 144.125 41.3084 145.47Z" fill="#EFEFEF"/>
    <path d="M49.7507 140.595L78.0379 124.263L102.412 166.481L74.1252 182.812C71.793 184.159 70.9954 187.14 72.3413 189.471L47.9668 147.253C46.6214 144.923 47.4208 141.94 49.7507 140.595Z" fill="#EFEFEF"/>
    <path d="M41.3083 145.469L65.6827 187.687C68.0145 186.341 70.9955 187.141 72.3414 189.472L47.9669 147.254C46.6215 144.924 43.6385 144.124 41.3083 145.469Z" fill="#E6E5E5"/>
    <path d="M46.4048 164.049L26.5634 175.504L27.711 177.492L47.5524 166.036L46.4048 164.049Z" fill="#CCCBCA"/>
    <path d="M48.7005 168.025L28.8591 179.48L30.0064 181.467L49.8478 170.012L48.7005 168.025Z" fill="#CCCBCA"/>
    <path d="M50.9934 171.996L31.152 183.452L32.299 185.439L52.1404 173.983L50.9934 171.996Z" fill="#CCCBCA"/>
    <path d="M53.2891 175.973L33.4477 187.428L34.5942 189.414L54.4356 177.959L53.2891 175.973Z" fill="#CCCBCA"/>
    <path d="M55.5819 179.944L35.7405 191.4L36.8873 193.386L56.7287 181.931L55.5819 179.944Z" fill="#CCCBCA"/>
    <path d="M57.8749 183.916L38.0335 195.371L39.1803 197.358L59.0217 185.902L57.8749 183.916Z" fill="#CCCBCA"/>
    <path d="M76.2529 130.923L56.412 142.378L57.5592 144.366L77.4002 132.91L76.2529 130.923Z" fill="#CCCBCA"/>
    <path d="M78.5463 134.895L58.7053 146.35L59.8523 148.337L79.6933 136.882L78.5463 134.895Z" fill="#CCCBCA"/>
    <path d="M80.8414 138.87L61.0004 150.325L62.1474 152.312L81.9884 140.857L80.8414 138.87Z" fill="#CCCBCA"/>
    <path d="M83.1348 142.843L63.2939 154.298L64.4415 156.286L84.2824 144.83L83.1348 142.843Z" fill="#CCCBCA"/>
    <path d="M85.4306 146.819L65.5896 158.274L66.7369 160.261L86.5778 148.806L85.4306 146.819Z" fill="#CCCBCA"/>
    <path d="M87.7236 150.79L67.8826 162.246L69.0296 164.232L88.8706 152.777L87.7236 150.79Z" fill="#CCCBCA"/>
    <path d="M90.0192 154.767L70.1782 166.222L71.3247 168.208L91.1657 156.753L90.0192 154.767Z" fill="#CCCBCA"/>
    <path d="M92.3122 158.738L72.4712 170.194L73.618 172.18L93.4589 160.725L92.3122 158.738Z" fill="#CCCBCA"/>
    <path d="M94.605 162.71L74.764 174.165L75.9108 176.151L95.7517 164.696L94.605 162.71Z" fill="#CCCBCA"/>
    <path d="M39.5228 152.129L19.6814 163.584L25.4165 173.518L45.2579 162.062L39.5228 152.129Z" fill="#F8C963"/>
    <path d="M49.9999 140.451L73.084 180.433L73.9235 177.3L77.0575 178.139L53.9734 138.157L49.9999 140.451Z" fill="#F67656"/>
    <g clip-path="url(#clip0)">
        <path d="M112.885 31.2205C112.222 34.0564 111.864 37.0087 111.864 40.0419C111.864 61.5493 129.301 78.9829 150.804 78.9829C172.31 78.9829 189.745 61.5506 189.745 40.0419H137.564C128.191 40.0419 119.598 36.7346 112.885 31.2205Z" fill="#E6E5E5"/>
        <path d="M266.613 31.2205C267.264 34.0564 267.622 37.0087 267.622 40.0419C267.622 61.5493 250.194 78.9829 228.684 78.9829C207.173 78.9829 189.744 61.5493 189.744 40.0419H241.922C251.288 40.0419 259.888 36.7346 266.613 31.2205Z" fill="#E6E5E5"/>
        <path d="M241.929 40.0405H137.565V90.9569H241.929V40.0405Z" fill="#E6E5E5"/>
        <path d="M143.817 90.9519C132.492 102.534 125.504 118.371 125.504 135.847C125.504 171.328 154.264 200.087 189.744 200.087C225.225 200.087 253.984 171.328 253.984 135.847C253.984 118.371 246.998 102.534 235.677 90.9519H143.817Z" fill="#3F4A5A"/>
        <path d="M189.744 200.088C211.498 200.088 229.132 182.453 229.132 160.699C229.132 138.946 211.498 121.311 189.744 121.311C167.99 121.311 150.356 138.946 150.356 160.699C150.356 182.453 167.99 200.088 189.744 200.088Z" fill="white"/>
        <path d="M189.744 141.446L172.145 123.847L189.744 90.9585L207.342 123.847L189.744 141.446Z" fill="#FAD97F"/>
        <path d="M293.586 20.7969H287.423V57.0752H293.586V20.7969Z" fill="#3F4A5A"/>
        <path d="M233.744 20.7969H145.744V40.0416L189.744 52.6739L233.744 40.0416V20.7969Z" fill="#333C49"/>
        <path d="M189.744 13.4546H79.7446V20.7971H189.744V13.4546Z" fill="#3F4A5A"/>
        <path d="M299.743 13.4546H189.744V20.7971H299.743V13.4546Z" fill="#262E37"/>
        <path d="M216.803 84.1355H206.684C206.684 74.7963 199.082 67.1969 189.743 67.1969C180.402 67.1969 172.802 74.7959 172.802 84.1355H162.683C162.683 69.2169 174.821 57.0757 189.741 57.0757C204.662 57.0757 216.803 69.2169 216.803 84.1355Z" fill="#333C49"/>
        <path d="M145.744 134.952C170.045 134.952 189.744 115.253 189.744 90.9526C189.744 66.6522 170.045 46.9529 145.744 46.9529C121.444 46.9529 101.744 66.6522 101.744 90.9526C101.744 115.253 121.444 134.952 145.744 134.952Z" fill="#333C49"/>
        <path d="M145.744 124.832C164.456 124.832 179.624 109.664 179.624 90.9525C179.624 72.2413 164.456 57.0728 145.744 57.0728C127.033 57.0728 111.864 72.2413 111.864 90.9525C111.864 109.664 127.033 124.832 145.744 124.832Z" fill="white"/>
        <path d="M233.744 134.952C258.044 134.952 277.743 115.253 277.743 90.9526C277.743 66.6522 258.044 46.9529 233.744 46.9529C209.443 46.9529 189.744 66.6522 189.744 90.9526C189.744 115.253 209.443 134.952 233.744 134.952Z" fill="#333C49"/>
        <path d="M233.744 124.831C252.454 124.831 267.622 109.663 267.622 90.9525C267.622 72.2419 252.454 57.074 233.744 57.074C215.033 57.074 199.865 72.2419 199.865 90.9525C199.865 109.663 215.033 124.831 233.744 124.831Z" fill="white"/>
        <path d="M167.757 90.9522C167.757 103.11 157.901 112.966 145.742 112.966C133.616 112.966 123.757 103.11 123.757 90.9522C123.757 78.824 133.615 68.9666 145.742 68.9666C157.901 68.9666 167.757 78.824 167.757 90.9522Z" fill="#FAD97F"/>
        <path d="M155.917 90.9523C155.917 96.5687 151.361 101.129 145.741 101.129C140.126 101.129 135.565 96.5687 135.565 90.9523C135.565 85.3359 140.127 80.7756 145.741 80.7756C151.361 80.7756 155.917 85.3363 155.917 90.9523Z" fill="#3F4A5A"/>
        <path d="M143.696 84.4872C143.696 86.9269 141.717 88.9069 139.273 88.9069C136.86 88.9069 134.883 86.9269 134.883 84.4872C134.883 82.0702 136.86 80.0928 139.273 80.0928C141.718 80.0945 143.696 82.0702 143.696 84.4872Z" fill="white"/>
        <path d="M255.758 90.9522C255.758 103.11 245.903 112.966 233.744 112.966C221.615 112.966 211.758 103.11 211.758 90.9522C211.758 78.824 221.615 68.9666 233.744 68.9666C245.902 68.9666 255.758 78.824 255.758 90.9522Z" fill="#FAD97F"/>
        <path d="M243.92 90.9523C243.92 96.5687 239.366 101.129 233.744 101.129C228.127 101.129 223.567 96.5687 223.567 90.9523C223.567 85.3359 228.127 80.7756 233.744 80.7756C239.366 80.7756 243.92 85.3363 243.92 90.9523Z" fill="#3F4A5A"/>
        <path d="M231.701 84.4872C231.701 86.9269 229.72 88.9069 227.28 88.9069C224.863 88.9069 222.886 86.9269 222.886 84.4872C222.886 82.0702 224.863 80.0928 227.28 80.0928C229.718 80.0945 231.701 82.0702 231.701 84.4872Z" fill="white"/>
        <path d="M282.981 187.198H96.4928V193.639H282.981V187.198Z" fill="#FAD97F"/>
        <path d="M282.981 193.642H96.4928V200.093H282.981V193.642Z" fill="#F8C963"/>
        <path d="M282.981 200.086H96.4928V206.537H282.981V200.086Z" fill="#D7753E"/>
        <path d="M96.4971 206.545L85.3197 200.087V193.642L96.4928 187.197L96.4971 206.545Z" fill="#EFEFEF"/>
        <path d="M96.4971 206.545L96.4928 200.087L85.3197 197.927V200.087L96.4971 206.545Z" fill="#CCCBCA"/>
        <path d="M85.3197 200.087L79.7446 196.857L85.3197 193.642V200.087Z" fill="#3F4A5A"/>
        <path d="M288.568 200.086H282.981V206.537H288.568V200.086Z" fill="#CCCBCA"/>
        <path d="M288.568 187.198H282.981V200.086H288.568V187.198Z" fill="#EFEFEF"/>
        <path d="M290.075 206.533H288.571V200.088L290.075 200.082C292.538 200.082 295.022 199.142 296.913 197.265C297.958 196.184 298.731 194.951 299.184 193.631C299.553 194.679 299.745 195.755 299.745 196.857C299.745 199.344 298.794 201.804 296.914 203.702C295.022 205.593 292.539 206.527 290.075 206.533Z" fill="#262E37"/>
        <path d="M290.075 200.082L288.571 200.088V187.186H290.075C292.538 187.186 295.022 188.137 296.913 190.022C297.958 191.069 298.717 192.31 299.184 193.631C298.733 194.951 297.959 196.184 296.913 197.264C295.022 199.142 292.539 200.082 290.075 200.082Z" fill="#3F4A5A"/>
        <path d="M212.301 202.584C212.301 204.762 210.516 206.544 208.337 206.544C206.16 206.544 204.378 204.762 204.378 202.584V187.194C204.378 185.016 206.16 183.231 208.337 183.231C210.516 183.231 212.301 185.016 212.301 187.194V202.584Z" fill="#3F4A5A"/>
        <path d="M220.216 202.584C220.216 204.762 218.436 206.544 216.257 206.544C214.079 206.544 212.301 204.762 212.301 202.584V187.194C212.301 185.016 214.079 183.231 216.257 183.231C218.436 183.231 220.216 185.016 220.216 187.194V202.584Z" fill="#3F4A5A"/>
        <path d="M228.139 202.584C228.139 204.762 226.359 206.544 224.18 206.544C222.002 206.544 220.216 204.762 220.216 202.584V187.194C220.216 185.016 222.001 183.231 224.18 183.231C226.359 183.231 228.139 185.016 228.139 187.194V202.584Z" fill="#3F4A5A"/>
        <path d="M159.272 202.584C159.272 204.762 157.487 206.544 155.308 206.544C153.13 206.544 151.349 204.762 151.349 202.584V187.194C151.349 185.016 153.13 183.231 155.308 183.231C157.486 183.231 159.272 185.016 159.272 187.194V202.584Z" fill="#3F4A5A"/>
        <path d="M167.189 202.584C167.189 204.762 165.409 206.544 163.229 206.544C161.052 206.544 159.272 204.762 159.272 202.584V187.194C159.272 185.016 161.052 183.231 163.229 183.231C165.409 183.231 167.189 185.016 167.189 187.194V202.584Z" fill="#3F4A5A"/>
        <path d="M175.109 202.584C175.109 204.762 173.326 206.544 171.15 206.544C168.972 206.544 167.187 204.762 167.187 202.584V187.194C167.187 185.016 168.97 183.231 171.15 183.231C173.326 183.231 175.109 185.016 175.109 187.194V202.584Z" fill="#3F4A5A"/>
    </g>
    <path d="M308.17 112.133L307.079 111.041C307.546 110.576 308.02 110.124 308.504 109.686L309.538 110.83C309.074 111.25 308.618 111.686 308.17 112.133Z" fill="#E6E5E5"/>
    <path d="M366.534 162.218L365.295 161.301C366.029 160.309 366.72 159.272 367.349 158.22L368.673 159.011C368.018 160.106 367.298 161.185 366.534 162.218ZM370.485 155.606L369.091 154.949C369.614 153.835 370.089 152.683 370.501 151.524L371.954 152.039C371.525 153.246 371.032 154.447 370.485 155.606ZM373.064 148.347L371.568 147.977C371.863 146.78 372.104 145.557 372.282 144.341L373.808 144.563C373.623 145.83 373.373 147.103 373.064 148.347ZM374.179 140.726L372.638 140.652C372.667 140.049 372.682 139.447 372.682 138.844C372.682 138.213 372.665 137.579 372.634 136.947L374.175 136.87C374.208 137.528 374.224 138.186 374.224 138.844C374.224 139.472 374.208 140.099 374.179 140.726ZM372.267 133.259C372.087 132.045 371.844 130.823 371.544 129.625L373.04 129.25C373.353 130.498 373.606 131.77 373.792 133.033L372.267 133.259ZM370.469 126.079C370.055 124.919 369.576 123.768 369.05 122.657L370.443 121.996C370.992 123.154 371.49 124.352 371.921 125.559L370.469 126.079ZM367.299 119.392C366.667 118.342 365.973 117.308 365.234 116.316L366.471 115.393C367.24 116.426 367.963 117.504 368.62 118.597L367.299 119.392ZM362.879 113.455C362.47 113.004 362.049 112.562 361.615 112.128C361.171 111.683 360.718 111.252 360.258 110.835L361.294 109.692C361.773 110.126 362.244 110.574 362.707 111.037C363.158 111.488 363.596 111.948 364.021 112.416L362.879 113.455ZM357.394 108.481C356.406 107.747 355.369 107.054 354.315 106.422L355.109 105.099C356.206 105.758 357.284 106.479 358.314 107.243L357.394 108.481ZM312.405 108.476L311.487 107.236C312.516 106.473 313.596 105.75 314.693 105.093L315.487 106.415C314.432 107.049 313.396 107.74 312.405 108.476ZM351.048 104.675C349.94 104.151 348.788 103.675 347.624 103.259L348.144 101.807C349.356 102.238 350.554 102.735 351.708 103.28L351.048 104.675ZM318.754 104.669L318.096 103.274C319.251 102.728 320.45 102.233 321.66 101.801L322.18 103.253C321.017 103.668 319.865 104.145 318.754 104.669ZM344.079 102.187C342.888 101.89 341.665 101.648 340.444 101.467L340.669 99.9407C341.94 100.129 343.213 100.381 344.451 100.69L344.079 102.187ZM325.727 102.182L325.354 100.686C326.602 100.375 327.875 100.123 329.137 99.9386L329.361 101.465C328.15 101.642 326.926 101.884 325.727 102.182ZM336.756 101.105C335.521 101.044 334.282 101.045 333.05 101.104L332.975 99.5639C334.26 99.501 335.547 99.5018 336.832 99.5645L336.756 101.105Z" fill="#E6E5E5"/>
    <path d="M362.7 166.663L361.61 165.571C362.059 165.123 362.493 164.667 362.914 164.202L364.057 165.239C363.618 165.722 363.166 166.197 362.7 166.663Z" fill="#E6E5E5"/>
    <path d="M303.129 110.359L363.388 170.618L366.66 167.346L306.401 107.087L303.129 110.359Z" fill="#3F4A5A"/>
    <path d="M334.893 179.724C334.892 179.724 334.891 179.724 334.889 179.724C323.972 179.723 313.709 175.472 305.99 167.752C298.268 160.032 294.016 149.768 294.017 138.851C294.017 127.936 298.268 117.673 305.988 109.953L309.26 113.224C302.414 120.07 298.643 129.171 298.643 138.851C298.643 148.533 302.414 157.634 309.261 164.479C316.107 171.325 325.208 175.096 334.89 175.097C334.891 175.097 334.892 175.097 334.893 175.097C344.574 175.097 353.674 171.328 360.518 164.482L363.791 167.753C356.073 175.473 345.81 179.724 334.893 179.724Z" fill="#3F4A5A"/>
    <path d="M337.208 177.414H332.582V186.667H337.208V177.414Z" fill="#3F4A5A"/>
    <path d="M351.281 191.291H318.504V188.978C318.504 188.387 318.73 187.795 319.183 187.342C319.635 186.889 320.225 186.664 320.819 186.664H348.966C349.561 186.664 350.153 186.889 350.604 187.342C351.055 187.795 351.281 188.387 351.281 188.978V191.291Z" fill="#333C49"/>
    <path d="M364.97 195.919H304.815V193.606C304.815 193.014 305.042 192.423 305.495 191.97C305.947 191.517 306.538 191.292 307.131 191.292H362.658C363.248 191.292 363.842 191.517 364.294 191.97C364.744 192.423 364.97 193.014 364.97 193.606V195.919Z" fill="#3F4A5A"/>
    <path d="M364.969 138.852C364.969 155.461 351.507 168.925 334.89 168.925C318.278 168.925 304.817 155.461 304.817 138.852C304.817 122.236 318.279 108.777 334.89 108.777C351.506 108.777 364.969 122.237 364.969 138.852Z" fill="#84D7E8"/>
    <path d="M345.452 110.687C350.938 115.699 354.38 122.91 354.38 130.929C354.38 146.066 342.11 158.339 326.963 158.339C318.948 158.339 311.739 154.894 306.727 149.41C311.003 160.809 321.996 168.925 334.889 168.925C351.506 168.925 364.969 155.461 364.969 138.852C364.969 125.956 356.855 114.964 345.452 110.687Z" fill="#6BC7D9"/>
    <path d="M327.853 163.994C327.975 164.016 328.3 163.905 328.391 163.879C328.169 163.7 327.682 163.68 327.401 163.508C327.426 163.518 326.495 162.956 326.694 163.418C326.744 163.53 326.916 163.428 327 163.487C326.888 163.652 326.838 163.602 326.96 163.678C326.96 163.674 325.932 163.117 326.964 163.08C326.25 162.438 327.012 162.637 326.785 162.233C326.629 161.953 327.392 161.689 326.978 161.449C326.787 161.335 326.572 161.355 326.369 161.219C326.085 161.012 326.354 160.648 326.62 160.685C326.645 160.685 326.785 160.039 326.833 159.935C326.755 159.904 326.225 159.244 326.354 159.105C326.51 158.94 327.201 159.531 327.37 159.093C327.438 158.936 327.131 158.513 327.155 158.335C327.467 158.305 329.52 158.383 329.172 157.439C329.052 157.117 328.188 156.627 328.278 156.356C328.577 156.401 329.076 156.836 329.395 156.664C329.661 156.528 329.871 156.814 330.15 156.509C330.194 156.454 330.652 155.962 330.518 155.871C330.379 155.87 330.305 155.946 330.29 156.112C330.13 155.889 330.41 155.733 330.558 155.578C330.592 155.623 330.625 155.671 330.661 155.715C330.831 155.46 331.782 154.222 331.81 154.193C332.299 153.633 331.9 152.873 332.381 152.421C332.819 152.006 333.296 151.735 333.844 151.519C334.015 151.451 334.616 151.13 334.741 151.169C335.749 151.478 335.627 150.273 336.271 149.731C336.917 149.187 336.44 146.399 336.97 146.194C337.259 146.083 338.114 145.024 338.561 144.544C338.991 144.08 339.043 143.487 338.877 142.894C338.623 141.992 338.366 142.506 337.717 142.119C337.193 141.805 336.794 141.184 336.149 141.095C335.77 141.04 335.371 141.156 335.001 141.042C334.838 140.998 334.406 140.731 334.244 140.956C334.27 140.917 333.896 141.095 333.923 141.104C333.882 141.079 333.915 140.61 333.792 140.495C333.596 140.31 332.921 140.119 332.677 140.06C332.118 139.914 331.981 140.577 331.836 139.785C331.374 139.662 330.916 139.123 330.994 138.986C331.036 138.931 330.275 137.323 330.17 137.475C330.16 136.932 328.488 136.263 328.062 136.518C327.679 136.797 326.98 136.269 326.744 136.019C326.479 135.73 326.486 135.428 326.043 135.244C325.851 135.16 325.525 135.203 325.6 134.876C325.676 134.531 324.776 134.459 324.691 134.127C324.82 134.15 324.926 134.088 325.044 134.054C324.695 134.177 324.268 133.92 323.923 134.205C323.421 134.623 323.124 134.007 322.574 134.114C321.874 134.248 322.345 133.995 321.906 133.724C322.085 133.836 321.089 133.27 321.322 133.291C321.116 133.268 321.354 133.636 321.123 133.715C320.76 133.85 320.445 133.932 320.681 134.371C321.082 135.164 319.847 134.789 320.427 134.247C320.531 134.155 320.561 133.117 320.675 133.151C320.53 133.104 319.403 133.836 319.272 133.991C318.913 133.411 318.298 135.429 318.094 135.44C317.992 134.947 317.52 134.744 317.11 134.6C316.758 134.459 316.407 135.298 315.954 134.841C315.139 134.015 315.496 132.692 315.908 131.747C316.083 131.316 314.407 131.183 314.202 131.358C313.791 131.693 314.266 130.669 314.264 130.699C314.308 130.287 314.402 130.015 314.586 130.018C314.694 129.777 315.317 128.659 315.252 128.522C315.003 127.938 313.946 128.98 313.846 129.238C313.738 129.492 313.535 129.634 313.436 129.864C313.337 130.096 313.143 129.812 312.975 129.906C312.518 130.164 311.867 130.03 311.965 129.369C312.069 128.572 311.765 126.996 312.661 126.45C312.935 126.282 312.979 125.488 313.294 125.204C313.332 125.171 314.238 124.647 314.148 124.545C314.282 124.683 314.992 124.399 315.083 124.586C315.153 124.733 315.572 124.897 315.719 124.81C315.711 124.827 315.792 124.461 315.792 124.456C315.781 124.451 315.501 124.412 315.512 124.324C315.546 124.199 316.394 124.283 316.423 124.285C316.824 124.314 317.121 124.647 317.421 124.447C317.882 124.133 317.6 126.201 317.785 126.387C317.885 126.499 317.812 126.748 318.008 126.728C318.271 126.701 318.356 124.049 319.039 123.496C319.538 123.091 320.084 122.729 320.637 122.43C320.812 122.341 321.27 122.117 321.365 121.944C321.344 121.862 321.261 121.76 321.167 121.85C321.139 121.685 321.41 121.785 321.462 121.615C321.512 121.447 321.321 121.387 321.342 121.33C321.335 121.345 321.513 120.98 321.453 121.031C321.462 121.039 321.462 121.057 321.465 121.066C321.739 121.111 321.406 120.812 321.393 120.766C321.751 120.95 321.604 120.37 321.953 120.34C321.701 120.445 321.748 120.727 321.785 120.903C321.856 121.278 322.19 120.378 322.153 120.411C322.49 120.273 323.015 119.991 323.376 119.737C323.29 119.702 323.203 119.765 323.101 119.694C323.47 119.56 323.888 119.606 324.239 119.421C324.222 119.049 324.448 118.656 324.869 118.586C325.511 118.482 326.265 118.088 326.905 117.87C326.811 118.093 326.958 117.92 327.133 118.003C326.922 117.462 325.784 119.01 326.327 118.696C326.785 118.434 328.327 118.19 328.538 117.744C328.533 117.72 328.434 117.426 328.437 117.426C328.056 117.426 328.025 117.895 327.557 117.891C326.705 117.883 327.219 117.359 327.041 117.126C326.893 117.16 326.763 117.119 326.661 117.003C326.745 116.985 327.794 116.742 327.24 116.616C326.339 116.423 325.74 117.426 324.999 117.401C325.553 117.064 326.306 116.344 326.976 116.255C327.691 116.155 328.685 116.505 329.312 116.063C329.874 115.674 330.259 115.959 330.576 115.326C330.671 115.156 330.164 114.939 330.034 114.91C330.093 114.846 330.204 114.91 330.245 114.803C329.402 114.428 329.225 114.055 329.125 113.079C328.694 113.392 327.256 114.061 328.025 112.975C327.749 112.853 326.875 112.126 326.54 112.629C326.384 112.854 326.141 113.236 325.882 113.352C325.313 113.609 325.822 113.561 325.628 113.944C325.304 114.576 324.527 114.488 324.152 115.041C323.92 115.388 323.85 115.632 323.486 115.796C323.169 115.934 323.049 115.56 323.205 115.264C323.317 115.388 323.419 115.409 323.508 115.314C323.537 115.18 323.343 115.245 323.283 115.193C323.391 114.998 323.53 114.819 323.687 114.653C323.634 114.625 322.827 114.497 322.856 114.283C322.911 113.842 322.354 114.085 322.259 113.951C322.69 113.408 322.69 113.155 323.537 112.73C323.823 112.586 325.45 111.754 325.752 111.96C325.714 112.149 325.512 112.111 325.404 112.204C325.637 112.269 326.317 112.339 326.548 112.176C326.498 112.134 326.225 111.683 326.366 111.577C326.344 111.597 326.83 111.588 326.869 111.572C327.131 111.51 327.417 111.478 327.565 111.213C327.693 110.979 328.55 110.676 328.757 110.792C329.877 111.427 327.234 112.103 327.206 112.032C327.261 112.216 327.972 111.902 328.151 112.391C328.196 112.509 329.01 112.774 329.086 112.66C329.137 112.601 328.857 112.304 328.845 112.234C329.697 112.646 329.646 112.432 329.508 111.861C329.374 111.317 330.007 111.899 330.043 111.916C330.184 111.988 330.758 111.659 330.844 111.54C330.637 111.379 330.278 111.384 330.102 111.189C329.928 111.02 330.543 110.98 330.329 110.801C330.07 110.59 329.661 110.644 329.805 110.229C329.656 110.189 329.512 110.205 329.384 110.284C329.423 110.359 329.509 110.303 329.538 110.341C329.398 110.43 329.239 110.445 329.08 110.44C329.127 110.366 329.279 110.366 329.279 110.226C328.838 110.175 328.605 110.44 328.219 110.555C328.329 110.398 328.514 110.348 328.648 110.231C328.227 110.285 327.827 110.44 327.498 110.715C327.548 110.762 327.593 110.807 327.625 110.872C327.304 111.154 326.876 111.24 326.499 111.413C326.566 111.163 326.838 111.22 326.924 111.034C326.789 111.035 326.653 111.067 326.532 111.124C326.692 111.105 327.164 110.633 327.273 110.513C326.59 110.433 326.303 111.316 325.652 111.193C325.789 111.036 326.062 111.116 326.154 110.872C325.916 110.897 325.009 111.516 324.863 111.193C324.852 111.173 326.518 110.513 326.694 110.27C326.581 110.258 326.454 110.375 326.352 110.241C326.432 110.15 326.567 110.142 326.663 110.042C326.117 110.037 324.493 110.697 324.616 111.08C324.406 111.251 324.178 111.298 323.922 111.191C324.022 111.033 324.378 111.03 324.091 110.803C323.567 110.994 323.056 111.207 322.547 111.43C321.376 111.951 320.224 112.563 319.137 113.238C317.338 114.349 315.851 115.663 314.367 117.156C313.579 117.956 310.573 121.464 310.583 122.197C310.594 122.736 310.273 123.214 310.07 123.701C309.908 124.098 309.887 124.653 309.69 125.022C309.254 125.798 309.454 126.699 309.255 127.598C309.505 127.409 310.015 123.314 310.458 123.466C310.543 123.499 310.183 125.168 310.089 125.377C309.718 126.235 310.207 127.285 309.962 128.181C309.938 128.269 309.816 128.723 309.812 128.816C309.4 129.132 309.92 129.606 309.917 129.957C309.917 130.164 310.971 131.087 311.174 131.208C311.618 131.476 311.707 131.003 312.111 131.088C312.473 131.165 312.577 131.824 312.771 132.102C313.03 132.492 314.019 132.45 314.186 132.632C314.3 132.772 314.204 133.524 314.655 133.631C314.65 133.576 314.639 133.31 314.702 133.274C314.841 133.19 315.13 133.69 315.033 133.787C314.893 133.815 314.762 133.768 314.656 133.631C314.656 133.697 314.581 134.684 314.87 134.493C314.874 134.433 314.893 134.371 314.899 134.314C315.275 134.47 315.246 135.025 315.512 135.101C315.882 135.204 316.157 135.668 316.432 135.797C316.681 135.922 316.613 134.931 317.084 134.881C317.463 134.849 317.677 135.837 317.807 136.077C318.007 136.424 317.541 137.259 317.798 137.531C318.062 137.806 317.149 138.466 317.101 138.748C317.073 138.962 316.607 139.16 316.625 139.241C316.659 139.474 316.521 139.788 316.439 140.01C316.209 140.624 316.323 140.681 316.721 140.966C316.733 140.973 315.982 142.472 316.414 142.854C317.098 143.418 318.003 144.803 318.22 145.675C318.668 146.877 319.352 147.613 320.495 148.205C321.425 148.696 322.08 149.528 322.08 150.646C322.114 151.303 322.019 152.129 322.297 152.745C322.492 153.177 322.122 153.883 322.4 154.277C322.58 154.519 322.346 154.651 322.451 154.881C322.559 155.125 322.813 155.527 322.808 155.813C322.802 156.283 322.808 156.84 322.837 157.309C322.848 157.467 322.7 157.74 322.78 157.84C322.889 157.967 323.523 159.529 323.523 159.99C323.518 160.098 324.008 159.955 323.567 159.514C324.092 159.22 323.985 160.456 324.022 160.465C323.551 160.302 323.855 160.43 323.892 161.04C323.915 161.395 323.797 161.225 324.092 161.293C324.554 161.396 324.092 161.707 324.268 161.958C324.616 162.462 325.153 162.926 325.52 163.315C326.116 163.944 327.139 163.844 327.853 163.994C327.955 164.012 327.721 163.969 327.853 163.994ZM329.811 114.971C329.644 115.119 329.468 115.146 329.281 115.201C329.41 115 329.614 115.032 329.811 114.971ZM328.247 114.837C328.37 114.819 328.466 114.853 328.531 114.939C328.533 114.984 327.89 115.014 327.791 115.18C327.877 114.896 328.109 114.946 328.247 114.837C328.313 114.919 328.109 114.946 328.247 114.837ZM326.673 115.95C326.81 115.984 326.475 115.919 326.673 115.95C326.679 115.95 326.634 115.945 326.673 115.95ZM325.809 114.302C325.865 114.234 325.913 114.245 325.944 114.332C325.88 114.4 325.836 114.39 325.809 114.302C325.812 114.264 325.8 114.338 325.809 114.302ZM324.947 116.87C324.704 116.855 325.201 116.881 324.947 116.87C324.913 116.87 324.983 116.875 324.947 116.87ZM325.201 115.874C324.364 116.659 325.017 115.883 324.771 116.126C324.778 116.14 324.771 116.154 324.759 116.154C324.693 116.077 325.186 115.88 325.201 115.874C325.095 115.976 325.058 115.9 325.201 115.874ZM324.895 114.948C324.742 115.124 324.742 115.124 324.533 115.084C324.644 115.009 324.791 115.037 324.895 114.948ZM328.633 111.993C328.577 111.997 328.525 111.997 328.437 111.997C328.705 111.773 328.66 111.993 328.633 111.993C328.578 111.997 328.67 111.993 328.633 111.993ZM329.238 111.595C329.147 111.699 329.015 111.634 328.898 111.688C329.019 111.454 329.042 111.449 329.238 111.595ZM325.847 111.868C325.918 111.807 326.003 111.773 326.096 111.781C326.177 111.899 325.586 111.963 325.847 111.868C325.88 111.807 325.816 111.882 325.847 111.868ZM325.696 111.7C325.792 111.743 325.784 111.784 325.67 111.834C325.588 111.784 325.602 111.743 325.696 111.7C325.732 111.7 325.648 111.704 325.696 111.7ZM321.311 119.182C321.318 119.177 319.998 119.707 320.1 119.38C320.067 119.484 320.55 119.007 320.45 119.052C320.557 119.005 321.443 118.95 321.7 118.955C321.565 119.087 321.438 119.133 321.311 119.182C321.017 119.29 321.438 119.133 321.311 119.182ZM322.366 118.529C323.455 118.636 321.718 118.966 321.532 118.77C321.776 118.556 322.064 118.495 322.366 118.529C322.451 118.537 322.064 118.495 322.366 118.529ZM322.186 111.756C322.478 111.572 322.791 111.434 323.17 111.347C322.892 111.577 322.517 111.672 322.178 111.766L322.186 111.756ZM322.246 117.642C322.197 117.689 322.151 117.687 322.106 117.64C322.173 117.616 322.236 117.593 322.246 117.642C322.27 117.687 322.236 117.593 322.246 117.642ZM321.927 118.295C321.902 118.295 321.817 118.272 321.927 118.295C321.934 118.295 321.891 118.285 321.927 118.295ZM321.606 117.739C321.998 117.921 321.773 118.537 321.434 118.06C321.421 118.342 320.926 118.825 320.66 118.884C320.764 118.77 320.795 118.647 320.764 118.511C320.678 118.443 320.513 118.636 320.424 118.631C320.46 118.803 321.133 117.475 320.568 117.86C320.363 118.017 319.003 119.466 318.921 119.387C318.796 119.259 319.525 118.193 319.578 118.154C320.042 117.769 321.017 117.463 321.606 117.739ZM320.848 112.681C320.902 112.646 321.34 112.38 321.396 112.444C321.536 112.614 320.692 112.831 320.651 112.835C320.702 112.731 320.782 112.715 320.848 112.681C321.002 112.594 320.782 112.715 320.848 112.681ZM320.94 116.229C320.939 116.252 320.763 116.582 320.66 116.449C320.575 116.359 320.909 116.077 320.94 116.229C320.927 116.315 320.932 116.188 320.94 116.229ZM319.986 113.487C320.033 113.487 320.742 113.044 320.763 113.228C320.771 113.278 319.904 113.502 319.986 113.487ZM319.788 114.218C319.746 114.297 319.705 114.337 319.605 114.337C319.644 114.25 319.705 114.243 319.788 114.218ZM319.298 115.919C319.395 115.843 319.624 115.473 319.513 115.328C319.575 115.41 319.09 115.276 319.313 115.194C319.403 115.164 319.956 114.862 320.042 114.953C320.205 115.119 319.353 116.008 319.184 116.083C319.2 115.992 319.25 115.953 319.298 115.919C319.437 115.815 319.25 115.953 319.298 115.919ZM319.781 117.041C320.389 116.845 320.612 116.502 320.976 116.968C321.116 117.14 321.088 117.59 320.763 117.482C320.852 117.514 319.776 117.411 319.974 117.296C319.758 117.428 319.338 117.523 319.086 117.412C319.32 117.278 319.527 117.127 319.781 117.041C319.93 116.994 319.527 117.127 319.781 117.041ZM318.931 115.911C318.987 116.057 318.946 116.127 318.78 116.154C318.844 116.057 318.891 115.979 318.931 115.911ZM310.297 129.036C310.019 129.026 310.513 129.026 310.297 129.036C310.266 129.033 310.325 129.033 310.297 129.036ZM313.78 131.539C313.704 131.568 314 131.489 313.78 131.539C313.766 131.544 313.819 131.534 313.78 131.539ZM322.285 134.348C322.141 134.326 322.456 134.364 322.285 134.348C322.274 134.348 322.307 134.351 322.285 134.348ZM323.678 159.279C323.439 159.232 323.806 159.085 323.678 159.279C323.62 159.267 323.681 159.267 323.678 159.279ZM324.297 146.805C324.212 146.719 324.35 146.853 324.297 146.805C324.287 146.795 324.316 146.82 324.297 146.805ZM324.393 154.576C324.239 154.628 324.559 154.516 324.393 154.576C324.352 154.587 324.418 154.562 324.393 154.576ZM325.212 162.947C325.102 162.883 325.102 162.843 325.207 162.824C325.33 162.872 325.33 162.918 325.212 162.947C325.167 162.941 325.252 162.956 325.212 162.947ZM326.299 163.418C326.186 163.398 326.195 163.352 326.329 163.286C326.426 163.329 326.416 163.373 326.299 163.418C326.25 163.418 326.327 163.409 326.299 163.418ZM324.002 160.329C323.99 160.336 323.975 160.339 323.963 160.342C323.999 160.313 324.005 160.308 324.002 160.329ZM326.694 110.269C326.694 110.269 326.693 110.269 326.692 110.269C326.693 110.269 326.693 110.266 326.693 110.266L326.694 110.269ZM316.477 115.114C316.477 115.119 316.474 115.119 316.474 115.119L316.477 115.114ZM364.478 133.458L364.48 133.461C363.892 131.295 363.453 129.152 362.556 127.052C361.49 124.559 360.091 122.209 358.396 120.091C356.799 118.095 354.951 116.299 352.903 114.767C351.904 114.019 350.865 113.34 349.781 112.723C349.266 112.425 348.74 112.146 348.205 111.877C347.973 111.767 347.15 111.551 347.028 111.353C347.033 111.444 347.506 111.683 347.57 111.744C347.252 111.661 346.407 111.304 346.396 111.251C346.414 111.212 346.484 111.251 346.476 111.189C346.001 110.885 344.226 110.23 343.872 110.716C343.949 110.621 345.094 111.948 345.124 112.182C345.202 112.698 346.01 113.248 346.524 113.415C347.238 113.656 346.702 113.333 347.003 113.164C347.202 113.066 347.382 113.492 347.561 113.397C347.561 113.392 347.561 113.388 347.57 113.383C347.519 113.283 347.459 113.184 347.403 113.087C347.352 113.087 348.704 114.48 348.871 114.177C348.713 113.799 348.47 113.371 348.089 113.016C347.748 112.698 347.214 112.671 346.85 112.352C346.662 112.19 345.975 111.688 345.903 111.455C346.809 111.485 347.856 113.404 348.763 112.661C348.639 112.575 348.514 112.482 348.398 112.383C348.563 112.431 349.322 112.675 349.071 112.993C348.342 112.865 349.68 113.6 349.702 113.683C349.568 113.676 349.481 113.568 349.356 113.56C349.408 113.81 350.125 114.07 350.175 114.499C349.744 114.567 349.932 114.24 349.65 114.59C349.559 114.701 349.176 114.665 348.967 114.681C348.467 114.721 347.911 113.878 347.551 113.619C347.702 114.09 347.965 114.315 348.488 114.649C348.741 114.789 348.129 114.856 348.141 115.068C348.156 115.068 348.307 115.142 348.301 115.183C348.301 115.209 348.161 115.085 348.141 115.068C348.189 115.036 348.051 115.895 348.038 115.882C348.448 116.358 347.492 116.219 347.472 116.237C347.55 116.344 347.699 116.399 347.732 116.555C347.454 116.573 347.23 116.53 346.963 116.63C347.352 116.743 349.508 117.741 349.037 118.494C348.887 118.737 347.43 118.434 347.155 118.421C346.59 118.381 347.117 118.962 347.13 119.028C347.222 119.456 347.556 119.644 347.526 120.15C347.5 120.5 347.863 120.513 347.973 120.811C348.074 121.07 348.015 121.096 348.286 121.134C348.766 121.196 348.778 121.12 349.186 121.437C349.475 121.662 349.585 121.228 349.926 121.214C350.783 121.178 350.053 121.003 350.465 120.889C350.969 120.746 350.323 119.953 350.354 119.8C350.39 119.593 350.322 119.359 350.598 119.281C351.032 119.165 350.485 118.715 350.456 118.597C350.372 118.239 351.65 118.899 351.496 117.996C352.23 118.227 352.987 118.892 353.672 119.275C354.068 119.517 354.469 119.746 354.764 120.128C355.109 120.58 354.262 120.394 354.207 120.523C354.155 120.669 354.957 121.029 355.085 121.021C355.103 120.942 354.988 120.48 354.976 120.4C354.938 120.081 354.476 119.765 354.508 119.511C354.654 119.524 354.789 119.584 354.906 119.674C354.472 119.142 353.772 119.09 353.283 118.7C352.987 118.456 352.616 118.261 352.324 118.01C352.324 118.009 351.803 117.349 352.168 117.474C352.742 117.674 353.368 118.254 353.953 118.559C354.417 118.802 354.532 118.953 354.876 119.351C355.011 119.511 355.725 120.34 355.884 120.367C355.878 120.358 356.468 120.888 356.704 120.968C356.602 120.727 356.509 120.422 356.385 120.234C356.223 119.969 355.556 119.823 355.556 119.432C355.709 119.443 355.724 119.286 356.049 119.298C355.878 119.291 356.26 119.043 356.238 119.08C355.614 118.722 354.778 117.68 354.547 116.978C354.72 116.984 354.812 117.212 355.004 117.096C354.938 116.978 354.922 116.853 354.938 116.721C354.988 116.776 355.577 117.283 355.458 117.382C355.294 117.378 355.156 117.308 355.035 117.18C355.123 117.475 355.417 117.48 355.538 117.685C355.551 117.603 355.494 117.535 355.564 117.446C356.081 117.661 357.13 118.482 357.274 119.059C357.049 119.08 356.614 118.599 356.462 118.718C356.414 118.834 356.419 118.947 356.487 119.061C356.418 119.066 356.357 119.079 356.297 119.113C356.38 119.179 356.424 119.265 356.435 119.369C356.352 119.396 356.271 119.42 356.183 119.443C356.253 119.733 357.777 121.188 357.887 121.038C357.918 120.99 357.822 120.842 357.846 120.817C357.927 120.726 358.166 121.147 358.294 121.064C358.393 121.001 358.193 120.867 358.304 120.811C358.537 120.694 359.448 122.485 359.563 122.694C360.001 123.525 359.712 123.019 359.376 123.135C359.328 123.219 359.291 123.308 359.282 123.41C358.751 123.288 358.166 122.978 357.734 122.667C357.042 122.17 357.956 124.022 357.556 123.79C357.321 123.656 357.182 123.458 356.894 123.435C356.473 123.394 356.356 122.943 355.969 122.816C355.655 122.707 354.409 122.595 354.571 122.024C354.701 121.538 354.079 121.135 353.868 120.946C353.763 120.853 352.378 121.032 352.158 121.101C351.777 121.221 351.177 121.347 350.961 121.699C350.596 122.359 349.754 121.49 349.414 121.629C349.236 121.697 349.408 122.243 349.316 122.415C349.179 122.675 348.841 122.693 348.756 123C348.613 123.565 349.037 124.029 348.841 124.547C348.683 124.959 347.888 125.138 347.878 125.475C347.872 125.656 347.836 125.859 347.67 125.953C347.305 126.162 347.675 126.64 347.451 126.874C346.227 128.123 347.846 129.342 347.57 130.707C347.41 131.482 347.321 131.64 347.654 132.306C347.73 132.477 347.671 133.678 348.282 133.191C348.357 133.894 349.262 134.037 349.422 134.701C349.612 135.495 350.389 135.841 350.992 136.315C351.235 136.5 351.44 136.746 351.72 136.89C352.214 137.142 352.543 136.748 353.022 136.619C353.449 136.496 353.895 136.542 354.295 136.73C354.526 136.838 356.252 135.618 356.722 135.852C357.063 136.023 357.079 136.44 357.236 136.736C357.465 137.16 357.939 136.604 358.256 136.748C358.822 137.005 358.992 139.069 358.512 139.451C358.152 139.717 358.973 140.845 359.084 141.077C359.409 141.717 359.698 142.831 359.6 143.538C359.521 144.116 359.674 145.021 359.349 145.531C359.02 146.034 358.832 146.574 358.568 147.149C357.885 148.622 358.538 150.295 357.954 151.823C357.599 152.608 357.663 153.444 357.47 154.267C357.343 154.792 356.703 155.557 356.954 156.109C357.335 155.762 357.908 155.806 358.342 155.589C359.231 155.151 359.659 154.123 360.302 153.436C360.647 153.074 360.863 152.617 361.068 152.171C361.262 151.748 361.656 151.475 361.84 151.059C362.292 150.008 362.703 148.96 363.159 147.91C364.111 145.645 364.27 143.47 364.602 141.038C364.953 138.468 364.96 136.027 364.478 133.458ZM362.209 127.487C362.086 127.184 360.486 124.832 360.67 124.704C360.887 124.57 364.309 130.633 363.941 131.573C363.418 130.19 362.791 128.845 362.209 127.487C362.201 127.471 362.325 127.763 362.209 127.487ZM363.675 138.213C363.611 138.045 363.699 137.899 363.747 137.704C363.818 137.913 363.705 138.053 363.675 138.213ZM363.498 139.169C363.488 139.067 363.486 138.982 363.552 138.909C363.602 139.009 363.553 139.08 363.498 139.169ZM362.924 146.952C362.869 146.973 362.802 146.997 362.741 147.017C362.633 147.017 362.947 146.864 362.96 146.853C362.946 146.909 362.946 146.935 362.924 146.952C362.886 147.02 362.946 146.935 362.924 146.952ZM363.013 143.791C363.009 143.504 363.023 143.491 363.312 143.304C363.252 143.507 363.047 143.602 363.013 143.791ZM363.338 142.317C363.333 141.791 363.32 141.167 363.433 140.658C363.453 141.552 363.498 142.455 363.471 143.359C363.328 143.165 363.338 142.544 363.338 142.317C363.337 142.128 363.338 142.502 363.338 142.317ZM363.81 144.005C363.798 144.485 363.733 145.797 363.417 146.172C363.444 145.355 363.746 144.616 363.76 143.809C363.83 143.889 363.81 143.948 363.81 144.005C363.81 144.057 363.81 143.948 363.81 144.005ZM364.186 139.086C364.047 139.664 364.182 139.842 363.84 140.16C363.84 139.732 363.678 138.915 364.122 138.66C364.177 138.802 364.229 138.916 364.186 139.086C364.128 139.324 364.229 138.916 364.186 139.086ZM345.303 167.021C345.352 167.103 341.526 168.184 341.133 168.271C339.542 168.605 337.929 168.812 336.302 168.894C333.209 169.044 329.98 168.762 327.012 167.859C327.392 167.903 327.853 168.1 328.241 168.039C327.872 167.809 327.415 167.889 327.083 167.597C328.322 167.802 329.506 167.707 330.639 167.854C330.519 167.695 329.486 167.447 329.491 167.335C329.638 167.326 330.437 167.298 330.469 167.276C330.844 166.985 329.872 167.021 329.956 166.81C329.985 166.753 330.253 166.847 330.347 166.724C330.492 166.523 330.347 166.423 330.402 166.323C330.444 166.236 331.942 165.978 332.102 166.045C331.926 166.152 331.719 166.029 331.798 166.32C331.646 166.301 331.182 166.31 331.153 166.516C331.165 166.466 331.664 167.16 331.678 167.189C331.853 167.46 332.452 167.625 332.503 167.949C332.604 168.495 335.45 168.442 335.878 168.392C336.942 168.269 337.938 167.892 338.983 167.709C339.609 167.598 340.229 167.42 340.862 167.362C341.156 167.333 342.137 166.989 342.361 167.066C342.503 167.579 344.777 166.917 345.303 167.021C345.309 167.033 345.218 167.003 345.303 167.021ZM362.627 150.418C362.751 150.11 362.849 149.79 363 149.492C362.904 149.815 362.768 150.116 362.627 150.418ZM363.126 149.175C363.141 149.134 363.159 149.093 363.172 149.061C363.176 149.11 363.143 149.135 363.126 149.175ZM330.233 109.798C330.073 109.775 329.901 109.791 329.731 109.766C329.821 109.684 330.327 109.667 330.102 109.527C330.799 109.101 332.246 109.016 333.047 109.11C333.944 109.223 334.838 108.946 335.719 109.083C336.078 109.142 336.387 109.15 336.742 109.172C337.05 109.211 336.697 109.527 337.05 109.581C337.261 109.604 337.678 110.078 337.866 109.975C337.857 110.305 337.71 110.078 337.813 110.383C337.837 110.453 338.207 110.662 338.19 110.687C338.155 110.735 337.156 110.662 337.202 110.675C337.124 110.662 337.217 110.832 337.283 110.806C337.483 110.858 337.918 110.791 338.132 110.807C337.626 111.265 336.872 111.21 336.314 111.577C335.972 111.802 335.456 111.782 335.08 111.918C335.08 112.302 334.79 112.768 334.534 113.164C334.355 113.44 333.082 112.807 332.954 112.644C332.675 112.312 332.043 111.436 332.729 111.165C333.562 110.836 332.734 111.104 332.49 110.926C332.685 110.646 332.906 110.742 333.225 110.786C333.064 110.562 332.862 110.508 332.621 110.623C332.54 110.383 332.966 110.167 332.592 109.91C332.43 109.798 331.551 109.93 331.526 109.778C331.47 109.393 332.597 109.595 332.793 109.281C331.951 109.104 331.05 109.922 330.233 109.798C330.073 109.775 330.381 109.82 330.233 109.798ZM346.065 115.535C346.202 115.518 345.895 115.087 345.817 115C345.91 115.009 345.988 115.018 346.081 114.964C346.014 114.768 345.133 114.261 345.074 114.297C344.742 114.506 344.325 113.579 344.286 113.453C344.853 113.376 345.203 113.981 345.715 114.231C346.15 114.443 347.723 115.192 347.767 115.662C347.802 115.899 346.579 115.801 346.395 116.08C346.26 115.734 346.702 115.737 346.693 115.629C346.678 115.546 346.131 115.526 346.065 115.535C346.035 115.54 346.256 115.508 346.065 115.535ZM330.044 115.976C329.956 116.037 328.892 117.043 328.919 117.139C328.942 117.234 330.025 117.166 330.21 117.272C330.196 117.392 330.053 117.331 330.027 117.441C330.168 117.441 330.605 117.165 330.677 117.247C330.687 117.315 330.677 117.383 330.639 117.447C331.122 117.918 331.072 116.892 331.101 116.84C330.762 116.793 331.172 116.321 330.601 116.521C330.639 116.506 329.987 116.326 330.025 116.365C329.971 116.314 330.485 115.866 330.523 115.809C330.222 115.734 330.183 115.867 330.044 115.976C329.86 116.108 330.08 115.945 330.044 115.976ZM331.092 117.091C331.135 117.129 331.019 117.129 331.092 117.091C331.101 117.097 331.078 117.096 331.092 117.091ZM330.851 117.066C330.883 117.029 331.061 116.952 330.95 117.057C330.913 117.127 330.754 117.175 330.851 117.066C330.861 117.05 330.829 117.091 330.851 117.066ZM330.099 115.84L330.101 115.838C330.101 115.84 330.101 115.843 330.105 115.849C330.101 115.842 330.101 115.842 330.099 115.84ZM329.139 116.805C329.169 116.805 329.19 116.805 329.212 116.825C329.187 116.825 329.068 116.818 329.139 116.805C329.168 116.805 329.117 116.807 329.139 116.805ZM318.701 129.347C318.407 129.377 318.891 129.118 318.851 129.025C318.651 128.568 317.29 128.468 317.162 128.104C317.222 128.076 317.263 128.037 317.282 127.978C316.813 127.788 316.574 128.361 316.152 128.322C317.028 126.836 319.205 128.536 320.08 129.225C319.62 129.279 319.159 129.284 318.701 129.347C318.665 129.35 318.953 129.314 318.701 129.347ZM319.836 130.14C319.619 130.044 320.557 130.053 320.686 130.001C320.499 129.716 320.667 129.562 320.306 129.45C320.637 129.047 321.73 129.518 322.074 129.669C322.048 129.719 321.98 129.673 321.946 129.736C321.975 129.759 322.697 130.355 322.209 130.153C321.679 129.927 321.384 130.243 321.008 130.452C320.713 130.033 320.228 130.324 319.836 130.14C319.792 130.122 319.925 130.183 319.836 130.14ZM345.301 114.925C345.814 115.455 345.023 115.861 344.661 115.521C344.488 115.342 344.592 114.914 344.183 114.789C344.291 114.755 344.402 114.721 344.51 114.682C344.232 114.028 345.173 114.789 345.301 114.925C345.414 115.049 345.267 114.885 345.301 114.925ZM338.644 111.714C338.613 111.607 339.378 111.654 339.508 111.629C339.71 111.595 341.234 111.745 340.7 111.993C340.284 112.177 339.674 112.391 339.279 112.032C339.18 111.948 338.647 111.734 338.644 111.714C338.624 111.639 338.673 111.813 338.644 111.714ZM352.568 119.27C352.747 119.27 353.179 119.954 353.104 120.064C352.902 120.388 352.561 119.568 352.348 119.443C352.424 119.393 352.498 119.334 352.568 119.27ZM328.768 110.009C329.288 109.613 329.408 109.84 330.055 109.903C329.848 110.094 329.351 110.129 328.768 110.009C328.912 109.899 329.351 110.129 328.768 110.009ZM340.247 109.562C339.864 109.455 339.46 109.437 339.089 109.289C339.538 109.241 340.076 109.411 340.387 109.498C340.493 109.534 340.222 109.55 340.247 109.562C339.864 109.454 340.286 109.568 340.247 109.562ZM339.089 109.289C339.05 109.295 339.007 109.298 338.965 109.305C339.007 109.261 339.049 109.254 339.089 109.289C339.05 109.295 339.071 109.284 339.089 109.289ZM318.818 130.165C318.907 130.171 318.948 130.214 318.966 130.297C318.915 130.513 318.237 130.206 318.164 130.108C318.397 129.976 318.614 130.053 318.818 130.165ZM323.666 130.148C323.309 131.025 322.405 129.537 323.666 130.148C323.608 130.274 323.453 130.044 323.666 130.148ZM325.061 134.403C325.07 134.377 325.091 134.368 325.126 134.363C325.103 134.377 325.088 134.386 325.061 134.403ZM325.186 134.377C325.167 134.374 325.281 134.018 325.51 134.002C325.781 134.169 325.318 134.394 325.186 134.377C325.166 134.374 325.481 134.412 325.186 134.377ZM328.032 109.82C327.792 109.982 327.503 109.875 327.255 109.966C327.601 109.73 327.758 109.748 328.032 109.82C327.792 109.982 327.989 109.81 328.032 109.82ZM318.992 127.455C318.898 127.096 318.762 127.088 319.002 126.775C319.097 127.109 319.097 127.312 318.992 127.455C318.953 127.307 319.097 127.312 318.992 127.455ZM312.474 139.894C312.466 140.024 312.405 140.074 312.281 140.028C312.237 139.99 312.217 139.555 312.292 139.464C312.351 139.608 312.419 139.744 312.474 139.894C312.497 139.953 312.419 139.744 312.474 139.894ZM327.549 116.37C327.827 116.361 328.052 116.448 328.299 116.632C327.97 116.695 327.758 116.568 327.549 116.37ZM352.453 119.148L352.457 119.153C352.376 119.125 351.886 118.829 352.086 118.668C352.228 118.565 352.433 119.095 352.453 119.148ZM357.501 121.659C357.408 121.562 357.212 121.627 357.159 121.429C357.329 121.52 357.516 121.472 357.678 121.603C357.618 121.65 357.559 121.709 357.501 121.659C357.408 121.562 357.559 121.709 357.501 121.659ZM328.456 109.987C328.408 109.916 328.323 109.965 328.273 109.899C328.412 109.748 328.602 109.798 328.77 109.752C328.761 109.775 328.56 110.142 328.456 109.987C328.408 109.916 328.482 110.035 328.456 109.987ZM327.612 110.173C327.392 110.339 327.161 110.508 326.85 110.478C327.059 110.26 327.342 110.229 327.612 110.173ZM327.536 117.619C327.597 117.631 327.661 117.614 327.758 117.605C327.461 117.967 327.119 117.463 327.19 117.443C327.137 117.457 327.517 117.616 327.536 117.619C327.597 117.631 327.418 117.599 327.536 117.619ZM327.661 110.319C327.867 110.15 328.109 110.121 328.365 110.141C328.145 110.269 327.919 110.339 327.661 110.319ZM351.196 119.991C350.959 119.957 351.638 119.739 351.392 120.056C351.321 120.05 351.253 120.03 351.196 119.991C351.157 119.985 351.269 119.996 351.196 119.991ZM358.704 121.706C358.563 121.638 358.507 121.543 358.549 121.375C358.669 121.462 358.717 121.559 358.704 121.706ZM328.175 111.409C328.262 111.256 328.354 111.215 328.648 111.22C328.504 111.388 328.345 111.415 328.175 111.409ZM326.003 112.419C325.834 112.509 325.705 112.58 325.518 112.567C325.648 112.419 325.8 112.422 326.003 112.419ZM344.056 113.659C344.021 113.724 344.056 113.77 344.102 113.815C344.05 113.79 343.841 113.529 344 113.487C344.076 113.52 344.095 113.576 344.056 113.659C344.021 113.724 344.082 113.619 344.056 113.659ZM316.855 128.388C316.847 128.492 316.794 128.542 316.7 128.54C316.653 128.452 316.808 128.204 316.855 128.388C316.869 128.449 316.843 128.351 316.855 128.388ZM326.979 159.624C327.059 159.651 327.104 159.714 327.115 159.799C327.115 160.06 326.64 159.656 326.979 159.624C327.03 159.615 326.904 159.631 326.979 159.624ZM326.299 112.573C326.24 112.66 326.163 112.702 326.035 112.746C326.099 112.604 326.189 112.582 326.299 112.573ZM312.693 139.844C312.669 140.149 312.607 139.555 312.693 139.844C312.691 139.887 312.684 139.812 312.693 139.844ZM328.308 113.073C328.314 113.067 328.33 113.078 328.343 113.08C328.308 113.105 328.241 113.105 328.308 113.073ZM326.962 110.205C326.927 110.214 326.892 110.217 326.857 110.222C326.887 110.196 326.923 110.194 326.962 110.205ZM326.843 110.226C326.816 110.226 326.849 110.222 326.857 110.222C326.85 110.223 326.846 110.223 326.843 110.226ZM326.697 110.266L326.693 110.269C326.693 110.266 326.694 110.266 326.697 110.266ZM326.697 110.266C326.732 110.222 326.785 110.229 326.834 110.226C326.798 110.278 326.753 110.284 326.697 110.266ZM327.654 110.319H327.661C327.66 110.324 327.654 110.325 327.654 110.319ZM327.654 110.324C327.644 110.375 327.602 110.366 327.563 110.366C327.577 110.324 327.612 110.316 327.654 110.324ZM316.586 141.133C316.521 141.082 316.631 141.167 316.586 141.133C316.561 141.109 316.623 141.161 316.586 141.133ZM348.755 112.681C348.941 112.731 348.764 112.719 348.755 112.681C348.755 112.681 348.761 112.71 348.755 112.681ZM344.103 113.82C344.103 113.82 344.103 113.815 344.102 113.815C344.118 113.82 344.123 113.832 344.118 113.856C344.117 113.843 344.111 113.831 344.103 113.82C344.103 113.82 344.111 113.831 344.103 113.82ZM327.556 110.367C327.562 110.367 327.562 110.367 327.563 110.367C327.563 110.371 327.563 110.371 327.555 110.369C327.555 110.368 327.556 110.368 327.556 110.367ZM327.498 110.383C327.517 110.374 327.536 110.374 327.555 110.369C327.531 110.41 327.505 110.414 327.498 110.383C327.517 110.374 327.5 110.386 327.498 110.383ZM354.903 119.676V119.674L354.906 119.679L354.903 119.676ZM331.026 139.071C330.933 138.991 331.095 139.014 331.026 139.071C331.019 139.064 331.05 139.048 331.026 139.071ZM345.323 167.013C345.316 167.02 345.312 167.02 345.304 167.02C345.309 167.004 345.313 166.995 345.323 167.002C345.323 167.001 345.323 167.01 345.323 167.013ZM345.303 167.021C345.303 167.019 345.301 167.019 345.303 167.019V167.021ZM321.278 117.776C321.295 117.771 321.573 117.739 321.475 117.851C321.366 117.906 321.304 117.878 321.278 117.776C321.311 117.771 321.28 117.835 321.278 117.776ZM319.524 115.328C319.445 115.276 319.462 115.221 319.575 115.164C319.674 115.197 319.655 115.255 319.524 115.328C319.483 115.326 319.584 115.31 319.524 115.328Z" fill="white"/>
    <path d="M352.348 119.443C352.424 119.393 352.499 119.334 352.568 119.27C352.747 119.27 353.18 119.954 353.105 120.064C352.902 120.387 352.561 119.568 352.348 119.443ZM352.087 118.668C351.887 118.829 352.376 119.124 352.458 119.152L352.454 119.147C352.434 119.095 352.228 118.565 352.087 118.668ZM327.853 163.993C327.139 163.843 326.116 163.943 325.517 163.311C325.149 162.922 324.612 162.458 324.265 161.953C324.088 161.703 324.551 161.391 324.088 161.289C323.794 161.22 323.911 161.391 323.888 161.036C323.852 160.426 323.548 160.299 324.019 160.461C323.982 160.451 324.088 159.216 323.564 159.509C324.005 159.95 323.514 160.094 323.519 159.985C323.519 159.607 323.094 158.495 322.877 158.031C324.214 158.231 325.576 158.338 326.964 158.338C327.057 158.338 327.137 158.333 327.231 158.33C327.2 158.333 327.178 158.335 327.156 158.335C327.133 158.513 327.44 158.936 327.372 159.093C327.203 159.53 326.512 158.939 326.355 159.105C326.227 159.244 326.756 159.904 326.835 159.935C326.786 160.039 326.646 160.685 326.622 160.685C326.355 160.648 326.087 161.012 326.371 161.219C326.574 161.355 326.789 161.335 326.98 161.449C327.393 161.689 326.63 161.953 326.787 162.233C327.013 162.636 326.252 162.437 326.965 163.08C325.933 163.117 326.961 163.674 326.961 163.678C326.839 163.603 326.889 163.653 327.001 163.487C326.918 163.428 326.745 163.53 326.695 163.418C326.497 162.956 327.428 163.518 327.403 163.508C327.683 163.68 328.17 163.701 328.392 163.879C328.301 163.905 327.985 164.014 327.859 163.994C327.825 163.986 327.777 163.98 327.853 163.993ZM323.666 159.273C323.652 159.27 323.646 159.273 323.678 159.278C323.803 159.091 323.465 159.226 323.666 159.273ZM325.208 162.824C325.103 162.842 325.103 162.883 325.213 162.947C325.167 162.94 325.252 162.955 325.213 162.947C325.33 162.918 325.33 162.872 325.208 162.824ZM326.329 163.286C326.201 163.352 326.188 163.393 326.289 163.416C326.28 163.416 326.277 163.418 326.299 163.418C326.416 163.373 326.426 163.329 326.329 163.286ZM326.288 163.416C326.289 163.416 326.291 163.418 326.299 163.418C326.316 163.412 326.299 163.412 326.288 163.416ZM323.963 160.342C323.975 160.338 323.99 160.335 324.002 160.328C324.006 160.308 323.999 160.313 323.963 160.342ZM327.858 163.993C327.858 163.993 327.857 163.993 327.853 163.993C327.89 164 327.879 163.998 327.858 163.993ZM347.396 112.655C347.841 113.151 348.265 113.663 348.673 114.19C348.764 114.229 348.84 114.231 348.869 114.176C348.711 113.798 348.469 113.371 348.087 113.016C347.896 112.836 347.644 112.75 347.396 112.655ZM348.755 112.68C348.764 112.718 348.941 112.73 348.755 112.68V112.68ZM357.505 121.658H357.501C357.518 121.676 357.516 121.668 357.505 121.658ZM363.81 144.004C363.81 144.002 363.81 144 363.81 143.997C363.81 143.985 363.81 143.977 363.81 144.004ZM363.534 129.873C363.682 130.406 363.824 130.937 363.962 131.473C363.996 131.167 363.818 130.58 363.534 129.873ZM364.177 139.107C364.182 139.102 364.182 139.095 364.186 139.086C364.157 139.204 364.169 139.161 364.177 139.107ZM358.55 121.375C358.507 121.542 358.564 121.638 358.705 121.706C358.718 121.559 358.669 121.462 358.55 121.375ZM354.903 119.673V119.675L354.906 119.677L354.903 119.673ZM357.677 121.602C357.516 121.472 357.329 121.52 357.159 121.429C357.211 121.626 357.408 121.561 357.501 121.658C357.433 121.588 357.486 121.638 357.505 121.658C357.561 121.706 357.62 121.649 357.677 121.602ZM364.601 141.042C364.269 143.474 364.11 145.649 363.158 147.914C362.702 148.964 362.292 150.012 361.839 151.062C361.656 151.479 361.261 151.752 361.068 152.175C360.862 152.621 360.646 153.079 360.302 153.44C359.658 154.127 359.231 155.154 358.341 155.593C357.907 155.81 357.334 155.765 356.954 156.113C356.702 155.561 357.343 154.796 357.469 154.271C357.663 153.448 357.598 152.612 357.954 151.827C358.538 150.299 357.885 148.627 358.568 147.153C358.831 146.577 359.02 146.037 359.348 145.535C359.673 145.025 359.519 144.12 359.599 143.542C359.698 142.834 359.409 141.721 359.083 141.081C358.973 140.849 358.151 139.72 358.511 139.455C358.991 139.074 358.822 137.009 358.256 136.752C357.94 136.608 357.465 137.164 357.236 136.74C357.079 136.443 357.062 136.026 356.722 135.856C356.251 135.622 354.525 136.843 354.295 136.734C354.138 136.661 353.967 136.611 353.793 136.586C354.178 134.754 354.38 132.866 354.38 130.928C354.38 127.434 353.724 124.103 352.535 121.031C353.023 120.957 353.787 120.882 353.866 120.948C354.077 121.137 354.699 121.54 354.569 122.026C354.407 122.597 355.653 122.709 355.967 122.818C356.354 122.945 356.471 123.396 356.892 123.437C357.18 123.46 357.319 123.658 357.554 123.792C357.954 124.024 357.04 122.172 357.732 122.669C358.164 122.98 358.749 123.29 359.28 123.412C359.29 123.31 359.325 123.221 359.374 123.137C359.71 123.021 359.999 123.527 359.561 122.696C359.446 122.487 358.535 120.697 358.302 120.813C358.192 120.869 358.391 121.003 358.292 121.066C358.164 121.149 357.925 120.727 357.844 120.819C357.82 120.843 357.916 120.992 357.885 121.04C357.776 121.19 356.251 119.735 356.181 119.445C356.268 119.422 356.35 119.397 356.433 119.371C356.421 119.267 356.378 119.181 356.295 119.115C356.355 119.081 356.416 119.068 356.485 119.063C356.417 118.949 356.412 118.835 356.46 118.72C356.612 118.601 357.046 119.082 357.272 119.061C357.129 118.483 356.079 117.663 355.562 117.448C355.492 117.537 355.549 117.605 355.536 117.687C355.415 117.482 355.121 117.478 355.033 117.182C355.154 117.309 355.291 117.38 355.456 117.384C355.575 117.284 354.987 116.777 354.936 116.723C354.921 116.855 354.936 116.98 355.002 117.097C354.81 117.214 354.719 116.986 354.545 116.98C354.776 117.682 355.612 118.724 356.236 119.082C356.258 119.045 355.876 119.293 356.047 119.3C355.722 119.288 355.706 119.445 355.555 119.434C355.555 119.825 356.222 119.971 356.383 120.236C356.507 120.424 356.6 120.728 356.703 120.97C356.465 120.891 355.876 120.361 355.882 120.369C355.722 120.342 355.009 119.512 354.874 119.353C354.53 118.955 354.415 118.804 353.951 118.561C353.366 118.256 352.74 117.676 352.166 117.476C351.801 117.351 352.322 118.011 352.322 118.012C352.614 118.263 352.985 118.458 353.281 118.702C353.771 119.092 354.47 119.144 354.904 119.676C354.787 119.585 354.652 119.525 354.506 119.513C354.474 119.767 354.937 120.083 354.974 120.402C354.987 120.482 355.102 120.943 355.083 121.023C354.954 121.031 354.153 120.671 354.205 120.525C354.26 120.396 355.108 120.582 354.763 120.13C354.467 119.748 354.065 119.519 353.67 119.277C352.985 118.894 352.228 118.229 351.495 117.998C351.537 118.237 351.472 118.364 351.364 118.433C350.692 117.118 349.918 115.862 349.047 114.682C349.262 114.675 349.571 114.689 349.649 114.593C349.931 114.242 349.744 114.57 350.174 114.502C350.124 114.072 349.407 113.813 349.355 113.563C349.48 113.572 349.568 113.679 349.701 113.686C349.679 113.603 348.342 112.868 349.07 112.996C349.321 112.678 348.562 112.434 348.397 112.386C348.513 112.484 348.638 112.578 348.762 112.664C348.042 113.251 347.238 112.179 346.489 111.688C346.186 111.381 345.876 111.081 345.557 110.785C345.946 110.919 346.301 111.081 346.476 111.192C346.484 111.253 346.414 111.215 346.396 111.253C346.407 111.307 347.252 111.664 347.57 111.747C347.506 111.685 347.032 111.448 347.028 111.355C347.15 111.553 347.973 111.77 348.205 111.88C348.74 112.148 349.266 112.427 349.781 112.725C350.866 113.343 351.904 114.022 352.902 114.77C354.951 116.302 356.799 118.097 358.396 120.094C360.091 122.212 361.49 124.562 362.556 127.055C362.952 127.987 363.261 128.929 363.534 129.876C362.674 127.773 360.83 124.609 360.669 124.706C360.486 124.834 362.085 127.187 362.208 127.489C362.2 127.473 362.324 127.764 362.208 127.489C362.79 128.847 363.417 130.192 363.94 131.574C363.953 131.545 363.957 131.512 363.961 131.475C364.131 132.134 364.301 132.801 364.48 133.463L364.478 133.46C364.96 136.026 364.953 138.468 364.601 141.042ZM363.675 138.212C363.705 138.053 363.818 137.913 363.748 137.703C363.699 137.899 363.611 138.045 363.675 138.212ZM363.498 139.168C363.553 139.08 363.602 139.008 363.552 138.909C363.487 138.982 363.488 139.066 363.498 139.168ZM362.924 146.952C362.945 146.935 362.945 146.909 362.96 146.853C362.947 146.864 362.633 147.016 362.741 147.016C362.803 146.996 362.869 146.973 362.924 146.952C362.886 147.019 362.946 146.935 362.924 146.952ZM363.312 143.304C363.023 143.491 363.009 143.504 363.013 143.791C363.047 143.602 363.252 143.507 363.312 143.304ZM363.338 142.316C363.338 142.544 363.328 143.164 363.47 143.359C363.498 142.455 363.454 141.552 363.433 140.658C363.319 141.167 363.333 141.792 363.338 142.316C363.337 142.128 363.338 142.501 363.338 142.316ZM363.76 143.809C363.745 144.616 363.444 145.355 363.418 146.172C363.732 145.797 363.798 144.485 363.81 144.005C363.81 144.034 363.81 144.012 363.81 143.997C363.81 143.943 363.825 143.886 363.76 143.809ZM364.186 139.086C364.229 138.915 364.177 138.801 364.122 138.661C363.678 138.915 363.839 139.732 363.839 140.16C364.177 139.846 364.051 139.666 364.177 139.107C364.193 139.063 364.204 139.002 364.186 139.086ZM327.115 159.799C327.103 159.714 327.059 159.65 326.979 159.624C326.64 159.655 327.115 160.059 327.115 159.799ZM345.274 167.017C344.699 166.939 342.502 167.569 342.36 167.066C342.137 166.989 341.156 167.333 340.861 167.362C340.229 167.421 339.608 167.598 338.983 167.709C337.938 167.892 336.941 168.269 335.878 168.392C335.451 168.442 332.604 168.495 332.503 167.949C332.453 167.626 331.852 167.459 331.678 167.189C331.663 167.16 331.164 166.465 331.153 166.516C331.181 166.31 331.645 166.3 331.798 166.32C331.72 166.029 331.927 166.153 332.102 166.045C331.942 165.977 330.444 166.236 330.402 166.323C330.347 166.423 330.492 166.522 330.347 166.724C330.253 166.847 329.984 166.753 329.956 166.81C329.871 167.021 330.844 166.985 330.468 167.276C330.437 167.299 329.637 167.326 329.491 167.336C329.486 167.447 330.519 167.695 330.638 167.854C329.505 167.707 328.322 167.802 327.083 167.597C327.414 167.889 327.871 167.809 328.241 168.039C327.853 168.1 327.392 167.903 327.011 167.859C329.979 168.762 333.21 169.044 336.301 168.894C337.928 168.812 339.541 168.605 341.133 168.271C341.525 168.184 345.352 167.103 345.303 167.021C345.309 167.028 345.284 167.021 345.274 167.017ZM345.274 167.017C345.284 167.021 345.297 167.021 345.304 167.021C345.269 167.012 345.269 167.015 345.274 167.017ZM326.979 159.624C327.03 159.615 326.904 159.63 326.979 159.624V159.624ZM345.303 167.019C345.313 167.019 345.317 167.019 345.323 167.012C345.323 167.009 345.323 167 345.323 167C345.313 166.994 345.309 167.003 345.303 167.019ZM363.172 149.061C363.158 149.093 363.14 149.134 363.126 149.174C363.143 149.134 363.176 149.109 363.172 149.061ZM363.001 149.491C362.849 149.79 362.751 150.11 362.627 150.418C362.768 150.115 362.904 149.815 363.001 149.491Z" fill="#E6E5E5"/>
    <path d="M371.142 93.7126C371.142 95.4508 369.724 96.8672 367.987 96.8672C366.242 96.8672 364.825 95.4502 364.825 93.7126C364.825 91.9652 366.241 90.5503 367.987 90.5503C369.724 90.5501 371.142 91.9649 371.142 93.7126Z" fill="#CCCBCA"/>
    <path d="M290.665 102.895C290.665 104.975 288.976 106.675 286.885 106.675C284.795 106.675 283.104 104.974 283.104 102.895C283.104 100.807 284.795 99.1133 286.885 99.1133C288.976 99.1133 290.665 100.806 290.665 102.895Z" fill="#CCCBCA"/>
    <path d="M311.985 94.1318C311.985 95.1583 311.157 95.9942 310.133 95.9942C309.099 95.9942 308.272 95.1583 308.272 94.1318C308.272 93.1096 309.098 92.2737 310.133 92.2737C311.157 92.2735 311.985 93.1094 311.985 94.1318Z" fill="#CCCBCA"/>
    <path d="M290.665 121.722C290.665 123.109 289.538 124.237 288.14 124.237C286.755 124.237 285.629 123.109 285.629 121.722C285.629 120.326 286.755 119.197 288.14 119.197C289.538 119.198 290.665 120.326 290.665 121.722Z" fill="#CCCBCA"/>
    <path d="M290.665 164.918C290.665 165.623 290.102 166.185 289.41 166.185C288.705 166.185 288.141 165.623 288.141 164.918C288.141 164.225 288.705 163.662 289.41 163.662C290.102 163.662 290.665 164.225 290.665 164.918Z" fill="#CCCBCA"/>
    <path d="M381.965 109.984C381.965 110.499 381.539 110.923 381.025 110.923C380.5 110.923 380.076 110.499 380.076 109.984C380.076 109.457 380.5 109.033 381.025 109.033C381.54 109.033 381.965 109.458 381.965 109.984Z" fill="#CCCBCA"/>
    <path d="M393.752 149.581C393.752 150.608 392.925 151.443 391.891 151.443C390.868 151.443 390.038 150.607 390.038 149.581C390.038 148.558 390.868 147.729 391.891 147.729C392.925 147.729 393.752 148.558 393.752 149.581Z" fill="#CCCBCA"/>
    <path d="M379.57 162.637C379.57 163.342 379.006 163.905 378.304 163.905C377.609 163.905 377.047 163.342 377.047 162.637C377.047 161.944 377.608 161.382 378.304 161.382C379.006 161.381 379.57 161.944 379.57 162.637Z" fill="#CCCBCA"/>
    <path d="M51.9677 130.531C39.6042 130.531 29.9186 106.23 29.9186 75.2067C29.9186 44.1837 39.6042 19.8826 51.9677 19.8826C64.3324 19.8826 74.018 44.1837 74.018 75.2067C74.018 106.23 64.3324 130.531 51.9677 130.531ZM51.9677 22.3881C41.3733 22.3881 32.4229 46.5758 32.4229 75.2067C32.4229 103.838 41.374 128.025 51.9677 128.025C62.5627 128.025 71.514 103.838 71.514 75.2067C71.514 46.5758 62.5627 22.3881 51.9677 22.3881Z" fill="#3F4A5A"/>
    <path d="M85.2056 108.948C73.3699 108.948 56.8211 103.473 40.9364 94.3022C28.3017 87.0022 17.5025 78.234 10.5301 69.6106C3.30014 60.6707 1.00224 52.8333 4.06107 47.5444C6.35464 43.5689 11.4267 41.4666 18.7265 41.4666C30.5587 41.4666 47.1039 46.9411 62.9865 56.1121C75.6261 63.4099 86.4297 72.1782 93.404 80.8025C100.635 89.7429 102.932 97.5795 99.8737 102.869C97.5805 106.845 92.5069 108.948 85.2056 108.948ZM18.7267 43.9715C14.2958 43.9715 8.5313 44.808 6.22908 48.7964C3.76262 53.063 6.03999 60.0754 12.4768 68.0349C19.2607 76.4256 29.8136 84.9848 42.1891 92.1327C57.7084 101.093 73.7903 106.442 85.2056 106.442C89.6372 106.442 95.4039 105.605 97.7061 101.616C100.173 97.3487 97.896 90.3372 91.4577 82.377C84.671 73.9864 74.1151 65.4286 61.7339 58.2808C46.2168 49.3198 30.1393 43.9715 18.7267 43.9715Z" fill="#3F4A5A"/>
    <path d="M18.7274 108.948C11.4274 108.948 6.35464 106.846 4.05977 102.868C1.00225 97.5802 3.2995 89.7435 10.5295 80.8038C17.5025 72.1804 28.301 63.4113 40.9364 56.1135C56.8198 46.9418 73.3691 41.4673 85.2056 41.4673C92.5069 41.4673 97.5803 43.569 99.8754 47.5465C102.933 52.8355 100.635 60.6715 93.4051 69.6111C86.4299 78.2352 75.6278 87.0036 62.9882 94.3027C47.1054 103.473 30.559 108.948 18.7274 108.948ZM85.2056 43.9714C73.789 43.9714 57.7084 49.3196 42.1891 58.2813C29.8145 65.4293 19.2614 73.9877 12.4775 82.3784C6.03999 90.338 3.76262 97.351 6.22908 101.615C8.53195 105.606 14.2971 106.442 18.728 106.442C30.1391 106.442 46.2166 101.094 61.7352 92.1325C74.1164 84.9847 84.6723 76.427 91.459 68.0354C97.8965 60.0759 100.174 53.0635 97.7074 48.7984C95.4045 44.8079 89.6374 43.9714 85.2056 43.9714Z" fill="#3F4A5A"/>
    <path d="M53.1333 59.8384H50.7955L50.1179 63.23H53.8273L53.1333 59.8384Z" fill="#333C49"/>
    <path d="M45.3 61.313L43.2757 62.4815L44.3872 65.7523L47.588 63.9057L45.3 61.313Z" fill="#333C49"/>
    <path d="M39.2459 66.5146L38.0802 68.5271L40.6843 70.8129L42.5217 67.6177L39.2459 66.5146Z" fill="#333C49"/>
    <path d="M36.5996 74.0363V76.3748L39.9997 77.051V73.3596L36.5996 74.0363Z" fill="#333C49"/>
    <path d="M38.0802 81.8738L39.2459 83.8961L42.5217 82.7868L40.6843 79.5923L38.0802 81.8738Z" fill="#333C49"/>
    <path d="M43.2757 87.9274L45.3 89.0966L47.588 86.494L44.39 84.6594L43.2757 87.9274Z" fill="#333C49"/>
    <path d="M50.8039 90.5733H53.1333L53.8273 87.1802H50.1179L50.8039 90.5733Z" fill="#333C49"/>
    <path d="M58.6379 89.0966L60.6658 87.9274L59.5581 84.6594L56.3527 86.494L58.6379 89.0966Z" fill="#333C49"/>
    <path d="M64.6913 83.8961L65.8657 81.8738L63.2544 79.5923L61.4227 82.7868L64.6913 83.8961Z" fill="#333C49"/>
    <path d="M67.3354 76.3748V74.0363L63.9397 73.3596V77.051L67.3354 76.3748Z" fill="#333C49"/>
    <path d="M65.8657 68.5271L64.6913 66.5146L61.4227 67.6177L63.2544 70.8129L65.8657 68.5271Z" fill="#333C49"/>
    <path d="M60.6658 62.4816L58.6379 61.3137L56.3527 63.9057L59.5581 65.7511L60.6658 62.4816Z" fill="#333C49"/>
    <path d="M51.9668 63.0979C45.2858 63.0979 39.8491 68.5125 39.8491 75.2078C39.8491 81.8995 45.2851 87.3135 51.9668 87.3135C58.6649 87.3135 64.0932 81.8988 64.0932 75.2078C64.0932 68.5125 58.6649 63.0979 51.9668 63.0979ZM51.9668 79.1668C49.778 79.1668 48.0033 77.3921 48.0033 75.2085C48.0033 73.0197 49.778 71.2459 51.9668 71.2459C54.1662 71.2459 55.9288 73.0199 55.9288 75.2085C55.9288 77.3921 54.1664 79.1668 51.9668 79.1668Z" fill="#3F4A5A"/>
    <path d="M51.9678 69.2495C48.6755 69.2495 46.0306 71.9172 46.0306 75.2074C46.0306 78.4934 48.6753 81.1503 51.9678 81.1503C55.2429 81.1503 57.9142 78.4932 57.9142 75.2074C57.914 71.9178 55.2429 69.2495 51.9678 69.2495ZM51.9678 78.8651C49.9562 78.8651 48.3136 77.2197 48.3136 75.2072C48.3136 73.1849 49.9562 71.545 51.9678 71.545C53.9994 71.545 55.6349 73.1855 55.6349 75.2072C55.6347 77.2197 53.9994 78.8651 51.9678 78.8651Z" fill="#F67656"/>
    <path d="M89.4503 42.8023C89.4503 46.5944 86.3785 49.6654 82.588 49.6654C78.7959 49.6654 75.725 46.5936 75.725 42.8023C75.725 39.0167 78.7968 35.9385 82.588 35.9385C86.3785 35.9393 89.4503 39.0174 89.4503 42.8023Z" fill="#D7753E"/>
    <path d="M13.7269 62.0429C13.7269 65.8292 10.6551 68.9068 6.86301 68.9068C3.07244 68.9068 0 65.8294 0 62.0429C0 58.2517 3.07244 55.1799 6.86301 55.1799C10.6551 55.1799 13.7269 58.2515 13.7269 62.0429Z" fill="#F67656"/>
    <path d="M63.8899 126.371C67.6802 126.371 70.7529 123.298 70.7529 119.508C70.7529 115.717 67.6802 112.645 63.8899 112.645C60.0996 112.645 57.0269 115.717 57.0269 119.508C57.0269 123.298 60.0996 126.371 63.8899 126.371Z" fill="#D7753E"/>
    <path d="M353.932 79.2434H352.089V80.0378H353.932V79.2434Z" fill="#34495E"/>
    <path d="M313.274 86.4671L312.716 85.9091L315.181 83.4431L315.738 84.0022L313.274 86.4671ZM318.204 81.5437L317.643 80.981L319.265 79.3595L319.544 79.2419H320.733V80.0368H319.71L318.204 81.5437ZM348.604 80.0366H345.122V79.2417H348.604V80.0366ZM341.637 80.0366H338.155V79.2417H341.637V80.0366ZM334.669 80.0366H331.187V79.2417H334.669V80.0366ZM327.704 80.0366H324.219V79.2417H327.704V80.0366Z" fill="#34495E"/>
    <path d="M309.51 90.2377L308.948 89.6797L310.252 88.3755L310.813 88.9341L309.51 90.2377Z" fill="#34495E"/>
    <path d="M309.51 90.2377L308.948 89.6797L310.252 88.3755L310.813 88.9341L309.51 90.2377Z" fill="#34495E"/>
    <path d="M313.274 86.4678L312.716 85.9098L315.182 83.4437L315.739 84.0028L313.274 86.4678ZM318.204 81.5444L317.643 80.9797L319.149 79.4744V78.4514H319.941V79.6415L319.826 79.9175L318.204 81.5444ZM319.942 74.9699H319.15V71.4801H319.942V74.9699ZM319.942 67.9973H319.15V64.5162H319.942V67.9973ZM319.942 61.0338H319.15V57.5477H319.942V61.0338ZM319.942 54.0625H319.15V50.5803H319.942V54.0625Z" fill="#34495E"/>
    <path d="M319.941 45.2527H319.149V47.0968H319.941V45.2527Z" fill="#34495E"/>
    <path d="M343.618 90.692H309.231C308.821 90.692 308.492 90.3627 308.492 89.9555V55.566C308.492 55.1573 308.822 54.8284 309.231 54.8284H343.618C344.027 54.8284 344.356 55.1573 344.356 55.566V89.9555C344.357 90.3638 344.027 90.692 343.618 90.692ZM309.965 89.2208H342.879V56.3063H309.965V89.2208Z" fill="#34495E"/>
    <path d="M343.618 56.3058H309.231C308.93 56.3058 308.661 56.1221 308.548 55.8518C308.434 55.5711 308.496 55.2538 308.708 55.0448L319.024 44.7327C319.161 44.5955 319.351 44.5166 319.544 44.5166H353.934C354.231 44.5166 354.503 44.6914 354.616 44.9696C354.73 45.2488 354.668 45.5652 354.457 45.7722L344.14 56.0908C344.001 56.225 343.815 56.3058 343.618 56.3058ZM311.008 54.8274H343.311L352.153 45.9866H319.851L311.008 54.8274Z" fill="#34495E"/>
    <path d="M343.618 90.6915C343.522 90.6915 343.428 90.6744 343.336 90.6394C343.061 90.5242 342.879 90.2532 342.879 89.9548V55.5652C342.879 55.3689 342.959 55.1861 343.095 55.0437L353.411 44.7316C353.622 44.5191 353.939 44.4517 354.215 44.5671C354.491 44.6819 354.673 44.9533 354.673 45.2528V79.6394C354.673 79.8361 354.593 80.0219 354.457 80.1639L344.141 90.4751C343.998 90.6225 343.811 90.6915 343.618 90.6915ZM344.357 55.8733V88.1753L353.195 79.3334V47.0297L344.357 55.8733Z" fill="#34495E"/>
    <path d="M326.559 93.9312C325.724 93.9312 324.964 94.1957 324.355 94.7792L324.831 95.5706C325.279 95.1154 325.798 94.8972 326.385 94.8972C327.102 94.8972 327.613 95.2715 327.613 95.8742V96.6606C327.223 96.2107 326.625 95.9831 325.908 95.9831C325.048 95.9831 324.094 96.4867 324.094 97.7008C324.094 98.8567 325.062 99.4391 325.908 99.4391C326.603 99.4391 327.223 99.1908 327.613 98.7355V99.3097H328.754V95.8249C328.754 94.4224 327.733 93.9312 326.559 93.9312ZM327.613 98.1166C327.342 98.4718 326.854 98.6599 326.365 98.6599C325.724 98.6599 325.236 98.2858 325.236 97.7111C325.236 97.1495 325.724 96.765 326.365 96.765C326.854 96.765 327.342 96.9519 327.613 97.3135V98.1166Z" fill="#34495E"/>
    <path d="M302.568 70.944C301.916 70.944 301.309 71.2338 300.885 71.7985V69.0725H299.745V76.3174H300.885V75.6049C301.289 76.1205 301.896 76.4477 302.568 76.4477C303.915 76.4477 304.905 75.4274 304.905 73.6914C304.906 71.9954 303.925 70.944 302.568 70.944ZM302.242 75.4382C301.699 75.4382 301.146 75.1344 300.885 74.7482V72.6554C301.146 72.2688 301.699 71.9546 302.242 71.9546C303.145 71.9546 303.722 72.6841 303.722 73.6929C303.722 74.7102 303.145 75.4382 302.242 75.4382Z" fill="#34495E"/>
    <path d="M354.738 89.6852C353.791 89.6852 353.15 88.9557 353.15 87.9369C353.15 86.9119 353.791 86.2 354.738 86.2C355.247 86.2 355.652 86.3904 355.943 86.8023L356.692 86.1222C356.322 85.6187 355.716 85.1843 354.684 85.1843C353.098 85.1843 351.98 86.3494 351.98 87.9369C351.98 89.5188 353.098 90.6928 354.684 90.6928C355.716 90.6928 356.322 90.2495 356.692 89.7626L355.943 89.054C355.651 89.4691 355.247 89.6852 354.738 89.6852Z" fill="#34495E"/>
    <path d="M330.774 18.7383L330.028 17.9922L322.074 25.9413L322.82 26.6874L330.774 18.7383Z" fill="#34495E"/>
    <path d="M329.156 26.8386C328.181 26.8386 327.389 26.0474 327.389 25.0719C327.389 24.0964 328.18 23.3052 329.156 23.3052C330.13 23.3052 330.924 24.0964 330.924 25.0719C330.924 26.0474 330.13 26.8386 329.156 26.8386ZM329.156 24.3542C328.762 24.3542 328.441 24.6755 328.441 25.0719C328.441 25.4684 328.762 25.7896 329.156 25.7896C329.552 25.7896 329.872 25.4682 329.872 25.0719C329.872 24.6753 329.552 24.3542 329.156 24.3542Z" fill="#34495E"/>
    <path d="M323.69 21.3763C322.715 21.3763 321.921 20.5798 321.921 19.604C321.921 18.6276 322.715 17.8367 323.69 17.8367C324.666 17.8367 325.46 18.6278 325.46 19.604C325.46 20.5793 324.666 21.3763 323.69 21.3763ZM323.69 18.8919C323.297 18.8919 322.975 19.2133 322.975 19.6042C322.975 19.9997 323.296 20.3213 323.69 20.3213C324.086 20.3213 324.404 19.9997 324.404 19.6042C324.404 19.2131 324.086 18.8919 323.69 18.8919Z" fill="#34495E"/>
    <path d="M348.007 35.3533H340.707V36.4092H348.007V35.3533Z" fill="#34495E"/>
    <path d="M344.882 32.2327H343.831V39.5374H344.882V32.2327Z" fill="#34495E"/>
    <path d="M371.508 101.919H364.208V102.975H371.508V101.919Z" fill="#34495E"/>
    <path d="M371.508 98.9092H364.208V99.9651H371.508V98.9092Z" fill="#34495E"/>
    <path d="M347.483 11.3832L347.113 11.0189C346.203 10.1054 344.622 10.1054 343.712 11.0189L343.341 11.3832L342.596 10.6363L342.967 10.2709C344.271 8.96667 346.55 8.96667 347.855 10.2728L348.225 10.6383L347.483 11.3832Z" fill="#34495E"/>
    <path d="M350.297 12.7679C349.374 12.7679 348.502 12.4103 347.849 11.758L347.482 11.3829L348.225 10.6379L348.595 11.0127C349.503 11.9167 351.087 11.9167 351.995 11.0127L352.365 10.6379L353.113 11.3811L352.742 11.7563C352.09 12.41 351.222 12.7679 350.297 12.7679Z" fill="#34495E"/>
    <defs>
        <linearGradient id="paint0_linear" x1="147" y1="0.999992" x2="147" y2="231" gradientUnits="userSpaceOnUse">
            <stop stop-color="white" stop-opacity="0.37"/>
            <stop offset="1" stop-color="white" stop-opacity="0"/>
        </linearGradient>
        <clipPath id="clip0">
            <rect x="79.7446" width="220" height="220" fill="white"/>
        </clipPath>
    </defs>
</svg>
