<?xml version="1.0" encoding="utf-8"?>
<!-- Generator: Adobe Illustrator 25.0.1, SVG Export Plug-In . SVG Version: 6.00 Build 0)  -->
<svg version="1.1" id="Layer_1" xmlns="http://www.w3.org/2000/svg" xmlns:xlink="http://www.w3.org/1999/xlink" x="0px" y="0px"
	 viewBox="0 0 206 80" style="enable-background:new 0 0 206 80;" xml:space="preserve">
<style type="text/css">
	.st0{fill:#FFFFFF;stroke:#D7753E;}
	.st1{fill:#5BBCBD;}
	.st2{fill:#FFFFFF;}
	.st3{fill:#E5A84F;}
	.st4{fill:url(#SVGID_1_);}
	.st5{fill:#FFDC54;}
	.st6{fill:#377B7B;}
	.st7{fill:#60E4E6;}
</style>
<path class="st0" d="M198,21.5H82.9C76.3,9,63.1,0.5,48,0.5S19.7,9,13.1,21.5H8c-4.1,0-7.5,3.4-7.5,7.5v23c0,4.1,3.4,7.5,7.5,7.5
	h5.7c6.8,11.9,19.6,20,34.3,20s27.6-8.1,34.3-20H198c4.1,0,7.5-3.4,7.5-7.5V29C205.5,24.9,202.1,21.5,198,21.5z"/>
<path class="st1" d="M110,33.7L104.9,48h-1.8L98,33.7h1.9l3.2,9.2c0.2,0.6,0.4,1.1,0.5,1.7c0.1,0.5,0.3,1,0.4,1.5
	c0.1-0.5,0.2-1,0.4-1.5s0.3-1.1,0.5-1.7l3.2-9.1h1.9V33.7z M112.6,33.3c0.3,0,0.5,0.1,0.7,0.3s0.3,0.5,0.3,0.8
	c0,0.4-0.1,0.7-0.3,0.8c-0.2,0.2-0.4,0.3-0.7,0.3c-0.3,0-0.5-0.1-0.7-0.3s-0.3-0.5-0.3-0.8c0-0.4,0.1-0.7,0.3-0.8
	C112.1,33.4,112.3,33.3,112.6,33.3z M113.5,37.3V48h-1.8V37.3H113.5z M123.8,45c0,1-0.4,1.8-1.2,2.4c-0.8,0.5-1.8,0.8-3.1,0.8
	c-0.7,0-1.4-0.1-1.9-0.2c-0.5-0.1-1-0.3-1.4-0.5v-1.6c0.4,0.2,0.9,0.4,1.5,0.6c0.6,0.2,1.2,0.3,1.9,0.3c0.9,0,1.5-0.1,1.9-0.4
	c0.4-0.3,0.6-0.7,0.6-1.2c0-0.3-0.1-0.5-0.2-0.7s-0.4-0.4-0.8-0.6c-0.4-0.2-0.9-0.5-1.6-0.7c-0.7-0.3-1.3-0.5-1.8-0.8
	s-0.9-0.6-1.1-1c-0.3-0.4-0.4-0.9-0.4-1.4c0-0.9,0.4-1.6,1.1-2.1s1.7-0.7,2.9-0.7c0.7,0,1.3,0.1,1.8,0.2c0.6,0.1,1.1,0.3,1.6,0.5
	l-0.6,1.4c-0.5-0.2-0.9-0.3-1.4-0.5c-0.5-0.1-1-0.2-1.5-0.2c-0.7,0-1.3,0.1-1.7,0.4c-0.4,0.2-0.6,0.5-0.6,0.9c0,0.3,0.1,0.5,0.3,0.8
	c0.2,0.2,0.5,0.4,0.9,0.6c0.4,0.2,1,0.4,1.6,0.7c0.7,0.3,1.3,0.5,1.7,0.8s0.8,0.6,1.1,1C123.7,44,123.8,44.5,123.8,45z M135.4,37.3
	V48H134l-0.3-1.4h-0.1c-0.3,0.6-0.8,1-1.4,1.2c-0.6,0.3-1.3,0.4-2,0.4c-1.3,0-2.3-0.3-2.9-0.9c-0.7-0.6-1-1.6-1-3v-7h1.8v6.9
	c0,1.7,0.8,2.6,2.4,2.6c1.2,0,2-0.3,2.5-1s0.7-1.6,0.7-2.9v-5.6H135.4z M142.8,37.1c1.3,0,2.3,0.3,2.9,0.9s0.9,1.5,0.9,2.7V48h-1.3
	l-0.3-1.5h0c-0.5,0.6-1,1-1.5,1.3s-1.2,0.4-2.1,0.4c-1,0-1.8-0.3-2.4-0.8c-0.6-0.5-1-1.3-1-2.4c0-1.1,0.4-1.9,1.3-2.5
	c0.8-0.6,2.1-0.9,3.9-1l1.8-0.1v-0.6c0-0.9-0.2-1.5-0.6-1.9c-0.4-0.3-0.9-0.5-1.6-0.5c-0.6,0-1.1,0.1-1.6,0.3s-1,0.3-1.4,0.6
	l-0.5-1.3c0.5-0.3,1-0.5,1.7-0.6C141.5,37.2,142.1,37.1,142.8,37.1z M144.9,42.8l-1.6,0.1c-1.3,0.1-2.3,0.3-2.8,0.6
	c-0.5,0.4-0.8,0.9-0.8,1.6c0,0.6,0.2,1,0.5,1.3c0.4,0.3,0.8,0.4,1.4,0.4c0.9,0,1.7-0.2,2.3-0.7s0.9-1.3,0.9-2.3v-1H144.9z M151.8,48
	H150V32.8h1.8V48z"/>
<rect x="80" y="22" class="st2" width="8" height="37"/>
<path class="st3" d="M66.3,20.4H29.5c-3,0-5.5,2.5-5.5,5.5v27.5c0,3,2.5,5.5,5.5,5.5h36.7c3,0,5.5-2.5,5.5-5.5V26
	C71.8,22.9,69.3,20.4,66.3,20.4z"/>
<linearGradient id="SVGID_1_" gradientUnits="userSpaceOnUse" x1="47.9" y1="806.1199" x2="47.9" y2="837.3284" gradientTransform="matrix(1 0 0 1 0 -782)">
	<stop  offset="0" style="stop-color:#5BBCBD"/>
	<stop  offset="1" style="stop-color:#616FF2"/>
</linearGradient>
<path class="st4" d="M66.3,55.3c1,0,1.8-0.8,1.8-1.8V26c0-1-0.8-1.8-1.8-1.8H29.5c-1,0-1.8,0.8-1.8,1.8v27.5c0,1,0.8,1.8,1.8,1.8
	H66.3z"/>
<path class="st5" d="M52.5,34.2c1.5,0,2.8-1.2,2.8-2.8s-1.2-2.8-2.8-2.8c-1.5,0-2.8,1.2-2.8,2.8S51,34.2,52.5,34.2z"/>
<path class="st6" d="M68.1,37v16.5c0,1-0.8,1.8-1.8,1.8h-9.2c-1.7-4.5-4.5-8.6-8.1-11.9C54.6,39.4,61.2,37.2,68.1,37z"/>
<path class="st7" d="M57.1,55.3H29.5c-1,0-1.8-0.8-1.8-1.8V35.1c3.1,0.1,13.2,0.9,21.3,8.3C52.6,46.7,55.4,50.8,57.1,55.3z"/>
</svg>
